M48
;DRILL file {KiCad 4.0.7} date 06/04/18 00:28:47
;FORMAT={-:-/ absolute / metric / decimal}
FMAT,2
METRIC,TZ
T1C0.250
T2C0.991
T3C1.092
T4C1.100
T5C1.200
T6C3.200
T7C0.991
T8C1.200
T9C1.700
T10C3.400
%
G90
G05
M71
T1
X119.338Y-27.962
X119.338Y-29.962
X119.338Y-35.074
X119.338Y-37.074
X119.358Y-31.972
X119.358Y-39.084
T2
X28.702Y-47.016
X28.702Y-65.304
X28.702Y-83.592
X28.702Y-101.88
X31.242Y-47.016
X31.242Y-65.304
X31.242Y-83.592
X31.242Y-101.88
X39.624Y-48.006
X39.624Y-55.626
X39.624Y-66.294
X39.624Y-73.914
X39.624Y-84.582
X39.624Y-92.202
X39.624Y-102.87
X39.624Y-110.49
X48.006Y-47.016
X48.006Y-65.304
X48.006Y-83.592
X48.006Y-101.88
X50.546Y-47.016
X50.546Y-65.304
X50.546Y-83.592
X50.546Y-101.88
X58.928Y-48.006
X58.928Y-55.626
X58.928Y-66.294
X58.928Y-73.914
X58.928Y-84.582
X58.928Y-92.202
X58.928Y-102.87
X58.928Y-110.49
X67.31Y-47.016
X67.31Y-65.304
X67.31Y-83.592
X67.31Y-101.88
X69.85Y-47.016
X69.85Y-65.304
X69.85Y-83.592
X69.85Y-101.88
X78.232Y-48.006
X78.232Y-55.626
X78.232Y-66.294
X78.232Y-73.914
X78.232Y-84.582
X78.232Y-92.202
X78.232Y-102.87
X78.232Y-110.49
X86.614Y-47.016
X86.614Y-65.304
X86.614Y-83.592
X86.614Y-101.88
X89.154Y-47.016
X89.154Y-65.304
X89.154Y-83.592
X89.154Y-101.88
X97.536Y-48.006
X97.536Y-55.626
X97.536Y-66.294
X97.536Y-73.914
X97.536Y-84.582
X97.536Y-92.202
X97.536Y-102.87
X97.536Y-110.49
X105.918Y-47.016
X105.918Y-65.304
X105.918Y-83.592
X105.918Y-101.88
X108.458Y-47.016
X108.458Y-65.304
X108.458Y-83.592
X108.458Y-101.88
X116.84Y-48.006
X116.84Y-55.626
X116.84Y-66.294
X116.84Y-73.914
X116.84Y-84.582
X116.84Y-92.202
X116.84Y-102.87
X116.84Y-110.49
X125.222Y-47.016
X125.222Y-65.304
X125.222Y-83.592
X125.222Y-101.88
X127.762Y-47.016
X127.762Y-65.304
X127.762Y-83.592
X127.762Y-101.88
X136.144Y-66.294
X136.144Y-73.914
X136.144Y-84.582
X136.144Y-92.202
X136.144Y-102.87
X136.144Y-110.49
X136.652Y-48.006
X136.652Y-55.626
T3
X130.835Y-24.841
X130.835Y-32.055
X133.934Y-26.848
X133.934Y-30.048
T4
X87.63Y-25.4
X87.63Y-40.64
X90.17Y-25.4
X90.17Y-40.64
X92.71Y-25.4
X92.71Y-40.64
X95.25Y-25.4
X95.25Y-40.64
X97.79Y-25.4
X97.79Y-40.64
X100.33Y-25.4
X100.33Y-40.64
X102.87Y-25.4
X102.87Y-40.64
X105.41Y-25.4
X105.41Y-40.64
X107.95Y-25.4
X107.95Y-40.64
X110.49Y-25.4
X110.49Y-40.64
X113.03Y-25.4
X113.03Y-40.64
X115.57Y-25.4
X115.57Y-40.64
T5
X24.972Y-55.616
X24.972Y-73.904
X24.972Y-92.192
X24.972Y-110.48
X29.972Y-57.716
X29.972Y-76.004
X29.972Y-94.292
X29.972Y-112.58
X34.972Y-55.616
X34.972Y-73.904
X34.972Y-92.192
X34.972Y-110.48
X44.276Y-55.616
X44.276Y-73.904
X44.276Y-92.192
X44.276Y-110.48
X49.276Y-57.716
X49.276Y-76.004
X49.276Y-94.292
X49.276Y-112.58
X54.276Y-55.616
X54.276Y-73.904
X54.276Y-92.192
X54.276Y-110.48
X63.58Y-55.616
X63.58Y-73.904
X63.58Y-92.192
X63.58Y-110.48
X68.58Y-57.716
X68.58Y-76.004
X68.58Y-94.292
X68.58Y-112.58
X73.58Y-55.616
X73.58Y-73.904
X73.58Y-92.192
X73.58Y-110.48
X82.884Y-55.616
X82.884Y-73.904
X82.884Y-92.192
X82.884Y-110.48
X87.884Y-57.716
X87.884Y-76.004
X87.884Y-94.292
X87.884Y-112.58
X92.884Y-55.616
X92.884Y-73.904
X92.884Y-92.192
X92.884Y-110.48
X102.188Y-55.616
X102.188Y-73.904
X102.188Y-92.192
X102.188Y-110.48
X107.188Y-57.716
X107.188Y-76.004
X107.188Y-94.292
X107.188Y-112.58
X112.188Y-55.616
X112.188Y-73.904
X112.188Y-92.192
X112.188Y-110.48
X121.492Y-55.616
X121.492Y-73.904
X121.492Y-92.192
X121.492Y-110.48
X126.492Y-57.716
X126.492Y-76.004
X126.492Y-94.292
X126.492Y-112.58
X131.492Y-55.616
X131.492Y-73.904
X131.492Y-92.192
X131.492Y-110.48
T6
X39.624Y-60.96
X39.624Y-97.536
X78.232Y-60.96
X78.232Y-97.536
X116.84Y-60.96
X116.84Y-97.536
X130.048Y-38.608
T7
X125.832Y-28.448
X130.835Y-28.448
T8
X24.752Y-47.616
X24.752Y-65.904
X24.752Y-84.192
X24.752Y-102.48
X35.192Y-47.616
X35.192Y-65.904
X35.192Y-84.192
X35.192Y-102.48
X44.056Y-47.616
X44.056Y-65.904
X44.056Y-84.192
X44.056Y-102.48
X54.496Y-47.616
X54.496Y-65.904
X54.496Y-84.192
X54.496Y-102.48
X63.36Y-47.616
X63.36Y-65.904
X63.36Y-84.192
X63.36Y-102.48
X73.8Y-47.616
X73.8Y-65.904
X73.8Y-84.192
X73.8Y-102.48
X82.664Y-47.616
X82.664Y-65.904
X82.664Y-84.192
X82.664Y-102.48
X93.104Y-47.616
X93.104Y-65.904
X93.104Y-84.192
X93.104Y-102.48
X101.968Y-47.616
X101.968Y-65.904
X101.968Y-84.192
X101.968Y-102.48
X112.408Y-47.616
X112.408Y-65.904
X112.408Y-84.192
X112.408Y-102.48
X121.272Y-47.616
X121.272Y-65.904
X121.272Y-84.192
X121.272Y-102.48
X131.712Y-47.616
X131.712Y-65.904
X131.712Y-84.192
X131.712Y-102.48
T9
X24.472Y-51.816
X24.472Y-70.104
X24.472Y-88.392
X24.472Y-106.68
X35.472Y-51.816
X35.472Y-70.104
X35.472Y-88.392
X35.472Y-106.68
X43.776Y-51.816
X43.776Y-70.104
X43.776Y-88.392
X43.776Y-106.68
X54.776Y-51.816
X54.776Y-70.104
X54.776Y-88.392
X54.776Y-106.68
X63.08Y-51.816
X63.08Y-70.104
X63.08Y-88.392
X63.08Y-106.68
X74.08Y-51.816
X74.08Y-70.104
X74.08Y-88.392
X74.08Y-106.68
X82.384Y-51.816
X82.384Y-70.104
X82.384Y-88.392
X82.384Y-106.68
X93.384Y-51.816
X93.384Y-70.104
X93.384Y-88.392
X93.384Y-106.68
X101.688Y-51.816
X101.688Y-70.104
X101.688Y-88.392
X101.688Y-106.68
X112.688Y-51.816
X112.688Y-70.104
X112.688Y-88.392
X112.688Y-106.68
X120.992Y-51.816
X120.992Y-70.104
X120.992Y-88.392
X120.992Y-106.68
X131.992Y-51.816
X131.992Y-70.104
X131.992Y-88.392
X131.992Y-106.68
T10
X29.972Y-51.816
X29.972Y-70.104
X29.972Y-88.392
X29.972Y-106.68
X49.276Y-51.816
X49.276Y-70.104
X49.276Y-88.392
X49.276Y-106.68
X68.58Y-51.816
X68.58Y-70.104
X68.58Y-88.392
X68.58Y-106.68
X87.884Y-51.816
X87.884Y-70.104
X87.884Y-88.392
X87.884Y-106.68
X107.188Y-51.816
X107.188Y-70.104
X107.188Y-88.392
X107.188Y-106.68
X126.492Y-51.816
X126.492Y-70.104
X126.492Y-88.392
X126.492Y-106.68
T3
X125.832Y-23.647G85X125.832Y-23.952
G05
X125.832Y-32.944G85X125.832Y-33.249
G05
T0
M30
