  0
SECTION
  2
HEADER
  9
$ANGBASE
  50
0.0
  9
$ANGDIR
  70
  1
  9
$MEASUREMENT
  70
0
  0
ENDSEC
  0
SECTION
  2
TABLES
  0
TABLE
  2
LTYPE
  70
1
  0
LTYPE
  2
CONTINUOUS
  70
0
  3
Solid line
  72
65
  73
0
  40
0.0
  0
ENDTAB
  0
TABLE
  2
STYLE
  70
4
  0
STYLE
  2
KICAD
  70
0
  40
0
  41
1
  42
1
  50
0
  71
0
  3
isocp.shx
  0
STYLE
  2
KICADB
  70
0
  40
0
  41
1
  42
1
  50
0
  71
0
  3
isocp.shx
  0
STYLE
  2
KICADI
  70
0
  40
0
  41
1
  42
1
  50
15
  71
0
  3
isocp.shx
  0
STYLE
  2
KICADBI
  70
0
  40
0
  41
1
  42
1
  50
15
  71
0
  3
isocp.shx
  0
ENDTAB
  0
TABLE
  2
LAYER
  70
30
  0
LAYER
  2
BLACK
  70
0
  62
7
  6
CONTINUOUS
  0
LAYER
  2
GRAY1
  70
0
  62
251
  6
CONTINUOUS
  0
LAYER
  2
GRAY2
  70
0
  62
8
  6
CONTINUOUS
  0
LAYER
  2
GRAY3
  70
0
  62
9
  6
CONTINUOUS
  0
LAYER
  2
WHITE
  70
0
  62
7
  6
CONTINUOUS
  0
LAYER
  2
LYELLOW
  70
0
  62
51
  6
CONTINUOUS
  0
LAYER
  2
BLUE1
  70
0
  62
178
  6
CONTINUOUS
  0
LAYER
  2
GREEN1
  70
0
  62
98
  6
CONTINUOUS
  0
LAYER
  2
CYAN1
  70
0
  62
138
  6
CONTINUOUS
  0
LAYER
  2
RED1
  70
0
  62
18
  6
CONTINUOUS
  0
LAYER
  2
MAGENTA1
  70
0
  62
228
  6
CONTINUOUS
  0
LAYER
  2
BROWN1
  70
0
  62
58
  6
CONTINUOUS
  0
LAYER
  2
BLUE2
  70
0
  62
5
  6
CONTINUOUS
  0
LAYER
  2
GREEN2
  70
0
  62
3
  6
CONTINUOUS
  0
LAYER
  2
CYAN2
  70
0
  62
4
  6
CONTINUOUS
  0
LAYER
  2
RED2
  70
0
  62
1
  6
CONTINUOUS
  0
LAYER
  2
MAGENTA2
  70
0
  62
6
  6
CONTINUOUS
  0
LAYER
  2
BROWN2
  70
0
  62
54
  6
CONTINUOUS
  0
LAYER
  2
BLUE3
  70
0
  62
171
  6
CONTINUOUS
  0
LAYER
  2
GREEN3
  70
0
  62
91
  6
CONTINUOUS
  0
LAYER
  2
CYAN3
  70
0
  62
131
  6
CONTINUOUS
  0
LAYER
  2
RED3
  70
0
  62
11
  6
CONTINUOUS
  0
LAYER
  2
MAGENTA3
  70
0
  62
221
  6
CONTINUOUS
  0
LAYER
  2
YELLOW3
  70
0
  62
2
  6
CONTINUOUS
  0
LAYER
  2
BLUE4
  70
0
  62
5
  6
CONTINUOUS
  0
LAYER
  2
GREEN4
  70
0
  62
3
  6
CONTINUOUS
  0
LAYER
  2
CYAN4
  70
0
  62
4
  6
CONTINUOUS
  0
LAYER
  2
RED4
  70
0
  62
1
  6
CONTINUOUS
  0
LAYER
  2
MAGENTA4
  70
0
  62
6
  6
CONTINUOUS
  0
LAYER
  2
YELLOW4
  70
0
  62
2
  6
CONTINUOUS
  0
ENDTAB
  0
ENDSEC
  0
SECTION
  2
ENTITIES
0
LINE
8
Black
10
68.58
20
-22.86
11
134.62
21
-22.86
0
LINE
8
Black
10
20.32
20
-43.815
11
20.32
21
-43.18
0
LINE
8
Black
10
53.34
20
-43.18
11
68.58
21
-22.86
0
LINE
8
Black
10
20.32
20
-43.18
11
53.34
21
-43.18
0
LINE
8
Black
10
134.62
20
-117.475
11
134.62
21
-22.86
0
LINE
8
Black
10
20.32
20
-117.475
11
134.62
21
-117.475
0
LINE
8
Black
10
20.32
20
-43.815
11
20.32
21
-117.475
0
LINE
8
Black
10
122.97
20
-24.65
11
123.22
21
-24.9
0
LINE
8
Black
10
123.22
20
-24.65
11
122.97
21
-24.9
0
LINE
8
Black
10
122.97
20
-39.255
11
123.22
21
-39.505
0
LINE
8
Black
10
123.22
20
-39.255
11
122.97
21
-39.505
0
LINE
8
Black
10
124.98
20
-24.63
11
125.23
21
-24.88
0
LINE
8
Black
10
125.23
20
-24.63
11
124.98
21
-24.88
0
LINE
8
Black
10
124.98
20
-39.235
11
125.23
21
-39.485
0
LINE
8
Black
10
125.23
20
-39.235
11
124.98
21
-39.485
0
LINE
8
Black
10
126.98
20
-24.63
11
127.23
21
-24.88
0
LINE
8
Black
10
127.23
20
-24.63
11
126.98
21
-24.88
0
LINE
8
Black
10
126.98
20
-39.235
11
127.23
21
-39.485
0
LINE
8
Black
10
127.23
20
-39.235
11
126.98
21
-39.485
0
CIRCLE
8
Black
10
104.14
20
-39.37
40
0.2
0
CIRCLE
8
Black
10
120.015
20
-34.925
40
0.2
0
CIRCLE
8
Black
10
120.015
20
-41.275
40
0.2
0
LINE
8
Black
10
28.575
20
-47.4097
11
28.575
21
-48.4003
0
LINE
8
Black
10
28.0797
20
-47.905
11
29.0703
21
-47.905
0
LINE
8
Black
10
28.575
20
-64.5547
11
28.575
21
-65.5453
0
LINE
8
Black
10
28.0797
20
-65.05
11
29.0703
21
-65.05
0
LINE
8
Black
10
28.575
20
-81.6997
11
28.575
21
-82.6903
0
LINE
8
Black
10
28.0797
20
-82.195
11
29.0703
21
-82.195
0
LINE
8
Black
10
28.575
20
-98.8447
11
28.575
21
-99.8353
0
LINE
8
Black
10
28.0797
20
-99.34
11
29.0703
21
-99.34
0
LINE
8
Black
10
31.115
20
-47.4097
11
31.115
21
-48.4003
0
LINE
8
Black
10
30.6197
20
-47.905
11
31.6103
21
-47.905
0
LINE
8
Black
10
31.115
20
-64.5547
11
31.115
21
-65.5453
0
LINE
8
Black
10
30.6197
20
-65.05
11
31.6103
21
-65.05
0
LINE
8
Black
10
31.115
20
-81.6997
11
31.115
21
-82.6903
0
LINE
8
Black
10
30.6197
20
-82.195
11
31.6103
21
-82.195
0
LINE
8
Black
10
31.115
20
-98.8447
11
31.115
21
-99.8353
0
LINE
8
Black
10
30.6197
20
-99.34
11
31.6103
21
-99.34
0
LINE
8
Black
10
38.735
20
-56.0197
11
38.735
21
-57.0103
0
LINE
8
Black
10
38.2397
20
-56.515
11
39.2303
21
-56.515
0
LINE
8
Black
10
38.735
20
-63.6397
11
38.735
21
-64.6303
0
LINE
8
Black
10
38.2397
20
-64.135
11
39.2303
21
-64.135
0
LINE
8
Black
10
38.735
20
-73.1647
11
38.735
21
-74.1553
0
LINE
8
Black
10
38.2397
20
-73.66
11
39.2303
21
-73.66
0
LINE
8
Black
10
38.735
20
-80.7847
11
38.735
21
-81.7753
0
LINE
8
Black
10
38.2397
20
-81.28
11
39.2303
21
-81.28
0
LINE
8
Black
10
38.735
20
-90.3097
11
38.735
21
-91.3003
0
LINE
8
Black
10
38.2397
20
-90.805
11
39.2303
21
-90.805
0
LINE
8
Black
10
38.735
20
-97.9297
11
38.735
21
-98.9203
0
LINE
8
Black
10
38.2397
20
-98.425
11
39.2303
21
-98.425
0
LINE
8
Black
10
38.735
20
-107.455
11
38.735
21
-108.445
0
LINE
8
Black
10
38.2397
20
-107.95
11
39.2303
21
-107.95
0
LINE
8
Black
10
38.735
20
-115.075
11
38.735
21
-116.065
0
LINE
8
Black
10
38.2397
20
-115.57
11
39.2303
21
-115.57
0
LINE
8
Black
10
46.99
20
-47.4097
11
46.99
21
-48.4003
0
LINE
8
Black
10
46.4947
20
-47.905
11
47.4853
21
-47.905
0
LINE
8
Black
10
46.99
20
-64.5547
11
46.99
21
-65.5453
0
LINE
8
Black
10
46.4947
20
-65.05
11
47.4853
21
-65.05
0
LINE
8
Black
10
46.99
20
-81.6997
11
46.99
21
-82.6903
0
LINE
8
Black
10
46.4947
20
-82.195
11
47.4853
21
-82.195
0
LINE
8
Black
10
46.99
20
-98.8447
11
46.99
21
-99.8353
0
LINE
8
Black
10
46.4947
20
-99.34
11
47.4853
21
-99.34
0
LINE
8
Black
10
49.53
20
-47.4097
11
49.53
21
-48.4003
0
LINE
8
Black
10
49.0347
20
-47.905
11
50.0253
21
-47.905
0
LINE
8
Black
10
49.53
20
-64.5547
11
49.53
21
-65.5453
0
LINE
8
Black
10
49.0347
20
-65.05
11
50.0253
21
-65.05
0
LINE
8
Black
10
49.53
20
-81.6997
11
49.53
21
-82.6903
0
LINE
8
Black
10
49.0347
20
-82.195
11
50.0253
21
-82.195
0
LINE
8
Black
10
49.53
20
-98.8447
11
49.53
21
-99.8353
0
LINE
8
Black
10
49.0347
20
-99.34
11
50.0253
21
-99.34
0
LINE
8
Black
10
57.15
20
-56.0197
11
57.15
21
-57.0103
0
LINE
8
Black
10
56.6547
20
-56.515
11
57.6453
21
-56.515
0
LINE
8
Black
10
57.15
20
-63.6397
11
57.15
21
-64.6303
0
LINE
8
Black
10
56.6547
20
-64.135
11
57.6453
21
-64.135
0
LINE
8
Black
10
57.15
20
-73.1647
11
57.15
21
-74.1553
0
LINE
8
Black
10
56.6547
20
-73.66
11
57.6453
21
-73.66
0
LINE
8
Black
10
57.15
20
-80.7847
11
57.15
21
-81.7753
0
LINE
8
Black
10
56.6547
20
-81.28
11
57.6453
21
-81.28
0
LINE
8
Black
10
57.15
20
-90.3097
11
57.15
21
-91.3003
0
LINE
8
Black
10
56.6547
20
-90.805
11
57.6453
21
-90.805
0
LINE
8
Black
10
57.15
20
-97.9297
11
57.15
21
-98.9203
0
LINE
8
Black
10
56.6547
20
-98.425
11
57.6453
21
-98.425
0
LINE
8
Black
10
57.15
20
-107.455
11
57.15
21
-108.445
0
LINE
8
Black
10
56.6547
20
-107.95
11
57.6453
21
-107.95
0
LINE
8
Black
10
57.15
20
-115.075
11
57.15
21
-116.065
0
LINE
8
Black
10
56.6547
20
-115.57
11
57.6453
21
-115.57
0
LINE
8
Black
10
65.405
20
-47.4097
11
65.405
21
-48.4003
0
LINE
8
Black
10
64.9097
20
-47.905
11
65.9003
21
-47.905
0
LINE
8
Black
10
65.405
20
-64.5547
11
65.405
21
-65.5453
0
LINE
8
Black
10
64.9097
20
-65.05
11
65.9003
21
-65.05
0
LINE
8
Black
10
65.405
20
-81.6997
11
65.405
21
-82.6903
0
LINE
8
Black
10
64.9097
20
-82.195
11
65.9003
21
-82.195
0
LINE
8
Black
10
65.405
20
-98.8447
11
65.405
21
-99.8353
0
LINE
8
Black
10
64.9097
20
-99.34
11
65.9003
21
-99.34
0
LINE
8
Black
10
67.945
20
-47.4097
11
67.945
21
-48.4003
0
LINE
8
Black
10
67.4497
20
-47.905
11
68.4403
21
-47.905
0
LINE
8
Black
10
67.945
20
-64.5547
11
67.945
21
-65.5453
0
LINE
8
Black
10
67.4497
20
-65.05
11
68.4403
21
-65.05
0
LINE
8
Black
10
67.945
20
-81.6997
11
67.945
21
-82.6903
0
LINE
8
Black
10
67.4497
20
-82.195
11
68.4403
21
-82.195
0
LINE
8
Black
10
67.945
20
-98.8447
11
67.945
21
-99.8353
0
LINE
8
Black
10
67.4497
20
-99.34
11
68.4403
21
-99.34
0
LINE
8
Black
10
75.565
20
-56.0197
11
75.565
21
-57.0103
0
LINE
8
Black
10
75.0697
20
-56.515
11
76.0603
21
-56.515
0
LINE
8
Black
10
75.565
20
-63.6397
11
75.565
21
-64.6303
0
LINE
8
Black
10
75.0697
20
-64.135
11
76.0603
21
-64.135
0
LINE
8
Black
10
75.565
20
-73.1647
11
75.565
21
-74.1553
0
LINE
8
Black
10
75.0697
20
-73.66
11
76.0603
21
-73.66
0
LINE
8
Black
10
75.565
20
-80.7847
11
75.565
21
-81.7753
0
LINE
8
Black
10
75.0697
20
-81.28
11
76.0603
21
-81.28
0
LINE
8
Black
10
75.565
20
-90.3097
11
75.565
21
-91.3003
0
LINE
8
Black
10
75.0697
20
-90.805
11
76.0603
21
-90.805
0
LINE
8
Black
10
75.565
20
-97.9297
11
75.565
21
-98.9203
0
LINE
8
Black
10
75.0697
20
-98.425
11
76.0603
21
-98.425
0
LINE
8
Black
10
75.565
20
-107.455
11
75.565
21
-108.445
0
LINE
8
Black
10
75.0697
20
-107.95
11
76.0603
21
-107.95
0
LINE
8
Black
10
75.565
20
-115.075
11
75.565
21
-116.065
0
LINE
8
Black
10
75.0697
20
-115.57
11
76.0603
21
-115.57
0
LINE
8
Black
10
83.82
20
-47.4097
11
83.82
21
-48.4003
0
LINE
8
Black
10
83.3247
20
-47.905
11
84.3153
21
-47.905
0
LINE
8
Black
10
83.82
20
-64.5547
11
83.82
21
-65.5453
0
LINE
8
Black
10
83.3247
20
-65.05
11
84.3153
21
-65.05
0
LINE
8
Black
10
83.82
20
-81.6997
11
83.82
21
-82.6903
0
LINE
8
Black
10
83.3247
20
-82.195
11
84.3153
21
-82.195
0
LINE
8
Black
10
83.82
20
-98.8447
11
83.82
21
-99.8353
0
LINE
8
Black
10
83.3247
20
-99.34
11
84.3153
21
-99.34
0
LINE
8
Black
10
86.36
20
-47.4097
11
86.36
21
-48.4003
0
LINE
8
Black
10
85.8647
20
-47.905
11
86.8553
21
-47.905
0
LINE
8
Black
10
86.36
20
-64.5547
11
86.36
21
-65.5453
0
LINE
8
Black
10
85.8647
20
-65.05
11
86.8553
21
-65.05
0
LINE
8
Black
10
86.36
20
-81.6997
11
86.36
21
-82.6903
0
LINE
8
Black
10
85.8647
20
-82.195
11
86.8553
21
-82.195
0
LINE
8
Black
10
86.36
20
-98.8447
11
86.36
21
-99.8353
0
LINE
8
Black
10
85.8647
20
-99.34
11
86.8553
21
-99.34
0
LINE
8
Black
10
93.98
20
-56.0197
11
93.98
21
-57.0103
0
LINE
8
Black
10
93.4847
20
-56.515
11
94.4753
21
-56.515
0
LINE
8
Black
10
93.98
20
-63.6397
11
93.98
21
-64.6303
0
LINE
8
Black
10
93.4847
20
-64.135
11
94.4753
21
-64.135
0
LINE
8
Black
10
93.98
20
-73.1647
11
93.98
21
-74.1553
0
LINE
8
Black
10
93.4847
20
-73.66
11
94.4753
21
-73.66
0
LINE
8
Black
10
93.98
20
-80.7847
11
93.98
21
-81.7753
0
LINE
8
Black
10
93.4847
20
-81.28
11
94.4753
21
-81.28
0
LINE
8
Black
10
93.98
20
-90.3097
11
93.98
21
-91.3003
0
LINE
8
Black
10
93.4847
20
-90.805
11
94.4753
21
-90.805
0
LINE
8
Black
10
93.98
20
-97.9297
11
93.98
21
-98.9203
0
LINE
8
Black
10
93.4847
20
-98.425
11
94.4753
21
-98.425
0
LINE
8
Black
10
93.98
20
-107.455
11
93.98
21
-108.445
0
LINE
8
Black
10
93.4847
20
-107.95
11
94.4753
21
-107.95
0
LINE
8
Black
10
93.98
20
-115.075
11
93.98
21
-116.065
0
LINE
8
Black
10
93.4847
20
-115.57
11
94.4753
21
-115.57
0
LINE
8
Black
10
102.235
20
-47.4097
11
102.235
21
-48.4003
0
LINE
8
Black
10
101.74
20
-47.905
11
102.73
21
-47.905
0
LINE
8
Black
10
102.235
20
-64.5547
11
102.235
21
-65.5453
0
LINE
8
Black
10
101.74
20
-65.05
11
102.73
21
-65.05
0
LINE
8
Black
10
102.235
20
-81.6997
11
102.235
21
-82.6903
0
LINE
8
Black
10
101.74
20
-82.195
11
102.73
21
-82.195
0
LINE
8
Black
10
102.235
20
-98.8447
11
102.235
21
-99.8353
0
LINE
8
Black
10
101.74
20
-99.34
11
102.73
21
-99.34
0
LINE
8
Black
10
104.775
20
-47.4097
11
104.775
21
-48.4003
0
LINE
8
Black
10
104.28
20
-47.905
11
105.27
21
-47.905
0
LINE
8
Black
10
104.775
20
-64.5547
11
104.775
21
-65.5453
0
LINE
8
Black
10
104.28
20
-65.05
11
105.27
21
-65.05
0
LINE
8
Black
10
104.775
20
-81.6997
11
104.775
21
-82.6903
0
LINE
8
Black
10
104.28
20
-82.195
11
105.27
21
-82.195
0
LINE
8
Black
10
104.775
20
-98.8447
11
104.775
21
-99.8353
0
LINE
8
Black
10
104.28
20
-99.34
11
105.27
21
-99.34
0
LINE
8
Black
10
112.395
20
-56.0197
11
112.395
21
-57.0103
0
LINE
8
Black
10
111.9
20
-56.515
11
112.89
21
-56.515
0
LINE
8
Black
10
112.395
20
-63.6397
11
112.395
21
-64.6303
0
LINE
8
Black
10
111.9
20
-64.135
11
112.89
21
-64.135
0
LINE
8
Black
10
112.395
20
-73.1647
11
112.395
21
-74.1553
0
LINE
8
Black
10
111.9
20
-73.66
11
112.89
21
-73.66
0
LINE
8
Black
10
112.395
20
-80.7847
11
112.395
21
-81.7753
0
LINE
8
Black
10
111.9
20
-81.28
11
112.89
21
-81.28
0
LINE
8
Black
10
112.395
20
-90.3097
11
112.395
21
-91.3003
0
LINE
8
Black
10
111.9
20
-90.805
11
112.89
21
-90.805
0
LINE
8
Black
10
112.395
20
-97.9297
11
112.395
21
-98.9203
0
LINE
8
Black
10
111.9
20
-98.425
11
112.89
21
-98.425
0
LINE
8
Black
10
112.395
20
-107.455
11
112.395
21
-108.445
0
LINE
8
Black
10
111.9
20
-107.95
11
112.89
21
-107.95
0
LINE
8
Black
10
112.395
20
-115.075
11
112.395
21
-116.065
0
LINE
8
Black
10
111.9
20
-115.57
11
112.89
21
-115.57
0
LINE
8
Black
10
120.65
20
-47.4097
11
120.65
21
-48.4003
0
LINE
8
Black
10
120.155
20
-47.905
11
121.145
21
-47.905
0
LINE
8
Black
10
120.65
20
-64.5547
11
120.65
21
-65.5453
0
LINE
8
Black
10
120.155
20
-65.05
11
121.145
21
-65.05
0
LINE
8
Black
10
120.65
20
-81.6997
11
120.65
21
-82.6903
0
LINE
8
Black
10
120.155
20
-82.195
11
121.145
21
-82.195
0
LINE
8
Black
10
120.65
20
-98.8447
11
120.65
21
-99.8353
0
LINE
8
Black
10
120.155
20
-99.34
11
121.145
21
-99.34
0
LINE
8
Black
10
123.19
20
-47.4097
11
123.19
21
-48.4003
0
LINE
8
Black
10
122.695
20
-47.905
11
123.685
21
-47.905
0
LINE
8
Black
10
123.19
20
-64.5547
11
123.19
21
-65.5453
0
LINE
8
Black
10
122.695
20
-65.05
11
123.685
21
-65.05
0
LINE
8
Black
10
123.19
20
-81.6997
11
123.19
21
-82.6903
0
LINE
8
Black
10
122.695
20
-82.195
11
123.685
21
-82.195
0
LINE
8
Black
10
123.19
20
-98.8447
11
123.19
21
-99.8353
0
LINE
8
Black
10
122.695
20
-99.34
11
123.685
21
-99.34
0
LINE
8
Black
10
130.81
20
-56.0197
11
130.81
21
-57.0103
0
LINE
8
Black
10
130.315
20
-56.515
11
131.305
21
-56.515
0
LINE
8
Black
10
130.81
20
-63.6397
11
130.81
21
-64.6303
0
LINE
8
Black
10
130.315
20
-64.135
11
131.305
21
-64.135
0
LINE
8
Black
10
130.81
20
-90.3097
11
130.81
21
-91.3003
0
LINE
8
Black
10
130.315
20
-90.805
11
131.305
21
-90.805
0
LINE
8
Black
10
130.81
20
-97.9297
11
130.81
21
-98.9203
0
LINE
8
Black
10
130.315
20
-98.425
11
131.305
21
-98.425
0
LINE
8
Black
10
130.81
20
-107.455
11
130.81
21
-108.445
0
LINE
8
Black
10
130.315
20
-107.95
11
131.305
21
-107.95
0
LINE
8
Black
10
130.81
20
-115.075
11
130.81
21
-116.065
0
LINE
8
Black
10
130.315
20
-115.57
11
131.305
21
-115.57
0
LINE
8
Black
10
131.445
20
-73.1647
11
131.445
21
-74.1553
0
LINE
8
Black
10
130.95
20
-73.66
11
131.94
21
-73.66
0
LINE
8
Black
10
131.445
20
-80.7847
11
131.445
21
-81.7753
0
LINE
8
Black
10
130.95
20
-81.28
11
131.94
21
-81.28
0
LINE
8
Black
10
125.481
20
-27.488
11
125.481
21
-26.7156
0
LINE
8
Black
10
125.481
20
-26.7156
11
124.709
21
-26.7156
0
LINE
8
Black
10
124.709
20
-26.7156
11
124.709
21
-27.488
0
LINE
8
Black
10
124.709
20
-27.488
11
125.481
21
-27.488
0
LINE
8
Black
10
124.549
20
-26.9494
11
124.549
21
-27.2542
0
LINE
8
Black
10
125.641
20
-26.9494
11
125.641
21
-27.2542
0
ARC
8
Black
10
125.095
20
-27.2542
40
0.5461
50
180
51
360
0
ARC
8
Black
10
125.095
20
-26.9494
40
0.5461
50
0
51
180
0
LINE
8
Black
10
125.481
20
-36.7844
11
125.481
21
-36.012
0
LINE
8
Black
10
125.481
20
-36.012
11
124.709
21
-36.012
0
LINE
8
Black
10
124.709
20
-36.012
11
124.709
21
-36.7844
0
LINE
8
Black
10
124.709
20
-36.7844
11
125.481
21
-36.7844
0
LINE
8
Black
10
124.549
20
-36.2458
11
124.549
21
-36.5506
0
LINE
8
Black
10
125.641
20
-36.2458
11
125.641
21
-36.5506
0
ARC
8
Black
10
125.095
20
-36.5506
40
0.5461
50
180
51
360
0
ARC
8
Black
10
125.095
20
-36.2458
40
0.5461
50
0
51
180
0
LINE
8
Black
10
130.485
20
-28.5294
11
130.485
21
-27.757
0
LINE
8
Black
10
130.485
20
-27.757
11
129.713
21
-27.757
0
LINE
8
Black
10
129.713
20
-27.757
11
129.713
21
-28.5294
0
LINE
8
Black
10
129.713
20
-28.5294
11
130.485
21
-28.5294
0
LINE
8
Black
10
130.485
20
-35.743
11
130.485
21
-34.9706
0
LINE
8
Black
10
130.485
20
-34.9706
11
129.713
21
-34.9706
0
LINE
8
Black
10
129.713
20
-34.9706
11
129.713
21
-35.743
0
LINE
8
Black
10
129.713
20
-35.743
11
130.485
21
-35.743
0
LINE
8
Black
10
133.584
20
-30.536
11
133.584
21
-29.7636
0
LINE
8
Black
10
133.584
20
-29.7636
11
132.811
21
-29.7636
0
LINE
8
Black
10
132.811
20
-29.7636
11
132.811
21
-30.536
0
LINE
8
Black
10
132.811
20
-30.536
11
133.584
21
-30.536
0
LINE
8
Black
10
133.584
20
-33.7364
11
133.584
21
-32.964
0
LINE
8
Black
10
133.584
20
-32.964
11
132.811
21
-32.964
0
LINE
8
Black
10
132.811
20
-32.964
11
132.811
21
-33.7364
0
LINE
8
Black
10
132.811
20
-33.7364
11
133.584
21
-33.7364
0
LINE
8
Black
10
74.93
20
-25.95
11
75.48
21
-25.4
0
LINE
8
Black
10
75.48
20
-25.4
11
74.93
21
-24.85
0
LINE
8
Black
10
74.93
20
-24.85
11
74.38
21
-25.4
0
LINE
8
Black
10
74.38
20
-25.4
11
74.93
21
-25.95
0
LINE
8
Black
10
74.93
20
-41.19
11
75.48
21
-40.64
0
LINE
8
Black
10
75.48
20
-40.64
11
74.93
21
-40.09
0
LINE
8
Black
10
74.93
20
-40.09
11
74.38
21
-40.64
0
LINE
8
Black
10
74.38
20
-40.64
11
74.93
21
-41.19
0
LINE
8
Black
10
77.47
20
-25.95
11
78.02
21
-25.4
0
LINE
8
Black
10
78.02
20
-25.4
11
77.47
21
-24.85
0
LINE
8
Black
10
77.47
20
-24.85
11
76.92
21
-25.4
0
LINE
8
Black
10
76.92
20
-25.4
11
77.47
21
-25.95
0
LINE
8
Black
10
77.47
20
-41.19
11
78.02
21
-40.64
0
LINE
8
Black
10
78.02
20
-40.64
11
77.47
21
-40.09
0
LINE
8
Black
10
77.47
20
-40.09
11
76.92
21
-40.64
0
LINE
8
Black
10
76.92
20
-40.64
11
77.47
21
-41.19
0
LINE
8
Black
10
80.01
20
-25.95
11
80.56
21
-25.4
0
LINE
8
Black
10
80.56
20
-25.4
11
80.01
21
-24.85
0
LINE
8
Black
10
80.01
20
-24.85
11
79.46
21
-25.4
0
LINE
8
Black
10
79.46
20
-25.4
11
80.01
21
-25.95
0
LINE
8
Black
10
80.01
20
-41.19
11
80.56
21
-40.64
0
LINE
8
Black
10
80.56
20
-40.64
11
80.01
21
-40.09
0
LINE
8
Black
10
80.01
20
-40.09
11
79.46
21
-40.64
0
LINE
8
Black
10
79.46
20
-40.64
11
80.01
21
-41.19
0
LINE
8
Black
10
82.55
20
-25.95
11
83.1
21
-25.4
0
LINE
8
Black
10
83.1
20
-25.4
11
82.55
21
-24.85
0
LINE
8
Black
10
82.55
20
-24.85
11
82
21
-25.4
0
LINE
8
Black
10
82
20
-25.4
11
82.55
21
-25.95
0
LINE
8
Black
10
82.55
20
-41.19
11
83.1
21
-40.64
0
LINE
8
Black
10
83.1
20
-40.64
11
82.55
21
-40.09
0
LINE
8
Black
10
82.55
20
-40.09
11
82
21
-40.64
0
LINE
8
Black
10
82
20
-40.64
11
82.55
21
-41.19
0
LINE
8
Black
10
85.09
20
-25.95
11
85.64
21
-25.4
0
LINE
8
Black
10
85.64
20
-25.4
11
85.09
21
-24.85
0
LINE
8
Black
10
85.09
20
-24.85
11
84.54
21
-25.4
0
LINE
8
Black
10
84.54
20
-25.4
11
85.09
21
-25.95
0
LINE
8
Black
10
85.09
20
-41.19
11
85.64
21
-40.64
0
LINE
8
Black
10
85.64
20
-40.64
11
85.09
21
-40.09
0
LINE
8
Black
10
85.09
20
-40.09
11
84.54
21
-40.64
0
LINE
8
Black
10
84.54
20
-40.64
11
85.09
21
-41.19
0
LINE
8
Black
10
87.63
20
-25.95
11
88.18
21
-25.4
0
LINE
8
Black
10
88.18
20
-25.4
11
87.63
21
-24.85
0
LINE
8
Black
10
87.63
20
-24.85
11
87.08
21
-25.4
0
LINE
8
Black
10
87.08
20
-25.4
11
87.63
21
-25.95
0
LINE
8
Black
10
87.63
20
-41.19
11
88.18
21
-40.64
0
LINE
8
Black
10
88.18
20
-40.64
11
87.63
21
-40.09
0
LINE
8
Black
10
87.63
20
-40.09
11
87.08
21
-40.64
0
LINE
8
Black
10
87.08
20
-40.64
11
87.63
21
-41.19
0
LINE
8
Black
10
90.17
20
-25.95
11
90.72
21
-25.4
0
LINE
8
Black
10
90.72
20
-25.4
11
90.17
21
-24.85
0
LINE
8
Black
10
90.17
20
-24.85
11
89.62
21
-25.4
0
LINE
8
Black
10
89.62
20
-25.4
11
90.17
21
-25.95
0
LINE
8
Black
10
90.17
20
-41.19
11
90.72
21
-40.64
0
LINE
8
Black
10
90.72
20
-40.64
11
90.17
21
-40.09
0
LINE
8
Black
10
90.17
20
-40.09
11
89.62
21
-40.64
0
LINE
8
Black
10
89.62
20
-40.64
11
90.17
21
-41.19
0
LINE
8
Black
10
92.71
20
-25.95
11
93.26
21
-25.4
0
LINE
8
Black
10
93.26
20
-25.4
11
92.71
21
-24.85
0
LINE
8
Black
10
92.71
20
-24.85
11
92.16
21
-25.4
0
LINE
8
Black
10
92.16
20
-25.4
11
92.71
21
-25.95
0
LINE
8
Black
10
92.71
20
-41.19
11
93.26
21
-40.64
0
LINE
8
Black
10
93.26
20
-40.64
11
92.71
21
-40.09
0
LINE
8
Black
10
92.71
20
-40.09
11
92.16
21
-40.64
0
LINE
8
Black
10
92.16
20
-40.64
11
92.71
21
-41.19
0
LINE
8
Black
10
95.25
20
-25.95
11
95.8
21
-25.4
0
LINE
8
Black
10
95.8
20
-25.4
11
95.25
21
-24.85
0
LINE
8
Black
10
95.25
20
-24.85
11
94.7
21
-25.4
0
LINE
8
Black
10
94.7
20
-25.4
11
95.25
21
-25.95
0
LINE
8
Black
10
95.25
20
-41.19
11
95.8
21
-40.64
0
LINE
8
Black
10
95.8
20
-40.64
11
95.25
21
-40.09
0
LINE
8
Black
10
95.25
20
-40.09
11
94.7
21
-40.64
0
LINE
8
Black
10
94.7
20
-40.64
11
95.25
21
-41.19
0
LINE
8
Black
10
97.79
20
-25.95
11
98.34
21
-25.4
0
LINE
8
Black
10
98.34
20
-25.4
11
97.79
21
-24.85
0
LINE
8
Black
10
97.79
20
-24.85
11
97.24
21
-25.4
0
LINE
8
Black
10
97.24
20
-25.4
11
97.79
21
-25.95
0
LINE
8
Black
10
97.79
20
-41.19
11
98.34
21
-40.64
0
LINE
8
Black
10
98.34
20
-40.64
11
97.79
21
-40.09
0
LINE
8
Black
10
97.79
20
-40.09
11
97.24
21
-40.64
0
LINE
8
Black
10
97.24
20
-40.64
11
97.79
21
-41.19
0
LINE
8
Black
10
100.33
20
-25.95
11
100.88
21
-25.4
0
LINE
8
Black
10
100.88
20
-25.4
11
100.33
21
-24.85
0
LINE
8
Black
10
100.33
20
-24.85
11
99.78
21
-25.4
0
LINE
8
Black
10
99.78
20
-25.4
11
100.33
21
-25.95
0
LINE
8
Black
10
100.33
20
-41.19
11
100.88
21
-40.64
0
LINE
8
Black
10
100.88
20
-40.64
11
100.33
21
-40.09
0
LINE
8
Black
10
100.33
20
-40.09
11
99.78
21
-40.64
0
LINE
8
Black
10
99.78
20
-40.64
11
100.33
21
-41.19
0
LINE
8
Black
10
102.87
20
-25.95
11
103.42
21
-25.4
0
LINE
8
Black
10
103.42
20
-25.4
11
102.87
21
-24.85
0
LINE
8
Black
10
102.87
20
-24.85
11
102.32
21
-25.4
0
LINE
8
Black
10
102.32
20
-25.4
11
102.87
21
-25.95
0
LINE
8
Black
10
102.87
20
-41.19
11
103.42
21
-40.64
0
LINE
8
Black
10
103.42
20
-40.64
11
102.87
21
-40.09
0
LINE
8
Black
10
102.87
20
-40.09
11
102.32
21
-40.64
0
LINE
8
Black
10
102.32
20
-40.64
11
102.87
21
-41.19
0
LINE
8
Black
10
24.245
20
-55.905
11
25.445
21
-57.105
0
LINE
8
Black
10
25.445
20
-55.905
11
24.245
21
-57.105
0
CIRCLE
8
Black
10
24.845
20
-56.505
40
0.6
0
LINE
8
Black
10
24.245
20
-73.05
11
25.445
21
-74.25
0
LINE
8
Black
10
25.445
20
-73.05
11
24.245
21
-74.25
0
CIRCLE
8
Black
10
24.845
20
-73.65
40
0.6
0
LINE
8
Black
10
24.245
20
-90.195
11
25.445
21
-91.395
0
LINE
8
Black
10
25.445
20
-90.195
11
24.245
21
-91.395
0
CIRCLE
8
Black
10
24.845
20
-90.795
40
0.6
0
LINE
8
Black
10
24.245
20
-107.34
11
25.445
21
-108.54
0
LINE
8
Black
10
25.445
20
-107.34
11
24.245
21
-108.54
0
CIRCLE
8
Black
10
24.845
20
-107.94
40
0.6
0
LINE
8
Black
10
29.245
20
-58.005
11
30.445
21
-59.205
0
LINE
8
Black
10
30.445
20
-58.005
11
29.245
21
-59.205
0
CIRCLE
8
Black
10
29.845
20
-58.605
40
0.6
0
LINE
8
Black
10
29.245
20
-75.15
11
30.445
21
-76.35
0
LINE
8
Black
10
30.445
20
-75.15
11
29.245
21
-76.35
0
CIRCLE
8
Black
10
29.845
20
-75.75
40
0.6
0
LINE
8
Black
10
29.245
20
-92.295
11
30.445
21
-93.495
0
LINE
8
Black
10
30.445
20
-92.295
11
29.245
21
-93.495
0
CIRCLE
8
Black
10
29.845
20
-92.895
40
0.6
0
LINE
8
Black
10
29.245
20
-109.44
11
30.445
21
-110.64
0
LINE
8
Black
10
30.445
20
-109.44
11
29.245
21
-110.64
0
CIRCLE
8
Black
10
29.845
20
-110.04
40
0.6
0
LINE
8
Black
10
34.245
20
-55.905
11
35.445
21
-57.105
0
LINE
8
Black
10
35.445
20
-55.905
11
34.245
21
-57.105
0
CIRCLE
8
Black
10
34.845
20
-56.505
40
0.6
0
LINE
8
Black
10
34.245
20
-73.05
11
35.445
21
-74.25
0
LINE
8
Black
10
35.445
20
-73.05
11
34.245
21
-74.25
0
CIRCLE
8
Black
10
34.845
20
-73.65
40
0.6
0
LINE
8
Black
10
34.245
20
-90.195
11
35.445
21
-91.395
0
LINE
8
Black
10
35.445
20
-90.195
11
34.245
21
-91.395
0
CIRCLE
8
Black
10
34.845
20
-90.795
40
0.6
0
LINE
8
Black
10
34.245
20
-107.34
11
35.445
21
-108.54
0
LINE
8
Black
10
35.445
20
-107.34
11
34.245
21
-108.54
0
CIRCLE
8
Black
10
34.845
20
-107.94
40
0.6
0
LINE
8
Black
10
42.66
20
-55.905
11
43.86
21
-57.105
0
LINE
8
Black
10
43.86
20
-55.905
11
42.66
21
-57.105
0
CIRCLE
8
Black
10
43.26
20
-56.505
40
0.6
0
LINE
8
Black
10
42.66
20
-73.05
11
43.86
21
-74.25
0
LINE
8
Black
10
43.86
20
-73.05
11
42.66
21
-74.25
0
CIRCLE
8
Black
10
43.26
20
-73.65
40
0.6
0
LINE
8
Black
10
42.66
20
-90.195
11
43.86
21
-91.395
0
LINE
8
Black
10
43.86
20
-90.195
11
42.66
21
-91.395
0
CIRCLE
8
Black
10
43.26
20
-90.795
40
0.6
0
LINE
8
Black
10
42.66
20
-107.34
11
43.86
21
-108.54
0
LINE
8
Black
10
43.86
20
-107.34
11
42.66
21
-108.54
0
CIRCLE
8
Black
10
43.26
20
-107.94
40
0.6
0
LINE
8
Black
10
47.66
20
-58.005
11
48.86
21
-59.205
0
LINE
8
Black
10
48.86
20
-58.005
11
47.66
21
-59.205
0
CIRCLE
8
Black
10
48.26
20
-58.605
40
0.6
0
LINE
8
Black
10
47.66
20
-75.15
11
48.86
21
-76.35
0
LINE
8
Black
10
48.86
20
-75.15
11
47.66
21
-76.35
0
CIRCLE
8
Black
10
48.26
20
-75.75
40
0.6
0
LINE
8
Black
10
47.66
20
-92.295
11
48.86
21
-93.495
0
LINE
8
Black
10
48.86
20
-92.295
11
47.66
21
-93.495
0
CIRCLE
8
Black
10
48.26
20
-92.895
40
0.6
0
LINE
8
Black
10
47.66
20
-109.44
11
48.86
21
-110.64
0
LINE
8
Black
10
48.86
20
-109.44
11
47.66
21
-110.64
0
CIRCLE
8
Black
10
48.26
20
-110.04
40
0.6
0
LINE
8
Black
10
52.66
20
-55.905
11
53.86
21
-57.105
0
LINE
8
Black
10
53.86
20
-55.905
11
52.66
21
-57.105
0
CIRCLE
8
Black
10
53.26
20
-56.505
40
0.6
0
LINE
8
Black
10
52.66
20
-73.05
11
53.86
21
-74.25
0
LINE
8
Black
10
53.86
20
-73.05
11
52.66
21
-74.25
0
CIRCLE
8
Black
10
53.26
20
-73.65
40
0.6
0
LINE
8
Black
10
52.66
20
-90.195
11
53.86
21
-91.395
0
LINE
8
Black
10
53.86
20
-90.195
11
52.66
21
-91.395
0
CIRCLE
8
Black
10
53.26
20
-90.795
40
0.6
0
LINE
8
Black
10
52.66
20
-107.34
11
53.86
21
-108.54
0
LINE
8
Black
10
53.86
20
-107.34
11
52.66
21
-108.54
0
CIRCLE
8
Black
10
53.26
20
-107.94
40
0.6
0
LINE
8
Black
10
61.075
20
-55.905
11
62.275
21
-57.105
0
LINE
8
Black
10
62.275
20
-55.905
11
61.075
21
-57.105
0
CIRCLE
8
Black
10
61.675
20
-56.505
40
0.6
0
LINE
8
Black
10
61.075
20
-73.05
11
62.275
21
-74.25
0
LINE
8
Black
10
62.275
20
-73.05
11
61.075
21
-74.25
0
CIRCLE
8
Black
10
61.675
20
-73.65
40
0.6
0
LINE
8
Black
10
61.075
20
-90.195
11
62.275
21
-91.395
0
LINE
8
Black
10
62.275
20
-90.195
11
61.075
21
-91.395
0
CIRCLE
8
Black
10
61.675
20
-90.795
40
0.6
0
LINE
8
Black
10
61.075
20
-107.34
11
62.275
21
-108.54
0
LINE
8
Black
10
62.275
20
-107.34
11
61.075
21
-108.54
0
CIRCLE
8
Black
10
61.675
20
-107.94
40
0.6
0
LINE
8
Black
10
66.075
20
-58.005
11
67.275
21
-59.205
0
LINE
8
Black
10
67.275
20
-58.005
11
66.075
21
-59.205
0
CIRCLE
8
Black
10
66.675
20
-58.605
40
0.6
0
LINE
8
Black
10
66.075
20
-75.15
11
67.275
21
-76.35
0
LINE
8
Black
10
67.275
20
-75.15
11
66.075
21
-76.35
0
CIRCLE
8
Black
10
66.675
20
-75.75
40
0.6
0
LINE
8
Black
10
66.075
20
-92.295
11
67.275
21
-93.495
0
LINE
8
Black
10
67.275
20
-92.295
11
66.075
21
-93.495
0
CIRCLE
8
Black
10
66.675
20
-92.895
40
0.6
0
LINE
8
Black
10
66.075
20
-109.44
11
67.275
21
-110.64
0
LINE
8
Black
10
67.275
20
-109.44
11
66.075
21
-110.64
0
CIRCLE
8
Black
10
66.675
20
-110.04
40
0.6
0
LINE
8
Black
10
71.075
20
-55.905
11
72.275
21
-57.105
0
LINE
8
Black
10
72.275
20
-55.905
11
71.075
21
-57.105
0
CIRCLE
8
Black
10
71.675
20
-56.505
40
0.6
0
LINE
8
Black
10
71.075
20
-73.05
11
72.275
21
-74.25
0
LINE
8
Black
10
72.275
20
-73.05
11
71.075
21
-74.25
0
CIRCLE
8
Black
10
71.675
20
-73.65
40
0.6
0
LINE
8
Black
10
71.075
20
-90.195
11
72.275
21
-91.395
0
LINE
8
Black
10
72.275
20
-90.195
11
71.075
21
-91.395
0
CIRCLE
8
Black
10
71.675
20
-90.795
40
0.6
0
LINE
8
Black
10
71.075
20
-107.34
11
72.275
21
-108.54
0
LINE
8
Black
10
72.275
20
-107.34
11
71.075
21
-108.54
0
CIRCLE
8
Black
10
71.675
20
-107.94
40
0.6
0
LINE
8
Black
10
79.49
20
-55.905
11
80.69
21
-57.105
0
LINE
8
Black
10
80.69
20
-55.905
11
79.49
21
-57.105
0
CIRCLE
8
Black
10
80.09
20
-56.505
40
0.6
0
LINE
8
Black
10
79.49
20
-73.05
11
80.69
21
-74.25
0
LINE
8
Black
10
80.69
20
-73.05
11
79.49
21
-74.25
0
CIRCLE
8
Black
10
80.09
20
-73.65
40
0.6
0
LINE
8
Black
10
79.49
20
-90.195
11
80.69
21
-91.395
0
LINE
8
Black
10
80.69
20
-90.195
11
79.49
21
-91.395
0
CIRCLE
8
Black
10
80.09
20
-90.795
40
0.6
0
LINE
8
Black
10
79.49
20
-107.34
11
80.69
21
-108.54
0
LINE
8
Black
10
80.69
20
-107.34
11
79.49
21
-108.54
0
CIRCLE
8
Black
10
80.09
20
-107.94
40
0.6
0
LINE
8
Black
10
84.49
20
-58.005
11
85.69
21
-59.205
0
LINE
8
Black
10
85.69
20
-58.005
11
84.49
21
-59.205
0
CIRCLE
8
Black
10
85.09
20
-58.605
40
0.6
0
LINE
8
Black
10
84.49
20
-75.15
11
85.69
21
-76.35
0
LINE
8
Black
10
85.69
20
-75.15
11
84.49
21
-76.35
0
CIRCLE
8
Black
10
85.09
20
-75.75
40
0.6
0
LINE
8
Black
10
84.49
20
-92.295
11
85.69
21
-93.495
0
LINE
8
Black
10
85.69
20
-92.295
11
84.49
21
-93.495
0
CIRCLE
8
Black
10
85.09
20
-92.895
40
0.6
0
LINE
8
Black
10
84.49
20
-109.44
11
85.69
21
-110.64
0
LINE
8
Black
10
85.69
20
-109.44
11
84.49
21
-110.64
0
CIRCLE
8
Black
10
85.09
20
-110.04
40
0.6
0
LINE
8
Black
10
89.49
20
-55.905
11
90.69
21
-57.105
0
LINE
8
Black
10
90.69
20
-55.905
11
89.49
21
-57.105
0
CIRCLE
8
Black
10
90.09
20
-56.505
40
0.6
0
LINE
8
Black
10
89.49
20
-73.05
11
90.69
21
-74.25
0
LINE
8
Black
10
90.69
20
-73.05
11
89.49
21
-74.25
0
CIRCLE
8
Black
10
90.09
20
-73.65
40
0.6
0
LINE
8
Black
10
89.49
20
-90.195
11
90.69
21
-91.395
0
LINE
8
Black
10
90.69
20
-90.195
11
89.49
21
-91.395
0
CIRCLE
8
Black
10
90.09
20
-90.795
40
0.6
0
LINE
8
Black
10
89.49
20
-107.34
11
90.69
21
-108.54
0
LINE
8
Black
10
90.69
20
-107.34
11
89.49
21
-108.54
0
CIRCLE
8
Black
10
90.09
20
-107.94
40
0.6
0
LINE
8
Black
10
97.905
20
-55.905
11
99.105
21
-57.105
0
LINE
8
Black
10
99.105
20
-55.905
11
97.905
21
-57.105
0
CIRCLE
8
Black
10
98.505
20
-56.505
40
0.6
0
LINE
8
Black
10
97.905
20
-73.05
11
99.105
21
-74.25
0
LINE
8
Black
10
99.105
20
-73.05
11
97.905
21
-74.25
0
CIRCLE
8
Black
10
98.505
20
-73.65
40
0.6
0
LINE
8
Black
10
97.905
20
-90.195
11
99.105
21
-91.395
0
LINE
8
Black
10
99.105
20
-90.195
11
97.905
21
-91.395
0
CIRCLE
8
Black
10
98.505
20
-90.795
40
0.6
0
LINE
8
Black
10
97.905
20
-107.34
11
99.105
21
-108.54
0
LINE
8
Black
10
99.105
20
-107.34
11
97.905
21
-108.54
0
CIRCLE
8
Black
10
98.505
20
-107.94
40
0.6
0
LINE
8
Black
10
102.905
20
-58.005
11
104.105
21
-59.205
0
LINE
8
Black
10
104.105
20
-58.005
11
102.905
21
-59.205
0
CIRCLE
8
Black
10
103.505
20
-58.605
40
0.6
0
LINE
8
Black
10
102.905
20
-75.15
11
104.105
21
-76.35
0
LINE
8
Black
10
104.105
20
-75.15
11
102.905
21
-76.35
0
CIRCLE
8
Black
10
103.505
20
-75.75
40
0.6
0
LINE
8
Black
10
102.905
20
-92.295
11
104.105
21
-93.495
0
LINE
8
Black
10
104.105
20
-92.295
11
102.905
21
-93.495
0
CIRCLE
8
Black
10
103.505
20
-92.895
40
0.6
0
LINE
8
Black
10
102.905
20
-109.44
11
104.105
21
-110.64
0
LINE
8
Black
10
104.105
20
-109.44
11
102.905
21
-110.64
0
CIRCLE
8
Black
10
103.505
20
-110.04
40
0.6
0
LINE
8
Black
10
107.905
20
-55.905
11
109.105
21
-57.105
0
LINE
8
Black
10
109.105
20
-55.905
11
107.905
21
-57.105
0
CIRCLE
8
Black
10
108.505
20
-56.505
40
0.6
0
LINE
8
Black
10
107.905
20
-73.05
11
109.105
21
-74.25
0
LINE
8
Black
10
109.105
20
-73.05
11
107.905
21
-74.25
0
CIRCLE
8
Black
10
108.505
20
-73.65
40
0.6
0
LINE
8
Black
10
107.905
20
-90.195
11
109.105
21
-91.395
0
LINE
8
Black
10
109.105
20
-90.195
11
107.905
21
-91.395
0
CIRCLE
8
Black
10
108.505
20
-90.795
40
0.6
0
LINE
8
Black
10
107.905
20
-107.34
11
109.105
21
-108.54
0
LINE
8
Black
10
109.105
20
-107.34
11
107.905
21
-108.54
0
CIRCLE
8
Black
10
108.505
20
-107.94
40
0.6
0
LINE
8
Black
10
116.32
20
-55.905
11
117.52
21
-57.105
0
LINE
8
Black
10
117.52
20
-55.905
11
116.32
21
-57.105
0
CIRCLE
8
Black
10
116.92
20
-56.505
40
0.6
0
LINE
8
Black
10
116.32
20
-73.05
11
117.52
21
-74.25
0
LINE
8
Black
10
117.52
20
-73.05
11
116.32
21
-74.25
0
CIRCLE
8
Black
10
116.92
20
-73.65
40
0.6
0
LINE
8
Black
10
116.32
20
-90.195
11
117.52
21
-91.395
0
LINE
8
Black
10
117.52
20
-90.195
11
116.32
21
-91.395
0
CIRCLE
8
Black
10
116.92
20
-90.795
40
0.6
0
LINE
8
Black
10
116.32
20
-107.34
11
117.52
21
-108.54
0
LINE
8
Black
10
117.52
20
-107.34
11
116.32
21
-108.54
0
CIRCLE
8
Black
10
116.92
20
-107.94
40
0.6
0
LINE
8
Black
10
121.32
20
-58.005
11
122.52
21
-59.205
0
LINE
8
Black
10
122.52
20
-58.005
11
121.32
21
-59.205
0
CIRCLE
8
Black
10
121.92
20
-58.605
40
0.6
0
LINE
8
Black
10
121.32
20
-75.15
11
122.52
21
-76.35
0
LINE
8
Black
10
122.52
20
-75.15
11
121.32
21
-76.35
0
CIRCLE
8
Black
10
121.92
20
-75.75
40
0.6
0
LINE
8
Black
10
121.32
20
-92.295
11
122.52
21
-93.495
0
LINE
8
Black
10
122.52
20
-92.295
11
121.32
21
-93.495
0
CIRCLE
8
Black
10
121.92
20
-92.895
40
0.6
0
LINE
8
Black
10
121.32
20
-109.44
11
122.52
21
-110.64
0
LINE
8
Black
10
122.52
20
-109.44
11
121.32
21
-110.64
0
CIRCLE
8
Black
10
121.92
20
-110.04
40
0.6
0
LINE
8
Black
10
126.32
20
-55.905
11
127.52
21
-57.105
0
LINE
8
Black
10
127.52
20
-55.905
11
126.32
21
-57.105
0
CIRCLE
8
Black
10
126.92
20
-56.505
40
0.6
0
LINE
8
Black
10
126.32
20
-73.05
11
127.52
21
-74.25
0
LINE
8
Black
10
127.52
20
-73.05
11
126.32
21
-74.25
0
CIRCLE
8
Black
10
126.92
20
-73.65
40
0.6
0
LINE
8
Black
10
126.32
20
-90.195
11
127.52
21
-91.395
0
LINE
8
Black
10
127.52
20
-90.195
11
126.32
21
-91.395
0
CIRCLE
8
Black
10
126.92
20
-90.795
40
0.6
0
LINE
8
Black
10
126.32
20
-107.34
11
127.52
21
-108.54
0
LINE
8
Black
10
127.52
20
-107.34
11
126.32
21
-108.54
0
CIRCLE
8
Black
10
126.92
20
-107.94
40
0.6
0
LINE
8
Black
10
22.9593
20
-122.207
11
22.9593
21
-119.207
0
LINE
8
Black
10
22.9593
20
-119.207
11
23.6736
21
-119.207
0
LINE
8
Black
10
23.6736
20
-119.207
11
24.1021
21
-119.35
0
LINE
8
Black
10
24.1021
20
-119.35
11
24.3879
21
-119.636
0
LINE
8
Black
10
24.3879
20
-119.636
11
24.5307
21
-119.921
0
LINE
8
Black
10
24.5307
20
-119.921
11
24.6736
21
-120.493
0
LINE
8
Black
10
24.6736
20
-120.493
11
24.6736
21
-120.921
0
LINE
8
Black
10
24.6736
20
-120.921
11
24.5307
21
-121.493
0
LINE
8
Black
10
24.5307
20
-121.493
11
24.3879
21
-121.779
0
LINE
8
Black
10
24.3879
20
-121.779
11
24.1021
21
-122.064
0
LINE
8
Black
10
24.1021
20
-122.064
11
23.6736
21
-122.207
0
LINE
8
Black
10
23.6736
20
-122.207
11
22.9593
21
-122.207
0
LINE
8
Black
10
25.9593
20
-122.207
11
25.9593
21
-120.207
0
LINE
8
Black
10
25.9593
20
-120.779
11
26.1021
21
-120.493
0
LINE
8
Black
10
26.1021
20
-120.493
11
26.245
21
-120.35
0
LINE
8
Black
10
26.245
20
-120.35
11
26.5307
21
-120.207
0
LINE
8
Black
10
26.5307
20
-120.207
11
26.8164
21
-120.207
0
LINE
8
Black
10
27.8164
20
-122.207
11
27.8164
21
-120.207
0
LINE
8
Black
10
27.8164
20
-119.207
11
27.6736
21
-119.35
0
LINE
8
Black
10
27.6736
20
-119.35
11
27.8164
21
-119.493
0
LINE
8
Black
10
27.8164
20
-119.493
11
27.9593
21
-119.35
0
LINE
8
Black
10
27.9593
20
-119.35
11
27.8164
21
-119.207
0
LINE
8
Black
10
27.8164
20
-119.207
11
27.8164
21
-119.493
0
LINE
8
Black
10
29.6736
20
-122.207
11
29.3879
21
-122.064
0
LINE
8
Black
10
29.3879
20
-122.064
11
29.245
21
-121.779
0
LINE
8
Black
10
29.245
20
-121.779
11
29.245
21
-119.207
0
LINE
8
Black
10
31.245
20
-122.207
11
30.9593
21
-122.064
0
LINE
8
Black
10
30.9593
20
-122.064
11
30.8164
21
-121.779
0
LINE
8
Black
10
30.8164
20
-121.779
11
30.8164
21
-119.207
0
LINE
8
Black
10
34.6736
20
-122.207
11
34.6736
21
-119.207
0
LINE
8
Black
10
34.6736
20
-119.207
11
35.6736
21
-121.35
0
LINE
8
Black
10
35.6736
20
-121.35
11
36.6736
21
-119.207
0
LINE
8
Black
10
36.6736
20
-119.207
11
36.6736
21
-122.207
0
LINE
8
Black
10
39.3879
20
-122.207
11
39.3879
21
-120.636
0
LINE
8
Black
10
39.3879
20
-120.636
11
39.245
21
-120.35
0
LINE
8
Black
10
39.245
20
-120.35
11
38.9593
21
-120.207
0
LINE
8
Black
10
38.9593
20
-120.207
11
38.3879
21
-120.207
0
LINE
8
Black
10
38.3879
20
-120.207
11
38.1021
21
-120.35
0
LINE
8
Black
10
39.3879
20
-122.064
11
39.1021
21
-122.207
0
LINE
8
Black
10
39.1021
20
-122.207
11
38.3879
21
-122.207
0
LINE
8
Black
10
38.3879
20
-122.207
11
38.1021
21
-122.064
0
LINE
8
Black
10
38.1021
20
-122.064
11
37.9593
21
-121.779
0
LINE
8
Black
10
37.9593
20
-121.779
11
37.9593
21
-121.493
0
LINE
8
Black
10
37.9593
20
-121.493
11
38.1021
21
-121.207
0
LINE
8
Black
10
38.1021
20
-121.207
11
38.3879
21
-121.064
0
LINE
8
Black
10
38.3879
20
-121.064
11
39.1021
21
-121.064
0
LINE
8
Black
10
39.1021
20
-121.064
11
39.3879
21
-120.921
0
LINE
8
Black
10
40.8164
20
-120.207
11
40.8164
21
-123.207
0
LINE
8
Black
10
40.8164
20
-120.35
11
41.1021
21
-120.207
0
LINE
8
Black
10
41.1021
20
-120.207
11
41.6736
21
-120.207
0
LINE
8
Black
10
41.6736
20
-120.207
11
41.9593
21
-120.35
0
LINE
8
Black
10
41.9593
20
-120.35
11
42.1021
21
-120.493
0
LINE
8
Black
10
42.1021
20
-120.493
11
42.245
21
-120.779
0
LINE
8
Black
10
42.245
20
-120.779
11
42.245
21
-121.636
0
LINE
8
Black
10
42.245
20
-121.636
11
42.1021
21
-121.921
0
LINE
8
Black
10
42.1021
20
-121.921
11
41.9593
21
-122.064
0
LINE
8
Black
10
41.9593
20
-122.064
11
41.6736
21
-122.207
0
LINE
8
Black
10
41.6736
20
-122.207
11
41.1021
21
-122.207
0
LINE
8
Black
10
41.1021
20
-122.207
11
40.8164
21
-122.064
0
LINE
8
Black
10
43.5307
20
-121.921
11
43.6736
21
-122.064
0
LINE
8
Black
10
43.6736
20
-122.064
11
43.5307
21
-122.207
0
LINE
8
Black
10
43.5307
20
-122.207
11
43.3879
21
-122.064
0
LINE
8
Black
10
43.3879
20
-122.064
11
43.5307
21
-121.921
0
LINE
8
Black
10
43.5307
20
-121.921
11
43.5307
21
-122.207
0
LINE
8
Black
10
43.5307
20
-120.35
11
43.6736
21
-120.493
0
LINE
8
Black
10
43.6736
20
-120.493
11
43.5307
21
-120.636
0
LINE
8
Black
10
43.5307
20
-120.636
11
43.3879
21
-120.493
0
LINE
8
Black
10
43.3879
20
-120.493
11
43.5307
21
-120.35
0
LINE
8
Black
10
43.5307
20
-120.35
11
43.5307
21
-120.636
0
LINE
8
Black
10
19.995
20
-127.025
11
20.245
21
-127.275
0
LINE
8
Black
10
20.245
20
-127.025
11
19.995
21
-127.275
0
LINE
8
Black
10
23.5307
20
-125.507
11
23.8164
21
-125.507
0
LINE
8
Black
10
23.8164
20
-125.507
11
24.1021
21
-125.65
0
LINE
8
Black
10
24.1021
20
-125.65
11
24.245
21
-125.793
0
LINE
8
Black
10
24.245
20
-125.793
11
24.3879
21
-126.079
0
LINE
8
Black
10
24.3879
20
-126.079
11
24.5307
21
-126.65
0
LINE
8
Black
10
24.5307
20
-126.65
11
24.5307
21
-127.364
0
LINE
8
Black
10
24.5307
20
-127.364
11
24.3879
21
-127.936
0
LINE
8
Black
10
24.3879
20
-127.936
11
24.245
21
-128.221
0
LINE
8
Black
10
24.245
20
-128.221
11
24.1021
21
-128.364
0
LINE
8
Black
10
24.1021
20
-128.364
11
23.8164
21
-128.507
0
LINE
8
Black
10
23.8164
20
-128.507
11
23.5307
21
-128.507
0
LINE
8
Black
10
23.5307
20
-128.507
11
23.245
21
-128.364
0
LINE
8
Black
10
23.245
20
-128.364
11
23.1021
21
-128.221
0
LINE
8
Black
10
23.1021
20
-128.221
11
22.9593
21
-127.936
0
LINE
8
Black
10
22.9593
20
-127.936
11
22.8164
21
-127.364
0
LINE
8
Black
10
22.8164
20
-127.364
11
22.8164
21
-126.65
0
LINE
8
Black
10
22.8164
20
-126.65
11
22.9593
21
-126.079
0
LINE
8
Black
10
22.9593
20
-126.079
11
23.1021
21
-125.793
0
LINE
8
Black
10
23.1021
20
-125.793
11
23.245
21
-125.65
0
LINE
8
Black
10
23.245
20
-125.65
11
23.5307
21
-125.507
0
LINE
8
Black
10
25.8164
20
-128.221
11
25.9593
21
-128.364
0
LINE
8
Black
10
25.9593
20
-128.364
11
25.8164
21
-128.507
0
LINE
8
Black
10
25.8164
20
-128.507
11
25.6736
21
-128.364
0
LINE
8
Black
10
25.6736
20
-128.364
11
25.8164
21
-128.221
0
LINE
8
Black
10
25.8164
20
-128.221
11
25.8164
21
-128.507
0
LINE
8
Black
10
27.1021
20
-125.793
11
27.245
21
-125.65
0
LINE
8
Black
10
27.245
20
-125.65
11
27.5307
21
-125.507
0
LINE
8
Black
10
27.5307
20
-125.507
11
28.245
21
-125.507
0
LINE
8
Black
10
28.245
20
-125.507
11
28.5307
21
-125.65
0
LINE
8
Black
10
28.5307
20
-125.65
11
28.6736
21
-125.793
0
LINE
8
Black
10
28.6736
20
-125.793
11
28.8164
21
-126.079
0
LINE
8
Black
10
28.8164
20
-126.079
11
28.8164
21
-126.364
0
LINE
8
Black
10
28.8164
20
-126.364
11
28.6736
21
-126.793
0
LINE
8
Black
10
28.6736
20
-126.793
11
26.9593
21
-128.507
0
LINE
8
Black
10
26.9593
20
-128.507
11
28.8164
21
-128.507
0
LINE
8
Black
10
31.5307
20
-125.507
11
30.1021
21
-125.507
0
LINE
8
Black
10
30.1021
20
-125.507
11
29.9593
21
-126.936
0
LINE
8
Black
10
29.9593
20
-126.936
11
30.1021
21
-126.793
0
LINE
8
Black
10
30.1021
20
-126.793
11
30.3879
21
-126.65
0
LINE
8
Black
10
30.3879
20
-126.65
11
31.1021
21
-126.65
0
LINE
8
Black
10
31.1021
20
-126.65
11
31.3879
21
-126.793
0
LINE
8
Black
10
31.3879
20
-126.793
11
31.5307
21
-126.936
0
LINE
8
Black
10
31.5307
20
-126.936
11
31.6736
21
-127.221
0
LINE
8
Black
10
31.6736
20
-127.221
11
31.6736
21
-127.936
0
LINE
8
Black
10
31.6736
20
-127.936
11
31.5307
21
-128.221
0
LINE
8
Black
10
31.5307
20
-128.221
11
31.3879
21
-128.364
0
LINE
8
Black
10
31.3879
20
-128.364
11
31.1021
21
-128.507
0
LINE
8
Black
10
31.1021
20
-128.507
11
30.3879
21
-128.507
0
LINE
8
Black
10
30.3879
20
-128.507
11
30.1021
21
-128.364
0
LINE
8
Black
10
30.1021
20
-128.364
11
29.9593
21
-128.221
0
LINE
8
Black
10
32.9593
20
-128.507
11
32.9593
21
-126.507
0
LINE
8
Black
10
32.9593
20
-126.793
11
33.1021
21
-126.65
0
LINE
8
Black
10
33.1021
20
-126.65
11
33.3879
21
-126.507
0
LINE
8
Black
10
33.3879
20
-126.507
11
33.8164
21
-126.507
0
LINE
8
Black
10
33.8164
20
-126.507
11
34.1021
21
-126.65
0
LINE
8
Black
10
34.1021
20
-126.65
11
34.245
21
-126.936
0
LINE
8
Black
10
34.245
20
-126.936
11
34.245
21
-128.507
0
LINE
8
Black
10
34.245
20
-126.936
11
34.3879
21
-126.65
0
LINE
8
Black
10
34.3879
20
-126.65
11
34.6736
21
-126.507
0
LINE
8
Black
10
34.6736
20
-126.507
11
35.1021
21
-126.507
0
LINE
8
Black
10
35.1021
20
-126.507
11
35.3879
21
-126.65
0
LINE
8
Black
10
35.3879
20
-126.65
11
35.5307
21
-126.936
0
LINE
8
Black
10
35.5307
20
-126.936
11
35.5307
21
-128.507
0
LINE
8
Black
10
36.9593
20
-128.507
11
36.9593
21
-126.507
0
LINE
8
Black
10
36.9593
20
-126.793
11
37.1021
21
-126.65
0
LINE
8
Black
10
37.1021
20
-126.65
11
37.3879
21
-126.507
0
LINE
8
Black
10
37.3879
20
-126.507
11
37.8164
21
-126.507
0
LINE
8
Black
10
37.8164
20
-126.507
11
38.1021
21
-126.65
0
LINE
8
Black
10
38.1021
20
-126.65
11
38.245
21
-126.936
0
LINE
8
Black
10
38.245
20
-126.936
11
38.245
21
-128.507
0
LINE
8
Black
10
38.245
20
-126.936
11
38.3879
21
-126.65
0
LINE
8
Black
10
38.3879
20
-126.65
11
38.6736
21
-126.507
0
LINE
8
Black
10
38.6736
20
-126.507
11
39.1021
21
-126.507
0
LINE
8
Black
10
39.1021
20
-126.507
11
39.3879
21
-126.65
0
LINE
8
Black
10
39.3879
20
-126.65
11
39.5307
21
-126.936
0
LINE
8
Black
10
39.5307
20
-126.936
11
39.5307
21
-128.507
0
LINE
8
Black
10
45.3879
20
-125.364
11
42.8164
21
-129.221
0
LINE
8
Black
10
49.245
20
-125.507
11
49.5307
21
-125.507
0
LINE
8
Black
10
49.5307
20
-125.507
11
49.8164
21
-125.65
0
LINE
8
Black
10
49.8164
20
-125.65
11
49.9593
21
-125.793
0
LINE
8
Black
10
49.9593
20
-125.793
11
50.1021
21
-126.079
0
LINE
8
Black
10
50.1021
20
-126.079
11
50.245
21
-126.65
0
LINE
8
Black
10
50.245
20
-126.65
11
50.245
21
-127.364
0
LINE
8
Black
10
50.245
20
-127.364
11
50.1021
21
-127.936
0
LINE
8
Black
10
50.1021
20
-127.936
11
49.9593
21
-128.221
0
LINE
8
Black
10
49.9593
20
-128.221
11
49.8164
21
-128.364
0
LINE
8
Black
10
49.8164
20
-128.364
11
49.5307
21
-128.507
0
LINE
8
Black
10
49.5307
20
-128.507
11
49.245
21
-128.507
0
LINE
8
Black
10
49.245
20
-128.507
11
48.9593
21
-128.364
0
LINE
8
Black
10
48.9593
20
-128.364
11
48.8164
21
-128.221
0
LINE
8
Black
10
48.8164
20
-128.221
11
48.6736
21
-127.936
0
LINE
8
Black
10
48.6736
20
-127.936
11
48.5307
21
-127.364
0
LINE
8
Black
10
48.5307
20
-127.364
11
48.5307
21
-126.65
0
LINE
8
Black
10
48.5307
20
-126.65
11
48.6736
21
-126.079
0
LINE
8
Black
10
48.6736
20
-126.079
11
48.8164
21
-125.793
0
LINE
8
Black
10
48.8164
20
-125.793
11
48.9593
21
-125.65
0
LINE
8
Black
10
48.9593
20
-125.65
11
49.245
21
-125.507
0
LINE
8
Black
10
51.5307
20
-128.221
11
51.6736
21
-128.364
0
LINE
8
Black
10
51.6736
20
-128.364
11
51.5307
21
-128.507
0
LINE
8
Black
10
51.5307
20
-128.507
11
51.3879
21
-128.364
0
LINE
8
Black
10
51.3879
20
-128.364
11
51.5307
21
-128.221
0
LINE
8
Black
10
51.5307
20
-128.221
11
51.5307
21
-128.507
0
LINE
8
Black
10
53.5307
20
-125.507
11
53.8164
21
-125.507
0
LINE
8
Black
10
53.8164
20
-125.507
11
54.1021
21
-125.65
0
LINE
8
Black
10
54.1021
20
-125.65
11
54.245
21
-125.793
0
LINE
8
Black
10
54.245
20
-125.793
11
54.3879
21
-126.079
0
LINE
8
Black
10
54.3879
20
-126.079
11
54.5307
21
-126.65
0
LINE
8
Black
10
54.5307
20
-126.65
11
54.5307
21
-127.364
0
LINE
8
Black
10
54.5307
20
-127.364
11
54.3879
21
-127.936
0
LINE
8
Black
10
54.3879
20
-127.936
11
54.245
21
-128.221
0
LINE
8
Black
10
54.245
20
-128.221
11
54.1021
21
-128.364
0
LINE
8
Black
10
54.1021
20
-128.364
11
53.8164
21
-128.507
0
LINE
8
Black
10
53.8164
20
-128.507
11
53.5307
21
-128.507
0
LINE
8
Black
10
53.5307
20
-128.507
11
53.245
21
-128.364
0
LINE
8
Black
10
53.245
20
-128.364
11
53.1021
21
-128.221
0
LINE
8
Black
10
53.1021
20
-128.221
11
52.9593
21
-127.936
0
LINE
8
Black
10
52.9593
20
-127.936
11
52.8164
21
-127.364
0
LINE
8
Black
10
52.8164
20
-127.364
11
52.8164
21
-126.65
0
LINE
8
Black
10
52.8164
20
-126.65
11
52.9593
21
-126.079
0
LINE
8
Black
10
52.9593
20
-126.079
11
53.1021
21
-125.793
0
LINE
8
Black
10
53.1021
20
-125.793
11
53.245
21
-125.65
0
LINE
8
Black
10
53.245
20
-125.65
11
53.5307
21
-125.507
0
LINE
8
Black
10
57.3879
20
-128.507
11
55.6736
21
-128.507
0
LINE
8
Black
10
56.5307
20
-128.507
11
56.5307
21
-125.507
0
LINE
8
Black
10
56.5307
20
-125.507
11
56.245
21
-125.936
0
LINE
8
Black
10
56.245
20
-125.936
11
55.9593
21
-126.221
0
LINE
8
Black
10
55.9593
20
-126.221
11
55.6736
21
-126.364
0
LINE
8
Black
10
59.245
20
-125.507
11
59.5307
21
-125.507
0
LINE
8
Black
10
59.5307
20
-125.507
11
59.8164
21
-125.65
0
LINE
8
Black
10
59.8164
20
-125.65
11
59.9593
21
-125.793
0
LINE
8
Black
10
59.9593
20
-125.793
11
60.1021
21
-126.079
0
LINE
8
Black
10
60.1021
20
-126.079
11
60.245
21
-126.65
0
LINE
8
Black
10
60.245
20
-126.65
11
60.245
21
-127.364
0
LINE
8
Black
10
60.245
20
-127.364
11
60.1021
21
-127.936
0
LINE
8
Black
10
60.1021
20
-127.936
11
59.9593
21
-128.221
0
LINE
8
Black
10
59.9593
20
-128.221
11
59.8164
21
-128.364
0
LINE
8
Black
10
59.8164
20
-128.364
11
59.5307
21
-128.507
0
LINE
8
Black
10
59.5307
20
-128.507
11
59.245
21
-128.507
0
LINE
8
Black
10
59.245
20
-128.507
11
58.9593
21
-128.364
0
LINE
8
Black
10
58.9593
20
-128.364
11
58.8164
21
-128.221
0
LINE
8
Black
10
58.8164
20
-128.221
11
58.6736
21
-127.936
0
LINE
8
Black
10
58.6736
20
-127.936
11
58.5307
21
-127.364
0
LINE
8
Black
10
58.5307
20
-127.364
11
58.5307
21
-126.65
0
LINE
8
Black
10
58.5307
20
-126.65
11
58.6736
21
-126.079
0
LINE
8
Black
10
58.6736
20
-126.079
11
58.8164
21
-125.793
0
LINE
8
Black
10
58.8164
20
-125.793
11
58.9593
21
-125.65
0
LINE
8
Black
10
58.9593
20
-125.65
11
59.245
21
-125.507
0
LINE
8
Black
10
61.3879
20
-125.507
11
61.3879
21
-126.079
0
LINE
8
Black
10
62.5307
20
-125.507
11
62.5307
21
-126.079
0
LINE
8
Black
10
66.9593
20
-129.65
11
66.8164
21
-129.507
0
LINE
8
Black
10
66.8164
20
-129.507
11
66.5307
21
-129.079
0
LINE
8
Black
10
66.5307
20
-129.079
11
66.3879
21
-128.793
0
LINE
8
Black
10
66.3879
20
-128.793
11
66.245
21
-128.364
0
LINE
8
Black
10
66.245
20
-128.364
11
66.1021
21
-127.65
0
LINE
8
Black
10
66.1021
20
-127.65
11
66.1021
21
-127.079
0
LINE
8
Black
10
66.1021
20
-127.079
11
66.245
21
-126.364
0
LINE
8
Black
10
66.245
20
-126.364
11
66.3879
21
-125.936
0
LINE
8
Black
10
66.3879
20
-125.936
11
66.5307
21
-125.65
0
LINE
8
Black
10
66.5307
20
-125.65
11
66.8164
21
-125.221
0
LINE
8
Black
10
66.8164
20
-125.221
11
66.9593
21
-125.079
0
LINE
8
Black
10
69.3879
20
-125.507
11
68.8164
21
-125.507
0
LINE
8
Black
10
68.8164
20
-125.507
11
68.5307
21
-125.65
0
LINE
8
Black
10
68.5307
20
-125.65
11
68.3879
21
-125.793
0
LINE
8
Black
10
68.3879
20
-125.793
11
68.1021
21
-126.221
0
LINE
8
Black
10
68.1021
20
-126.221
11
67.9593
21
-126.793
0
LINE
8
Black
10
67.9593
20
-126.793
11
67.9593
21
-127.936
0
LINE
8
Black
10
67.9593
20
-127.936
11
68.1021
21
-128.221
0
LINE
8
Black
10
68.1021
20
-128.221
11
68.245
21
-128.364
0
LINE
8
Black
10
68.245
20
-128.364
11
68.5307
21
-128.507
0
LINE
8
Black
10
68.5307
20
-128.507
11
69.1021
21
-128.507
0
LINE
8
Black
10
69.1021
20
-128.507
11
69.3879
21
-128.364
0
LINE
8
Black
10
69.3879
20
-128.364
11
69.5307
21
-128.221
0
LINE
8
Black
10
69.5307
20
-128.221
11
69.6736
21
-127.936
0
LINE
8
Black
10
69.6736
20
-127.936
11
69.6736
21
-127.221
0
LINE
8
Black
10
69.6736
20
-127.221
11
69.5307
21
-126.936
0
LINE
8
Black
10
69.5307
20
-126.936
11
69.3879
21
-126.793
0
LINE
8
Black
10
69.3879
20
-126.793
11
69.1021
21
-126.65
0
LINE
8
Black
10
69.1021
20
-126.65
11
68.5307
21
-126.65
0
LINE
8
Black
10
68.5307
20
-126.65
11
68.245
21
-126.793
0
LINE
8
Black
10
68.245
20
-126.793
11
68.1021
21
-126.936
0
LINE
8
Black
10
68.1021
20
-126.936
11
67.9593
21
-127.221
0
LINE
8
Black
10
73.245
20
-128.507
11
73.245
21
-125.507
0
LINE
8
Black
10
74.5307
20
-128.507
11
74.5307
21
-126.936
0
LINE
8
Black
10
74.5307
20
-126.936
11
74.3879
21
-126.65
0
LINE
8
Black
10
74.3879
20
-126.65
11
74.1021
21
-126.507
0
LINE
8
Black
10
74.1021
20
-126.507
11
73.6736
21
-126.507
0
LINE
8
Black
10
73.6736
20
-126.507
11
73.3879
21
-126.65
0
LINE
8
Black
10
73.3879
20
-126.65
11
73.245
21
-126.793
0
LINE
8
Black
10
76.3879
20
-128.507
11
76.1021
21
-128.364
0
LINE
8
Black
10
76.1021
20
-128.364
11
75.9593
21
-128.221
0
LINE
8
Black
10
75.9593
20
-128.221
11
75.8164
21
-127.936
0
LINE
8
Black
10
75.8164
20
-127.936
11
75.8164
21
-127.079
0
LINE
8
Black
10
75.8164
20
-127.079
11
75.9593
21
-126.793
0
LINE
8
Black
10
75.9593
20
-126.793
11
76.1021
21
-126.65
0
LINE
8
Black
10
76.1021
20
-126.65
11
76.3879
21
-126.507
0
LINE
8
Black
10
76.3879
20
-126.507
11
76.8164
21
-126.507
0
LINE
8
Black
10
76.8164
20
-126.507
11
77.1021
21
-126.65
0
LINE
8
Black
10
77.1021
20
-126.65
11
77.245
21
-126.793
0
LINE
8
Black
10
77.245
20
-126.793
11
77.3879
21
-127.079
0
LINE
8
Black
10
77.3879
20
-127.079
11
77.3879
21
-127.936
0
LINE
8
Black
10
77.3879
20
-127.936
11
77.245
21
-128.221
0
LINE
8
Black
10
77.245
20
-128.221
11
77.1021
21
-128.364
0
LINE
8
Black
10
77.1021
20
-128.364
11
76.8164
21
-128.507
0
LINE
8
Black
10
76.8164
20
-128.507
11
76.3879
21
-128.507
0
LINE
8
Black
10
79.1021
20
-128.507
11
78.8164
21
-128.364
0
LINE
8
Black
10
78.8164
20
-128.364
11
78.6736
21
-128.079
0
LINE
8
Black
10
78.6736
20
-128.079
11
78.6736
21
-125.507
0
LINE
8
Black
10
81.3879
20
-128.364
11
81.1021
21
-128.507
0
LINE
8
Black
10
81.1021
20
-128.507
11
80.5307
21
-128.507
0
LINE
8
Black
10
80.5307
20
-128.507
11
80.245
21
-128.364
0
LINE
8
Black
10
80.245
20
-128.364
11
80.1021
21
-128.079
0
LINE
8
Black
10
80.1021
20
-128.079
11
80.1021
21
-126.936
0
LINE
8
Black
10
80.1021
20
-126.936
11
80.245
21
-126.65
0
LINE
8
Black
10
80.245
20
-126.65
11
80.5307
21
-126.507
0
LINE
8
Black
10
80.5307
20
-126.507
11
81.1021
21
-126.507
0
LINE
8
Black
10
81.1021
20
-126.507
11
81.3879
21
-126.65
0
LINE
8
Black
10
81.3879
20
-126.65
11
81.5307
21
-126.936
0
LINE
8
Black
10
81.5307
20
-126.936
11
81.5307
21
-127.221
0
LINE
8
Black
10
81.5307
20
-127.221
11
80.1021
21
-127.507
0
LINE
8
Black
10
82.6736
20
-128.364
11
82.9593
21
-128.507
0
LINE
8
Black
10
82.9593
20
-128.507
11
83.5307
21
-128.507
0
LINE
8
Black
10
83.5307
20
-128.507
11
83.8164
21
-128.364
0
LINE
8
Black
10
83.8164
20
-128.364
11
83.9593
21
-128.079
0
LINE
8
Black
10
83.9593
20
-128.079
11
83.9593
21
-127.936
0
LINE
8
Black
10
83.9593
20
-127.936
11
83.8164
21
-127.65
0
LINE
8
Black
10
83.8164
20
-127.65
11
83.5307
21
-127.507
0
LINE
8
Black
10
83.5307
20
-127.507
11
83.1021
21
-127.507
0
LINE
8
Black
10
83.1021
20
-127.507
11
82.8164
21
-127.364
0
LINE
8
Black
10
82.8164
20
-127.364
11
82.6736
21
-127.079
0
LINE
8
Black
10
82.6736
20
-127.079
11
82.6736
21
-126.936
0
LINE
8
Black
10
82.6736
20
-126.936
11
82.8164
21
-126.65
0
LINE
8
Black
10
82.8164
20
-126.65
11
83.1021
21
-126.507
0
LINE
8
Black
10
83.1021
20
-126.507
11
83.5307
21
-126.507
0
LINE
8
Black
10
83.5307
20
-126.507
11
83.8164
21
-126.65
0
LINE
8
Black
10
84.9593
20
-129.65
11
85.1021
21
-129.507
0
LINE
8
Black
10
85.1021
20
-129.507
11
85.3879
21
-129.079
0
LINE
8
Black
10
85.3879
20
-129.079
11
85.5307
21
-128.793
0
LINE
8
Black
10
85.5307
20
-128.793
11
85.6736
21
-128.364
0
LINE
8
Black
10
85.6736
20
-128.364
11
85.8164
21
-127.65
0
LINE
8
Black
10
85.8164
20
-127.65
11
85.8164
21
-127.079
0
LINE
8
Black
10
85.8164
20
-127.079
11
85.6736
21
-126.364
0
LINE
8
Black
10
85.6736
20
-126.364
11
85.5307
21
-125.936
0
LINE
8
Black
10
85.5307
20
-125.936
11
85.3879
21
-125.65
0
LINE
8
Black
10
85.3879
20
-125.65
11
85.1021
21
-125.221
0
LINE
8
Black
10
85.1021
20
-125.221
11
84.9593
21
-125.079
0
CIRCLE
8
Black
10
20.045
20
-131.11
40
0.2
0
LINE
8
Black
10
23.5307
20
-129.467
11
23.8164
21
-129.467
0
LINE
8
Black
10
23.8164
20
-129.467
11
24.1021
21
-129.61
0
LINE
8
Black
10
24.1021
20
-129.61
11
24.245
21
-129.753
0
LINE
8
Black
10
24.245
20
-129.753
11
24.3879
21
-130.039
0
LINE
8
Black
10
24.3879
20
-130.039
11
24.5307
21
-130.61
0
LINE
8
Black
10
24.5307
20
-130.61
11
24.5307
21
-131.324
0
LINE
8
Black
10
24.5307
20
-131.324
11
24.3879
21
-131.896
0
LINE
8
Black
10
24.3879
20
-131.896
11
24.245
21
-132.181
0
LINE
8
Black
10
24.245
20
-132.181
11
24.1021
21
-132.324
0
LINE
8
Black
10
24.1021
20
-132.324
11
23.8164
21
-132.467
0
LINE
8
Black
10
23.8164
20
-132.467
11
23.5307
21
-132.467
0
LINE
8
Black
10
23.5307
20
-132.467
11
23.245
21
-132.324
0
LINE
8
Black
10
23.245
20
-132.324
11
23.1021
21
-132.181
0
LINE
8
Black
10
23.1021
20
-132.181
11
22.9593
21
-131.896
0
LINE
8
Black
10
22.9593
20
-131.896
11
22.8164
21
-131.324
0
LINE
8
Black
10
22.8164
20
-131.324
11
22.8164
21
-130.61
0
LINE
8
Black
10
22.8164
20
-130.61
11
22.9593
21
-130.039
0
LINE
8
Black
10
22.9593
20
-130.039
11
23.1021
21
-129.753
0
LINE
8
Black
10
23.1021
20
-129.753
11
23.245
21
-129.61
0
LINE
8
Black
10
23.245
20
-129.61
11
23.5307
21
-129.467
0
LINE
8
Black
10
25.8164
20
-132.181
11
25.9593
21
-132.324
0
LINE
8
Black
10
25.9593
20
-132.324
11
25.8164
21
-132.467
0
LINE
8
Black
10
25.8164
20
-132.467
11
25.6736
21
-132.324
0
LINE
8
Black
10
25.6736
20
-132.324
11
25.8164
21
-132.181
0
LINE
8
Black
10
25.8164
20
-132.181
11
25.8164
21
-132.467
0
LINE
8
Black
10
28.5307
20
-130.467
11
28.5307
21
-132.467
0
LINE
8
Black
10
27.8164
20
-129.324
11
27.1021
21
-131.467
0
LINE
8
Black
10
27.1021
20
-131.467
11
28.9593
21
-131.467
0
LINE
8
Black
10
30.6736
20
-129.467
11
30.9593
21
-129.467
0
LINE
8
Black
10
30.9593
20
-129.467
11
31.245
21
-129.61
0
LINE
8
Black
10
31.245
20
-129.61
11
31.3879
21
-129.753
0
LINE
8
Black
10
31.3879
20
-129.753
11
31.5307
21
-130.039
0
LINE
8
Black
10
31.5307
20
-130.039
11
31.6736
21
-130.61
0
LINE
8
Black
10
31.6736
20
-130.61
11
31.6736
21
-131.324
0
LINE
8
Black
10
31.6736
20
-131.324
11
31.5307
21
-131.896
0
LINE
8
Black
10
31.5307
20
-131.896
11
31.3879
21
-132.181
0
LINE
8
Black
10
31.3879
20
-132.181
11
31.245
21
-132.324
0
LINE
8
Black
10
31.245
20
-132.324
11
30.9593
21
-132.467
0
LINE
8
Black
10
30.9593
20
-132.467
11
30.6736
21
-132.467
0
LINE
8
Black
10
30.6736
20
-132.467
11
30.3879
21
-132.324
0
LINE
8
Black
10
30.3879
20
-132.324
11
30.245
21
-132.181
0
LINE
8
Black
10
30.245
20
-132.181
11
30.1021
21
-131.896
0
LINE
8
Black
10
30.1021
20
-131.896
11
29.9593
21
-131.324
0
LINE
8
Black
10
29.9593
20
-131.324
11
29.9593
21
-130.61
0
LINE
8
Black
10
29.9593
20
-130.61
11
30.1021
21
-130.039
0
LINE
8
Black
10
30.1021
20
-130.039
11
30.245
21
-129.753
0
LINE
8
Black
10
30.245
20
-129.753
11
30.3879
21
-129.61
0
LINE
8
Black
10
30.3879
20
-129.61
11
30.6736
21
-129.467
0
LINE
8
Black
10
32.9593
20
-132.467
11
32.9593
21
-130.467
0
LINE
8
Black
10
32.9593
20
-130.753
11
33.1021
21
-130.61
0
LINE
8
Black
10
33.1021
20
-130.61
11
33.3879
21
-130.467
0
LINE
8
Black
10
33.3879
20
-130.467
11
33.8164
21
-130.467
0
LINE
8
Black
10
33.8164
20
-130.467
11
34.1021
21
-130.61
0
LINE
8
Black
10
34.1021
20
-130.61
11
34.245
21
-130.896
0
LINE
8
Black
10
34.245
20
-130.896
11
34.245
21
-132.467
0
LINE
8
Black
10
34.245
20
-130.896
11
34.3879
21
-130.61
0
LINE
8
Black
10
34.3879
20
-130.61
11
34.6736
21
-130.467
0
LINE
8
Black
10
34.6736
20
-130.467
11
35.1021
21
-130.467
0
LINE
8
Black
10
35.1021
20
-130.467
11
35.3879
21
-130.61
0
LINE
8
Black
10
35.3879
20
-130.61
11
35.5307
21
-130.896
0
LINE
8
Black
10
35.5307
20
-130.896
11
35.5307
21
-132.467
0
LINE
8
Black
10
36.9593
20
-132.467
11
36.9593
21
-130.467
0
LINE
8
Black
10
36.9593
20
-130.753
11
37.1021
21
-130.61
0
LINE
8
Black
10
37.1021
20
-130.61
11
37.3879
21
-130.467
0
LINE
8
Black
10
37.3879
20
-130.467
11
37.8164
21
-130.467
0
LINE
8
Black
10
37.8164
20
-130.467
11
38.1021
21
-130.61
0
LINE
8
Black
10
38.1021
20
-130.61
11
38.245
21
-130.896
0
LINE
8
Black
10
38.245
20
-130.896
11
38.245
21
-132.467
0
LINE
8
Black
10
38.245
20
-130.896
11
38.3879
21
-130.61
0
LINE
8
Black
10
38.3879
20
-130.61
11
38.6736
21
-130.467
0
LINE
8
Black
10
38.6736
20
-130.467
11
39.1021
21
-130.467
0
LINE
8
Black
10
39.1021
20
-130.467
11
39.3879
21
-130.61
0
LINE
8
Black
10
39.3879
20
-130.61
11
39.5307
21
-130.896
0
LINE
8
Black
10
39.5307
20
-130.896
11
39.5307
21
-132.467
0
LINE
8
Black
10
45.3879
20
-129.324
11
42.8164
21
-133.181
0
LINE
8
Black
10
49.245
20
-129.467
11
49.5307
21
-129.467
0
LINE
8
Black
10
49.5307
20
-129.467
11
49.8164
21
-129.61
0
LINE
8
Black
10
49.8164
20
-129.61
11
49.9593
21
-129.753
0
LINE
8
Black
10
49.9593
20
-129.753
11
50.1021
21
-130.039
0
LINE
8
Black
10
50.1021
20
-130.039
11
50.245
21
-130.61
0
LINE
8
Black
10
50.245
20
-130.61
11
50.245
21
-131.324
0
LINE
8
Black
10
50.245
20
-131.324
11
50.1021
21
-131.896
0
LINE
8
Black
10
50.1021
20
-131.896
11
49.9593
21
-132.181
0
LINE
8
Black
10
49.9593
20
-132.181
11
49.8164
21
-132.324
0
LINE
8
Black
10
49.8164
20
-132.324
11
49.5307
21
-132.467
0
LINE
8
Black
10
49.5307
20
-132.467
11
49.245
21
-132.467
0
LINE
8
Black
10
49.245
20
-132.467
11
48.9593
21
-132.324
0
LINE
8
Black
10
48.9593
20
-132.324
11
48.8164
21
-132.181
0
LINE
8
Black
10
48.8164
20
-132.181
11
48.6736
21
-131.896
0
LINE
8
Black
10
48.6736
20
-131.896
11
48.5307
21
-131.324
0
LINE
8
Black
10
48.5307
20
-131.324
11
48.5307
21
-130.61
0
LINE
8
Black
10
48.5307
20
-130.61
11
48.6736
21
-130.039
0
LINE
8
Black
10
48.6736
20
-130.039
11
48.8164
21
-129.753
0
LINE
8
Black
10
48.8164
20
-129.753
11
48.9593
21
-129.61
0
LINE
8
Black
10
48.9593
20
-129.61
11
49.245
21
-129.467
0
LINE
8
Black
10
51.5307
20
-132.181
11
51.6736
21
-132.324
0
LINE
8
Black
10
51.6736
20
-132.324
11
51.5307
21
-132.467
0
LINE
8
Black
10
51.5307
20
-132.467
11
51.3879
21
-132.324
0
LINE
8
Black
10
51.3879
20
-132.324
11
51.5307
21
-132.181
0
LINE
8
Black
10
51.5307
20
-132.181
11
51.5307
21
-132.467
0
LINE
8
Black
10
53.5307
20
-129.467
11
53.8164
21
-129.467
0
LINE
8
Black
10
53.8164
20
-129.467
11
54.1021
21
-129.61
0
LINE
8
Black
10
54.1021
20
-129.61
11
54.245
21
-129.753
0
LINE
8
Black
10
54.245
20
-129.753
11
54.3879
21
-130.039
0
LINE
8
Black
10
54.3879
20
-130.039
11
54.5307
21
-130.61
0
LINE
8
Black
10
54.5307
20
-130.61
11
54.5307
21
-131.324
0
LINE
8
Black
10
54.5307
20
-131.324
11
54.3879
21
-131.896
0
LINE
8
Black
10
54.3879
20
-131.896
11
54.245
21
-132.181
0
LINE
8
Black
10
54.245
20
-132.181
11
54.1021
21
-132.324
0
LINE
8
Black
10
54.1021
20
-132.324
11
53.8164
21
-132.467
0
LINE
8
Black
10
53.8164
20
-132.467
11
53.5307
21
-132.467
0
LINE
8
Black
10
53.5307
20
-132.467
11
53.245
21
-132.324
0
LINE
8
Black
10
53.245
20
-132.324
11
53.1021
21
-132.181
0
LINE
8
Black
10
53.1021
20
-132.181
11
52.9593
21
-131.896
0
LINE
8
Black
10
52.9593
20
-131.896
11
52.8164
21
-131.324
0
LINE
8
Black
10
52.8164
20
-131.324
11
52.8164
21
-130.61
0
LINE
8
Black
10
52.8164
20
-130.61
11
52.9593
21
-130.039
0
LINE
8
Black
10
52.9593
20
-130.039
11
53.1021
21
-129.753
0
LINE
8
Black
10
53.1021
20
-129.753
11
53.245
21
-129.61
0
LINE
8
Black
10
53.245
20
-129.61
11
53.5307
21
-129.467
0
LINE
8
Black
10
57.3879
20
-132.467
11
55.6736
21
-132.467
0
LINE
8
Black
10
56.5307
20
-132.467
11
56.5307
21
-129.467
0
LINE
8
Black
10
56.5307
20
-129.467
11
56.245
21
-129.896
0
LINE
8
Black
10
56.245
20
-129.896
11
55.9593
21
-130.181
0
LINE
8
Black
10
55.9593
20
-130.181
11
55.6736
21
-130.324
0
LINE
8
Black
10
59.9593
20
-129.467
11
59.3879
21
-129.467
0
LINE
8
Black
10
59.3879
20
-129.467
11
59.1021
21
-129.61
0
LINE
8
Black
10
59.1021
20
-129.61
11
58.9593
21
-129.753
0
LINE
8
Black
10
58.9593
20
-129.753
11
58.6736
21
-130.181
0
LINE
8
Black
10
58.6736
20
-130.181
11
58.5307
21
-130.753
0
LINE
8
Black
10
58.5307
20
-130.753
11
58.5307
21
-131.896
0
LINE
8
Black
10
58.5307
20
-131.896
11
58.6736
21
-132.181
0
LINE
8
Black
10
58.6736
20
-132.181
11
58.8164
21
-132.324
0
LINE
8
Black
10
58.8164
20
-132.324
11
59.1021
21
-132.467
0
LINE
8
Black
10
59.1021
20
-132.467
11
59.6736
21
-132.467
0
LINE
8
Black
10
59.6736
20
-132.467
11
59.9593
21
-132.324
0
LINE
8
Black
10
59.9593
20
-132.324
11
60.1021
21
-132.181
0
LINE
8
Black
10
60.1021
20
-132.181
11
60.245
21
-131.896
0
LINE
8
Black
10
60.245
20
-131.896
11
60.245
21
-131.181
0
LINE
8
Black
10
60.245
20
-131.181
11
60.1021
21
-130.896
0
LINE
8
Black
10
60.1021
20
-130.896
11
59.9593
21
-130.753
0
LINE
8
Black
10
59.9593
20
-130.753
11
59.6736
21
-130.61
0
LINE
8
Black
10
59.6736
20
-130.61
11
59.1021
21
-130.61
0
LINE
8
Black
10
59.1021
20
-130.61
11
58.8164
21
-130.753
0
LINE
8
Black
10
58.8164
20
-130.753
11
58.6736
21
-130.896
0
LINE
8
Black
10
58.6736
20
-130.896
11
58.5307
21
-131.181
0
LINE
8
Black
10
61.3879
20
-129.467
11
61.3879
21
-130.039
0
LINE
8
Black
10
62.5307
20
-129.467
11
62.5307
21
-130.039
0
LINE
8
Black
10
66.9593
20
-133.61
11
66.8164
21
-133.467
0
LINE
8
Black
10
66.8164
20
-133.467
11
66.5307
21
-133.039
0
LINE
8
Black
10
66.5307
20
-133.039
11
66.3879
21
-132.753
0
LINE
8
Black
10
66.3879
20
-132.753
11
66.245
21
-132.324
0
LINE
8
Black
10
66.245
20
-132.324
11
66.1021
21
-131.61
0
LINE
8
Black
10
66.1021
20
-131.61
11
66.1021
21
-131.039
0
LINE
8
Black
10
66.1021
20
-131.039
11
66.245
21
-130.324
0
LINE
8
Black
10
66.245
20
-130.324
11
66.3879
21
-129.896
0
LINE
8
Black
10
66.3879
20
-129.896
11
66.5307
21
-129.61
0
LINE
8
Black
10
66.5307
20
-129.61
11
66.8164
21
-129.181
0
LINE
8
Black
10
66.8164
20
-129.181
11
66.9593
21
-129.039
0
LINE
8
Black
10
67.8164
20
-129.467
11
69.6736
21
-129.467
0
LINE
8
Black
10
69.6736
20
-129.467
11
68.6736
21
-130.61
0
LINE
8
Black
10
68.6736
20
-130.61
11
69.1021
21
-130.61
0
LINE
8
Black
10
69.1021
20
-130.61
11
69.3879
21
-130.753
0
LINE
8
Black
10
69.3879
20
-130.753
11
69.5307
21
-130.896
0
LINE
8
Black
10
69.5307
20
-130.896
11
69.6736
21
-131.181
0
LINE
8
Black
10
69.6736
20
-131.181
11
69.6736
21
-131.896
0
LINE
8
Black
10
69.6736
20
-131.896
11
69.5307
21
-132.181
0
LINE
8
Black
10
69.5307
20
-132.181
11
69.3879
21
-132.324
0
LINE
8
Black
10
69.3879
20
-132.324
11
69.1021
21
-132.467
0
LINE
8
Black
10
69.1021
20
-132.467
11
68.245
21
-132.467
0
LINE
8
Black
10
68.245
20
-132.467
11
67.9593
21
-132.324
0
LINE
8
Black
10
67.9593
20
-132.324
11
67.8164
21
-132.181
0
LINE
8
Black
10
73.245
20
-132.467
11
73.245
21
-129.467
0
LINE
8
Black
10
74.5307
20
-132.467
11
74.5307
21
-130.896
0
LINE
8
Black
10
74.5307
20
-130.896
11
74.3879
21
-130.61
0
LINE
8
Black
10
74.3879
20
-130.61
11
74.1021
21
-130.467
0
LINE
8
Black
10
74.1021
20
-130.467
11
73.6736
21
-130.467
0
LINE
8
Black
10
73.6736
20
-130.467
11
73.3879
21
-130.61
0
LINE
8
Black
10
73.3879
20
-130.61
11
73.245
21
-130.753
0
LINE
8
Black
10
76.3879
20
-132.467
11
76.1021
21
-132.324
0
LINE
8
Black
10
76.1021
20
-132.324
11
75.9593
21
-132.181
0
LINE
8
Black
10
75.9593
20
-132.181
11
75.8164
21
-131.896
0
LINE
8
Black
10
75.8164
20
-131.896
11
75.8164
21
-131.039
0
LINE
8
Black
10
75.8164
20
-131.039
11
75.9593
21
-130.753
0
LINE
8
Black
10
75.9593
20
-130.753
11
76.1021
21
-130.61
0
LINE
8
Black
10
76.1021
20
-130.61
11
76.3879
21
-130.467
0
LINE
8
Black
10
76.3879
20
-130.467
11
76.8164
21
-130.467
0
LINE
8
Black
10
76.8164
20
-130.467
11
77.1021
21
-130.61
0
LINE
8
Black
10
77.1021
20
-130.61
11
77.245
21
-130.753
0
LINE
8
Black
10
77.245
20
-130.753
11
77.3879
21
-131.039
0
LINE
8
Black
10
77.3879
20
-131.039
11
77.3879
21
-131.896
0
LINE
8
Black
10
77.3879
20
-131.896
11
77.245
21
-132.181
0
LINE
8
Black
10
77.245
20
-132.181
11
77.1021
21
-132.324
0
LINE
8
Black
10
77.1021
20
-132.324
11
76.8164
21
-132.467
0
LINE
8
Black
10
76.8164
20
-132.467
11
76.3879
21
-132.467
0
LINE
8
Black
10
79.1021
20
-132.467
11
78.8164
21
-132.324
0
LINE
8
Black
10
78.8164
20
-132.324
11
78.6736
21
-132.039
0
LINE
8
Black
10
78.6736
20
-132.039
11
78.6736
21
-129.467
0
LINE
8
Black
10
81.3879
20
-132.324
11
81.1021
21
-132.467
0
LINE
8
Black
10
81.1021
20
-132.467
11
80.5307
21
-132.467
0
LINE
8
Black
10
80.5307
20
-132.467
11
80.245
21
-132.324
0
LINE
8
Black
10
80.245
20
-132.324
11
80.1021
21
-132.039
0
LINE
8
Black
10
80.1021
20
-132.039
11
80.1021
21
-130.896
0
LINE
8
Black
10
80.1021
20
-130.896
11
80.245
21
-130.61
0
LINE
8
Black
10
80.245
20
-130.61
11
80.5307
21
-130.467
0
LINE
8
Black
10
80.5307
20
-130.467
11
81.1021
21
-130.467
0
LINE
8
Black
10
81.1021
20
-130.467
11
81.3879
21
-130.61
0
LINE
8
Black
10
81.3879
20
-130.61
11
81.5307
21
-130.896
0
LINE
8
Black
10
81.5307
20
-130.896
11
81.5307
21
-131.181
0
LINE
8
Black
10
81.5307
20
-131.181
11
80.1021
21
-131.467
0
LINE
8
Black
10
82.6736
20
-132.324
11
82.9593
21
-132.467
0
LINE
8
Black
10
82.9593
20
-132.467
11
83.5307
21
-132.467
0
LINE
8
Black
10
83.5307
20
-132.467
11
83.8164
21
-132.324
0
LINE
8
Black
10
83.8164
20
-132.324
11
83.9593
21
-132.039
0
LINE
8
Black
10
83.9593
20
-132.039
11
83.9593
21
-131.896
0
LINE
8
Black
10
83.9593
20
-131.896
11
83.8164
21
-131.61
0
LINE
8
Black
10
83.8164
20
-131.61
11
83.5307
21
-131.467
0
LINE
8
Black
10
83.5307
20
-131.467
11
83.1021
21
-131.467
0
LINE
8
Black
10
83.1021
20
-131.467
11
82.8164
21
-131.324
0
LINE
8
Black
10
82.8164
20
-131.324
11
82.6736
21
-131.039
0
LINE
8
Black
10
82.6736
20
-131.039
11
82.6736
21
-130.896
0
LINE
8
Black
10
82.6736
20
-130.896
11
82.8164
21
-130.61
0
LINE
8
Black
10
82.8164
20
-130.61
11
83.1021
21
-130.467
0
LINE
8
Black
10
83.1021
20
-130.467
11
83.5307
21
-130.467
0
LINE
8
Black
10
83.5307
20
-130.467
11
83.8164
21
-130.61
0
LINE
8
Black
10
84.9593
20
-133.61
11
85.1021
21
-133.467
0
LINE
8
Black
10
85.1021
20
-133.467
11
85.3879
21
-133.039
0
LINE
8
Black
10
85.3879
20
-133.039
11
85.5307
21
-132.753
0
LINE
8
Black
10
85.5307
20
-132.753
11
85.6736
21
-132.324
0
LINE
8
Black
10
85.6736
20
-132.324
11
85.8164
21
-131.61
0
LINE
8
Black
10
85.8164
20
-131.61
11
85.8164
21
-131.039
0
LINE
8
Black
10
85.8164
20
-131.039
11
85.6736
21
-130.324
0
LINE
8
Black
10
85.6736
20
-130.324
11
85.5307
21
-129.896
0
LINE
8
Black
10
85.5307
20
-129.896
11
85.3879
21
-129.61
0
LINE
8
Black
10
85.3879
20
-129.61
11
85.1021
21
-129.181
0
LINE
8
Black
10
85.1021
20
-129.181
11
84.9593
21
-129.039
0
LINE
8
Black
10
19.7497
20
-134.575
11
19.7497
21
-135.565
0
LINE
8
Black
10
19.2544
20
-135.07
11
20.245
21
-135.07
0
LINE
8
Black
10
23.5307
20
-133.427
11
23.8164
21
-133.427
0
LINE
8
Black
10
23.8164
20
-133.427
11
24.1021
21
-133.57
0
LINE
8
Black
10
24.1021
20
-133.57
11
24.245
21
-133.713
0
LINE
8
Black
10
24.245
20
-133.713
11
24.3879
21
-133.999
0
LINE
8
Black
10
24.3879
20
-133.999
11
24.5307
21
-134.57
0
LINE
8
Black
10
24.5307
20
-134.57
11
24.5307
21
-135.284
0
LINE
8
Black
10
24.5307
20
-135.284
11
24.3879
21
-135.856
0
LINE
8
Black
10
24.3879
20
-135.856
11
24.245
21
-136.141
0
LINE
8
Black
10
24.245
20
-136.141
11
24.1021
21
-136.284
0
LINE
8
Black
10
24.1021
20
-136.284
11
23.8164
21
-136.427
0
LINE
8
Black
10
23.8164
20
-136.427
11
23.5307
21
-136.427
0
LINE
8
Black
10
23.5307
20
-136.427
11
23.245
21
-136.284
0
LINE
8
Black
10
23.245
20
-136.284
11
23.1021
21
-136.141
0
LINE
8
Black
10
23.1021
20
-136.141
11
22.9593
21
-135.856
0
LINE
8
Black
10
22.9593
20
-135.856
11
22.8164
21
-135.284
0
LINE
8
Black
10
22.8164
20
-135.284
11
22.8164
21
-134.57
0
LINE
8
Black
10
22.8164
20
-134.57
11
22.9593
21
-133.999
0
LINE
8
Black
10
22.9593
20
-133.999
11
23.1021
21
-133.713
0
LINE
8
Black
10
23.1021
20
-133.713
11
23.245
21
-133.57
0
LINE
8
Black
10
23.245
20
-133.57
11
23.5307
21
-133.427
0
LINE
8
Black
10
25.8164
20
-136.141
11
25.9593
21
-136.284
0
LINE
8
Black
10
25.9593
20
-136.284
11
25.8164
21
-136.427
0
LINE
8
Black
10
25.8164
20
-136.427
11
25.6736
21
-136.284
0
LINE
8
Black
10
25.6736
20
-136.284
11
25.8164
21
-136.141
0
LINE
8
Black
10
25.8164
20
-136.141
11
25.8164
21
-136.427
0
LINE
8
Black
10
27.3879
20
-136.427
11
27.9593
21
-136.427
0
LINE
8
Black
10
27.9593
20
-136.427
11
28.245
21
-136.284
0
LINE
8
Black
10
28.245
20
-136.284
11
28.3879
21
-136.141
0
LINE
8
Black
10
28.3879
20
-136.141
11
28.6736
21
-135.713
0
LINE
8
Black
10
28.6736
20
-135.713
11
28.8164
21
-135.141
0
LINE
8
Black
10
28.8164
20
-135.141
11
28.8164
21
-133.999
0
LINE
8
Black
10
28.8164
20
-133.999
11
28.6736
21
-133.713
0
LINE
8
Black
10
28.6736
20
-133.713
11
28.5307
21
-133.57
0
LINE
8
Black
10
28.5307
20
-133.57
11
28.245
21
-133.427
0
LINE
8
Black
10
28.245
20
-133.427
11
27.6736
21
-133.427
0
LINE
8
Black
10
27.6736
20
-133.427
11
27.3879
21
-133.57
0
LINE
8
Black
10
27.3879
20
-133.57
11
27.245
21
-133.713
0
LINE
8
Black
10
27.245
20
-133.713
11
27.1021
21
-133.999
0
LINE
8
Black
10
27.1021
20
-133.999
11
27.1021
21
-134.713
0
LINE
8
Black
10
27.1021
20
-134.713
11
27.245
21
-134.999
0
LINE
8
Black
10
27.245
20
-134.999
11
27.3879
21
-135.141
0
LINE
8
Black
10
27.3879
20
-135.141
11
27.6736
21
-135.284
0
LINE
8
Black
10
27.6736
20
-135.284
11
28.245
21
-135.284
0
LINE
8
Black
10
28.245
20
-135.284
11
28.5307
21
-135.141
0
LINE
8
Black
10
28.5307
20
-135.141
11
28.6736
21
-134.999
0
LINE
8
Black
10
28.6736
20
-134.999
11
28.8164
21
-134.713
0
LINE
8
Black
10
30.245
20
-136.427
11
30.8164
21
-136.427
0
LINE
8
Black
10
30.8164
20
-136.427
11
31.1021
21
-136.284
0
LINE
8
Black
10
31.1021
20
-136.284
11
31.245
21
-136.141
0
LINE
8
Black
10
31.245
20
-136.141
11
31.5307
21
-135.713
0
LINE
8
Black
10
31.5307
20
-135.713
11
31.6736
21
-135.141
0
LINE
8
Black
10
31.6736
20
-135.141
11
31.6736
21
-133.999
0
LINE
8
Black
10
31.6736
20
-133.999
11
31.5307
21
-133.713
0
LINE
8
Black
10
31.5307
20
-133.713
11
31.3879
21
-133.57
0
LINE
8
Black
10
31.3879
20
-133.57
11
31.1021
21
-133.427
0
LINE
8
Black
10
31.1021
20
-133.427
11
30.5307
21
-133.427
0
LINE
8
Black
10
30.5307
20
-133.427
11
30.245
21
-133.57
0
LINE
8
Black
10
30.245
20
-133.57
11
30.1021
21
-133.713
0
LINE
8
Black
10
30.1021
20
-133.713
11
29.9593
21
-133.999
0
LINE
8
Black
10
29.9593
20
-133.999
11
29.9593
21
-134.713
0
LINE
8
Black
10
29.9593
20
-134.713
11
30.1021
21
-134.999
0
LINE
8
Black
10
30.1021
20
-134.999
11
30.245
21
-135.141
0
LINE
8
Black
10
30.245
20
-135.141
11
30.5307
21
-135.284
0
LINE
8
Black
10
30.5307
20
-135.284
11
31.1021
21
-135.284
0
LINE
8
Black
10
31.1021
20
-135.284
11
31.3879
21
-135.141
0
LINE
8
Black
10
31.3879
20
-135.141
11
31.5307
21
-134.999
0
LINE
8
Black
10
31.5307
20
-134.999
11
31.6736
21
-134.713
0
LINE
8
Black
10
32.9593
20
-136.427
11
32.9593
21
-134.427
0
LINE
8
Black
10
32.9593
20
-134.713
11
33.1021
21
-134.57
0
LINE
8
Black
10
33.1021
20
-134.57
11
33.3879
21
-134.427
0
LINE
8
Black
10
33.3879
20
-134.427
11
33.8164
21
-134.427
0
LINE
8
Black
10
33.8164
20
-134.427
11
34.1021
21
-134.57
0
LINE
8
Black
10
34.1021
20
-134.57
11
34.245
21
-134.856
0
LINE
8
Black
10
34.245
20
-134.856
11
34.245
21
-136.427
0
LINE
8
Black
10
34.245
20
-134.856
11
34.3879
21
-134.57
0
LINE
8
Black
10
34.3879
20
-134.57
11
34.6736
21
-134.427
0
LINE
8
Black
10
34.6736
20
-134.427
11
35.1021
21
-134.427
0
LINE
8
Black
10
35.1021
20
-134.427
11
35.3879
21
-134.57
0
LINE
8
Black
10
35.3879
20
-134.57
11
35.5307
21
-134.856
0
LINE
8
Black
10
35.5307
20
-134.856
11
35.5307
21
-136.427
0
LINE
8
Black
10
36.9593
20
-136.427
11
36.9593
21
-134.427
0
LINE
8
Black
10
36.9593
20
-134.713
11
37.1021
21
-134.57
0
LINE
8
Black
10
37.1021
20
-134.57
11
37.3879
21
-134.427
0
LINE
8
Black
10
37.3879
20
-134.427
11
37.8164
21
-134.427
0
LINE
8
Black
10
37.8164
20
-134.427
11
38.1021
21
-134.57
0
LINE
8
Black
10
38.1021
20
-134.57
11
38.245
21
-134.856
0
LINE
8
Black
10
38.245
20
-134.856
11
38.245
21
-136.427
0
LINE
8
Black
10
38.245
20
-134.856
11
38.3879
21
-134.57
0
LINE
8
Black
10
38.3879
20
-134.57
11
38.6736
21
-134.427
0
LINE
8
Black
10
38.6736
20
-134.427
11
39.1021
21
-134.427
0
LINE
8
Black
10
39.1021
20
-134.427
11
39.3879
21
-134.57
0
LINE
8
Black
10
39.3879
20
-134.57
11
39.5307
21
-134.856
0
LINE
8
Black
10
39.5307
20
-134.856
11
39.5307
21
-136.427
0
LINE
8
Black
10
45.3879
20
-133.284
11
42.8164
21
-137.141
0
LINE
8
Black
10
49.245
20
-133.427
11
49.5307
21
-133.427
0
LINE
8
Black
10
49.5307
20
-133.427
11
49.8164
21
-133.57
0
LINE
8
Black
10
49.8164
20
-133.57
11
49.9593
21
-133.713
0
LINE
8
Black
10
49.9593
20
-133.713
11
50.1021
21
-133.999
0
LINE
8
Black
10
50.1021
20
-133.999
11
50.245
21
-134.57
0
LINE
8
Black
10
50.245
20
-134.57
11
50.245
21
-135.284
0
LINE
8
Black
10
50.245
20
-135.284
11
50.1021
21
-135.856
0
LINE
8
Black
10
50.1021
20
-135.856
11
49.9593
21
-136.141
0
LINE
8
Black
10
49.9593
20
-136.141
11
49.8164
21
-136.284
0
LINE
8
Black
10
49.8164
20
-136.284
11
49.5307
21
-136.427
0
LINE
8
Black
10
49.5307
20
-136.427
11
49.245
21
-136.427
0
LINE
8
Black
10
49.245
20
-136.427
11
48.9593
21
-136.284
0
LINE
8
Black
10
48.9593
20
-136.284
11
48.8164
21
-136.141
0
LINE
8
Black
10
48.8164
20
-136.141
11
48.6736
21
-135.856
0
LINE
8
Black
10
48.6736
20
-135.856
11
48.5307
21
-135.284
0
LINE
8
Black
10
48.5307
20
-135.284
11
48.5307
21
-134.57
0
LINE
8
Black
10
48.5307
20
-134.57
11
48.6736
21
-133.999
0
LINE
8
Black
10
48.6736
20
-133.999
11
48.8164
21
-133.713
0
LINE
8
Black
10
48.8164
20
-133.713
11
48.9593
21
-133.57
0
LINE
8
Black
10
48.9593
20
-133.57
11
49.245
21
-133.427
0
LINE
8
Black
10
51.5307
20
-136.141
11
51.6736
21
-136.284
0
LINE
8
Black
10
51.6736
20
-136.284
11
51.5307
21
-136.427
0
LINE
8
Black
10
51.5307
20
-136.427
11
51.3879
21
-136.284
0
LINE
8
Black
10
51.3879
20
-136.284
11
51.5307
21
-136.141
0
LINE
8
Black
10
51.5307
20
-136.141
11
51.5307
21
-136.427
0
LINE
8
Black
10
53.5307
20
-133.427
11
53.8164
21
-133.427
0
LINE
8
Black
10
53.8164
20
-133.427
11
54.1021
21
-133.57
0
LINE
8
Black
10
54.1021
20
-133.57
11
54.245
21
-133.713
0
LINE
8
Black
10
54.245
20
-133.713
11
54.3879
21
-133.999
0
LINE
8
Black
10
54.3879
20
-133.999
11
54.5307
21
-134.57
0
LINE
8
Black
10
54.5307
20
-134.57
11
54.5307
21
-135.284
0
LINE
8
Black
10
54.5307
20
-135.284
11
54.3879
21
-135.856
0
LINE
8
Black
10
54.3879
20
-135.856
11
54.245
21
-136.141
0
LINE
8
Black
10
54.245
20
-136.141
11
54.1021
21
-136.284
0
LINE
8
Black
10
54.1021
20
-136.284
11
53.8164
21
-136.427
0
LINE
8
Black
10
53.8164
20
-136.427
11
53.5307
21
-136.427
0
LINE
8
Black
10
53.5307
20
-136.427
11
53.245
21
-136.284
0
LINE
8
Black
10
53.245
20
-136.284
11
53.1021
21
-136.141
0
LINE
8
Black
10
53.1021
20
-136.141
11
52.9593
21
-135.856
0
LINE
8
Black
10
52.9593
20
-135.856
11
52.8164
21
-135.284
0
LINE
8
Black
10
52.8164
20
-135.284
11
52.8164
21
-134.57
0
LINE
8
Black
10
52.8164
20
-134.57
11
52.9593
21
-133.999
0
LINE
8
Black
10
52.9593
20
-133.999
11
53.1021
21
-133.713
0
LINE
8
Black
10
53.1021
20
-133.713
11
53.245
21
-133.57
0
LINE
8
Black
10
53.245
20
-133.57
11
53.5307
21
-133.427
0
LINE
8
Black
10
55.5307
20
-133.427
11
57.3879
21
-133.427
0
LINE
8
Black
10
57.3879
20
-133.427
11
56.3879
21
-134.57
0
LINE
8
Black
10
56.3879
20
-134.57
11
56.8164
21
-134.57
0
LINE
8
Black
10
56.8164
20
-134.57
11
57.1021
21
-134.713
0
LINE
8
Black
10
57.1021
20
-134.713
11
57.245
21
-134.856
0
LINE
8
Black
10
57.245
20
-134.856
11
57.3879
21
-135.141
0
LINE
8
Black
10
57.3879
20
-135.141
11
57.3879
21
-135.856
0
LINE
8
Black
10
57.3879
20
-135.856
11
57.245
21
-136.141
0
LINE
8
Black
10
57.245
20
-136.141
11
57.1021
21
-136.284
0
LINE
8
Black
10
57.1021
20
-136.284
11
56.8164
21
-136.427
0
LINE
8
Black
10
56.8164
20
-136.427
11
55.9593
21
-136.427
0
LINE
8
Black
10
55.9593
20
-136.427
11
55.6736
21
-136.284
0
LINE
8
Black
10
55.6736
20
-136.284
11
55.5307
21
-136.141
0
LINE
8
Black
10
58.8164
20
-136.427
11
59.3879
21
-136.427
0
LINE
8
Black
10
59.3879
20
-136.427
11
59.6736
21
-136.284
0
LINE
8
Black
10
59.6736
20
-136.284
11
59.8164
21
-136.141
0
LINE
8
Black
10
59.8164
20
-136.141
11
60.1021
21
-135.713
0
LINE
8
Black
10
60.1021
20
-135.713
11
60.245
21
-135.141
0
LINE
8
Black
10
60.245
20
-135.141
11
60.245
21
-133.999
0
LINE
8
Black
10
60.245
20
-133.999
11
60.1021
21
-133.713
0
LINE
8
Black
10
60.1021
20
-133.713
11
59.9593
21
-133.57
0
LINE
8
Black
10
59.9593
20
-133.57
11
59.6736
21
-133.427
0
LINE
8
Black
10
59.6736
20
-133.427
11
59.1021
21
-133.427
0
LINE
8
Black
10
59.1021
20
-133.427
11
58.8164
21
-133.57
0
LINE
8
Black
10
58.8164
20
-133.57
11
58.6736
21
-133.713
0
LINE
8
Black
10
58.6736
20
-133.713
11
58.5307
21
-133.999
0
LINE
8
Black
10
58.5307
20
-133.999
11
58.5307
21
-134.713
0
LINE
8
Black
10
58.5307
20
-134.713
11
58.6736
21
-134.999
0
LINE
8
Black
10
58.6736
20
-134.999
11
58.8164
21
-135.141
0
LINE
8
Black
10
58.8164
20
-135.141
11
59.1021
21
-135.284
0
LINE
8
Black
10
59.1021
20
-135.284
11
59.6736
21
-135.284
0
LINE
8
Black
10
59.6736
20
-135.284
11
59.9593
21
-135.141
0
LINE
8
Black
10
59.9593
20
-135.141
11
60.1021
21
-134.999
0
LINE
8
Black
10
60.1021
20
-134.999
11
60.245
21
-134.713
0
LINE
8
Black
10
61.3879
20
-133.427
11
61.3879
21
-133.999
0
LINE
8
Black
10
62.5307
20
-133.427
11
62.5307
21
-133.999
0
LINE
8
Black
10
66.9593
20
-137.57
11
66.8164
21
-137.427
0
LINE
8
Black
10
66.8164
20
-137.427
11
66.5307
21
-136.999
0
LINE
8
Black
10
66.5307
20
-136.999
11
66.3879
21
-136.713
0
LINE
8
Black
10
66.3879
20
-136.713
11
66.245
21
-136.284
0
LINE
8
Black
10
66.245
20
-136.284
11
66.1021
21
-135.57
0
LINE
8
Black
10
66.1021
20
-135.57
11
66.1021
21
-134.999
0
LINE
8
Black
10
66.1021
20
-134.999
11
66.245
21
-134.284
0
LINE
8
Black
10
66.245
20
-134.284
11
66.3879
21
-133.856
0
LINE
8
Black
10
66.3879
20
-133.856
11
66.5307
21
-133.57
0
LINE
8
Black
10
66.5307
20
-133.57
11
66.8164
21
-133.141
0
LINE
8
Black
10
66.8164
20
-133.141
11
66.9593
21
-132.999
0
LINE
8
Black
10
68.245
20
-136.427
11
68.8164
21
-136.427
0
LINE
8
Black
10
68.8164
20
-136.427
11
69.1021
21
-136.284
0
LINE
8
Black
10
69.1021
20
-136.284
11
69.245
21
-136.141
0
LINE
8
Black
10
69.245
20
-136.141
11
69.5307
21
-135.713
0
LINE
8
Black
10
69.5307
20
-135.713
11
69.6736
21
-135.141
0
LINE
8
Black
10
69.6736
20
-135.141
11
69.6736
21
-133.999
0
LINE
8
Black
10
69.6736
20
-133.999
11
69.5307
21
-133.713
0
LINE
8
Black
10
69.5307
20
-133.713
11
69.3879
21
-133.57
0
LINE
8
Black
10
69.3879
20
-133.57
11
69.1021
21
-133.427
0
LINE
8
Black
10
69.1021
20
-133.427
11
68.5307
21
-133.427
0
LINE
8
Black
10
68.5307
20
-133.427
11
68.245
21
-133.57
0
LINE
8
Black
10
68.245
20
-133.57
11
68.1021
21
-133.713
0
LINE
8
Black
10
68.1021
20
-133.713
11
67.9593
21
-133.999
0
LINE
8
Black
10
67.9593
20
-133.999
11
67.9593
21
-134.713
0
LINE
8
Black
10
67.9593
20
-134.713
11
68.1021
21
-134.999
0
LINE
8
Black
10
68.1021
20
-134.999
11
68.245
21
-135.141
0
LINE
8
Black
10
68.245
20
-135.141
11
68.5307
21
-135.284
0
LINE
8
Black
10
68.5307
20
-135.284
11
69.1021
21
-135.284
0
LINE
8
Black
10
69.1021
20
-135.284
11
69.3879
21
-135.141
0
LINE
8
Black
10
69.3879
20
-135.141
11
69.5307
21
-134.999
0
LINE
8
Black
10
69.5307
20
-134.999
11
69.6736
21
-134.713
0
LINE
8
Black
10
72.245
20
-133.427
11
71.6736
21
-133.427
0
LINE
8
Black
10
71.6736
20
-133.427
11
71.3879
21
-133.57
0
LINE
8
Black
10
71.3879
20
-133.57
11
71.245
21
-133.713
0
LINE
8
Black
10
71.245
20
-133.713
11
70.9593
21
-134.141
0
LINE
8
Black
10
70.9593
20
-134.141
11
70.8164
21
-134.713
0
LINE
8
Black
10
70.8164
20
-134.713
11
70.8164
21
-135.856
0
LINE
8
Black
10
70.8164
20
-135.856
11
70.9593
21
-136.141
0
LINE
8
Black
10
70.9593
20
-136.141
11
71.1021
21
-136.284
0
LINE
8
Black
10
71.1021
20
-136.284
11
71.3879
21
-136.427
0
LINE
8
Black
10
71.3879
20
-136.427
11
71.9593
21
-136.427
0
LINE
8
Black
10
71.9593
20
-136.427
11
72.245
21
-136.284
0
LINE
8
Black
10
72.245
20
-136.284
11
72.3879
21
-136.141
0
LINE
8
Black
10
72.3879
20
-136.141
11
72.5307
21
-135.856
0
LINE
8
Black
10
72.5307
20
-135.856
11
72.5307
21
-135.141
0
LINE
8
Black
10
72.5307
20
-135.141
11
72.3879
21
-134.856
0
LINE
8
Black
10
72.3879
20
-134.856
11
72.245
21
-134.713
0
LINE
8
Black
10
72.245
20
-134.713
11
71.9593
21
-134.57
0
LINE
8
Black
10
71.9593
20
-134.57
11
71.3879
21
-134.57
0
LINE
8
Black
10
71.3879
20
-134.57
11
71.1021
21
-134.713
0
LINE
8
Black
10
71.1021
20
-134.713
11
70.9593
21
-134.856
0
LINE
8
Black
10
70.9593
20
-134.856
11
70.8164
21
-135.141
0
LINE
8
Black
10
76.1021
20
-136.427
11
76.1021
21
-133.427
0
LINE
8
Black
10
77.3879
20
-136.427
11
77.3879
21
-134.856
0
LINE
8
Black
10
77.3879
20
-134.856
11
77.245
21
-134.57
0
LINE
8
Black
10
77.245
20
-134.57
11
76.9593
21
-134.427
0
LINE
8
Black
10
76.9593
20
-134.427
11
76.5307
21
-134.427
0
LINE
8
Black
10
76.5307
20
-134.427
11
76.245
21
-134.57
0
LINE
8
Black
10
76.245
20
-134.57
11
76.1021
21
-134.713
0
LINE
8
Black
10
79.245
20
-136.427
11
78.9593
21
-136.284
0
LINE
8
Black
10
78.9593
20
-136.284
11
78.8164
21
-136.141
0
LINE
8
Black
10
78.8164
20
-136.141
11
78.6736
21
-135.856
0
LINE
8
Black
10
78.6736
20
-135.856
11
78.6736
21
-134.999
0
LINE
8
Black
10
78.6736
20
-134.999
11
78.8164
21
-134.713
0
LINE
8
Black
10
78.8164
20
-134.713
11
78.9593
21
-134.57
0
LINE
8
Black
10
78.9593
20
-134.57
11
79.245
21
-134.427
0
LINE
8
Black
10
79.245
20
-134.427
11
79.6736
21
-134.427
0
LINE
8
Black
10
79.6736
20
-134.427
11
79.9593
21
-134.57
0
LINE
8
Black
10
79.9593
20
-134.57
11
80.1021
21
-134.713
0
LINE
8
Black
10
80.1021
20
-134.713
11
80.245
21
-134.999
0
LINE
8
Black
10
80.245
20
-134.999
11
80.245
21
-135.856
0
LINE
8
Black
10
80.245
20
-135.856
11
80.1021
21
-136.141
0
LINE
8
Black
10
80.1021
20
-136.141
11
79.9593
21
-136.284
0
LINE
8
Black
10
79.9593
20
-136.284
11
79.6736
21
-136.427
0
LINE
8
Black
10
79.6736
20
-136.427
11
79.245
21
-136.427
0
LINE
8
Black
10
81.9593
20
-136.427
11
81.6736
21
-136.284
0
LINE
8
Black
10
81.6736
20
-136.284
11
81.5307
21
-135.999
0
LINE
8
Black
10
81.5307
20
-135.999
11
81.5307
21
-133.427
0
LINE
8
Black
10
84.245
20
-136.284
11
83.9593
21
-136.427
0
LINE
8
Black
10
83.9593
20
-136.427
11
83.3879
21
-136.427
0
LINE
8
Black
10
83.3879
20
-136.427
11
83.1021
21
-136.284
0
LINE
8
Black
10
83.1021
20
-136.284
11
82.9593
21
-135.999
0
LINE
8
Black
10
82.9593
20
-135.999
11
82.9593
21
-134.856
0
LINE
8
Black
10
82.9593
20
-134.856
11
83.1021
21
-134.57
0
LINE
8
Black
10
83.1021
20
-134.57
11
83.3879
21
-134.427
0
LINE
8
Black
10
83.3879
20
-134.427
11
83.9593
21
-134.427
0
LINE
8
Black
10
83.9593
20
-134.427
11
84.245
21
-134.57
0
LINE
8
Black
10
84.245
20
-134.57
11
84.3879
21
-134.856
0
LINE
8
Black
10
84.3879
20
-134.856
11
84.3879
21
-135.141
0
LINE
8
Black
10
84.3879
20
-135.141
11
82.9593
21
-135.427
0
LINE
8
Black
10
85.5307
20
-136.284
11
85.8164
21
-136.427
0
LINE
8
Black
10
85.8164
20
-136.427
11
86.3879
21
-136.427
0
LINE
8
Black
10
86.3879
20
-136.427
11
86.6736
21
-136.284
0
LINE
8
Black
10
86.6736
20
-136.284
11
86.8164
21
-135.999
0
LINE
8
Black
10
86.8164
20
-135.999
11
86.8164
21
-135.856
0
LINE
8
Black
10
86.8164
20
-135.856
11
86.6736
21
-135.57
0
LINE
8
Black
10
86.6736
20
-135.57
11
86.3879
21
-135.427
0
LINE
8
Black
10
86.3879
20
-135.427
11
85.9593
21
-135.427
0
LINE
8
Black
10
85.9593
20
-135.427
11
85.6736
21
-135.284
0
LINE
8
Black
10
85.6736
20
-135.284
11
85.5307
21
-134.999
0
LINE
8
Black
10
85.5307
20
-134.999
11
85.5307
21
-134.856
0
LINE
8
Black
10
85.5307
20
-134.856
11
85.6736
21
-134.57
0
LINE
8
Black
10
85.6736
20
-134.57
11
85.9593
21
-134.427
0
LINE
8
Black
10
85.9593
20
-134.427
11
86.3879
21
-134.427
0
LINE
8
Black
10
86.3879
20
-134.427
11
86.6736
21
-134.57
0
LINE
8
Black
10
87.8164
20
-137.57
11
87.9593
21
-137.427
0
LINE
8
Black
10
87.9593
20
-137.427
11
88.245
21
-136.999
0
LINE
8
Black
10
88.245
20
-136.999
11
88.3879
21
-136.713
0
LINE
8
Black
10
88.3879
20
-136.713
11
88.5307
21
-136.284
0
LINE
8
Black
10
88.5307
20
-136.284
11
88.6736
21
-135.57
0
LINE
8
Black
10
88.6736
20
-135.57
11
88.6736
21
-134.999
0
LINE
8
Black
10
88.6736
20
-134.999
11
88.5307
21
-134.284
0
LINE
8
Black
10
88.5307
20
-134.284
11
88.3879
21
-133.856
0
LINE
8
Black
10
88.3879
20
-133.856
11
88.245
21
-133.57
0
LINE
8
Black
10
88.245
20
-133.57
11
87.9593
21
-133.141
0
LINE
8
Black
10
87.9593
20
-133.141
11
87.8164
21
-132.999
0
LINE
8
Black
10
20.0851
20
-139.416
11
20.0851
21
-138.644
0
LINE
8
Black
10
20.0851
20
-138.644
11
19.3127
21
-138.644
0
LINE
8
Black
10
19.3127
20
-138.644
11
19.3127
21
-139.416
0
LINE
8
Black
10
19.3127
20
-139.416
11
20.0851
21
-139.416
0
LINE
8
Black
10
24.5307
20
-140.387
11
22.8164
21
-140.387
0
LINE
8
Black
10
23.6736
20
-140.387
11
23.6736
21
-137.387
0
LINE
8
Black
10
23.6736
20
-137.387
11
23.3879
21
-137.816
0
LINE
8
Black
10
23.3879
20
-137.816
11
23.1021
21
-138.101
0
LINE
8
Black
10
23.1021
20
-138.101
11
22.8164
21
-138.244
0
LINE
8
Black
10
25.8164
20
-140.101
11
25.9593
21
-140.244
0
LINE
8
Black
10
25.9593
20
-140.244
11
25.8164
21
-140.387
0
LINE
8
Black
10
25.8164
20
-140.387
11
25.6736
21
-140.244
0
LINE
8
Black
10
25.6736
20
-140.244
11
25.8164
21
-140.101
0
LINE
8
Black
10
25.8164
20
-140.101
11
25.8164
21
-140.387
0
LINE
8
Black
10
27.8164
20
-137.387
11
28.1021
21
-137.387
0
LINE
8
Black
10
28.1021
20
-137.387
11
28.3879
21
-137.53
0
LINE
8
Black
10
28.3879
20
-137.53
11
28.5307
21
-137.673
0
LINE
8
Black
10
28.5307
20
-137.673
11
28.6736
21
-137.959
0
LINE
8
Black
10
28.6736
20
-137.959
11
28.8164
21
-138.53
0
LINE
8
Black
10
28.8164
20
-138.53
11
28.8164
21
-139.244
0
LINE
8
Black
10
28.8164
20
-139.244
11
28.6736
21
-139.816
0
LINE
8
Black
10
28.6736
20
-139.816
11
28.5307
21
-140.101
0
LINE
8
Black
10
28.5307
20
-140.101
11
28.3879
21
-140.244
0
LINE
8
Black
10
28.3879
20
-140.244
11
28.1021
21
-140.387
0
LINE
8
Black
10
28.1021
20
-140.387
11
27.8164
21
-140.387
0
LINE
8
Black
10
27.8164
20
-140.387
11
27.5307
21
-140.244
0
LINE
8
Black
10
27.5307
20
-140.244
11
27.3879
21
-140.101
0
LINE
8
Black
10
27.3879
20
-140.101
11
27.245
21
-139.816
0
LINE
8
Black
10
27.245
20
-139.816
11
27.1021
21
-139.244
0
LINE
8
Black
10
27.1021
20
-139.244
11
27.1021
21
-138.53
0
LINE
8
Black
10
27.1021
20
-138.53
11
27.245
21
-137.959
0
LINE
8
Black
10
27.245
20
-137.959
11
27.3879
21
-137.673
0
LINE
8
Black
10
27.3879
20
-137.673
11
27.5307
21
-137.53
0
LINE
8
Black
10
27.5307
20
-137.53
11
27.8164
21
-137.387
0
LINE
8
Black
10
30.245
20
-140.387
11
30.8164
21
-140.387
0
LINE
8
Black
10
30.8164
20
-140.387
11
31.1021
21
-140.244
0
LINE
8
Black
10
31.1021
20
-140.244
11
31.245
21
-140.101
0
LINE
8
Black
10
31.245
20
-140.101
11
31.5307
21
-139.673
0
LINE
8
Black
10
31.5307
20
-139.673
11
31.6736
21
-139.101
0
LINE
8
Black
10
31.6736
20
-139.101
11
31.6736
21
-137.959
0
LINE
8
Black
10
31.6736
20
-137.959
11
31.5307
21
-137.673
0
LINE
8
Black
10
31.5307
20
-137.673
11
31.3879
21
-137.53
0
LINE
8
Black
10
31.3879
20
-137.53
11
31.1021
21
-137.387
0
LINE
8
Black
10
31.1021
20
-137.387
11
30.5307
21
-137.387
0
LINE
8
Black
10
30.5307
20
-137.387
11
30.245
21
-137.53
0
LINE
8
Black
10
30.245
20
-137.53
11
30.1021
21
-137.673
0
LINE
8
Black
10
30.1021
20
-137.673
11
29.9593
21
-137.959
0
LINE
8
Black
10
29.9593
20
-137.959
11
29.9593
21
-138.673
0
LINE
8
Black
10
29.9593
20
-138.673
11
30.1021
21
-138.959
0
LINE
8
Black
10
30.1021
20
-138.959
11
30.245
21
-139.101
0
LINE
8
Black
10
30.245
20
-139.101
11
30.5307
21
-139.244
0
LINE
8
Black
10
30.5307
20
-139.244
11
31.1021
21
-139.244
0
LINE
8
Black
10
31.1021
20
-139.244
11
31.3879
21
-139.101
0
LINE
8
Black
10
31.3879
20
-139.101
11
31.5307
21
-138.959
0
LINE
8
Black
10
31.5307
20
-138.959
11
31.6736
21
-138.673
0
LINE
8
Black
10
32.9593
20
-140.387
11
32.9593
21
-138.387
0
LINE
8
Black
10
32.9593
20
-138.673
11
33.1021
21
-138.53
0
LINE
8
Black
10
33.1021
20
-138.53
11
33.3879
21
-138.387
0
LINE
8
Black
10
33.3879
20
-138.387
11
33.8164
21
-138.387
0
LINE
8
Black
10
33.8164
20
-138.387
11
34.1021
21
-138.53
0
LINE
8
Black
10
34.1021
20
-138.53
11
34.245
21
-138.816
0
LINE
8
Black
10
34.245
20
-138.816
11
34.245
21
-140.387
0
LINE
8
Black
10
34.245
20
-138.816
11
34.3879
21
-138.53
0
LINE
8
Black
10
34.3879
20
-138.53
11
34.6736
21
-138.387
0
LINE
8
Black
10
34.6736
20
-138.387
11
35.1021
21
-138.387
0
LINE
8
Black
10
35.1021
20
-138.387
11
35.3879
21
-138.53
0
LINE
8
Black
10
35.3879
20
-138.53
11
35.5307
21
-138.816
0
LINE
8
Black
10
35.5307
20
-138.816
11
35.5307
21
-140.387
0
LINE
8
Black
10
36.9593
20
-140.387
11
36.9593
21
-138.387
0
LINE
8
Black
10
36.9593
20
-138.673
11
37.1021
21
-138.53
0
LINE
8
Black
10
37.1021
20
-138.53
11
37.3879
21
-138.387
0
LINE
8
Black
10
37.3879
20
-138.387
11
37.8164
21
-138.387
0
LINE
8
Black
10
37.8164
20
-138.387
11
38.1021
21
-138.53
0
LINE
8
Black
10
38.1021
20
-138.53
11
38.245
21
-138.816
0
LINE
8
Black
10
38.245
20
-138.816
11
38.245
21
-140.387
0
LINE
8
Black
10
38.245
20
-138.816
11
38.3879
21
-138.53
0
LINE
8
Black
10
38.3879
20
-138.53
11
38.6736
21
-138.387
0
LINE
8
Black
10
38.6736
20
-138.387
11
39.1021
21
-138.387
0
LINE
8
Black
10
39.1021
20
-138.387
11
39.3879
21
-138.53
0
LINE
8
Black
10
39.3879
20
-138.53
11
39.5307
21
-138.816
0
LINE
8
Black
10
39.5307
20
-138.816
11
39.5307
21
-140.387
0
LINE
8
Black
10
45.3879
20
-137.244
11
42.8164
21
-141.101
0
LINE
8
Black
10
49.245
20
-137.387
11
49.5307
21
-137.387
0
LINE
8
Black
10
49.5307
20
-137.387
11
49.8164
21
-137.53
0
LINE
8
Black
10
49.8164
20
-137.53
11
49.9593
21
-137.673
0
LINE
8
Black
10
49.9593
20
-137.673
11
50.1021
21
-137.959
0
LINE
8
Black
10
50.1021
20
-137.959
11
50.245
21
-138.53
0
LINE
8
Black
10
50.245
20
-138.53
11
50.245
21
-139.244
0
LINE
8
Black
10
50.245
20
-139.244
11
50.1021
21
-139.816
0
LINE
8
Black
10
50.1021
20
-139.816
11
49.9593
21
-140.101
0
LINE
8
Black
10
49.9593
20
-140.101
11
49.8164
21
-140.244
0
LINE
8
Black
10
49.8164
20
-140.244
11
49.5307
21
-140.387
0
LINE
8
Black
10
49.5307
20
-140.387
11
49.245
21
-140.387
0
LINE
8
Black
10
49.245
20
-140.387
11
48.9593
21
-140.244
0
LINE
8
Black
10
48.9593
20
-140.244
11
48.8164
21
-140.101
0
LINE
8
Black
10
48.8164
20
-140.101
11
48.6736
21
-139.816
0
LINE
8
Black
10
48.6736
20
-139.816
11
48.5307
21
-139.244
0
LINE
8
Black
10
48.5307
20
-139.244
11
48.5307
21
-138.53
0
LINE
8
Black
10
48.5307
20
-138.53
11
48.6736
21
-137.959
0
LINE
8
Black
10
48.6736
20
-137.959
11
48.8164
21
-137.673
0
LINE
8
Black
10
48.8164
20
-137.673
11
48.9593
21
-137.53
0
LINE
8
Black
10
48.9593
20
-137.53
11
49.245
21
-137.387
0
LINE
8
Black
10
51.5307
20
-140.101
11
51.6736
21
-140.244
0
LINE
8
Black
10
51.6736
20
-140.244
11
51.5307
21
-140.387
0
LINE
8
Black
10
51.5307
20
-140.387
11
51.3879
21
-140.244
0
LINE
8
Black
10
51.3879
20
-140.244
11
51.5307
21
-140.101
0
LINE
8
Black
10
51.5307
20
-140.101
11
51.5307
21
-140.387
0
LINE
8
Black
10
53.5307
20
-137.387
11
53.8164
21
-137.387
0
LINE
8
Black
10
53.8164
20
-137.387
11
54.1021
21
-137.53
0
LINE
8
Black
10
54.1021
20
-137.53
11
54.245
21
-137.673
0
LINE
8
Black
10
54.245
20
-137.673
11
54.3879
21
-137.959
0
LINE
8
Black
10
54.3879
20
-137.959
11
54.5307
21
-138.53
0
LINE
8
Black
10
54.5307
20
-138.53
11
54.5307
21
-139.244
0
LINE
8
Black
10
54.5307
20
-139.244
11
54.3879
21
-139.816
0
LINE
8
Black
10
54.3879
20
-139.816
11
54.245
21
-140.101
0
LINE
8
Black
10
54.245
20
-140.101
11
54.1021
21
-140.244
0
LINE
8
Black
10
54.1021
20
-140.244
11
53.8164
21
-140.387
0
LINE
8
Black
10
53.8164
20
-140.387
11
53.5307
21
-140.387
0
LINE
8
Black
10
53.5307
20
-140.387
11
53.245
21
-140.244
0
LINE
8
Black
10
53.245
20
-140.244
11
53.1021
21
-140.101
0
LINE
8
Black
10
53.1021
20
-140.101
11
52.9593
21
-139.816
0
LINE
8
Black
10
52.9593
20
-139.816
11
52.8164
21
-139.244
0
LINE
8
Black
10
52.8164
20
-139.244
11
52.8164
21
-138.53
0
LINE
8
Black
10
52.8164
20
-138.53
11
52.9593
21
-137.959
0
LINE
8
Black
10
52.9593
20
-137.959
11
53.1021
21
-137.673
0
LINE
8
Black
10
53.1021
20
-137.673
11
53.245
21
-137.53
0
LINE
8
Black
10
53.245
20
-137.53
11
53.5307
21
-137.387
0
LINE
8
Black
10
57.1021
20
-138.387
11
57.1021
21
-140.387
0
LINE
8
Black
10
56.3879
20
-137.244
11
55.6736
21
-139.387
0
LINE
8
Black
10
55.6736
20
-139.387
11
57.5307
21
-139.387
0
LINE
8
Black
10
58.3879
20
-137.387
11
60.245
21
-137.387
0
LINE
8
Black
10
60.245
20
-137.387
11
59.245
21
-138.53
0
LINE
8
Black
10
59.245
20
-138.53
11
59.6736
21
-138.53
0
LINE
8
Black
10
59.6736
20
-138.53
11
59.9593
21
-138.673
0
LINE
8
Black
10
59.9593
20
-138.673
11
60.1021
21
-138.816
0
LINE
8
Black
10
60.1021
20
-138.816
11
60.245
21
-139.101
0
LINE
8
Black
10
60.245
20
-139.101
11
60.245
21
-139.816
0
LINE
8
Black
10
60.245
20
-139.816
11
60.1021
21
-140.101
0
LINE
8
Black
10
60.1021
20
-140.101
11
59.9593
21
-140.244
0
LINE
8
Black
10
59.9593
20
-140.244
11
59.6736
21
-140.387
0
LINE
8
Black
10
59.6736
20
-140.387
11
58.8164
21
-140.387
0
LINE
8
Black
10
58.8164
20
-140.387
11
58.5307
21
-140.244
0
LINE
8
Black
10
58.5307
20
-140.244
11
58.3879
21
-140.101
0
LINE
8
Black
10
61.3879
20
-137.387
11
61.3879
21
-137.959
0
LINE
8
Black
10
62.5307
20
-137.387
11
62.5307
21
-137.959
0
LINE
8
Black
10
66.9593
20
-141.53
11
66.8164
21
-141.387
0
LINE
8
Black
10
66.8164
20
-141.387
11
66.5307
21
-140.959
0
LINE
8
Black
10
66.5307
20
-140.959
11
66.3879
21
-140.673
0
LINE
8
Black
10
66.3879
20
-140.673
11
66.245
21
-140.244
0
LINE
8
Black
10
66.245
20
-140.244
11
66.1021
21
-139.53
0
LINE
8
Black
10
66.1021
20
-139.53
11
66.1021
21
-138.959
0
LINE
8
Black
10
66.1021
20
-138.959
11
66.245
21
-138.244
0
LINE
8
Black
10
66.245
20
-138.244
11
66.3879
21
-137.816
0
LINE
8
Black
10
66.3879
20
-137.816
11
66.5307
21
-137.53
0
LINE
8
Black
10
66.5307
20
-137.53
11
66.8164
21
-137.101
0
LINE
8
Black
10
66.8164
20
-137.101
11
66.9593
21
-136.959
0
LINE
8
Black
10
69.3879
20
-138.387
11
69.3879
21
-140.387
0
LINE
8
Black
10
68.6736
20
-137.244
11
67.9593
21
-139.387
0
LINE
8
Black
10
67.9593
20
-139.387
11
69.8164
21
-139.387
0
LINE
8
Black
10
73.245
20
-140.387
11
73.245
21
-137.387
0
LINE
8
Black
10
74.5307
20
-140.387
11
74.5307
21
-138.816
0
LINE
8
Black
10
74.5307
20
-138.816
11
74.3879
21
-138.53
0
LINE
8
Black
10
74.3879
20
-138.53
11
74.1021
21
-138.387
0
LINE
8
Black
10
74.1021
20
-138.387
11
73.6736
21
-138.387
0
LINE
8
Black
10
73.6736
20
-138.387
11
73.3879
21
-138.53
0
LINE
8
Black
10
73.3879
20
-138.53
11
73.245
21
-138.673
0
LINE
8
Black
10
76.3879
20
-140.387
11
76.1021
21
-140.244
0
LINE
8
Black
10
76.1021
20
-140.244
11
75.9593
21
-140.101
0
LINE
8
Black
10
75.9593
20
-140.101
11
75.8164
21
-139.816
0
LINE
8
Black
10
75.8164
20
-139.816
11
75.8164
21
-138.959
0
LINE
8
Black
10
75.8164
20
-138.959
11
75.9593
21
-138.673
0
LINE
8
Black
10
75.9593
20
-138.673
11
76.1021
21
-138.53
0
LINE
8
Black
10
76.1021
20
-138.53
11
76.3879
21
-138.387
0
LINE
8
Black
10
76.3879
20
-138.387
11
76.8164
21
-138.387
0
LINE
8
Black
10
76.8164
20
-138.387
11
77.1021
21
-138.53
0
LINE
8
Black
10
77.1021
20
-138.53
11
77.245
21
-138.673
0
LINE
8
Black
10
77.245
20
-138.673
11
77.3879
21
-138.959
0
LINE
8
Black
10
77.3879
20
-138.959
11
77.3879
21
-139.816
0
LINE
8
Black
10
77.3879
20
-139.816
11
77.245
21
-140.101
0
LINE
8
Black
10
77.245
20
-140.101
11
77.1021
21
-140.244
0
LINE
8
Black
10
77.1021
20
-140.244
11
76.8164
21
-140.387
0
LINE
8
Black
10
76.8164
20
-140.387
11
76.3879
21
-140.387
0
LINE
8
Black
10
79.1021
20
-140.387
11
78.8164
21
-140.244
0
LINE
8
Black
10
78.8164
20
-140.244
11
78.6736
21
-139.959
0
LINE
8
Black
10
78.6736
20
-139.959
11
78.6736
21
-137.387
0
LINE
8
Black
10
81.3879
20
-140.244
11
81.1021
21
-140.387
0
LINE
8
Black
10
81.1021
20
-140.387
11
80.5307
21
-140.387
0
LINE
8
Black
10
80.5307
20
-140.387
11
80.245
21
-140.244
0
LINE
8
Black
10
80.245
20
-140.244
11
80.1021
21
-139.959
0
LINE
8
Black
10
80.1021
20
-139.959
11
80.1021
21
-138.816
0
LINE
8
Black
10
80.1021
20
-138.816
11
80.245
21
-138.53
0
LINE
8
Black
10
80.245
20
-138.53
11
80.5307
21
-138.387
0
LINE
8
Black
10
80.5307
20
-138.387
11
81.1021
21
-138.387
0
LINE
8
Black
10
81.1021
20
-138.387
11
81.3879
21
-138.53
0
LINE
8
Black
10
81.3879
20
-138.53
11
81.5307
21
-138.816
0
LINE
8
Black
10
81.5307
20
-138.816
11
81.5307
21
-139.101
0
LINE
8
Black
10
81.5307
20
-139.101
11
80.1021
21
-139.387
0
LINE
8
Black
10
82.6736
20
-140.244
11
82.9593
21
-140.387
0
LINE
8
Black
10
82.9593
20
-140.387
11
83.5307
21
-140.387
0
LINE
8
Black
10
83.5307
20
-140.387
11
83.8164
21
-140.244
0
LINE
8
Black
10
83.8164
20
-140.244
11
83.9593
21
-139.959
0
LINE
8
Black
10
83.9593
20
-139.959
11
83.9593
21
-139.816
0
LINE
8
Black
10
83.9593
20
-139.816
11
83.8164
21
-139.53
0
LINE
8
Black
10
83.8164
20
-139.53
11
83.5307
21
-139.387
0
LINE
8
Black
10
83.5307
20
-139.387
11
83.1021
21
-139.387
0
LINE
8
Black
10
83.1021
20
-139.387
11
82.8164
21
-139.244
0
LINE
8
Black
10
82.8164
20
-139.244
11
82.6736
21
-138.959
0
LINE
8
Black
10
82.6736
20
-138.959
11
82.6736
21
-138.816
0
LINE
8
Black
10
82.6736
20
-138.816
11
82.8164
21
-138.53
0
LINE
8
Black
10
82.8164
20
-138.53
11
83.1021
21
-138.387
0
LINE
8
Black
10
83.1021
20
-138.387
11
83.5307
21
-138.387
0
LINE
8
Black
10
83.5307
20
-138.387
11
83.8164
21
-138.53
0
LINE
8
Black
10
87.5307
20
-139.244
11
89.8164
21
-139.244
0
LINE
8
Black
10
88.6736
20
-140.387
11
88.6736
21
-138.101
0
LINE
8
Black
10
93.3879
20
-137.673
11
93.5307
21
-137.53
0
LINE
8
Black
10
93.5307
20
-137.53
11
93.8164
21
-137.387
0
LINE
8
Black
10
93.8164
20
-137.387
11
94.5307
21
-137.387
0
LINE
8
Black
10
94.5307
20
-137.387
11
94.8164
21
-137.53
0
LINE
8
Black
10
94.8164
20
-137.53
11
94.9593
21
-137.673
0
LINE
8
Black
10
94.9593
20
-137.673
11
95.1021
21
-137.959
0
LINE
8
Black
10
95.1021
20
-137.959
11
95.1021
21
-138.244
0
LINE
8
Black
10
95.1021
20
-138.244
11
94.9593
21
-138.673
0
LINE
8
Black
10
94.9593
20
-138.673
11
93.245
21
-140.387
0
LINE
8
Black
10
93.245
20
-140.387
11
95.1021
21
-140.387
0
LINE
8
Black
10
98.5307
20
-140.244
11
98.8164
21
-140.387
0
LINE
8
Black
10
98.8164
20
-140.387
11
99.3879
21
-140.387
0
LINE
8
Black
10
99.3879
20
-140.387
11
99.6736
21
-140.244
0
LINE
8
Black
10
99.6736
20
-140.244
11
99.8164
21
-139.959
0
LINE
8
Black
10
99.8164
20
-139.959
11
99.8164
21
-139.816
0
LINE
8
Black
10
99.8164
20
-139.816
11
99.6736
21
-139.53
0
LINE
8
Black
10
99.6736
20
-139.53
11
99.3879
21
-139.387
0
LINE
8
Black
10
99.3879
20
-139.387
11
98.9593
21
-139.387
0
LINE
8
Black
10
98.9593
20
-139.387
11
98.6736
21
-139.244
0
LINE
8
Black
10
98.6736
20
-139.244
11
98.5307
21
-138.959
0
LINE
8
Black
10
98.5307
20
-138.959
11
98.5307
21
-138.816
0
LINE
8
Black
10
98.5307
20
-138.816
11
98.6736
21
-138.53
0
LINE
8
Black
10
98.6736
20
-138.53
11
98.9593
21
-138.387
0
LINE
8
Black
10
98.9593
20
-138.387
11
99.3879
21
-138.387
0
LINE
8
Black
10
99.3879
20
-138.387
11
99.6736
21
-138.53
0
LINE
8
Black
10
101.531
20
-140.387
11
101.245
21
-140.244
0
LINE
8
Black
10
101.245
20
-140.244
11
101.102
21
-139.959
0
LINE
8
Black
10
101.102
20
-139.959
11
101.102
21
-137.387
0
LINE
8
Black
10
103.102
20
-140.387
11
102.816
21
-140.244
0
LINE
8
Black
10
102.816
20
-140.244
11
102.674
21
-140.101
0
LINE
8
Black
10
102.674
20
-140.101
11
102.531
21
-139.816
0
LINE
8
Black
10
102.531
20
-139.816
11
102.531
21
-138.959
0
LINE
8
Black
10
102.531
20
-138.959
11
102.674
21
-138.673
0
LINE
8
Black
10
102.674
20
-138.673
11
102.816
21
-138.53
0
LINE
8
Black
10
102.816
20
-138.53
11
103.102
21
-138.387
0
LINE
8
Black
10
103.102
20
-138.387
11
103.531
21
-138.387
0
LINE
8
Black
10
103.531
20
-138.387
11
103.816
21
-138.53
0
LINE
8
Black
10
103.816
20
-138.53
11
103.959
21
-138.673
0
LINE
8
Black
10
103.959
20
-138.673
11
104.102
21
-138.959
0
LINE
8
Black
10
104.102
20
-138.959
11
104.102
21
-139.816
0
LINE
8
Black
10
104.102
20
-139.816
11
103.959
21
-140.101
0
LINE
8
Black
10
103.959
20
-140.101
11
103.816
21
-140.244
0
LINE
8
Black
10
103.816
20
-140.244
11
103.531
21
-140.387
0
LINE
8
Black
10
103.531
20
-140.387
11
103.102
21
-140.387
0
LINE
8
Black
10
104.959
20
-138.387
11
106.102
21
-138.387
0
LINE
8
Black
10
105.388
20
-137.387
11
105.388
21
-139.959
0
LINE
8
Black
10
105.388
20
-139.959
11
105.531
21
-140.244
0
LINE
8
Black
10
105.531
20
-140.244
11
105.816
21
-140.387
0
LINE
8
Black
10
105.816
20
-140.387
11
106.102
21
-140.387
0
LINE
8
Black
10
106.959
20
-140.244
11
107.245
21
-140.387
0
LINE
8
Black
10
107.245
20
-140.387
11
107.816
21
-140.387
0
LINE
8
Black
10
107.816
20
-140.387
11
108.102
21
-140.244
0
LINE
8
Black
10
108.102
20
-140.244
11
108.245
21
-139.959
0
LINE
8
Black
10
108.245
20
-139.959
11
108.245
21
-139.816
0
LINE
8
Black
10
108.245
20
-139.816
11
108.102
21
-139.53
0
LINE
8
Black
10
108.102
20
-139.53
11
107.816
21
-139.387
0
LINE
8
Black
10
107.816
20
-139.387
11
107.388
21
-139.387
0
LINE
8
Black
10
107.388
20
-139.387
11
107.102
21
-139.244
0
LINE
8
Black
10
107.102
20
-139.244
11
106.959
21
-138.959
0
LINE
8
Black
10
106.959
20
-138.959
11
106.959
21
-138.816
0
LINE
8
Black
10
106.959
20
-138.816
11
107.102
21
-138.53
0
LINE
8
Black
10
107.102
20
-138.53
11
107.388
21
-138.387
0
LINE
8
Black
10
107.388
20
-138.387
11
107.816
21
-138.387
0
LINE
8
Black
10
107.816
20
-138.387
11
108.102
21
-138.53
0
LINE
8
Black
10
109.245
20
-141.53
11
109.388
21
-141.387
0
LINE
8
Black
10
109.388
20
-141.387
11
109.674
21
-140.959
0
LINE
8
Black
10
109.674
20
-140.959
11
109.816
21
-140.673
0
LINE
8
Black
10
109.816
20
-140.673
11
109.959
21
-140.244
0
LINE
8
Black
10
109.959
20
-140.244
11
110.102
21
-139.53
0
LINE
8
Black
10
110.102
20
-139.53
11
110.102
21
-138.959
0
LINE
8
Black
10
110.102
20
-138.959
11
109.959
21
-138.244
0
LINE
8
Black
10
109.959
20
-138.244
11
109.816
21
-137.816
0
LINE
8
Black
10
109.816
20
-137.816
11
109.674
21
-137.53
0
LINE
8
Black
10
109.674
20
-137.53
11
109.388
21
-137.101
0
LINE
8
Black
10
109.388
20
-137.101
11
109.245
21
-136.959
0
LINE
8
Black
10
19.695
20
-143.54
11
20.245
21
-142.99
0
LINE
8
Black
10
20.245
20
-142.99
11
19.695
21
-142.44
0
LINE
8
Black
10
19.695
20
-142.44
11
19.145
21
-142.99
0
LINE
8
Black
10
19.145
20
-142.99
11
19.695
21
-143.54
0
LINE
8
Black
10
24.5307
20
-144.347
11
22.8164
21
-144.347
0
LINE
8
Black
10
23.6736
20
-144.347
11
23.6736
21
-141.347
0
LINE
8
Black
10
23.6736
20
-141.347
11
23.3879
21
-141.776
0
LINE
8
Black
10
23.3879
20
-141.776
11
23.1021
21
-142.061
0
LINE
8
Black
10
23.1021
20
-142.061
11
22.8164
21
-142.204
0
LINE
8
Black
10
25.8164
20
-144.061
11
25.9593
21
-144.204
0
LINE
8
Black
10
25.9593
20
-144.204
11
25.8164
21
-144.347
0
LINE
8
Black
10
25.8164
20
-144.347
11
25.6736
21
-144.204
0
LINE
8
Black
10
25.6736
20
-144.204
11
25.8164
21
-144.061
0
LINE
8
Black
10
25.8164
20
-144.061
11
25.8164
21
-144.347
0
LINE
8
Black
10
28.8164
20
-144.347
11
27.1021
21
-144.347
0
LINE
8
Black
10
27.9593
20
-144.347
11
27.9593
21
-141.347
0
LINE
8
Black
10
27.9593
20
-141.347
11
27.6736
21
-141.776
0
LINE
8
Black
10
27.6736
20
-141.776
11
27.3879
21
-142.061
0
LINE
8
Black
10
27.3879
20
-142.061
11
27.1021
21
-142.204
0
LINE
8
Black
10
30.6736
20
-141.347
11
30.9593
21
-141.347
0
LINE
8
Black
10
30.9593
20
-141.347
11
31.245
21
-141.49
0
LINE
8
Black
10
31.245
20
-141.49
11
31.3879
21
-141.633
0
LINE
8
Black
10
31.3879
20
-141.633
11
31.5307
21
-141.919
0
LINE
8
Black
10
31.5307
20
-141.919
11
31.6736
21
-142.49
0
LINE
8
Black
10
31.6736
20
-142.49
11
31.6736
21
-143.204
0
LINE
8
Black
10
31.6736
20
-143.204
11
31.5307
21
-143.776
0
LINE
8
Black
10
31.5307
20
-143.776
11
31.3879
21
-144.061
0
LINE
8
Black
10
31.3879
20
-144.061
11
31.245
21
-144.204
0
LINE
8
Black
10
31.245
20
-144.204
11
30.9593
21
-144.347
0
LINE
8
Black
10
30.9593
20
-144.347
11
30.6736
21
-144.347
0
LINE
8
Black
10
30.6736
20
-144.347
11
30.3879
21
-144.204
0
LINE
8
Black
10
30.3879
20
-144.204
11
30.245
21
-144.061
0
LINE
8
Black
10
30.245
20
-144.061
11
30.1021
21
-143.776
0
LINE
8
Black
10
30.1021
20
-143.776
11
29.9593
21
-143.204
0
LINE
8
Black
10
29.9593
20
-143.204
11
29.9593
21
-142.49
0
LINE
8
Black
10
29.9593
20
-142.49
11
30.1021
21
-141.919
0
LINE
8
Black
10
30.1021
20
-141.919
11
30.245
21
-141.633
0
LINE
8
Black
10
30.245
20
-141.633
11
30.3879
21
-141.49
0
LINE
8
Black
10
30.3879
20
-141.49
11
30.6736
21
-141.347
0
LINE
8
Black
10
32.9593
20
-144.347
11
32.9593
21
-142.347
0
LINE
8
Black
10
32.9593
20
-142.633
11
33.1021
21
-142.49
0
LINE
8
Black
10
33.1021
20
-142.49
11
33.3879
21
-142.347
0
LINE
8
Black
10
33.3879
20
-142.347
11
33.8164
21
-142.347
0
LINE
8
Black
10
33.8164
20
-142.347
11
34.1021
21
-142.49
0
LINE
8
Black
10
34.1021
20
-142.49
11
34.245
21
-142.776
0
LINE
8
Black
10
34.245
20
-142.776
11
34.245
21
-144.347
0
LINE
8
Black
10
34.245
20
-142.776
11
34.3879
21
-142.49
0
LINE
8
Black
10
34.3879
20
-142.49
11
34.6736
21
-142.347
0
LINE
8
Black
10
34.6736
20
-142.347
11
35.1021
21
-142.347
0
LINE
8
Black
10
35.1021
20
-142.347
11
35.3879
21
-142.49
0
LINE
8
Black
10
35.3879
20
-142.49
11
35.5307
21
-142.776
0
LINE
8
Black
10
35.5307
20
-142.776
11
35.5307
21
-144.347
0
LINE
8
Black
10
36.9593
20
-144.347
11
36.9593
21
-142.347
0
LINE
8
Black
10
36.9593
20
-142.633
11
37.1021
21
-142.49
0
LINE
8
Black
10
37.1021
20
-142.49
11
37.3879
21
-142.347
0
LINE
8
Black
10
37.3879
20
-142.347
11
37.8164
21
-142.347
0
LINE
8
Black
10
37.8164
20
-142.347
11
38.1021
21
-142.49
0
LINE
8
Black
10
38.1021
20
-142.49
11
38.245
21
-142.776
0
LINE
8
Black
10
38.245
20
-142.776
11
38.245
21
-144.347
0
LINE
8
Black
10
38.245
20
-142.776
11
38.3879
21
-142.49
0
LINE
8
Black
10
38.3879
20
-142.49
11
38.6736
21
-142.347
0
LINE
8
Black
10
38.6736
20
-142.347
11
39.1021
21
-142.347
0
LINE
8
Black
10
39.1021
20
-142.347
11
39.3879
21
-142.49
0
LINE
8
Black
10
39.3879
20
-142.49
11
39.5307
21
-142.776
0
LINE
8
Black
10
39.5307
20
-142.776
11
39.5307
21
-144.347
0
LINE
8
Black
10
45.3879
20
-141.204
11
42.8164
21
-145.061
0
LINE
8
Black
10
49.245
20
-141.347
11
49.5307
21
-141.347
0
LINE
8
Black
10
49.5307
20
-141.347
11
49.8164
21
-141.49
0
LINE
8
Black
10
49.8164
20
-141.49
11
49.9593
21
-141.633
0
LINE
8
Black
10
49.9593
20
-141.633
11
50.1021
21
-141.919
0
LINE
8
Black
10
50.1021
20
-141.919
11
50.245
21
-142.49
0
LINE
8
Black
10
50.245
20
-142.49
11
50.245
21
-143.204
0
LINE
8
Black
10
50.245
20
-143.204
11
50.1021
21
-143.776
0
LINE
8
Black
10
50.1021
20
-143.776
11
49.9593
21
-144.061
0
LINE
8
Black
10
49.9593
20
-144.061
11
49.8164
21
-144.204
0
LINE
8
Black
10
49.8164
20
-144.204
11
49.5307
21
-144.347
0
LINE
8
Black
10
49.5307
20
-144.347
11
49.245
21
-144.347
0
LINE
8
Black
10
49.245
20
-144.347
11
48.9593
21
-144.204
0
LINE
8
Black
10
48.9593
20
-144.204
11
48.8164
21
-144.061
0
LINE
8
Black
10
48.8164
20
-144.061
11
48.6736
21
-143.776
0
LINE
8
Black
10
48.6736
20
-143.776
11
48.5307
21
-143.204
0
LINE
8
Black
10
48.5307
20
-143.204
11
48.5307
21
-142.49
0
LINE
8
Black
10
48.5307
20
-142.49
11
48.6736
21
-141.919
0
LINE
8
Black
10
48.6736
20
-141.919
11
48.8164
21
-141.633
0
LINE
8
Black
10
48.8164
20
-141.633
11
48.9593
21
-141.49
0
LINE
8
Black
10
48.9593
20
-141.49
11
49.245
21
-141.347
0
LINE
8
Black
10
51.5307
20
-144.061
11
51.6736
21
-144.204
0
LINE
8
Black
10
51.6736
20
-144.204
11
51.5307
21
-144.347
0
LINE
8
Black
10
51.5307
20
-144.347
11
51.3879
21
-144.204
0
LINE
8
Black
10
51.3879
20
-144.204
11
51.5307
21
-144.061
0
LINE
8
Black
10
51.5307
20
-144.061
11
51.5307
21
-144.347
0
LINE
8
Black
10
53.5307
20
-141.347
11
53.8164
21
-141.347
0
LINE
8
Black
10
53.8164
20
-141.347
11
54.1021
21
-141.49
0
LINE
8
Black
10
54.1021
20
-141.49
11
54.245
21
-141.633
0
LINE
8
Black
10
54.245
20
-141.633
11
54.3879
21
-141.919
0
LINE
8
Black
10
54.3879
20
-141.919
11
54.5307
21
-142.49
0
LINE
8
Black
10
54.5307
20
-142.49
11
54.5307
21
-143.204
0
LINE
8
Black
10
54.5307
20
-143.204
11
54.3879
21
-143.776
0
LINE
8
Black
10
54.3879
20
-143.776
11
54.245
21
-144.061
0
LINE
8
Black
10
54.245
20
-144.061
11
54.1021
21
-144.204
0
LINE
8
Black
10
54.1021
20
-144.204
11
53.8164
21
-144.347
0
LINE
8
Black
10
53.8164
20
-144.347
11
53.5307
21
-144.347
0
LINE
8
Black
10
53.5307
20
-144.347
11
53.245
21
-144.204
0
LINE
8
Black
10
53.245
20
-144.204
11
53.1021
21
-144.061
0
LINE
8
Black
10
53.1021
20
-144.061
11
52.9593
21
-143.776
0
LINE
8
Black
10
52.9593
20
-143.776
11
52.8164
21
-143.204
0
LINE
8
Black
10
52.8164
20
-143.204
11
52.8164
21
-142.49
0
LINE
8
Black
10
52.8164
20
-142.49
11
52.9593
21
-141.919
0
LINE
8
Black
10
52.9593
20
-141.919
11
53.1021
21
-141.633
0
LINE
8
Black
10
53.1021
20
-141.633
11
53.245
21
-141.49
0
LINE
8
Black
10
53.245
20
-141.49
11
53.5307
21
-141.347
0
LINE
8
Black
10
57.1021
20
-142.347
11
57.1021
21
-144.347
0
LINE
8
Black
10
56.3879
20
-141.204
11
55.6736
21
-143.347
0
LINE
8
Black
10
55.6736
20
-143.347
11
57.5307
21
-143.347
0
LINE
8
Black
10
58.3879
20
-141.347
11
60.245
21
-141.347
0
LINE
8
Black
10
60.245
20
-141.347
11
59.245
21
-142.49
0
LINE
8
Black
10
59.245
20
-142.49
11
59.6736
21
-142.49
0
LINE
8
Black
10
59.6736
20
-142.49
11
59.9593
21
-142.633
0
LINE
8
Black
10
59.9593
20
-142.633
11
60.1021
21
-142.776
0
LINE
8
Black
10
60.1021
20
-142.776
11
60.245
21
-143.061
0
LINE
8
Black
10
60.245
20
-143.061
11
60.245
21
-143.776
0
LINE
8
Black
10
60.245
20
-143.776
11
60.1021
21
-144.061
0
LINE
8
Black
10
60.1021
20
-144.061
11
59.9593
21
-144.204
0
LINE
8
Black
10
59.9593
20
-144.204
11
59.6736
21
-144.347
0
LINE
8
Black
10
59.6736
20
-144.347
11
58.8164
21
-144.347
0
LINE
8
Black
10
58.8164
20
-144.347
11
58.5307
21
-144.204
0
LINE
8
Black
10
58.5307
20
-144.204
11
58.3879
21
-144.061
0
LINE
8
Black
10
61.3879
20
-141.347
11
61.3879
21
-141.919
0
LINE
8
Black
10
62.5307
20
-141.347
11
62.5307
21
-141.919
0
LINE
8
Black
10
66.9593
20
-145.49
11
66.8164
21
-145.347
0
LINE
8
Black
10
66.8164
20
-145.347
11
66.5307
21
-144.919
0
LINE
8
Black
10
66.5307
20
-144.919
11
66.3879
21
-144.633
0
LINE
8
Black
10
66.3879
20
-144.633
11
66.245
21
-144.204
0
LINE
8
Black
10
66.245
20
-144.204
11
66.1021
21
-143.49
0
LINE
8
Black
10
66.1021
20
-143.49
11
66.1021
21
-142.919
0
LINE
8
Black
10
66.1021
20
-142.919
11
66.245
21
-142.204
0
LINE
8
Black
10
66.245
20
-142.204
11
66.3879
21
-141.776
0
LINE
8
Black
10
66.3879
20
-141.776
11
66.5307
21
-141.49
0
LINE
8
Black
10
66.5307
20
-141.49
11
66.8164
21
-141.061
0
LINE
8
Black
10
66.8164
20
-141.061
11
66.9593
21
-140.919
0
LINE
8
Black
10
67.9593
20
-141.633
11
68.1021
21
-141.49
0
LINE
8
Black
10
68.1021
20
-141.49
11
68.3879
21
-141.347
0
LINE
8
Black
10
68.3879
20
-141.347
11
69.1021
21
-141.347
0
LINE
8
Black
10
69.1021
20
-141.347
11
69.3879
21
-141.49
0
LINE
8
Black
10
69.3879
20
-141.49
11
69.5307
21
-141.633
0
LINE
8
Black
10
69.5307
20
-141.633
11
69.6736
21
-141.919
0
LINE
8
Black
10
69.6736
20
-141.919
11
69.6736
21
-142.204
0
LINE
8
Black
10
69.6736
20
-142.204
11
69.5307
21
-142.633
0
LINE
8
Black
10
69.5307
20
-142.633
11
67.8164
21
-144.347
0
LINE
8
Black
10
67.8164
20
-144.347
11
69.6736
21
-144.347
0
LINE
8
Black
10
72.245
20
-142.347
11
72.245
21
-144.347
0
LINE
8
Black
10
71.5307
20
-141.204
11
70.8164
21
-143.347
0
LINE
8
Black
10
70.8164
20
-143.347
11
72.6736
21
-143.347
0
LINE
8
Black
10
76.1021
20
-144.347
11
76.1021
21
-141.347
0
LINE
8
Black
10
77.3879
20
-144.347
11
77.3879
21
-142.776
0
LINE
8
Black
10
77.3879
20
-142.776
11
77.245
21
-142.49
0
LINE
8
Black
10
77.245
20
-142.49
11
76.9593
21
-142.347
0
LINE
8
Black
10
76.9593
20
-142.347
11
76.5307
21
-142.347
0
LINE
8
Black
10
76.5307
20
-142.347
11
76.245
21
-142.49
0
LINE
8
Black
10
76.245
20
-142.49
11
76.1021
21
-142.633
0
LINE
8
Black
10
79.245
20
-144.347
11
78.9593
21
-144.204
0
LINE
8
Black
10
78.9593
20
-144.204
11
78.8164
21
-144.061
0
LINE
8
Black
10
78.8164
20
-144.061
11
78.6736
21
-143.776
0
LINE
8
Black
10
78.6736
20
-143.776
11
78.6736
21
-142.919
0
LINE
8
Black
10
78.6736
20
-142.919
11
78.8164
21
-142.633
0
LINE
8
Black
10
78.8164
20
-142.633
11
78.9593
21
-142.49
0
LINE
8
Black
10
78.9593
20
-142.49
11
79.245
21
-142.347
0
LINE
8
Black
10
79.245
20
-142.347
11
79.6736
21
-142.347
0
LINE
8
Black
10
79.6736
20
-142.347
11
79.9593
21
-142.49
0
LINE
8
Black
10
79.9593
20
-142.49
11
80.1021
21
-142.633
0
LINE
8
Black
10
80.1021
20
-142.633
11
80.245
21
-142.919
0
LINE
8
Black
10
80.245
20
-142.919
11
80.245
21
-143.776
0
LINE
8
Black
10
80.245
20
-143.776
11
80.1021
21
-144.061
0
LINE
8
Black
10
80.1021
20
-144.061
11
79.9593
21
-144.204
0
LINE
8
Black
10
79.9593
20
-144.204
11
79.6736
21
-144.347
0
LINE
8
Black
10
79.6736
20
-144.347
11
79.245
21
-144.347
0
LINE
8
Black
10
81.9593
20
-144.347
11
81.6736
21
-144.204
0
LINE
8
Black
10
81.6736
20
-144.204
11
81.5307
21
-143.919
0
LINE
8
Black
10
81.5307
20
-143.919
11
81.5307
21
-141.347
0
LINE
8
Black
10
84.245
20
-144.204
11
83.9593
21
-144.347
0
LINE
8
Black
10
83.9593
20
-144.347
11
83.3879
21
-144.347
0
LINE
8
Black
10
83.3879
20
-144.347
11
83.1021
21
-144.204
0
LINE
8
Black
10
83.1021
20
-144.204
11
82.9593
21
-143.919
0
LINE
8
Black
10
82.9593
20
-143.919
11
82.9593
21
-142.776
0
LINE
8
Black
10
82.9593
20
-142.776
11
83.1021
21
-142.49
0
LINE
8
Black
10
83.1021
20
-142.49
11
83.3879
21
-142.347
0
LINE
8
Black
10
83.3879
20
-142.347
11
83.9593
21
-142.347
0
LINE
8
Black
10
83.9593
20
-142.347
11
84.245
21
-142.49
0
LINE
8
Black
10
84.245
20
-142.49
11
84.3879
21
-142.776
0
LINE
8
Black
10
84.3879
20
-142.776
11
84.3879
21
-143.061
0
LINE
8
Black
10
84.3879
20
-143.061
11
82.9593
21
-143.347
0
LINE
8
Black
10
85.5307
20
-144.204
11
85.8164
21
-144.347
0
LINE
8
Black
10
85.8164
20
-144.347
11
86.3879
21
-144.347
0
LINE
8
Black
10
86.3879
20
-144.347
11
86.6736
21
-144.204
0
LINE
8
Black
10
86.6736
20
-144.204
11
86.8164
21
-143.919
0
LINE
8
Black
10
86.8164
20
-143.919
11
86.8164
21
-143.776
0
LINE
8
Black
10
86.8164
20
-143.776
11
86.6736
21
-143.49
0
LINE
8
Black
10
86.6736
20
-143.49
11
86.3879
21
-143.347
0
LINE
8
Black
10
86.3879
20
-143.347
11
85.9593
21
-143.347
0
LINE
8
Black
10
85.9593
20
-143.347
11
85.6736
21
-143.204
0
LINE
8
Black
10
85.6736
20
-143.204
11
85.5307
21
-142.919
0
LINE
8
Black
10
85.5307
20
-142.919
11
85.5307
21
-142.776
0
LINE
8
Black
10
85.5307
20
-142.776
11
85.6736
21
-142.49
0
LINE
8
Black
10
85.6736
20
-142.49
11
85.9593
21
-142.347
0
LINE
8
Black
10
85.9593
20
-142.347
11
86.3879
21
-142.347
0
LINE
8
Black
10
86.3879
20
-142.347
11
86.6736
21
-142.49
0
LINE
8
Black
10
87.8164
20
-145.49
11
87.9593
21
-145.347
0
LINE
8
Black
10
87.9593
20
-145.347
11
88.245
21
-144.919
0
LINE
8
Black
10
88.245
20
-144.919
11
88.3879
21
-144.633
0
LINE
8
Black
10
88.3879
20
-144.633
11
88.5307
21
-144.204
0
LINE
8
Black
10
88.5307
20
-144.204
11
88.6736
21
-143.49
0
LINE
8
Black
10
88.6736
20
-143.49
11
88.6736
21
-142.919
0
LINE
8
Black
10
88.6736
20
-142.919
11
88.5307
21
-142.204
0
LINE
8
Black
10
88.5307
20
-142.204
11
88.3879
21
-141.776
0
LINE
8
Black
10
88.3879
20
-141.776
11
88.245
21
-141.49
0
LINE
8
Black
10
88.245
20
-141.49
11
87.9593
21
-141.061
0
LINE
8
Black
10
87.9593
20
-141.061
11
87.8164
21
-140.919
0
LINE
8
Black
10
19.045
20
-146.35
11
20.245
21
-147.55
0
LINE
8
Black
10
20.245
20
-146.35
11
19.045
21
-147.55
0
CIRCLE
8
Black
10
19.645
20
-146.95
40
0.6
0
LINE
8
Black
10
24.5307
20
-148.307
11
22.8164
21
-148.307
0
LINE
8
Black
10
23.6736
20
-148.307
11
23.6736
21
-145.307
0
LINE
8
Black
10
23.6736
20
-145.307
11
23.3879
21
-145.736
0
LINE
8
Black
10
23.3879
20
-145.736
11
23.1021
21
-146.021
0
LINE
8
Black
10
23.1021
20
-146.021
11
22.8164
21
-146.164
0
LINE
8
Black
10
25.8164
20
-148.021
11
25.9593
21
-148.164
0
LINE
8
Black
10
25.9593
20
-148.164
11
25.8164
21
-148.307
0
LINE
8
Black
10
25.8164
20
-148.307
11
25.6736
21
-148.164
0
LINE
8
Black
10
25.6736
20
-148.164
11
25.8164
21
-148.021
0
LINE
8
Black
10
25.8164
20
-148.021
11
25.8164
21
-148.307
0
LINE
8
Black
10
27.1021
20
-145.593
11
27.245
21
-145.45
0
LINE
8
Black
10
27.245
20
-145.45
11
27.5307
21
-145.307
0
LINE
8
Black
10
27.5307
20
-145.307
11
28.245
21
-145.307
0
LINE
8
Black
10
28.245
20
-145.307
11
28.5307
21
-145.45
0
LINE
8
Black
10
28.5307
20
-145.45
11
28.6736
21
-145.593
0
LINE
8
Black
10
28.6736
20
-145.593
11
28.8164
21
-145.879
0
LINE
8
Black
10
28.8164
20
-145.879
11
28.8164
21
-146.164
0
LINE
8
Black
10
28.8164
20
-146.164
11
28.6736
21
-146.593
0
LINE
8
Black
10
28.6736
20
-146.593
11
26.9593
21
-148.307
0
LINE
8
Black
10
26.9593
20
-148.307
11
28.8164
21
-148.307
0
LINE
8
Black
10
30.6736
20
-145.307
11
30.9593
21
-145.307
0
LINE
8
Black
10
30.9593
20
-145.307
11
31.245
21
-145.45
0
LINE
8
Black
10
31.245
20
-145.45
11
31.3879
21
-145.593
0
LINE
8
Black
10
31.3879
20
-145.593
11
31.5307
21
-145.879
0
LINE
8
Black
10
31.5307
20
-145.879
11
31.6736
21
-146.45
0
LINE
8
Black
10
31.6736
20
-146.45
11
31.6736
21
-147.164
0
LINE
8
Black
10
31.6736
20
-147.164
11
31.5307
21
-147.736
0
LINE
8
Black
10
31.5307
20
-147.736
11
31.3879
21
-148.021
0
LINE
8
Black
10
31.3879
20
-148.021
11
31.245
21
-148.164
0
LINE
8
Black
10
31.245
20
-148.164
11
30.9593
21
-148.307
0
LINE
8
Black
10
30.9593
20
-148.307
11
30.6736
21
-148.307
0
LINE
8
Black
10
30.6736
20
-148.307
11
30.3879
21
-148.164
0
LINE
8
Black
10
30.3879
20
-148.164
11
30.245
21
-148.021
0
LINE
8
Black
10
30.245
20
-148.021
11
30.1021
21
-147.736
0
LINE
8
Black
10
30.1021
20
-147.736
11
29.9593
21
-147.164
0
LINE
8
Black
10
29.9593
20
-147.164
11
29.9593
21
-146.45
0
LINE
8
Black
10
29.9593
20
-146.45
11
30.1021
21
-145.879
0
LINE
8
Black
10
30.1021
20
-145.879
11
30.245
21
-145.593
0
LINE
8
Black
10
30.245
20
-145.593
11
30.3879
21
-145.45
0
LINE
8
Black
10
30.3879
20
-145.45
11
30.6736
21
-145.307
0
LINE
8
Black
10
32.9593
20
-148.307
11
32.9593
21
-146.307
0
LINE
8
Black
10
32.9593
20
-146.593
11
33.1021
21
-146.45
0
LINE
8
Black
10
33.1021
20
-146.45
11
33.3879
21
-146.307
0
LINE
8
Black
10
33.3879
20
-146.307
11
33.8164
21
-146.307
0
LINE
8
Black
10
33.8164
20
-146.307
11
34.1021
21
-146.45
0
LINE
8
Black
10
34.1021
20
-146.45
11
34.245
21
-146.736
0
LINE
8
Black
10
34.245
20
-146.736
11
34.245
21
-148.307
0
LINE
8
Black
10
34.245
20
-146.736
11
34.3879
21
-146.45
0
LINE
8
Black
10
34.3879
20
-146.45
11
34.6736
21
-146.307
0
LINE
8
Black
10
34.6736
20
-146.307
11
35.1021
21
-146.307
0
LINE
8
Black
10
35.1021
20
-146.307
11
35.3879
21
-146.45
0
LINE
8
Black
10
35.3879
20
-146.45
11
35.5307
21
-146.736
0
LINE
8
Black
10
35.5307
20
-146.736
11
35.5307
21
-148.307
0
LINE
8
Black
10
36.9593
20
-148.307
11
36.9593
21
-146.307
0
LINE
8
Black
10
36.9593
20
-146.593
11
37.1021
21
-146.45
0
LINE
8
Black
10
37.1021
20
-146.45
11
37.3879
21
-146.307
0
LINE
8
Black
10
37.3879
20
-146.307
11
37.8164
21
-146.307
0
LINE
8
Black
10
37.8164
20
-146.307
11
38.1021
21
-146.45
0
LINE
8
Black
10
38.1021
20
-146.45
11
38.245
21
-146.736
0
LINE
8
Black
10
38.245
20
-146.736
11
38.245
21
-148.307
0
LINE
8
Black
10
38.245
20
-146.736
11
38.3879
21
-146.45
0
LINE
8
Black
10
38.3879
20
-146.45
11
38.6736
21
-146.307
0
LINE
8
Black
10
38.6736
20
-146.307
11
39.1021
21
-146.307
0
LINE
8
Black
10
39.1021
20
-146.307
11
39.3879
21
-146.45
0
LINE
8
Black
10
39.3879
20
-146.45
11
39.5307
21
-146.736
0
LINE
8
Black
10
39.5307
20
-146.736
11
39.5307
21
-148.307
0
LINE
8
Black
10
45.3879
20
-145.164
11
42.8164
21
-149.021
0
LINE
8
Black
10
49.245
20
-145.307
11
49.5307
21
-145.307
0
LINE
8
Black
10
49.5307
20
-145.307
11
49.8164
21
-145.45
0
LINE
8
Black
10
49.8164
20
-145.45
11
49.9593
21
-145.593
0
LINE
8
Black
10
49.9593
20
-145.593
11
50.1021
21
-145.879
0
LINE
8
Black
10
50.1021
20
-145.879
11
50.245
21
-146.45
0
LINE
8
Black
10
50.245
20
-146.45
11
50.245
21
-147.164
0
LINE
8
Black
10
50.245
20
-147.164
11
50.1021
21
-147.736
0
LINE
8
Black
10
50.1021
20
-147.736
11
49.9593
21
-148.021
0
LINE
8
Black
10
49.9593
20
-148.021
11
49.8164
21
-148.164
0
LINE
8
Black
10
49.8164
20
-148.164
11
49.5307
21
-148.307
0
LINE
8
Black
10
49.5307
20
-148.307
11
49.245
21
-148.307
0
LINE
8
Black
10
49.245
20
-148.307
11
48.9593
21
-148.164
0
LINE
8
Black
10
48.9593
20
-148.164
11
48.8164
21
-148.021
0
LINE
8
Black
10
48.8164
20
-148.021
11
48.6736
21
-147.736
0
LINE
8
Black
10
48.6736
20
-147.736
11
48.5307
21
-147.164
0
LINE
8
Black
10
48.5307
20
-147.164
11
48.5307
21
-146.45
0
LINE
8
Black
10
48.5307
20
-146.45
11
48.6736
21
-145.879
0
LINE
8
Black
10
48.6736
20
-145.879
11
48.8164
21
-145.593
0
LINE
8
Black
10
48.8164
20
-145.593
11
48.9593
21
-145.45
0
LINE
8
Black
10
48.9593
20
-145.45
11
49.245
21
-145.307
0
LINE
8
Black
10
51.5307
20
-148.021
11
51.6736
21
-148.164
0
LINE
8
Black
10
51.6736
20
-148.164
11
51.5307
21
-148.307
0
LINE
8
Black
10
51.5307
20
-148.307
11
51.3879
21
-148.164
0
LINE
8
Black
10
51.3879
20
-148.164
11
51.5307
21
-148.021
0
LINE
8
Black
10
51.5307
20
-148.021
11
51.5307
21
-148.307
0
LINE
8
Black
10
53.5307
20
-145.307
11
53.8164
21
-145.307
0
LINE
8
Black
10
53.8164
20
-145.307
11
54.1021
21
-145.45
0
LINE
8
Black
10
54.1021
20
-145.45
11
54.245
21
-145.593
0
LINE
8
Black
10
54.245
20
-145.593
11
54.3879
21
-145.879
0
LINE
8
Black
10
54.3879
20
-145.879
11
54.5307
21
-146.45
0
LINE
8
Black
10
54.5307
20
-146.45
11
54.5307
21
-147.164
0
LINE
8
Black
10
54.5307
20
-147.164
11
54.3879
21
-147.736
0
LINE
8
Black
10
54.3879
20
-147.736
11
54.245
21
-148.021
0
LINE
8
Black
10
54.245
20
-148.021
11
54.1021
21
-148.164
0
LINE
8
Black
10
54.1021
20
-148.164
11
53.8164
21
-148.307
0
LINE
8
Black
10
53.8164
20
-148.307
11
53.5307
21
-148.307
0
LINE
8
Black
10
53.5307
20
-148.307
11
53.245
21
-148.164
0
LINE
8
Black
10
53.245
20
-148.164
11
53.1021
21
-148.021
0
LINE
8
Black
10
53.1021
20
-148.021
11
52.9593
21
-147.736
0
LINE
8
Black
10
52.9593
20
-147.736
11
52.8164
21
-147.164
0
LINE
8
Black
10
52.8164
20
-147.164
11
52.8164
21
-146.45
0
LINE
8
Black
10
52.8164
20
-146.45
11
52.9593
21
-145.879
0
LINE
8
Black
10
52.9593
20
-145.879
11
53.1021
21
-145.593
0
LINE
8
Black
10
53.1021
20
-145.593
11
53.245
21
-145.45
0
LINE
8
Black
10
53.245
20
-145.45
11
53.5307
21
-145.307
0
LINE
8
Black
10
57.1021
20
-146.307
11
57.1021
21
-148.307
0
LINE
8
Black
10
56.3879
20
-145.164
11
55.6736
21
-147.307
0
LINE
8
Black
10
55.6736
20
-147.307
11
57.5307
21
-147.307
0
LINE
8
Black
10
58.3879
20
-145.307
11
60.3879
21
-145.307
0
LINE
8
Black
10
60.3879
20
-145.307
11
59.1021
21
-148.307
0
LINE
8
Black
10
61.3879
20
-145.307
11
61.3879
21
-145.879
0
LINE
8
Black
10
62.5307
20
-145.307
11
62.5307
21
-145.879
0
LINE
8
Black
10
66.9593
20
-149.45
11
66.8164
21
-149.307
0
LINE
8
Black
10
66.8164
20
-149.307
11
66.5307
21
-148.879
0
LINE
8
Black
10
66.5307
20
-148.879
11
66.3879
21
-148.593
0
LINE
8
Black
10
66.3879
20
-148.593
11
66.245
21
-148.164
0
LINE
8
Black
10
66.245
20
-148.164
11
66.1021
21
-147.45
0
LINE
8
Black
10
66.1021
20
-147.45
11
66.1021
21
-146.879
0
LINE
8
Black
10
66.1021
20
-146.879
11
66.245
21
-146.164
0
LINE
8
Black
10
66.245
20
-146.164
11
66.3879
21
-145.736
0
LINE
8
Black
10
66.3879
20
-145.736
11
66.5307
21
-145.45
0
LINE
8
Black
10
66.5307
20
-145.45
11
66.8164
21
-145.021
0
LINE
8
Black
10
66.8164
20
-145.021
11
66.9593
21
-144.879
0
LINE
8
Black
10
67.8164
20
-145.307
11
69.8164
21
-145.307
0
LINE
8
Black
10
69.8164
20
-145.307
11
68.5307
21
-148.307
0
LINE
8
Black
10
70.8164
20
-145.593
11
70.9593
21
-145.45
0
LINE
8
Black
10
70.9593
20
-145.45
11
71.245
21
-145.307
0
LINE
8
Black
10
71.245
20
-145.307
11
71.9593
21
-145.307
0
LINE
8
Black
10
71.9593
20
-145.307
11
72.245
21
-145.45
0
LINE
8
Black
10
72.245
20
-145.45
11
72.3879
21
-145.593
0
LINE
8
Black
10
72.3879
20
-145.593
11
72.5307
21
-145.879
0
LINE
8
Black
10
72.5307
20
-145.879
11
72.5307
21
-146.164
0
LINE
8
Black
10
72.5307
20
-146.164
11
72.3879
21
-146.593
0
LINE
8
Black
10
72.3879
20
-146.593
11
70.6736
21
-148.307
0
LINE
8
Black
10
70.6736
20
-148.307
11
72.5307
21
-148.307
0
LINE
8
Black
10
76.1021
20
-148.307
11
76.1021
21
-145.307
0
LINE
8
Black
10
77.3879
20
-148.307
11
77.3879
21
-146.736
0
LINE
8
Black
10
77.3879
20
-146.736
11
77.245
21
-146.45
0
LINE
8
Black
10
77.245
20
-146.45
11
76.9593
21
-146.307
0
LINE
8
Black
10
76.9593
20
-146.307
11
76.5307
21
-146.307
0
LINE
8
Black
10
76.5307
20
-146.307
11
76.245
21
-146.45
0
LINE
8
Black
10
76.245
20
-146.45
11
76.1021
21
-146.593
0
LINE
8
Black
10
79.245
20
-148.307
11
78.9593
21
-148.164
0
LINE
8
Black
10
78.9593
20
-148.164
11
78.8164
21
-148.021
0
LINE
8
Black
10
78.8164
20
-148.021
11
78.6736
21
-147.736
0
LINE
8
Black
10
78.6736
20
-147.736
11
78.6736
21
-146.879
0
LINE
8
Black
10
78.6736
20
-146.879
11
78.8164
21
-146.593
0
LINE
8
Black
10
78.8164
20
-146.593
11
78.9593
21
-146.45
0
LINE
8
Black
10
78.9593
20
-146.45
11
79.245
21
-146.307
0
LINE
8
Black
10
79.245
20
-146.307
11
79.6736
21
-146.307
0
LINE
8
Black
10
79.6736
20
-146.307
11
79.9593
21
-146.45
0
LINE
8
Black
10
79.9593
20
-146.45
11
80.1021
21
-146.593
0
LINE
8
Black
10
80.1021
20
-146.593
11
80.245
21
-146.879
0
LINE
8
Black
10
80.245
20
-146.879
11
80.245
21
-147.736
0
LINE
8
Black
10
80.245
20
-147.736
11
80.1021
21
-148.021
0
LINE
8
Black
10
80.1021
20
-148.021
11
79.9593
21
-148.164
0
LINE
8
Black
10
79.9593
20
-148.164
11
79.6736
21
-148.307
0
LINE
8
Black
10
79.6736
20
-148.307
11
79.245
21
-148.307
0
LINE
8
Black
10
81.9593
20
-148.307
11
81.6736
21
-148.164
0
LINE
8
Black
10
81.6736
20
-148.164
11
81.5307
21
-147.879
0
LINE
8
Black
10
81.5307
20
-147.879
11
81.5307
21
-145.307
0
LINE
8
Black
10
84.245
20
-148.164
11
83.9593
21
-148.307
0
LINE
8
Black
10
83.9593
20
-148.307
11
83.3879
21
-148.307
0
LINE
8
Black
10
83.3879
20
-148.307
11
83.1021
21
-148.164
0
LINE
8
Black
10
83.1021
20
-148.164
11
82.9593
21
-147.879
0
LINE
8
Black
10
82.9593
20
-147.879
11
82.9593
21
-146.736
0
LINE
8
Black
10
82.9593
20
-146.736
11
83.1021
21
-146.45
0
LINE
8
Black
10
83.1021
20
-146.45
11
83.3879
21
-146.307
0
LINE
8
Black
10
83.3879
20
-146.307
11
83.9593
21
-146.307
0
LINE
8
Black
10
83.9593
20
-146.307
11
84.245
21
-146.45
0
LINE
8
Black
10
84.245
20
-146.45
11
84.3879
21
-146.736
0
LINE
8
Black
10
84.3879
20
-146.736
11
84.3879
21
-147.021
0
LINE
8
Black
10
84.3879
20
-147.021
11
82.9593
21
-147.307
0
LINE
8
Black
10
85.5307
20
-148.164
11
85.8164
21
-148.307
0
LINE
8
Black
10
85.8164
20
-148.307
11
86.3879
21
-148.307
0
LINE
8
Black
10
86.3879
20
-148.307
11
86.6736
21
-148.164
0
LINE
8
Black
10
86.6736
20
-148.164
11
86.8164
21
-147.879
0
LINE
8
Black
10
86.8164
20
-147.879
11
86.8164
21
-147.736
0
LINE
8
Black
10
86.8164
20
-147.736
11
86.6736
21
-147.45
0
LINE
8
Black
10
86.6736
20
-147.45
11
86.3879
21
-147.307
0
LINE
8
Black
10
86.3879
20
-147.307
11
85.9593
21
-147.307
0
LINE
8
Black
10
85.9593
20
-147.307
11
85.6736
21
-147.164
0
LINE
8
Black
10
85.6736
20
-147.164
11
85.5307
21
-146.879
0
LINE
8
Black
10
85.5307
20
-146.879
11
85.5307
21
-146.736
0
LINE
8
Black
10
85.5307
20
-146.736
11
85.6736
21
-146.45
0
LINE
8
Black
10
85.6736
20
-146.45
11
85.9593
21
-146.307
0
LINE
8
Black
10
85.9593
20
-146.307
11
86.3879
21
-146.307
0
LINE
8
Black
10
86.3879
20
-146.307
11
86.6736
21
-146.45
0
LINE
8
Black
10
87.8164
20
-149.45
11
87.9593
21
-149.307
0
LINE
8
Black
10
87.9593
20
-149.307
11
88.245
21
-148.879
0
LINE
8
Black
10
88.245
20
-148.879
11
88.3879
21
-148.593
0
LINE
8
Black
10
88.3879
20
-148.593
11
88.5307
21
-148.164
0
LINE
8
Black
10
88.5307
20
-148.164
11
88.6736
21
-147.45
0
LINE
8
Black
10
88.6736
20
-147.45
11
88.6736
21
-146.879
0
LINE
8
Black
10
88.6736
20
-146.879
11
88.5307
21
-146.164
0
LINE
8
Black
10
88.5307
20
-146.164
11
88.3879
21
-145.736
0
LINE
8
Black
10
88.3879
20
-145.736
11
88.245
21
-145.45
0
LINE
8
Black
10
88.245
20
-145.45
11
87.9593
21
-145.021
0
LINE
8
Black
10
87.9593
20
-145.021
11
87.8164
21
-144.879
  0
ENDSEC
  0
EOF
