  0
SECTION
  2
HEADER
  9
$ANGBASE
  50
0.0
  9
$ANGDIR
  70
  1
  9
$MEASUREMENT
  70
0
  0
ENDSEC
  0
SECTION
  2
TABLES
  0
TABLE
  2
LTYPE
  70
1
  0
LTYPE
  2
CONTINUOUS
  70
0
  3
Solid line
  72
65
  73
0
  40
0.0
  0
ENDTAB
  0
TABLE
  2
STYLE
  70
4
  0
STYLE
  2
KICAD
  70
0
  40
0
  41
1
  42
1
  50
0
  71
0
  3
isocp.shx
  0
STYLE
  2
KICADB
  70
0
  40
0
  41
1
  42
1
  50
0
  71
0
  3
isocp.shx
  0
STYLE
  2
KICADI
  70
0
  40
0
  41
1
  42
1
  50
15
  71
0
  3
isocp.shx
  0
STYLE
  2
KICADBI
  70
0
  40
0
  41
1
  42
1
  50
15
  71
0
  3
isocp.shx
  0
ENDTAB
  0
TABLE
  2
LAYER
  70
30
  0
LAYER
  2
BLACK
  70
0
  62
7
  6
CONTINUOUS
  0
LAYER
  2
GRAY1
  70
0
  62
251
  6
CONTINUOUS
  0
LAYER
  2
GRAY2
  70
0
  62
8
  6
CONTINUOUS
  0
LAYER
  2
GRAY3
  70
0
  62
9
  6
CONTINUOUS
  0
LAYER
  2
WHITE
  70
0
  62
7
  6
CONTINUOUS
  0
LAYER
  2
LYELLOW
  70
0
  62
51
  6
CONTINUOUS
  0
LAYER
  2
BLUE1
  70
0
  62
178
  6
CONTINUOUS
  0
LAYER
  2
GREEN1
  70
0
  62
98
  6
CONTINUOUS
  0
LAYER
  2
CYAN1
  70
0
  62
138
  6
CONTINUOUS
  0
LAYER
  2
RED1
  70
0
  62
18
  6
CONTINUOUS
  0
LAYER
  2
MAGENTA1
  70
0
  62
228
  6
CONTINUOUS
  0
LAYER
  2
BROWN1
  70
0
  62
58
  6
CONTINUOUS
  0
LAYER
  2
BLUE2
  70
0
  62
5
  6
CONTINUOUS
  0
LAYER
  2
GREEN2
  70
0
  62
3
  6
CONTINUOUS
  0
LAYER
  2
CYAN2
  70
0
  62
4
  6
CONTINUOUS
  0
LAYER
  2
RED2
  70
0
  62
1
  6
CONTINUOUS
  0
LAYER
  2
MAGENTA2
  70
0
  62
6
  6
CONTINUOUS
  0
LAYER
  2
BROWN2
  70
0
  62
54
  6
CONTINUOUS
  0
LAYER
  2
BLUE3
  70
0
  62
171
  6
CONTINUOUS
  0
LAYER
  2
GREEN3
  70
0
  62
91
  6
CONTINUOUS
  0
LAYER
  2
CYAN3
  70
0
  62
131
  6
CONTINUOUS
  0
LAYER
  2
RED3
  70
0
  62
11
  6
CONTINUOUS
  0
LAYER
  2
MAGENTA3
  70
0
  62
221
  6
CONTINUOUS
  0
LAYER
  2
YELLOW3
  70
0
  62
2
  6
CONTINUOUS
  0
LAYER
  2
BLUE4
  70
0
  62
5
  6
CONTINUOUS
  0
LAYER
  2
GREEN4
  70
0
  62
3
  6
CONTINUOUS
  0
LAYER
  2
CYAN4
  70
0
  62
4
  6
CONTINUOUS
  0
LAYER
  2
RED4
  70
0
  62
1
  6
CONTINUOUS
  0
LAYER
  2
MAGENTA4
  70
0
  62
6
  6
CONTINUOUS
  0
LAYER
  2
YELLOW4
  70
0
  62
2
  6
CONTINUOUS
  0
ENDTAB
  0
ENDSEC
  0
SECTION
  2
ENTITIES
0
LINE
8
Black
10
68.992
20
-111.448
11
69.3543
21
-111.657
0
LINE
8
Black
10
69.3543
20
-111.657
11
69.6232
21
-111.978
0
LINE
8
Black
10
69.6232
20
-111.978
11
69.7663
21
-112.371
0
LINE
8
Black
10
69.7663
20
-112.371
11
69.7663
21
-112.789
0
LINE
8
Black
10
69.7663
20
-112.789
11
69.6232
21
-113.182
0
LINE
8
Black
10
69.6232
20
-113.182
11
69.3543
21
-113.503
0
LINE
8
Black
10
69.3543
20
-113.503
11
68.992
21
-113.712
0
LINE
8
Black
10
68.992
20
-113.712
11
68.58
21
-113.785
0
LINE
8
Black
10
68.58
20
-113.785
11
68.168
21
-113.712
0
LINE
8
Black
10
68.168
20
-113.712
11
67.8057
21
-113.503
0
LINE
8
Black
10
67.8057
20
-113.503
11
67.5368
21
-113.182
0
LINE
8
Black
10
67.5368
20
-113.182
11
67.3937
21
-112.789
0
LINE
8
Black
10
67.3937
20
-112.789
11
67.3937
21
-112.371
0
LINE
8
Black
10
67.3937
20
-112.371
11
67.5368
21
-111.978
0
LINE
8
Black
10
67.5368
20
-111.978
11
67.8057
21
-111.657
0
LINE
8
Black
10
67.8057
20
-111.657
11
68.168
21
-111.448
0
LINE
8
Black
10
68.168
20
-111.448
11
68.58
21
-111.375
0
LINE
8
Black
10
68.58
20
-111.375
11
68.992
21
-111.448
0
LINE
8
Black
10
107.6
20
-111.448
11
107.962
21
-111.657
0
LINE
8
Black
10
107.962
20
-111.657
11
108.231
21
-111.978
0
LINE
8
Black
10
108.231
20
-111.978
11
108.374
21
-112.371
0
LINE
8
Black
10
108.374
20
-112.371
11
108.374
21
-112.789
0
LINE
8
Black
10
108.374
20
-112.789
11
108.231
21
-113.182
0
LINE
8
Black
10
108.231
20
-113.182
11
107.962
21
-113.503
0
LINE
8
Black
10
107.962
20
-113.503
11
107.6
21
-113.712
0
LINE
8
Black
10
107.6
20
-113.712
11
107.188
21
-113.785
0
LINE
8
Black
10
107.188
20
-113.785
11
106.776
21
-113.712
0
LINE
8
Black
10
106.776
20
-113.712
11
106.414
21
-113.503
0
LINE
8
Black
10
106.414
20
-113.503
11
106.145
21
-113.182
0
LINE
8
Black
10
106.145
20
-113.182
11
106.002
21
-112.789
0
LINE
8
Black
10
106.002
20
-112.789
11
106.002
21
-112.371
0
LINE
8
Black
10
106.002
20
-112.371
11
106.145
21
-111.978
0
LINE
8
Black
10
106.145
20
-111.978
11
106.414
21
-111.657
0
LINE
8
Black
10
106.414
20
-111.657
11
106.776
21
-111.448
0
LINE
8
Black
10
106.776
20
-111.448
11
107.188
21
-111.375
0
LINE
8
Black
10
107.188
20
-111.375
11
107.6
21
-111.448
0
LINE
8
Black
10
30.384
20
-111.448
11
30.7463
21
-111.657
0
LINE
8
Black
10
30.7463
20
-111.657
11
31.0152
21
-111.978
0
LINE
8
Black
10
31.0152
20
-111.978
11
31.1583
21
-112.371
0
LINE
8
Black
10
31.1583
20
-112.371
11
31.1583
21
-112.789
0
LINE
8
Black
10
31.1583
20
-112.789
11
31.0152
21
-113.182
0
LINE
8
Black
10
31.0152
20
-113.182
11
30.7463
21
-113.503
0
LINE
8
Black
10
30.7463
20
-113.503
11
30.384
21
-113.712
0
LINE
8
Black
10
30.384
20
-113.712
11
29.972
21
-113.785
0
LINE
8
Black
10
29.972
20
-113.785
11
29.56
21
-113.712
0
LINE
8
Black
10
29.56
20
-113.712
11
29.1977
21
-113.503
0
LINE
8
Black
10
29.1977
20
-113.503
11
28.9288
21
-113.182
0
LINE
8
Black
10
28.9288
20
-113.182
11
28.7857
21
-112.789
0
LINE
8
Black
10
28.7857
20
-112.789
11
28.7857
21
-112.371
0
LINE
8
Black
10
28.7857
20
-112.371
11
28.9288
21
-111.978
0
LINE
8
Black
10
28.9288
20
-111.978
11
29.1977
21
-111.657
0
LINE
8
Black
10
29.1977
20
-111.657
11
29.56
21
-111.448
0
LINE
8
Black
10
29.56
20
-111.448
11
29.972
21
-111.375
0
LINE
8
Black
10
29.972
20
-111.375
11
30.384
21
-111.448
0
LINE
8
Black
10
49.688
20
-111.448
11
50.0503
21
-111.657
0
LINE
8
Black
10
50.0503
20
-111.657
11
50.3192
21
-111.978
0
LINE
8
Black
10
50.3192
20
-111.978
11
50.4623
21
-112.371
0
LINE
8
Black
10
50.4623
20
-112.371
11
50.4623
21
-112.789
0
LINE
8
Black
10
50.4623
20
-112.789
11
50.3192
21
-113.182
0
LINE
8
Black
10
50.3192
20
-113.182
11
50.0503
21
-113.503
0
LINE
8
Black
10
50.0503
20
-113.503
11
49.688
21
-113.712
0
LINE
8
Black
10
49.688
20
-113.712
11
49.276
21
-113.785
0
LINE
8
Black
10
49.276
20
-113.785
11
48.864
21
-113.712
0
LINE
8
Black
10
48.864
20
-113.712
11
48.5017
21
-113.503
0
LINE
8
Black
10
48.5017
20
-113.503
11
48.2328
21
-113.182
0
LINE
8
Black
10
48.2328
20
-113.182
11
48.0897
21
-112.789
0
LINE
8
Black
10
48.0897
20
-112.789
11
48.0897
21
-112.371
0
LINE
8
Black
10
48.0897
20
-112.371
11
48.2328
21
-111.978
0
LINE
8
Black
10
48.2328
20
-111.978
11
48.5017
21
-111.657
0
LINE
8
Black
10
48.5017
20
-111.657
11
48.864
21
-111.448
0
LINE
8
Black
10
48.864
20
-111.448
11
49.276
21
-111.375
0
LINE
8
Black
10
49.276
20
-111.375
11
49.688
21
-111.448
0
LINE
8
Black
10
88.296
20
-111.448
11
88.6583
21
-111.657
0
LINE
8
Black
10
88.6583
20
-111.657
11
88.9272
21
-111.978
0
LINE
8
Black
10
88.9272
20
-111.978
11
89.0703
21
-112.371
0
LINE
8
Black
10
89.0703
20
-112.371
11
89.0703
21
-112.789
0
LINE
8
Black
10
89.0703
20
-112.789
11
88.9272
21
-113.182
0
LINE
8
Black
10
88.9272
20
-113.182
11
88.6583
21
-113.503
0
LINE
8
Black
10
88.6583
20
-113.503
11
88.296
21
-113.712
0
LINE
8
Black
10
88.296
20
-113.712
11
87.884
21
-113.785
0
LINE
8
Black
10
87.884
20
-113.785
11
87.472
21
-113.712
0
LINE
8
Black
10
87.472
20
-113.712
11
87.1097
21
-113.503
0
LINE
8
Black
10
87.1097
20
-113.503
11
86.8408
21
-113.182
0
LINE
8
Black
10
86.8408
20
-113.182
11
86.6977
21
-112.789
0
LINE
8
Black
10
86.6977
20
-112.789
11
86.6977
21
-112.371
0
LINE
8
Black
10
86.6977
20
-112.371
11
86.8408
21
-111.978
0
LINE
8
Black
10
86.8408
20
-111.978
11
87.1097
21
-111.657
0
LINE
8
Black
10
87.1097
20
-111.657
11
87.472
21
-111.448
0
LINE
8
Black
10
87.472
20
-111.448
11
87.884
21
-111.375
0
LINE
8
Black
10
87.884
20
-111.375
11
88.296
21
-111.448
0
LINE
8
Black
10
126.904
20
-111.448
11
127.266
21
-111.657
0
LINE
8
Black
10
127.266
20
-111.657
11
127.535
21
-111.978
0
LINE
8
Black
10
127.535
20
-111.978
11
127.678
21
-112.371
0
LINE
8
Black
10
127.678
20
-112.371
11
127.678
21
-112.789
0
LINE
8
Black
10
127.678
20
-112.789
11
127.535
21
-113.182
0
LINE
8
Black
10
127.535
20
-113.182
11
127.266
21
-113.503
0
LINE
8
Black
10
127.266
20
-113.503
11
126.904
21
-113.712
0
LINE
8
Black
10
126.904
20
-113.712
11
126.492
21
-113.785
0
LINE
8
Black
10
126.492
20
-113.785
11
126.08
21
-113.712
0
LINE
8
Black
10
126.08
20
-113.712
11
125.718
21
-113.503
0
LINE
8
Black
10
125.718
20
-113.503
11
125.449
21
-113.182
0
LINE
8
Black
10
125.449
20
-113.182
11
125.306
21
-112.789
0
LINE
8
Black
10
125.306
20
-112.789
11
125.306
21
-112.371
0
LINE
8
Black
10
125.306
20
-112.371
11
125.449
21
-111.978
0
LINE
8
Black
10
125.449
20
-111.978
11
125.718
21
-111.657
0
LINE
8
Black
10
125.718
20
-111.657
11
126.08
21
-111.448
0
LINE
8
Black
10
126.08
20
-111.448
11
126.492
21
-111.375
0
LINE
8
Black
10
126.492
20
-111.375
11
126.904
21
-111.448
0
LINE
8
Black
10
112.6
20
-109.348
11
112.962
21
-109.557
0
LINE
8
Black
10
112.962
20
-109.557
11
113.231
21
-109.878
0
LINE
8
Black
10
113.231
20
-109.878
11
113.374
21
-110.271
0
LINE
8
Black
10
113.374
20
-110.271
11
113.374
21
-110.689
0
LINE
8
Black
10
113.374
20
-110.689
11
113.231
21
-111.082
0
LINE
8
Black
10
113.231
20
-111.082
11
112.962
21
-111.403
0
LINE
8
Black
10
112.962
20
-111.403
11
112.6
21
-111.612
0
LINE
8
Black
10
112.6
20
-111.612
11
112.188
21
-111.685
0
LINE
8
Black
10
112.188
20
-111.685
11
111.776
21
-111.612
0
LINE
8
Black
10
111.776
20
-111.612
11
111.414
21
-111.403
0
LINE
8
Black
10
111.414
20
-111.403
11
111.145
21
-111.082
0
LINE
8
Black
10
111.145
20
-111.082
11
111.002
21
-110.689
0
LINE
8
Black
10
111.002
20
-110.689
11
111.002
21
-110.271
0
LINE
8
Black
10
111.002
20
-110.271
11
111.145
21
-109.878
0
LINE
8
Black
10
111.145
20
-109.878
11
111.414
21
-109.557
0
LINE
8
Black
10
111.414
20
-109.557
11
111.776
21
-109.348
0
LINE
8
Black
10
111.776
20
-109.348
11
112.188
21
-109.275
0
LINE
8
Black
10
112.188
20
-109.275
11
112.6
21
-109.348
0
LINE
8
Black
10
54.688
20
-109.348
11
55.0503
21
-109.557
0
LINE
8
Black
10
55.0503
20
-109.557
11
55.3192
21
-109.878
0
LINE
8
Black
10
55.3192
20
-109.878
11
55.4623
21
-110.271
0
LINE
8
Black
10
55.4623
20
-110.271
11
55.4623
21
-110.689
0
LINE
8
Black
10
55.4623
20
-110.689
11
55.3192
21
-111.082
0
LINE
8
Black
10
55.3192
20
-111.082
11
55.0503
21
-111.403
0
LINE
8
Black
10
55.0503
20
-111.403
11
54.688
21
-111.612
0
LINE
8
Black
10
54.688
20
-111.612
11
54.276
21
-111.685
0
LINE
8
Black
10
54.276
20
-111.685
11
53.864
21
-111.612
0
LINE
8
Black
10
53.864
20
-111.612
11
53.5017
21
-111.403
0
LINE
8
Black
10
53.5017
20
-111.403
11
53.2328
21
-111.082
0
LINE
8
Black
10
53.2328
20
-111.082
11
53.0897
21
-110.689
0
LINE
8
Black
10
53.0897
20
-110.689
11
53.0897
21
-110.271
0
LINE
8
Black
10
53.0897
20
-110.271
11
53.2328
21
-109.878
0
LINE
8
Black
10
53.2328
20
-109.878
11
53.5017
21
-109.557
0
LINE
8
Black
10
53.5017
20
-109.557
11
53.864
21
-109.348
0
LINE
8
Black
10
53.864
20
-109.348
11
54.276
21
-109.275
0
LINE
8
Black
10
54.276
20
-109.275
11
54.688
21
-109.348
0
LINE
8
Black
10
102.6
20
-109.348
11
102.962
21
-109.557
0
LINE
8
Black
10
102.962
20
-109.557
11
103.231
21
-109.878
0
LINE
8
Black
10
103.231
20
-109.878
11
103.374
21
-110.271
0
LINE
8
Black
10
103.374
20
-110.271
11
103.374
21
-110.689
0
LINE
8
Black
10
103.374
20
-110.689
11
103.231
21
-111.082
0
LINE
8
Black
10
103.231
20
-111.082
11
102.962
21
-111.403
0
LINE
8
Black
10
102.962
20
-111.403
11
102.6
21
-111.612
0
LINE
8
Black
10
102.6
20
-111.612
11
102.188
21
-111.685
0
LINE
8
Black
10
102.188
20
-111.685
11
101.776
21
-111.612
0
LINE
8
Black
10
101.776
20
-111.612
11
101.414
21
-111.403
0
LINE
8
Black
10
101.414
20
-111.403
11
101.145
21
-111.082
0
LINE
8
Black
10
101.145
20
-111.082
11
101.002
21
-110.689
0
LINE
8
Black
10
101.002
20
-110.689
11
101.002
21
-110.271
0
LINE
8
Black
10
101.002
20
-110.271
11
101.145
21
-109.878
0
LINE
8
Black
10
101.145
20
-109.878
11
101.414
21
-109.557
0
LINE
8
Black
10
101.414
20
-109.557
11
101.776
21
-109.348
0
LINE
8
Black
10
101.776
20
-109.348
11
102.188
21
-109.275
0
LINE
8
Black
10
102.188
20
-109.275
11
102.6
21
-109.348
0
LINE
8
Black
10
25.384
20
-109.348
11
25.7463
21
-109.557
0
LINE
8
Black
10
25.7463
20
-109.557
11
26.0152
21
-109.878
0
LINE
8
Black
10
26.0152
20
-109.878
11
26.1583
21
-110.271
0
LINE
8
Black
10
26.1583
20
-110.271
11
26.1583
21
-110.689
0
LINE
8
Black
10
26.1583
20
-110.689
11
26.0152
21
-111.082
0
LINE
8
Black
10
26.0152
20
-111.082
11
25.7463
21
-111.403
0
LINE
8
Black
10
25.7463
20
-111.403
11
25.384
21
-111.612
0
LINE
8
Black
10
25.384
20
-111.612
11
24.972
21
-111.685
0
LINE
8
Black
10
24.972
20
-111.685
11
24.56
21
-111.612
0
LINE
8
Black
10
24.56
20
-111.612
11
24.1977
21
-111.403
0
LINE
8
Black
10
24.1977
20
-111.403
11
23.9288
21
-111.082
0
LINE
8
Black
10
23.9288
20
-111.082
11
23.7857
21
-110.689
0
LINE
8
Black
10
23.7857
20
-110.689
11
23.7857
21
-110.271
0
LINE
8
Black
10
23.7857
20
-110.271
11
23.9288
21
-109.878
0
LINE
8
Black
10
23.9288
20
-109.878
11
24.1977
21
-109.557
0
LINE
8
Black
10
24.1977
20
-109.557
11
24.56
21
-109.348
0
LINE
8
Black
10
24.56
20
-109.348
11
24.972
21
-109.275
0
LINE
8
Black
10
24.972
20
-109.275
11
25.384
21
-109.348
0
LINE
8
Black
10
131.904
20
-109.348
11
132.266
21
-109.557
0
LINE
8
Black
10
132.266
20
-109.557
11
132.535
21
-109.878
0
LINE
8
Black
10
132.535
20
-109.878
11
132.678
21
-110.271
0
LINE
8
Black
10
132.678
20
-110.271
11
132.678
21
-110.689
0
LINE
8
Black
10
132.678
20
-110.689
11
132.535
21
-111.082
0
LINE
8
Black
10
132.535
20
-111.082
11
132.266
21
-111.403
0
LINE
8
Black
10
132.266
20
-111.403
11
131.904
21
-111.612
0
LINE
8
Black
10
131.904
20
-111.612
11
131.492
21
-111.685
0
LINE
8
Black
10
131.492
20
-111.685
11
131.08
21
-111.612
0
LINE
8
Black
10
131.08
20
-111.612
11
130.718
21
-111.403
0
LINE
8
Black
10
130.718
20
-111.403
11
130.449
21
-111.082
0
LINE
8
Black
10
130.449
20
-111.082
11
130.306
21
-110.689
0
LINE
8
Black
10
130.306
20
-110.689
11
130.306
21
-110.271
0
LINE
8
Black
10
130.306
20
-110.271
11
130.449
21
-109.878
0
LINE
8
Black
10
130.449
20
-109.878
11
130.718
21
-109.557
0
LINE
8
Black
10
130.718
20
-109.557
11
131.08
21
-109.348
0
LINE
8
Black
10
131.08
20
-109.348
11
131.492
21
-109.275
0
LINE
8
Black
10
131.492
20
-109.275
11
131.904
21
-109.348
0
LINE
8
Black
10
44.688
20
-109.348
11
45.0503
21
-109.557
0
LINE
8
Black
10
45.0503
20
-109.557
11
45.3192
21
-109.878
0
LINE
8
Black
10
45.3192
20
-109.878
11
45.4623
21
-110.271
0
LINE
8
Black
10
45.4623
20
-110.271
11
45.4623
21
-110.689
0
LINE
8
Black
10
45.4623
20
-110.689
11
45.3192
21
-111.082
0
LINE
8
Black
10
45.3192
20
-111.082
11
45.0503
21
-111.403
0
LINE
8
Black
10
45.0503
20
-111.403
11
44.688
21
-111.612
0
LINE
8
Black
10
44.688
20
-111.612
11
44.276
21
-111.685
0
LINE
8
Black
10
44.276
20
-111.685
11
43.864
21
-111.612
0
LINE
8
Black
10
43.864
20
-111.612
11
43.5017
21
-111.403
0
LINE
8
Black
10
43.5017
20
-111.403
11
43.2328
21
-111.082
0
LINE
8
Black
10
43.2328
20
-111.082
11
43.0897
21
-110.689
0
LINE
8
Black
10
43.0897
20
-110.689
11
43.0897
21
-110.271
0
LINE
8
Black
10
43.0897
20
-110.271
11
43.2328
21
-109.878
0
LINE
8
Black
10
43.2328
20
-109.878
11
43.5017
21
-109.557
0
LINE
8
Black
10
43.5017
20
-109.557
11
43.864
21
-109.348
0
LINE
8
Black
10
43.864
20
-109.348
11
44.276
21
-109.275
0
LINE
8
Black
10
44.276
20
-109.275
11
44.688
21
-109.348
0
LINE
8
Black
10
83.296
20
-109.348
11
83.6583
21
-109.557
0
LINE
8
Black
10
83.6583
20
-109.557
11
83.9272
21
-109.878
0
LINE
8
Black
10
83.9272
20
-109.878
11
84.0703
21
-110.271
0
LINE
8
Black
10
84.0703
20
-110.271
11
84.0703
21
-110.689
0
LINE
8
Black
10
84.0703
20
-110.689
11
83.9272
21
-111.082
0
LINE
8
Black
10
83.9272
20
-111.082
11
83.6583
21
-111.403
0
LINE
8
Black
10
83.6583
20
-111.403
11
83.296
21
-111.612
0
LINE
8
Black
10
83.296
20
-111.612
11
82.884
21
-111.685
0
LINE
8
Black
10
82.884
20
-111.685
11
82.472
21
-111.612
0
LINE
8
Black
10
82.472
20
-111.612
11
82.1097
21
-111.403
0
LINE
8
Black
10
82.1097
20
-111.403
11
81.8408
21
-111.082
0
LINE
8
Black
10
81.8408
20
-111.082
11
81.6977
21
-110.689
0
LINE
8
Black
10
81.6977
20
-110.689
11
81.6977
21
-110.271
0
LINE
8
Black
10
81.6977
20
-110.271
11
81.8408
21
-109.878
0
LINE
8
Black
10
81.8408
20
-109.878
11
82.1097
21
-109.557
0
LINE
8
Black
10
82.1097
20
-109.557
11
82.472
21
-109.348
0
LINE
8
Black
10
82.472
20
-109.348
11
82.884
21
-109.275
0
LINE
8
Black
10
82.884
20
-109.275
11
83.296
21
-109.348
0
LINE
8
Black
10
121.904
20
-109.348
11
122.266
21
-109.557
0
LINE
8
Black
10
122.266
20
-109.557
11
122.535
21
-109.878
0
LINE
8
Black
10
122.535
20
-109.878
11
122.678
21
-110.271
0
LINE
8
Black
10
122.678
20
-110.271
11
122.678
21
-110.689
0
LINE
8
Black
10
122.678
20
-110.689
11
122.535
21
-111.082
0
LINE
8
Black
10
122.535
20
-111.082
11
122.266
21
-111.403
0
LINE
8
Black
10
122.266
20
-111.403
11
121.904
21
-111.612
0
LINE
8
Black
10
121.904
20
-111.612
11
121.492
21
-111.685
0
LINE
8
Black
10
121.492
20
-111.685
11
121.08
21
-111.612
0
LINE
8
Black
10
121.08
20
-111.612
11
120.718
21
-111.403
0
LINE
8
Black
10
120.718
20
-111.403
11
120.449
21
-111.082
0
LINE
8
Black
10
120.449
20
-111.082
11
120.306
21
-110.689
0
LINE
8
Black
10
120.306
20
-110.689
11
120.306
21
-110.271
0
LINE
8
Black
10
120.306
20
-110.271
11
120.449
21
-109.878
0
LINE
8
Black
10
120.449
20
-109.878
11
120.718
21
-109.557
0
LINE
8
Black
10
120.718
20
-109.557
11
121.08
21
-109.348
0
LINE
8
Black
10
121.08
20
-109.348
11
121.492
21
-109.275
0
LINE
8
Black
10
121.492
20
-109.275
11
121.904
21
-109.348
0
LINE
8
Black
10
93.296
20
-109.348
11
93.6583
21
-109.557
0
LINE
8
Black
10
93.6583
20
-109.557
11
93.9272
21
-109.878
0
LINE
8
Black
10
93.9272
20
-109.878
11
94.0703
21
-110.271
0
LINE
8
Black
10
94.0703
20
-110.271
11
94.0703
21
-110.689
0
LINE
8
Black
10
94.0703
20
-110.689
11
93.9272
21
-111.082
0
LINE
8
Black
10
93.9272
20
-111.082
11
93.6583
21
-111.403
0
LINE
8
Black
10
93.6583
20
-111.403
11
93.296
21
-111.612
0
LINE
8
Black
10
93.296
20
-111.612
11
92.884
21
-111.685
0
LINE
8
Black
10
92.884
20
-111.685
11
92.472
21
-111.612
0
LINE
8
Black
10
92.472
20
-111.612
11
92.1097
21
-111.403
0
LINE
8
Black
10
92.1097
20
-111.403
11
91.8408
21
-111.082
0
LINE
8
Black
10
91.8408
20
-111.082
11
91.6977
21
-110.689
0
LINE
8
Black
10
91.6977
20
-110.689
11
91.6977
21
-110.271
0
LINE
8
Black
10
91.6977
20
-110.271
11
91.8408
21
-109.878
0
LINE
8
Black
10
91.8408
20
-109.878
11
92.1097
21
-109.557
0
LINE
8
Black
10
92.1097
20
-109.557
11
92.472
21
-109.348
0
LINE
8
Black
10
92.472
20
-109.348
11
92.884
21
-109.275
0
LINE
8
Black
10
92.884
20
-109.275
11
93.296
21
-109.348
0
LINE
8
Black
10
73.992
20
-109.348
11
74.3543
21
-109.557
0
LINE
8
Black
10
74.3543
20
-109.557
11
74.6232
21
-109.878
0
LINE
8
Black
10
74.6232
20
-109.878
11
74.7663
21
-110.271
0
LINE
8
Black
10
74.7663
20
-110.271
11
74.7663
21
-110.689
0
LINE
8
Black
10
74.7663
20
-110.689
11
74.6232
21
-111.082
0
LINE
8
Black
10
74.6232
20
-111.082
11
74.3543
21
-111.403
0
LINE
8
Black
10
74.3543
20
-111.403
11
73.992
21
-111.612
0
LINE
8
Black
10
73.992
20
-111.612
11
73.58
21
-111.685
0
LINE
8
Black
10
73.58
20
-111.685
11
73.168
21
-111.612
0
LINE
8
Black
10
73.168
20
-111.612
11
72.8057
21
-111.403
0
LINE
8
Black
10
72.8057
20
-111.403
11
72.5368
21
-111.082
0
LINE
8
Black
10
72.5368
20
-111.082
11
72.3937
21
-110.689
0
LINE
8
Black
10
72.3937
20
-110.689
11
72.3937
21
-110.271
0
LINE
8
Black
10
72.3937
20
-110.271
11
72.5368
21
-109.878
0
LINE
8
Black
10
72.5368
20
-109.878
11
72.8057
21
-109.557
0
LINE
8
Black
10
72.8057
20
-109.557
11
73.168
21
-109.348
0
LINE
8
Black
10
73.168
20
-109.348
11
73.58
21
-109.275
0
LINE
8
Black
10
73.58
20
-109.275
11
73.992
21
-109.348
0
LINE
8
Black
10
35.384
20
-109.348
11
35.7463
21
-109.557
0
LINE
8
Black
10
35.7463
20
-109.557
11
36.0152
21
-109.878
0
LINE
8
Black
10
36.0152
20
-109.878
11
36.1583
21
-110.271
0
LINE
8
Black
10
36.1583
20
-110.271
11
36.1583
21
-110.689
0
LINE
8
Black
10
36.1583
20
-110.689
11
36.0152
21
-111.082
0
LINE
8
Black
10
36.0152
20
-111.082
11
35.7463
21
-111.403
0
LINE
8
Black
10
35.7463
20
-111.403
11
35.384
21
-111.612
0
LINE
8
Black
10
35.384
20
-111.612
11
34.972
21
-111.685
0
LINE
8
Black
10
34.972
20
-111.685
11
34.56
21
-111.612
0
LINE
8
Black
10
34.56
20
-111.612
11
34.1977
21
-111.403
0
LINE
8
Black
10
34.1977
20
-111.403
11
33.9288
21
-111.082
0
LINE
8
Black
10
33.9288
20
-111.082
11
33.7857
21
-110.689
0
LINE
8
Black
10
33.7857
20
-110.689
11
33.7857
21
-110.271
0
LINE
8
Black
10
33.7857
20
-110.271
11
33.9288
21
-109.878
0
LINE
8
Black
10
33.9288
20
-109.878
11
34.1977
21
-109.557
0
LINE
8
Black
10
34.1977
20
-109.557
11
34.56
21
-109.348
0
LINE
8
Black
10
34.56
20
-109.348
11
34.972
21
-109.275
0
LINE
8
Black
10
34.972
20
-109.275
11
35.384
21
-109.348
0
LINE
8
Black
10
63.992
20
-109.348
11
64.3543
21
-109.557
0
LINE
8
Black
10
64.3543
20
-109.557
11
64.6232
21
-109.878
0
LINE
8
Black
10
64.6232
20
-109.878
11
64.7663
21
-110.271
0
LINE
8
Black
10
64.7663
20
-110.271
11
64.7663
21
-110.689
0
LINE
8
Black
10
64.7663
20
-110.689
11
64.6232
21
-111.082
0
LINE
8
Black
10
64.6232
20
-111.082
11
64.3543
21
-111.403
0
LINE
8
Black
10
64.3543
20
-111.403
11
63.992
21
-111.612
0
LINE
8
Black
10
63.992
20
-111.612
11
63.58
21
-111.685
0
LINE
8
Black
10
63.58
20
-111.685
11
63.168
21
-111.612
0
LINE
8
Black
10
63.168
20
-111.612
11
62.8057
21
-111.403
0
LINE
8
Black
10
62.8057
20
-111.403
11
62.5368
21
-111.082
0
LINE
8
Black
10
62.5368
20
-111.082
11
62.3937
21
-110.689
0
LINE
8
Black
10
62.3937
20
-110.689
11
62.3937
21
-110.271
0
LINE
8
Black
10
62.3937
20
-110.271
11
62.5368
21
-109.878
0
LINE
8
Black
10
62.5368
20
-109.878
11
62.8057
21
-109.557
0
LINE
8
Black
10
62.8057
20
-109.557
11
63.168
21
-109.348
0
LINE
8
Black
10
63.168
20
-109.348
11
63.58
21
-109.275
0
LINE
8
Black
10
63.58
20
-109.275
11
63.992
21
-109.348
0
LINE
8
Black
10
98.5615
20
-111.515
11
96.5105
21
-111.515
0
LINE
8
Black
10
96.5105
20
-111.515
11
96.5105
21
-109.465
0
LINE
8
Black
10
96.5105
20
-109.465
11
98.5615
21
-109.465
0
LINE
8
Black
10
98.5615
20
-109.465
11
98.5615
21
-111.515
0
LINE
8
Black
10
79.2575
20
-111.515
11
77.2065
21
-111.515
0
LINE
8
Black
10
77.2065
20
-111.515
11
77.2065
21
-109.465
0
LINE
8
Black
10
77.2065
20
-109.465
11
79.2575
21
-109.465
0
LINE
8
Black
10
79.2575
20
-109.465
11
79.2575
21
-111.515
0
LINE
8
Black
10
117.865
20
-111.515
11
115.814
21
-111.515
0
LINE
8
Black
10
115.814
20
-111.515
11
115.814
21
-109.465
0
LINE
8
Black
10
115.814
20
-109.465
11
117.865
21
-109.465
0
LINE
8
Black
10
117.865
20
-109.465
11
117.865
21
-111.515
0
LINE
8
Black
10
137.169
20
-111.515
11
135.118
21
-111.515
0
LINE
8
Black
10
135.118
20
-111.515
11
135.118
21
-109.465
0
LINE
8
Black
10
135.118
20
-109.465
11
137.169
21
-109.465
0
LINE
8
Black
10
137.169
20
-109.465
11
137.169
21
-111.515
0
LINE
8
Black
10
40.6495
20
-111.515
11
38.5985
21
-111.515
0
LINE
8
Black
10
38.5985
20
-111.515
11
38.5985
21
-109.465
0
LINE
8
Black
10
38.5985
20
-109.465
11
40.6495
21
-109.465
0
LINE
8
Black
10
40.6495
20
-109.465
11
40.6495
21
-111.515
0
LINE
8
Black
10
59.9535
20
-111.515
11
57.9025
21
-111.515
0
LINE
8
Black
10
57.9025
20
-111.515
11
57.9025
21
-109.465
0
LINE
8
Black
10
57.9025
20
-109.465
11
59.9535
21
-109.465
0
LINE
8
Black
10
59.9535
20
-109.465
11
59.9535
21
-111.515
0
LINE
8
Black
10
39.9761
20
-101.903
11
40.2857
21
-102.081
0
LINE
8
Black
10
40.2857
20
-102.081
11
40.5155
21
-102.355
0
LINE
8
Black
10
40.5155
20
-102.355
11
40.6378
21
-102.691
0
LINE
8
Black
10
40.6378
20
-102.691
11
40.6378
21
-103.049
0
LINE
8
Black
10
40.6378
20
-103.049
11
40.5155
21
-103.385
0
LINE
8
Black
10
40.5155
20
-103.385
11
40.2857
21
-103.659
0
LINE
8
Black
10
40.2857
20
-103.659
11
39.9761
21
-103.837
0
LINE
8
Black
10
39.9761
20
-103.837
11
39.624
21
-103.899
0
LINE
8
Black
10
39.624
20
-103.899
11
39.2719
21
-103.837
0
LINE
8
Black
10
39.2719
20
-103.837
11
38.9623
21
-103.659
0
LINE
8
Black
10
38.9623
20
-103.659
11
38.7325
21
-103.385
0
LINE
8
Black
10
38.7325
20
-103.385
11
38.6102
21
-103.049
0
LINE
8
Black
10
38.6102
20
-103.049
11
38.6102
21
-102.691
0
LINE
8
Black
10
38.6102
20
-102.691
11
38.7325
21
-102.355
0
LINE
8
Black
10
38.7325
20
-102.355
11
38.9623
21
-102.081
0
LINE
8
Black
10
38.9623
20
-102.081
11
39.2719
21
-101.903
0
LINE
8
Black
10
39.2719
20
-101.903
11
39.624
21
-101.841
0
LINE
8
Black
10
39.624
20
-101.841
11
39.9761
21
-101.903
0
LINE
8
Black
10
97.8881
20
-101.903
11
98.1977
21
-102.081
0
LINE
8
Black
10
98.1977
20
-102.081
11
98.4275
21
-102.355
0
LINE
8
Black
10
98.4275
20
-102.355
11
98.5498
21
-102.691
0
LINE
8
Black
10
98.5498
20
-102.691
11
98.5498
21
-103.049
0
LINE
8
Black
10
98.5498
20
-103.049
11
98.4275
21
-103.385
0
LINE
8
Black
10
98.4275
20
-103.385
11
98.1977
21
-103.659
0
LINE
8
Black
10
98.1977
20
-103.659
11
97.8881
21
-103.837
0
LINE
8
Black
10
97.8881
20
-103.837
11
97.536
21
-103.899
0
LINE
8
Black
10
97.536
20
-103.899
11
97.1839
21
-103.837
0
LINE
8
Black
10
97.1839
20
-103.837
11
96.8743
21
-103.659
0
LINE
8
Black
10
96.8743
20
-103.659
11
96.6445
21
-103.385
0
LINE
8
Black
10
96.6445
20
-103.385
11
96.5222
21
-103.049
0
LINE
8
Black
10
96.5222
20
-103.049
11
96.5222
21
-102.691
0
LINE
8
Black
10
96.5222
20
-102.691
11
96.6445
21
-102.355
0
LINE
8
Black
10
96.6445
20
-102.355
11
96.8743
21
-102.081
0
LINE
8
Black
10
96.8743
20
-102.081
11
97.1839
21
-101.903
0
LINE
8
Black
10
97.1839
20
-101.903
11
97.536
21
-101.841
0
LINE
8
Black
10
97.536
20
-101.841
11
97.8881
21
-101.903
0
LINE
8
Black
10
59.2801
20
-101.903
11
59.5897
21
-102.081
0
LINE
8
Black
10
59.5897
20
-102.081
11
59.8195
21
-102.355
0
LINE
8
Black
10
59.8195
20
-102.355
11
59.9418
21
-102.691
0
LINE
8
Black
10
59.9418
20
-102.691
11
59.9418
21
-103.049
0
LINE
8
Black
10
59.9418
20
-103.049
11
59.8195
21
-103.385
0
LINE
8
Black
10
59.8195
20
-103.385
11
59.5897
21
-103.659
0
LINE
8
Black
10
59.5897
20
-103.659
11
59.2801
21
-103.837
0
LINE
8
Black
10
59.2801
20
-103.837
11
58.928
21
-103.899
0
LINE
8
Black
10
58.928
20
-103.899
11
58.5759
21
-103.837
0
LINE
8
Black
10
58.5759
20
-103.837
11
58.2663
21
-103.659
0
LINE
8
Black
10
58.2663
20
-103.659
11
58.0365
21
-103.385
0
LINE
8
Black
10
58.0365
20
-103.385
11
57.9142
21
-103.049
0
LINE
8
Black
10
57.9142
20
-103.049
11
57.9142
21
-102.691
0
LINE
8
Black
10
57.9142
20
-102.691
11
58.0365
21
-102.355
0
LINE
8
Black
10
58.0365
20
-102.355
11
58.2663
21
-102.081
0
LINE
8
Black
10
58.2663
20
-102.081
11
58.5759
21
-101.903
0
LINE
8
Black
10
58.5759
20
-101.903
11
58.928
21
-101.841
0
LINE
8
Black
10
58.928
20
-101.841
11
59.2801
21
-101.903
0
LINE
8
Black
10
78.5841
20
-101.903
11
78.8937
21
-102.081
0
LINE
8
Black
10
78.8937
20
-102.081
11
79.1235
21
-102.355
0
LINE
8
Black
10
79.1235
20
-102.355
11
79.2458
21
-102.691
0
LINE
8
Black
10
79.2458
20
-102.691
11
79.2458
21
-103.049
0
LINE
8
Black
10
79.2458
20
-103.049
11
79.1235
21
-103.385
0
LINE
8
Black
10
79.1235
20
-103.385
11
78.8937
21
-103.659
0
LINE
8
Black
10
78.8937
20
-103.659
11
78.5841
21
-103.837
0
LINE
8
Black
10
78.5841
20
-103.837
11
78.232
21
-103.899
0
LINE
8
Black
10
78.232
20
-103.899
11
77.8799
21
-103.837
0
LINE
8
Black
10
77.8799
20
-103.837
11
77.5703
21
-103.659
0
LINE
8
Black
10
77.5703
20
-103.659
11
77.3405
21
-103.385
0
LINE
8
Black
10
77.3405
20
-103.385
11
77.2182
21
-103.049
0
LINE
8
Black
10
77.2182
20
-103.049
11
77.2182
21
-102.691
0
LINE
8
Black
10
77.2182
20
-102.691
11
77.3405
21
-102.355
0
LINE
8
Black
10
77.3405
20
-102.355
11
77.5703
21
-102.081
0
LINE
8
Black
10
77.5703
20
-102.081
11
77.8799
21
-101.903
0
LINE
8
Black
10
77.8799
20
-101.903
11
78.232
21
-101.841
0
LINE
8
Black
10
78.232
20
-101.841
11
78.5841
21
-101.903
0
LINE
8
Black
10
136.496
20
-101.903
11
136.806
21
-102.081
0
LINE
8
Black
10
136.806
20
-102.081
11
137.036
21
-102.355
0
LINE
8
Black
10
137.036
20
-102.355
11
137.158
21
-102.691
0
LINE
8
Black
10
137.158
20
-102.691
11
137.158
21
-103.049
0
LINE
8
Black
10
137.158
20
-103.049
11
137.036
21
-103.385
0
LINE
8
Black
10
137.036
20
-103.385
11
136.806
21
-103.659
0
LINE
8
Black
10
136.806
20
-103.659
11
136.496
21
-103.837
0
LINE
8
Black
10
136.496
20
-103.837
11
136.144
21
-103.899
0
LINE
8
Black
10
136.144
20
-103.899
11
135.792
21
-103.837
0
LINE
8
Black
10
135.792
20
-103.837
11
135.482
21
-103.659
0
LINE
8
Black
10
135.482
20
-103.659
11
135.252
21
-103.385
0
LINE
8
Black
10
135.252
20
-103.385
11
135.13
21
-103.049
0
LINE
8
Black
10
135.13
20
-103.049
11
135.13
21
-102.691
0
LINE
8
Black
10
135.13
20
-102.691
11
135.252
21
-102.355
0
LINE
8
Black
10
135.252
20
-102.355
11
135.482
21
-102.081
0
LINE
8
Black
10
135.482
20
-102.081
11
135.792
21
-101.903
0
LINE
8
Black
10
135.792
20
-101.903
11
136.144
21
-101.841
0
LINE
8
Black
10
136.144
20
-101.841
11
136.496
21
-101.903
0
LINE
8
Black
10
117.192
20
-101.903
11
117.502
21
-102.081
0
LINE
8
Black
10
117.502
20
-102.081
11
117.732
21
-102.355
0
LINE
8
Black
10
117.732
20
-102.355
11
117.854
21
-102.691
0
LINE
8
Black
10
117.854
20
-102.691
11
117.854
21
-103.049
0
LINE
8
Black
10
117.854
20
-103.049
11
117.732
21
-103.385
0
LINE
8
Black
10
117.732
20
-103.385
11
117.502
21
-103.659
0
LINE
8
Black
10
117.502
20
-103.659
11
117.192
21
-103.837
0
LINE
8
Black
10
117.192
20
-103.837
11
116.84
21
-103.899
0
LINE
8
Black
10
116.84
20
-103.899
11
116.488
21
-103.837
0
LINE
8
Black
10
116.488
20
-103.837
11
116.178
21
-103.659
0
LINE
8
Black
10
116.178
20
-103.659
11
115.948
21
-103.385
0
LINE
8
Black
10
115.948
20
-103.385
11
115.826
21
-103.049
0
LINE
8
Black
10
115.826
20
-103.049
11
115.826
21
-102.691
0
LINE
8
Black
10
115.826
20
-102.691
11
115.948
21
-102.355
0
LINE
8
Black
10
115.948
20
-102.355
11
116.178
21
-102.081
0
LINE
8
Black
10
116.178
20
-102.081
11
116.488
21
-101.903
0
LINE
8
Black
10
116.488
20
-101.903
11
116.84
21
-101.841
0
LINE
8
Black
10
116.84
20
-101.841
11
117.192
21
-101.903
0
LINE
8
Black
10
89.5497
20
-100.793
11
89.8976
21
-100.994
0
LINE
8
Black
10
89.8976
20
-100.994
11
90.1559
21
-101.302
0
LINE
8
Black
10
90.1559
20
-101.302
11
90.2933
21
-101.679
0
LINE
8
Black
10
90.2933
20
-101.679
11
90.2933
21
-102.081
0
LINE
8
Black
10
90.2933
20
-102.081
11
90.1559
21
-102.458
0
LINE
8
Black
10
90.1559
20
-102.458
11
89.8976
21
-102.766
0
LINE
8
Black
10
89.8976
20
-102.766
11
89.5497
21
-102.967
0
LINE
8
Black
10
89.5497
20
-102.967
11
89.154
21
-103.037
0
LINE
8
Black
10
89.154
20
-103.037
11
88.7583
21
-102.967
0
LINE
8
Black
10
88.7583
20
-102.967
11
88.4104
21
-102.766
0
LINE
8
Black
10
88.4104
20
-102.766
11
88.1521
21
-102.458
0
LINE
8
Black
10
88.1521
20
-102.458
11
88.0147
21
-102.081
0
LINE
8
Black
10
88.0147
20
-102.081
11
88.0147
21
-101.679
0
LINE
8
Black
10
88.0147
20
-101.679
11
88.1521
21
-101.302
0
LINE
8
Black
10
88.1521
20
-101.302
11
88.4104
21
-100.994
0
LINE
8
Black
10
88.4104
20
-100.994
11
88.7583
21
-100.793
0
LINE
8
Black
10
88.7583
20
-100.793
11
89.154
21
-100.723
0
LINE
8
Black
10
89.154
20
-100.723
11
89.5497
21
-100.793
0
LINE
8
Black
10
50.9417
20
-100.793
11
51.2896
21
-100.994
0
LINE
8
Black
10
51.2896
20
-100.994
11
51.5479
21
-101.302
0
LINE
8
Black
10
51.5479
20
-101.302
11
51.6853
21
-101.679
0
LINE
8
Black
10
51.6853
20
-101.679
11
51.6853
21
-102.081
0
LINE
8
Black
10
51.6853
20
-102.081
11
51.5479
21
-102.458
0
LINE
8
Black
10
51.5479
20
-102.458
11
51.2896
21
-102.766
0
LINE
8
Black
10
51.2896
20
-102.766
11
50.9417
21
-102.967
0
LINE
8
Black
10
50.9417
20
-102.967
11
50.546
21
-103.037
0
LINE
8
Black
10
50.546
20
-103.037
11
50.1503
21
-102.967
0
LINE
8
Black
10
50.1503
20
-102.967
11
49.8024
21
-102.766
0
LINE
8
Black
10
49.8024
20
-102.766
11
49.5441
21
-102.458
0
LINE
8
Black
10
49.5441
20
-102.458
11
49.4067
21
-102.081
0
LINE
8
Black
10
49.4067
20
-102.081
11
49.4067
21
-101.679
0
LINE
8
Black
10
49.4067
20
-101.679
11
49.5441
21
-101.302
0
LINE
8
Black
10
49.5441
20
-101.302
11
49.8024
21
-100.994
0
LINE
8
Black
10
49.8024
20
-100.994
11
50.1503
21
-100.793
0
LINE
8
Black
10
50.1503
20
-100.793
11
50.546
21
-100.723
0
LINE
8
Black
10
50.546
20
-100.723
11
50.9417
21
-100.793
0
LINE
8
Black
10
108.854
20
-100.793
11
109.202
21
-100.994
0
LINE
8
Black
10
109.202
20
-100.994
11
109.46
21
-101.302
0
LINE
8
Black
10
109.46
20
-101.302
11
109.597
21
-101.679
0
LINE
8
Black
10
109.597
20
-101.679
11
109.597
21
-102.081
0
LINE
8
Black
10
109.597
20
-102.081
11
109.46
21
-102.458
0
LINE
8
Black
10
109.46
20
-102.458
11
109.202
21
-102.766
0
LINE
8
Black
10
109.202
20
-102.766
11
108.854
21
-102.967
0
LINE
8
Black
10
108.854
20
-102.967
11
108.458
21
-103.037
0
LINE
8
Black
10
108.458
20
-103.037
11
108.062
21
-102.967
0
LINE
8
Black
10
108.062
20
-102.967
11
107.714
21
-102.766
0
LINE
8
Black
10
107.714
20
-102.766
11
107.456
21
-102.458
0
LINE
8
Black
10
107.456
20
-102.458
11
107.319
21
-102.081
0
LINE
8
Black
10
107.319
20
-102.081
11
107.319
21
-101.679
0
LINE
8
Black
10
107.319
20
-101.679
11
107.456
21
-101.302
0
LINE
8
Black
10
107.456
20
-101.302
11
107.714
21
-100.994
0
LINE
8
Black
10
107.714
20
-100.994
11
108.062
21
-100.793
0
LINE
8
Black
10
108.062
20
-100.793
11
108.458
21
-100.723
0
LINE
8
Black
10
108.458
20
-100.723
11
108.854
21
-100.793
0
LINE
8
Black
10
128.158
20
-100.793
11
128.506
21
-100.994
0
LINE
8
Black
10
128.506
20
-100.994
11
128.764
21
-101.302
0
LINE
8
Black
10
128.764
20
-101.302
11
128.901
21
-101.679
0
LINE
8
Black
10
128.901
20
-101.679
11
128.901
21
-102.081
0
LINE
8
Black
10
128.901
20
-102.081
11
128.764
21
-102.458
0
LINE
8
Black
10
128.764
20
-102.458
11
128.506
21
-102.766
0
LINE
8
Black
10
128.506
20
-102.766
11
128.158
21
-102.967
0
LINE
8
Black
10
128.158
20
-102.967
11
127.762
21
-103.037
0
LINE
8
Black
10
127.762
20
-103.037
11
127.366
21
-102.967
0
LINE
8
Black
10
127.366
20
-102.967
11
127.018
21
-102.766
0
LINE
8
Black
10
127.018
20
-102.766
11
126.76
21
-102.458
0
LINE
8
Black
10
126.76
20
-102.458
11
126.623
21
-102.081
0
LINE
8
Black
10
126.623
20
-102.081
11
126.623
21
-101.679
0
LINE
8
Black
10
126.623
20
-101.679
11
126.76
21
-101.302
0
LINE
8
Black
10
126.76
20
-101.302
11
127.018
21
-100.994
0
LINE
8
Black
10
127.018
20
-100.994
11
127.366
21
-100.793
0
LINE
8
Black
10
127.366
20
-100.793
11
127.762
21
-100.723
0
LINE
8
Black
10
127.762
20
-100.723
11
128.158
21
-100.793
0
LINE
8
Black
10
70.2457
20
-100.793
11
70.5936
21
-100.994
0
LINE
8
Black
10
70.5936
20
-100.994
11
70.8519
21
-101.302
0
LINE
8
Black
10
70.8519
20
-101.302
11
70.9893
21
-101.679
0
LINE
8
Black
10
70.9893
20
-101.679
11
70.9893
21
-102.081
0
LINE
8
Black
10
70.9893
20
-102.081
11
70.8519
21
-102.458
0
LINE
8
Black
10
70.8519
20
-102.458
11
70.5936
21
-102.766
0
LINE
8
Black
10
70.5936
20
-102.766
11
70.2457
21
-102.967
0
LINE
8
Black
10
70.2457
20
-102.967
11
69.85
21
-103.037
0
LINE
8
Black
10
69.85
20
-103.037
11
69.4543
21
-102.967
0
LINE
8
Black
10
69.4543
20
-102.967
11
69.1064
21
-102.766
0
LINE
8
Black
10
69.1064
20
-102.766
11
68.8481
21
-102.458
0
LINE
8
Black
10
68.8481
20
-102.458
11
68.7107
21
-102.081
0
LINE
8
Black
10
68.7107
20
-102.081
11
68.7107
21
-101.679
0
LINE
8
Black
10
68.7107
20
-101.679
11
68.8481
21
-101.302
0
LINE
8
Black
10
68.8481
20
-101.302
11
69.1064
21
-100.994
0
LINE
8
Black
10
69.1064
20
-100.994
11
69.4543
21
-100.793
0
LINE
8
Black
10
69.4543
20
-100.793
11
69.85
21
-100.723
0
LINE
8
Black
10
69.85
20
-100.723
11
70.2457
21
-100.793
0
LINE
8
Black
10
31.6377
20
-100.793
11
31.9856
21
-100.994
0
LINE
8
Black
10
31.9856
20
-100.994
11
32.2439
21
-101.302
0
LINE
8
Black
10
32.2439
20
-101.302
11
32.3813
21
-101.679
0
LINE
8
Black
10
32.3813
20
-101.679
11
32.3813
21
-102.081
0
LINE
8
Black
10
32.3813
20
-102.081
11
32.2439
21
-102.458
0
LINE
8
Black
10
32.2439
20
-102.458
11
31.9856
21
-102.766
0
LINE
8
Black
10
31.9856
20
-102.766
11
31.6377
21
-102.967
0
LINE
8
Black
10
31.6377
20
-102.967
11
31.242
21
-103.037
0
LINE
8
Black
10
31.242
20
-103.037
11
30.8463
21
-102.967
0
LINE
8
Black
10
30.8463
20
-102.967
11
30.4984
21
-102.766
0
LINE
8
Black
10
30.4984
20
-102.766
11
30.2401
21
-102.458
0
LINE
8
Black
10
30.2401
20
-102.458
11
30.1027
21
-102.081
0
LINE
8
Black
10
30.1027
20
-102.081
11
30.1027
21
-101.679
0
LINE
8
Black
10
30.1027
20
-101.679
11
30.2401
21
-101.302
0
LINE
8
Black
10
30.2401
20
-101.302
11
30.4984
21
-100.994
0
LINE
8
Black
10
30.4984
20
-100.994
11
30.8463
21
-100.793
0
LINE
8
Black
10
30.8463
20
-100.793
11
31.242
21
-100.723
0
LINE
8
Black
10
31.242
20
-100.723
11
31.6377
21
-100.793
0
LINE
8
Black
10
68.4625
20
-103.032
11
66.1575
21
-103.032
0
LINE
8
Black
10
66.1575
20
-103.032
11
66.1575
21
-100.727
0
LINE
8
Black
10
66.1575
20
-100.727
11
68.4625
21
-100.727
0
LINE
8
Black
10
68.4625
20
-100.727
11
68.4625
21
-103.032
0
LINE
8
Black
10
29.8545
20
-103.032
11
27.5495
21
-103.032
0
LINE
8
Black
10
27.5495
20
-103.032
11
27.5495
21
-100.727
0
LINE
8
Black
10
27.5495
20
-100.727
11
29.8545
21
-100.727
0
LINE
8
Black
10
29.8545
20
-100.727
11
29.8545
21
-103.032
0
LINE
8
Black
10
126.374
20
-103.032
11
124.069
21
-103.032
0
LINE
8
Black
10
124.069
20
-103.032
11
124.069
21
-100.727
0
LINE
8
Black
10
124.069
20
-100.727
11
126.374
21
-100.727
0
LINE
8
Black
10
126.374
20
-100.727
11
126.374
21
-103.032
0
LINE
8
Black
10
107.07
20
-103.032
11
104.765
21
-103.032
0
LINE
8
Black
10
104.765
20
-103.032
11
104.765
21
-100.727
0
LINE
8
Black
10
104.765
20
-100.727
11
107.07
21
-100.727
0
LINE
8
Black
10
107.07
20
-100.727
11
107.07
21
-103.032
0
LINE
8
Black
10
49.1585
20
-103.032
11
46.8535
21
-103.032
0
LINE
8
Black
10
46.8535
20
-103.032
11
46.8535
21
-100.727
0
LINE
8
Black
10
46.8535
20
-100.727
11
49.1585
21
-100.727
0
LINE
8
Black
10
49.1585
20
-100.727
11
49.1585
21
-103.032
0
LINE
8
Black
10
87.7665
20
-103.032
11
85.4615
21
-103.032
0
LINE
8
Black
10
85.4615
20
-103.032
11
85.4615
21
-100.727
0
LINE
8
Black
10
85.4615
20
-100.727
11
87.7665
21
-100.727
0
LINE
8
Black
10
87.7665
20
-100.727
11
87.7665
21
-103.032
0
LINE
8
Black
10
79.3993
20
-94.3288
11
80.4258
21
-94.9215
0
LINE
8
Black
10
80.4258
20
-94.9215
11
81.1877
21
-95.8295
0
LINE
8
Black
10
81.1877
20
-95.8295
11
81.5931
21
-96.9433
0
LINE
8
Black
10
81.5931
20
-96.9433
11
81.5931
21
-98.1287
0
LINE
8
Black
10
81.5931
20
-98.1287
11
81.1877
21
-99.2425
0
LINE
8
Black
10
81.1877
20
-99.2425
11
80.4258
21
-100.15
0
LINE
8
Black
10
80.4258
20
-100.15
11
79.3993
21
-100.743
0
LINE
8
Black
10
79.3993
20
-100.743
11
78.232
21
-100.949
0
LINE
8
Black
10
78.232
20
-100.949
11
77.0647
21
-100.743
0
LINE
8
Black
10
77.0647
20
-100.743
11
76.0382
21
-100.15
0
LINE
8
Black
10
76.0382
20
-100.15
11
75.2763
21
-99.2425
0
LINE
8
Black
10
75.2763
20
-99.2425
11
74.8709
21
-98.1287
0
LINE
8
Black
10
74.8709
20
-98.1287
11
74.8709
21
-96.9433
0
LINE
8
Black
10
74.8709
20
-96.9433
11
75.2763
21
-95.8295
0
LINE
8
Black
10
75.2763
20
-95.8295
11
76.0382
21
-94.9215
0
LINE
8
Black
10
76.0382
20
-94.9215
11
77.0647
21
-94.3288
0
LINE
8
Black
10
77.0647
20
-94.3288
11
78.232
21
-94.123
0
LINE
8
Black
10
78.232
20
-94.123
11
79.3993
21
-94.3288
0
LINE
8
Black
10
40.7913
20
-94.3288
11
41.8178
21
-94.9215
0
LINE
8
Black
10
41.8178
20
-94.9215
11
42.5797
21
-95.8295
0
LINE
8
Black
10
42.5797
20
-95.8295
11
42.9851
21
-96.9433
0
LINE
8
Black
10
42.9851
20
-96.9433
11
42.9851
21
-98.1287
0
LINE
8
Black
10
42.9851
20
-98.1287
11
42.5797
21
-99.2425
0
LINE
8
Black
10
42.5797
20
-99.2425
11
41.8178
21
-100.15
0
LINE
8
Black
10
41.8178
20
-100.15
11
40.7913
21
-100.743
0
LINE
8
Black
10
40.7913
20
-100.743
11
39.624
21
-100.949
0
LINE
8
Black
10
39.624
20
-100.949
11
38.4567
21
-100.743
0
LINE
8
Black
10
38.4567
20
-100.743
11
37.4302
21
-100.15
0
LINE
8
Black
10
37.4302
20
-100.15
11
36.6683
21
-99.2425
0
LINE
8
Black
10
36.6683
20
-99.2425
11
36.2629
21
-98.1287
0
LINE
8
Black
10
36.2629
20
-98.1287
11
36.2629
21
-96.9433
0
LINE
8
Black
10
36.2629
20
-96.9433
11
36.6683
21
-95.8295
0
LINE
8
Black
10
36.6683
20
-95.8295
11
37.4302
21
-94.9215
0
LINE
8
Black
10
37.4302
20
-94.9215
11
38.4567
21
-94.3288
0
LINE
8
Black
10
38.4567
20
-94.3288
11
39.624
21
-94.123
0
LINE
8
Black
10
39.624
20
-94.123
11
40.7913
21
-94.3288
0
LINE
8
Black
10
118.007
20
-94.3288
11
119.034
21
-94.9215
0
LINE
8
Black
10
119.034
20
-94.9215
11
119.796
21
-95.8295
0
LINE
8
Black
10
119.796
20
-95.8295
11
120.201
21
-96.9433
0
LINE
8
Black
10
120.201
20
-96.9433
11
120.201
21
-98.1287
0
LINE
8
Black
10
120.201
20
-98.1287
11
119.796
21
-99.2425
0
LINE
8
Black
10
119.796
20
-99.2425
11
119.034
21
-100.15
0
LINE
8
Black
10
119.034
20
-100.15
11
118.007
21
-100.743
0
LINE
8
Black
10
118.007
20
-100.743
11
116.84
21
-100.949
0
LINE
8
Black
10
116.84
20
-100.949
11
115.673
21
-100.743
0
LINE
8
Black
10
115.673
20
-100.743
11
114.646
21
-100.15
0
LINE
8
Black
10
114.646
20
-100.15
11
113.884
21
-99.2425
0
LINE
8
Black
10
113.884
20
-99.2425
11
113.479
21
-98.1287
0
LINE
8
Black
10
113.479
20
-98.1287
11
113.479
21
-96.9433
0
LINE
8
Black
10
113.479
20
-96.9433
11
113.884
21
-95.8295
0
LINE
8
Black
10
113.884
20
-95.8295
11
114.646
21
-94.9215
0
LINE
8
Black
10
114.646
20
-94.9215
11
115.673
21
-94.3288
0
LINE
8
Black
10
115.673
20
-94.3288
11
116.84
21
-94.123
0
LINE
8
Black
10
116.84
20
-94.123
11
118.007
21
-94.3288
0
LINE
8
Black
10
107.6
20
-93.1601
11
107.962
21
-93.3692
0
LINE
8
Black
10
107.962
20
-93.3692
11
108.231
21
-93.6897
0
LINE
8
Black
10
108.231
20
-93.6897
11
108.374
21
-94.0828
0
LINE
8
Black
10
108.374
20
-94.0828
11
108.374
21
-94.5012
0
LINE
8
Black
10
108.374
20
-94.5012
11
108.231
21
-94.8943
0
LINE
8
Black
10
108.231
20
-94.8943
11
107.962
21
-95.2148
0
LINE
8
Black
10
107.962
20
-95.2148
11
107.6
21
-95.4239
0
LINE
8
Black
10
107.6
20
-95.4239
11
107.188
21
-95.4966
0
LINE
8
Black
10
107.188
20
-95.4966
11
106.776
21
-95.4239
0
LINE
8
Black
10
106.776
20
-95.4239
11
106.414
21
-95.2148
0
LINE
8
Black
10
106.414
20
-95.2148
11
106.145
21
-94.8943
0
LINE
8
Black
10
106.145
20
-94.8943
11
106.002
21
-94.5012
0
LINE
8
Black
10
106.002
20
-94.5012
11
106.002
21
-94.0828
0
LINE
8
Black
10
106.002
20
-94.0828
11
106.145
21
-93.6897
0
LINE
8
Black
10
106.145
20
-93.6897
11
106.414
21
-93.3692
0
LINE
8
Black
10
106.414
20
-93.3692
11
106.776
21
-93.1601
0
LINE
8
Black
10
106.776
20
-93.1601
11
107.188
21
-93.0874
0
LINE
8
Black
10
107.188
20
-93.0874
11
107.6
21
-93.1601
0
LINE
8
Black
10
88.296
20
-93.1601
11
88.6583
21
-93.3692
0
LINE
8
Black
10
88.6583
20
-93.3692
11
88.9272
21
-93.6897
0
LINE
8
Black
10
88.9272
20
-93.6897
11
89.0703
21
-94.0828
0
LINE
8
Black
10
89.0703
20
-94.0828
11
89.0703
21
-94.5012
0
LINE
8
Black
10
89.0703
20
-94.5012
11
88.9272
21
-94.8943
0
LINE
8
Black
10
88.9272
20
-94.8943
11
88.6583
21
-95.2148
0
LINE
8
Black
10
88.6583
20
-95.2148
11
88.296
21
-95.4239
0
LINE
8
Black
10
88.296
20
-95.4239
11
87.884
21
-95.4966
0
LINE
8
Black
10
87.884
20
-95.4966
11
87.472
21
-95.4239
0
LINE
8
Black
10
87.472
20
-95.4239
11
87.1097
21
-95.2148
0
LINE
8
Black
10
87.1097
20
-95.2148
11
86.8408
21
-94.8943
0
LINE
8
Black
10
86.8408
20
-94.8943
11
86.6977
21
-94.5012
0
LINE
8
Black
10
86.6977
20
-94.5012
11
86.6977
21
-94.0828
0
LINE
8
Black
10
86.6977
20
-94.0828
11
86.8408
21
-93.6897
0
LINE
8
Black
10
86.8408
20
-93.6897
11
87.1097
21
-93.3692
0
LINE
8
Black
10
87.1097
20
-93.3692
11
87.472
21
-93.1601
0
LINE
8
Black
10
87.472
20
-93.1601
11
87.884
21
-93.0874
0
LINE
8
Black
10
87.884
20
-93.0874
11
88.296
21
-93.1601
0
LINE
8
Black
10
126.904
20
-93.1601
11
127.266
21
-93.3692
0
LINE
8
Black
10
127.266
20
-93.3692
11
127.535
21
-93.6897
0
LINE
8
Black
10
127.535
20
-93.6897
11
127.678
21
-94.0828
0
LINE
8
Black
10
127.678
20
-94.0828
11
127.678
21
-94.5012
0
LINE
8
Black
10
127.678
20
-94.5012
11
127.535
21
-94.8943
0
LINE
8
Black
10
127.535
20
-94.8943
11
127.266
21
-95.2148
0
LINE
8
Black
10
127.266
20
-95.2148
11
126.904
21
-95.4239
0
LINE
8
Black
10
126.904
20
-95.4239
11
126.492
21
-95.4966
0
LINE
8
Black
10
126.492
20
-95.4966
11
126.08
21
-95.4239
0
LINE
8
Black
10
126.08
20
-95.4239
11
125.718
21
-95.2148
0
LINE
8
Black
10
125.718
20
-95.2148
11
125.449
21
-94.8943
0
LINE
8
Black
10
125.449
20
-94.8943
11
125.306
21
-94.5012
0
LINE
8
Black
10
125.306
20
-94.5012
11
125.306
21
-94.0828
0
LINE
8
Black
10
125.306
20
-94.0828
11
125.449
21
-93.6897
0
LINE
8
Black
10
125.449
20
-93.6897
11
125.718
21
-93.3692
0
LINE
8
Black
10
125.718
20
-93.3692
11
126.08
21
-93.1601
0
LINE
8
Black
10
126.08
20
-93.1601
11
126.492
21
-93.0874
0
LINE
8
Black
10
126.492
20
-93.0874
11
126.904
21
-93.1601
0
LINE
8
Black
10
30.384
20
-93.1601
11
30.7463
21
-93.3692
0
LINE
8
Black
10
30.7463
20
-93.3692
11
31.0152
21
-93.6897
0
LINE
8
Black
10
31.0152
20
-93.6897
11
31.1583
21
-94.0828
0
LINE
8
Black
10
31.1583
20
-94.0828
11
31.1583
21
-94.5012
0
LINE
8
Black
10
31.1583
20
-94.5012
11
31.0152
21
-94.8943
0
LINE
8
Black
10
31.0152
20
-94.8943
11
30.7463
21
-95.2148
0
LINE
8
Black
10
30.7463
20
-95.2148
11
30.384
21
-95.4239
0
LINE
8
Black
10
30.384
20
-95.4239
11
29.972
21
-95.4966
0
LINE
8
Black
10
29.972
20
-95.4966
11
29.56
21
-95.4239
0
LINE
8
Black
10
29.56
20
-95.4239
11
29.1977
21
-95.2148
0
LINE
8
Black
10
29.1977
20
-95.2148
11
28.9288
21
-94.8943
0
LINE
8
Black
10
28.9288
20
-94.8943
11
28.7857
21
-94.5012
0
LINE
8
Black
10
28.7857
20
-94.5012
11
28.7857
21
-94.0828
0
LINE
8
Black
10
28.7857
20
-94.0828
11
28.9288
21
-93.6897
0
LINE
8
Black
10
28.9288
20
-93.6897
11
29.1977
21
-93.3692
0
LINE
8
Black
10
29.1977
20
-93.3692
11
29.56
21
-93.1601
0
LINE
8
Black
10
29.56
20
-93.1601
11
29.972
21
-93.0874
0
LINE
8
Black
10
29.972
20
-93.0874
11
30.384
21
-93.1601
0
LINE
8
Black
10
68.992
20
-93.1601
11
69.3543
21
-93.3692
0
LINE
8
Black
10
69.3543
20
-93.3692
11
69.6232
21
-93.6897
0
LINE
8
Black
10
69.6232
20
-93.6897
11
69.7663
21
-94.0828
0
LINE
8
Black
10
69.7663
20
-94.0828
11
69.7663
21
-94.5012
0
LINE
8
Black
10
69.7663
20
-94.5012
11
69.6232
21
-94.8943
0
LINE
8
Black
10
69.6232
20
-94.8943
11
69.3543
21
-95.2148
0
LINE
8
Black
10
69.3543
20
-95.2148
11
68.992
21
-95.4239
0
LINE
8
Black
10
68.992
20
-95.4239
11
68.58
21
-95.4966
0
LINE
8
Black
10
68.58
20
-95.4966
11
68.168
21
-95.4239
0
LINE
8
Black
10
68.168
20
-95.4239
11
67.8057
21
-95.2148
0
LINE
8
Black
10
67.8057
20
-95.2148
11
67.5368
21
-94.8943
0
LINE
8
Black
10
67.5368
20
-94.8943
11
67.3937
21
-94.5012
0
LINE
8
Black
10
67.3937
20
-94.5012
11
67.3937
21
-94.0828
0
LINE
8
Black
10
67.3937
20
-94.0828
11
67.5368
21
-93.6897
0
LINE
8
Black
10
67.5368
20
-93.6897
11
67.8057
21
-93.3692
0
LINE
8
Black
10
67.8057
20
-93.3692
11
68.168
21
-93.1601
0
LINE
8
Black
10
68.168
20
-93.1601
11
68.58
21
-93.0874
0
LINE
8
Black
10
68.58
20
-93.0874
11
68.992
21
-93.1601
0
LINE
8
Black
10
49.688
20
-93.1601
11
50.0503
21
-93.3692
0
LINE
8
Black
10
50.0503
20
-93.3692
11
50.3192
21
-93.6897
0
LINE
8
Black
10
50.3192
20
-93.6897
11
50.4623
21
-94.0828
0
LINE
8
Black
10
50.4623
20
-94.0828
11
50.4623
21
-94.5012
0
LINE
8
Black
10
50.4623
20
-94.5012
11
50.3192
21
-94.8943
0
LINE
8
Black
10
50.3192
20
-94.8943
11
50.0503
21
-95.2148
0
LINE
8
Black
10
50.0503
20
-95.2148
11
49.688
21
-95.4239
0
LINE
8
Black
10
49.688
20
-95.4239
11
49.276
21
-95.4966
0
LINE
8
Black
10
49.276
20
-95.4966
11
48.864
21
-95.4239
0
LINE
8
Black
10
48.864
20
-95.4239
11
48.5017
21
-95.2148
0
LINE
8
Black
10
48.5017
20
-95.2148
11
48.2328
21
-94.8943
0
LINE
8
Black
10
48.2328
20
-94.8943
11
48.0897
21
-94.5012
0
LINE
8
Black
10
48.0897
20
-94.5012
11
48.0897
21
-94.0828
0
LINE
8
Black
10
48.0897
20
-94.0828
11
48.2328
21
-93.6897
0
LINE
8
Black
10
48.2328
20
-93.6897
11
48.5017
21
-93.3692
0
LINE
8
Black
10
48.5017
20
-93.3692
11
48.864
21
-93.1601
0
LINE
8
Black
10
48.864
20
-93.1601
11
49.276
21
-93.0874
0
LINE
8
Black
10
49.276
20
-93.0874
11
49.688
21
-93.1601
0
LINE
8
Black
10
63.992
20
-91.0601
11
64.3543
21
-91.2692
0
LINE
8
Black
10
64.3543
20
-91.2692
11
64.6232
21
-91.5897
0
LINE
8
Black
10
64.6232
20
-91.5897
11
64.7663
21
-91.9828
0
LINE
8
Black
10
64.7663
20
-91.9828
11
64.7663
21
-92.4012
0
LINE
8
Black
10
64.7663
20
-92.4012
11
64.6232
21
-92.7943
0
LINE
8
Black
10
64.6232
20
-92.7943
11
64.3543
21
-93.1148
0
LINE
8
Black
10
64.3543
20
-93.1148
11
63.992
21
-93.3239
0
LINE
8
Black
10
63.992
20
-93.3239
11
63.58
21
-93.3966
0
LINE
8
Black
10
63.58
20
-93.3966
11
63.168
21
-93.3239
0
LINE
8
Black
10
63.168
20
-93.3239
11
62.8057
21
-93.1148
0
LINE
8
Black
10
62.8057
20
-93.1148
11
62.5368
21
-92.7943
0
LINE
8
Black
10
62.5368
20
-92.7943
11
62.3937
21
-92.4012
0
LINE
8
Black
10
62.3937
20
-92.4012
11
62.3937
21
-91.9828
0
LINE
8
Black
10
62.3937
20
-91.9828
11
62.5368
21
-91.5897
0
LINE
8
Black
10
62.5368
20
-91.5897
11
62.8057
21
-91.2692
0
LINE
8
Black
10
62.8057
20
-91.2692
11
63.168
21
-91.0601
0
LINE
8
Black
10
63.168
20
-91.0601
11
63.58
21
-90.9874
0
LINE
8
Black
10
63.58
20
-90.9874
11
63.992
21
-91.0601
0
LINE
8
Black
10
73.992
20
-91.0601
11
74.3543
21
-91.2692
0
LINE
8
Black
10
74.3543
20
-91.2692
11
74.6232
21
-91.5897
0
LINE
8
Black
10
74.6232
20
-91.5897
11
74.7663
21
-91.9828
0
LINE
8
Black
10
74.7663
20
-91.9828
11
74.7663
21
-92.4012
0
LINE
8
Black
10
74.7663
20
-92.4012
11
74.6232
21
-92.7943
0
LINE
8
Black
10
74.6232
20
-92.7943
11
74.3543
21
-93.1148
0
LINE
8
Black
10
74.3543
20
-93.1148
11
73.992
21
-93.3239
0
LINE
8
Black
10
73.992
20
-93.3239
11
73.58
21
-93.3966
0
LINE
8
Black
10
73.58
20
-93.3966
11
73.168
21
-93.3239
0
LINE
8
Black
10
73.168
20
-93.3239
11
72.8057
21
-93.1148
0
LINE
8
Black
10
72.8057
20
-93.1148
11
72.5368
21
-92.7943
0
LINE
8
Black
10
72.5368
20
-92.7943
11
72.3937
21
-92.4012
0
LINE
8
Black
10
72.3937
20
-92.4012
11
72.3937
21
-91.9828
0
LINE
8
Black
10
72.3937
20
-91.9828
11
72.5368
21
-91.5897
0
LINE
8
Black
10
72.5368
20
-91.5897
11
72.8057
21
-91.2692
0
LINE
8
Black
10
72.8057
20
-91.2692
11
73.168
21
-91.0601
0
LINE
8
Black
10
73.168
20
-91.0601
11
73.58
21
-90.9874
0
LINE
8
Black
10
73.58
20
-90.9874
11
73.992
21
-91.0601
0
LINE
8
Black
10
35.384
20
-91.0601
11
35.7463
21
-91.2692
0
LINE
8
Black
10
35.7463
20
-91.2692
11
36.0152
21
-91.5897
0
LINE
8
Black
10
36.0152
20
-91.5897
11
36.1583
21
-91.9828
0
LINE
8
Black
10
36.1583
20
-91.9828
11
36.1583
21
-92.4012
0
LINE
8
Black
10
36.1583
20
-92.4012
11
36.0152
21
-92.7943
0
LINE
8
Black
10
36.0152
20
-92.7943
11
35.7463
21
-93.1148
0
LINE
8
Black
10
35.7463
20
-93.1148
11
35.384
21
-93.3239
0
LINE
8
Black
10
35.384
20
-93.3239
11
34.972
21
-93.3966
0
LINE
8
Black
10
34.972
20
-93.3966
11
34.56
21
-93.3239
0
LINE
8
Black
10
34.56
20
-93.3239
11
34.1977
21
-93.1148
0
LINE
8
Black
10
34.1977
20
-93.1148
11
33.9288
21
-92.7943
0
LINE
8
Black
10
33.9288
20
-92.7943
11
33.7857
21
-92.4012
0
LINE
8
Black
10
33.7857
20
-92.4012
11
33.7857
21
-91.9828
0
LINE
8
Black
10
33.7857
20
-91.9828
11
33.9288
21
-91.5897
0
LINE
8
Black
10
33.9288
20
-91.5897
11
34.1977
21
-91.2692
0
LINE
8
Black
10
34.1977
20
-91.2692
11
34.56
21
-91.0601
0
LINE
8
Black
10
34.56
20
-91.0601
11
34.972
21
-90.9874
0
LINE
8
Black
10
34.972
20
-90.9874
11
35.384
21
-91.0601
0
LINE
8
Black
10
54.688
20
-91.0601
11
55.0503
21
-91.2692
0
LINE
8
Black
10
55.0503
20
-91.2692
11
55.3192
21
-91.5897
0
LINE
8
Black
10
55.3192
20
-91.5897
11
55.4623
21
-91.9828
0
LINE
8
Black
10
55.4623
20
-91.9828
11
55.4623
21
-92.4012
0
LINE
8
Black
10
55.4623
20
-92.4012
11
55.3192
21
-92.7943
0
LINE
8
Black
10
55.3192
20
-92.7943
11
55.0503
21
-93.1148
0
LINE
8
Black
10
55.0503
20
-93.1148
11
54.688
21
-93.3239
0
LINE
8
Black
10
54.688
20
-93.3239
11
54.276
21
-93.3966
0
LINE
8
Black
10
54.276
20
-93.3966
11
53.864
21
-93.3239
0
LINE
8
Black
10
53.864
20
-93.3239
11
53.5017
21
-93.1148
0
LINE
8
Black
10
53.5017
20
-93.1148
11
53.2328
21
-92.7943
0
LINE
8
Black
10
53.2328
20
-92.7943
11
53.0897
21
-92.4012
0
LINE
8
Black
10
53.0897
20
-92.4012
11
53.0897
21
-91.9828
0
LINE
8
Black
10
53.0897
20
-91.9828
11
53.2328
21
-91.5897
0
LINE
8
Black
10
53.2328
20
-91.5897
11
53.5017
21
-91.2692
0
LINE
8
Black
10
53.5017
20
-91.2692
11
53.864
21
-91.0601
0
LINE
8
Black
10
53.864
20
-91.0601
11
54.276
21
-90.9874
0
LINE
8
Black
10
54.276
20
-90.9874
11
54.688
21
-91.0601
0
LINE
8
Black
10
44.688
20
-91.0601
11
45.0503
21
-91.2692
0
LINE
8
Black
10
45.0503
20
-91.2692
11
45.3192
21
-91.5897
0
LINE
8
Black
10
45.3192
20
-91.5897
11
45.4623
21
-91.9828
0
LINE
8
Black
10
45.4623
20
-91.9828
11
45.4623
21
-92.4012
0
LINE
8
Black
10
45.4623
20
-92.4012
11
45.3192
21
-92.7943
0
LINE
8
Black
10
45.3192
20
-92.7943
11
45.0503
21
-93.1148
0
LINE
8
Black
10
45.0503
20
-93.1148
11
44.688
21
-93.3239
0
LINE
8
Black
10
44.688
20
-93.3239
11
44.276
21
-93.3966
0
LINE
8
Black
10
44.276
20
-93.3966
11
43.864
21
-93.3239
0
LINE
8
Black
10
43.864
20
-93.3239
11
43.5017
21
-93.1148
0
LINE
8
Black
10
43.5017
20
-93.1148
11
43.2328
21
-92.7943
0
LINE
8
Black
10
43.2328
20
-92.7943
11
43.0897
21
-92.4012
0
LINE
8
Black
10
43.0897
20
-92.4012
11
43.0897
21
-91.9828
0
LINE
8
Black
10
43.0897
20
-91.9828
11
43.2328
21
-91.5897
0
LINE
8
Black
10
43.2328
20
-91.5897
11
43.5017
21
-91.2692
0
LINE
8
Black
10
43.5017
20
-91.2692
11
43.864
21
-91.0601
0
LINE
8
Black
10
43.864
20
-91.0601
11
44.276
21
-90.9874
0
LINE
8
Black
10
44.276
20
-90.9874
11
44.688
21
-91.0601
0
LINE
8
Black
10
25.384
20
-91.0601
11
25.7463
21
-91.2692
0
LINE
8
Black
10
25.7463
20
-91.2692
11
26.0152
21
-91.5897
0
LINE
8
Black
10
26.0152
20
-91.5897
11
26.1583
21
-91.9828
0
LINE
8
Black
10
26.1583
20
-91.9828
11
26.1583
21
-92.4012
0
LINE
8
Black
10
26.1583
20
-92.4012
11
26.0152
21
-92.7943
0
LINE
8
Black
10
26.0152
20
-92.7943
11
25.7463
21
-93.1148
0
LINE
8
Black
10
25.7463
20
-93.1148
11
25.384
21
-93.3239
0
LINE
8
Black
10
25.384
20
-93.3239
11
24.972
21
-93.3966
0
LINE
8
Black
10
24.972
20
-93.3966
11
24.56
21
-93.3239
0
LINE
8
Black
10
24.56
20
-93.3239
11
24.1977
21
-93.1148
0
LINE
8
Black
10
24.1977
20
-93.1148
11
23.9288
21
-92.7943
0
LINE
8
Black
10
23.9288
20
-92.7943
11
23.7857
21
-92.4012
0
LINE
8
Black
10
23.7857
20
-92.4012
11
23.7857
21
-91.9828
0
LINE
8
Black
10
23.7857
20
-91.9828
11
23.9288
21
-91.5897
0
LINE
8
Black
10
23.9288
20
-91.5897
11
24.1977
21
-91.2692
0
LINE
8
Black
10
24.1977
20
-91.2692
11
24.56
21
-91.0601
0
LINE
8
Black
10
24.56
20
-91.0601
11
24.972
21
-90.9874
0
LINE
8
Black
10
24.972
20
-90.9874
11
25.384
21
-91.0601
0
LINE
8
Black
10
112.6
20
-91.0601
11
112.962
21
-91.2692
0
LINE
8
Black
10
112.962
20
-91.2692
11
113.231
21
-91.5897
0
LINE
8
Black
10
113.231
20
-91.5897
11
113.374
21
-91.9828
0
LINE
8
Black
10
113.374
20
-91.9828
11
113.374
21
-92.4012
0
LINE
8
Black
10
113.374
20
-92.4012
11
113.231
21
-92.7943
0
LINE
8
Black
10
113.231
20
-92.7943
11
112.962
21
-93.1148
0
LINE
8
Black
10
112.962
20
-93.1148
11
112.6
21
-93.3239
0
LINE
8
Black
10
112.6
20
-93.3239
11
112.188
21
-93.3966
0
LINE
8
Black
10
112.188
20
-93.3966
11
111.776
21
-93.3239
0
LINE
8
Black
10
111.776
20
-93.3239
11
111.414
21
-93.1148
0
LINE
8
Black
10
111.414
20
-93.1148
11
111.145
21
-92.7943
0
LINE
8
Black
10
111.145
20
-92.7943
11
111.002
21
-92.4012
0
LINE
8
Black
10
111.002
20
-92.4012
11
111.002
21
-91.9828
0
LINE
8
Black
10
111.002
20
-91.9828
11
111.145
21
-91.5897
0
LINE
8
Black
10
111.145
20
-91.5897
11
111.414
21
-91.2692
0
LINE
8
Black
10
111.414
20
-91.2692
11
111.776
21
-91.0601
0
LINE
8
Black
10
111.776
20
-91.0601
11
112.188
21
-90.9874
0
LINE
8
Black
10
112.188
20
-90.9874
11
112.6
21
-91.0601
0
LINE
8
Black
10
102.6
20
-91.0601
11
102.962
21
-91.2692
0
LINE
8
Black
10
102.962
20
-91.2692
11
103.231
21
-91.5897
0
LINE
8
Black
10
103.231
20
-91.5897
11
103.374
21
-91.9828
0
LINE
8
Black
10
103.374
20
-91.9828
11
103.374
21
-92.4012
0
LINE
8
Black
10
103.374
20
-92.4012
11
103.231
21
-92.7943
0
LINE
8
Black
10
103.231
20
-92.7943
11
102.962
21
-93.1148
0
LINE
8
Black
10
102.962
20
-93.1148
11
102.6
21
-93.3239
0
LINE
8
Black
10
102.6
20
-93.3239
11
102.188
21
-93.3966
0
LINE
8
Black
10
102.188
20
-93.3966
11
101.776
21
-93.3239
0
LINE
8
Black
10
101.776
20
-93.3239
11
101.414
21
-93.1148
0
LINE
8
Black
10
101.414
20
-93.1148
11
101.145
21
-92.7943
0
LINE
8
Black
10
101.145
20
-92.7943
11
101.002
21
-92.4012
0
LINE
8
Black
10
101.002
20
-92.4012
11
101.002
21
-91.9828
0
LINE
8
Black
10
101.002
20
-91.9828
11
101.145
21
-91.5897
0
LINE
8
Black
10
101.145
20
-91.5897
11
101.414
21
-91.2692
0
LINE
8
Black
10
101.414
20
-91.2692
11
101.776
21
-91.0601
0
LINE
8
Black
10
101.776
20
-91.0601
11
102.188
21
-90.9874
0
LINE
8
Black
10
102.188
20
-90.9874
11
102.6
21
-91.0601
0
LINE
8
Black
10
83.296
20
-91.0601
11
83.6583
21
-91.2692
0
LINE
8
Black
10
83.6583
20
-91.2692
11
83.9272
21
-91.5897
0
LINE
8
Black
10
83.9272
20
-91.5897
11
84.0703
21
-91.9828
0
LINE
8
Black
10
84.0703
20
-91.9828
11
84.0703
21
-92.4012
0
LINE
8
Black
10
84.0703
20
-92.4012
11
83.9272
21
-92.7943
0
LINE
8
Black
10
83.9272
20
-92.7943
11
83.6583
21
-93.1148
0
LINE
8
Black
10
83.6583
20
-93.1148
11
83.296
21
-93.3239
0
LINE
8
Black
10
83.296
20
-93.3239
11
82.884
21
-93.3966
0
LINE
8
Black
10
82.884
20
-93.3966
11
82.472
21
-93.3239
0
LINE
8
Black
10
82.472
20
-93.3239
11
82.1097
21
-93.1148
0
LINE
8
Black
10
82.1097
20
-93.1148
11
81.8408
21
-92.7943
0
LINE
8
Black
10
81.8408
20
-92.7943
11
81.6977
21
-92.4012
0
LINE
8
Black
10
81.6977
20
-92.4012
11
81.6977
21
-91.9828
0
LINE
8
Black
10
81.6977
20
-91.9828
11
81.8408
21
-91.5897
0
LINE
8
Black
10
81.8408
20
-91.5897
11
82.1097
21
-91.2692
0
LINE
8
Black
10
82.1097
20
-91.2692
11
82.472
21
-91.0601
0
LINE
8
Black
10
82.472
20
-91.0601
11
82.884
21
-90.9874
0
LINE
8
Black
10
82.884
20
-90.9874
11
83.296
21
-91.0601
0
LINE
8
Black
10
121.904
20
-91.0601
11
122.266
21
-91.2692
0
LINE
8
Black
10
122.266
20
-91.2692
11
122.535
21
-91.5897
0
LINE
8
Black
10
122.535
20
-91.5897
11
122.678
21
-91.9828
0
LINE
8
Black
10
122.678
20
-91.9828
11
122.678
21
-92.4012
0
LINE
8
Black
10
122.678
20
-92.4012
11
122.535
21
-92.7943
0
LINE
8
Black
10
122.535
20
-92.7943
11
122.266
21
-93.1148
0
LINE
8
Black
10
122.266
20
-93.1148
11
121.904
21
-93.3239
0
LINE
8
Black
10
121.904
20
-93.3239
11
121.492
21
-93.3966
0
LINE
8
Black
10
121.492
20
-93.3966
11
121.08
21
-93.3239
0
LINE
8
Black
10
121.08
20
-93.3239
11
120.718
21
-93.1148
0
LINE
8
Black
10
120.718
20
-93.1148
11
120.449
21
-92.7943
0
LINE
8
Black
10
120.449
20
-92.7943
11
120.306
21
-92.4012
0
LINE
8
Black
10
120.306
20
-92.4012
11
120.306
21
-91.9828
0
LINE
8
Black
10
120.306
20
-91.9828
11
120.449
21
-91.5897
0
LINE
8
Black
10
120.449
20
-91.5897
11
120.718
21
-91.2692
0
LINE
8
Black
10
120.718
20
-91.2692
11
121.08
21
-91.0601
0
LINE
8
Black
10
121.08
20
-91.0601
11
121.492
21
-90.9874
0
LINE
8
Black
10
121.492
20
-90.9874
11
121.904
21
-91.0601
0
LINE
8
Black
10
93.296
20
-91.0601
11
93.6583
21
-91.2692
0
LINE
8
Black
10
93.6583
20
-91.2692
11
93.9272
21
-91.5897
0
LINE
8
Black
10
93.9272
20
-91.5897
11
94.0703
21
-91.9828
0
LINE
8
Black
10
94.0703
20
-91.9828
11
94.0703
21
-92.4012
0
LINE
8
Black
10
94.0703
20
-92.4012
11
93.9272
21
-92.7943
0
LINE
8
Black
10
93.9272
20
-92.7943
11
93.6583
21
-93.1148
0
LINE
8
Black
10
93.6583
20
-93.1148
11
93.296
21
-93.3239
0
LINE
8
Black
10
93.296
20
-93.3239
11
92.884
21
-93.3966
0
LINE
8
Black
10
92.884
20
-93.3966
11
92.472
21
-93.3239
0
LINE
8
Black
10
92.472
20
-93.3239
11
92.1097
21
-93.1148
0
LINE
8
Black
10
92.1097
20
-93.1148
11
91.8408
21
-92.7943
0
LINE
8
Black
10
91.8408
20
-92.7943
11
91.6977
21
-92.4012
0
LINE
8
Black
10
91.6977
20
-92.4012
11
91.6977
21
-91.9828
0
LINE
8
Black
10
91.6977
20
-91.9828
11
91.8408
21
-91.5897
0
LINE
8
Black
10
91.8408
20
-91.5897
11
92.1097
21
-91.2692
0
LINE
8
Black
10
92.1097
20
-91.2692
11
92.472
21
-91.0601
0
LINE
8
Black
10
92.472
20
-91.0601
11
92.884
21
-90.9874
0
LINE
8
Black
10
92.884
20
-90.9874
11
93.296
21
-91.0601
0
LINE
8
Black
10
131.904
20
-91.0601
11
132.266
21
-91.2692
0
LINE
8
Black
10
132.266
20
-91.2692
11
132.535
21
-91.5897
0
LINE
8
Black
10
132.535
20
-91.5897
11
132.678
21
-91.9828
0
LINE
8
Black
10
132.678
20
-91.9828
11
132.678
21
-92.4012
0
LINE
8
Black
10
132.678
20
-92.4012
11
132.535
21
-92.7943
0
LINE
8
Black
10
132.535
20
-92.7943
11
132.266
21
-93.1148
0
LINE
8
Black
10
132.266
20
-93.1148
11
131.904
21
-93.3239
0
LINE
8
Black
10
131.904
20
-93.3239
11
131.492
21
-93.3966
0
LINE
8
Black
10
131.492
20
-93.3966
11
131.08
21
-93.3239
0
LINE
8
Black
10
131.08
20
-93.3239
11
130.718
21
-93.1148
0
LINE
8
Black
10
130.718
20
-93.1148
11
130.449
21
-92.7943
0
LINE
8
Black
10
130.449
20
-92.7943
11
130.306
21
-92.4012
0
LINE
8
Black
10
130.306
20
-92.4012
11
130.306
21
-91.9828
0
LINE
8
Black
10
130.306
20
-91.9828
11
130.449
21
-91.5897
0
LINE
8
Black
10
130.449
20
-91.5897
11
130.718
21
-91.2692
0
LINE
8
Black
10
130.718
20
-91.2692
11
131.08
21
-91.0601
0
LINE
8
Black
10
131.08
20
-91.0601
11
131.492
21
-90.9874
0
LINE
8
Black
10
131.492
20
-90.9874
11
131.904
21
-91.0601
0
LINE
8
Black
10
79.2575
20
-93.2275
11
77.2065
21
-93.2275
0
LINE
8
Black
10
77.2065
20
-93.2275
11
77.2065
21
-91.1765
0
LINE
8
Black
10
77.2065
20
-91.1765
11
79.2575
21
-91.1765
0
LINE
8
Black
10
79.2575
20
-91.1765
11
79.2575
21
-93.2275
0
LINE
8
Black
10
40.6495
20
-93.2275
11
38.5985
21
-93.2275
0
LINE
8
Black
10
38.5985
20
-93.2275
11
38.5985
21
-91.1765
0
LINE
8
Black
10
38.5985
20
-91.1765
11
40.6495
21
-91.1765
0
LINE
8
Black
10
40.6495
20
-91.1765
11
40.6495
21
-93.2275
0
LINE
8
Black
10
59.9535
20
-93.2275
11
57.9025
21
-93.2275
0
LINE
8
Black
10
57.9025
20
-93.2275
11
57.9025
21
-91.1765
0
LINE
8
Black
10
57.9025
20
-91.1765
11
59.9535
21
-91.1765
0
LINE
8
Black
10
59.9535
20
-91.1765
11
59.9535
21
-93.2275
0
LINE
8
Black
10
98.5615
20
-93.2275
11
96.5105
21
-93.2275
0
LINE
8
Black
10
96.5105
20
-93.2275
11
96.5105
21
-91.1765
0
LINE
8
Black
10
96.5105
20
-91.1765
11
98.5615
21
-91.1765
0
LINE
8
Black
10
98.5615
20
-91.1765
11
98.5615
21
-93.2275
0
LINE
8
Black
10
137.169
20
-93.2275
11
135.118
21
-93.2275
0
LINE
8
Black
10
135.118
20
-93.2275
11
135.118
21
-91.1765
0
LINE
8
Black
10
135.118
20
-91.1765
11
137.169
21
-91.1765
0
LINE
8
Black
10
137.169
20
-91.1765
11
137.169
21
-93.2275
0
LINE
8
Black
10
117.865
20
-93.2275
11
115.814
21
-93.2275
0
LINE
8
Black
10
115.814
20
-93.2275
11
115.814
21
-91.1765
0
LINE
8
Black
10
115.814
20
-91.1765
11
117.865
21
-91.1765
0
LINE
8
Black
10
117.865
20
-91.1765
11
117.865
21
-93.2275
0
LINE
8
Black
10
97.8881
20
-83.6147
11
98.1977
21
-83.7934
0
LINE
8
Black
10
98.1977
20
-83.7934
11
98.4275
21
-84.0673
0
LINE
8
Black
10
98.4275
20
-84.0673
11
98.5498
21
-84.4032
0
LINE
8
Black
10
98.5498
20
-84.4032
11
98.5498
21
-84.7608
0
LINE
8
Black
10
98.5498
20
-84.7608
11
98.4275
21
-85.0967
0
LINE
8
Black
10
98.4275
20
-85.0967
11
98.1977
21
-85.3706
0
LINE
8
Black
10
98.1977
20
-85.3706
11
97.8881
21
-85.5493
0
LINE
8
Black
10
97.8881
20
-85.5493
11
97.536
21
-85.6114
0
LINE
8
Black
10
97.536
20
-85.6114
11
97.1839
21
-85.5493
0
LINE
8
Black
10
97.1839
20
-85.5493
11
96.8743
21
-85.3706
0
LINE
8
Black
10
96.8743
20
-85.3706
11
96.6445
21
-85.0967
0
LINE
8
Black
10
96.6445
20
-85.0967
11
96.5222
21
-84.7608
0
LINE
8
Black
10
96.5222
20
-84.7608
11
96.5222
21
-84.4032
0
LINE
8
Black
10
96.5222
20
-84.4032
11
96.6445
21
-84.0673
0
LINE
8
Black
10
96.6445
20
-84.0673
11
96.8743
21
-83.7934
0
LINE
8
Black
10
96.8743
20
-83.7934
11
97.1839
21
-83.6147
0
LINE
8
Black
10
97.1839
20
-83.6147
11
97.536
21
-83.5526
0
LINE
8
Black
10
97.536
20
-83.5526
11
97.8881
21
-83.6147
0
LINE
8
Black
10
78.5841
20
-83.6147
11
78.8937
21
-83.7934
0
LINE
8
Black
10
78.8937
20
-83.7934
11
79.1235
21
-84.0673
0
LINE
8
Black
10
79.1235
20
-84.0673
11
79.2458
21
-84.4032
0
LINE
8
Black
10
79.2458
20
-84.4032
11
79.2458
21
-84.7608
0
LINE
8
Black
10
79.2458
20
-84.7608
11
79.1235
21
-85.0967
0
LINE
8
Black
10
79.1235
20
-85.0967
11
78.8937
21
-85.3706
0
LINE
8
Black
10
78.8937
20
-85.3706
11
78.5841
21
-85.5493
0
LINE
8
Black
10
78.5841
20
-85.5493
11
78.232
21
-85.6114
0
LINE
8
Black
10
78.232
20
-85.6114
11
77.8799
21
-85.5493
0
LINE
8
Black
10
77.8799
20
-85.5493
11
77.5703
21
-85.3706
0
LINE
8
Black
10
77.5703
20
-85.3706
11
77.3405
21
-85.0967
0
LINE
8
Black
10
77.3405
20
-85.0967
11
77.2182
21
-84.7608
0
LINE
8
Black
10
77.2182
20
-84.7608
11
77.2182
21
-84.4032
0
LINE
8
Black
10
77.2182
20
-84.4032
11
77.3405
21
-84.0673
0
LINE
8
Black
10
77.3405
20
-84.0673
11
77.5703
21
-83.7934
0
LINE
8
Black
10
77.5703
20
-83.7934
11
77.8799
21
-83.6147
0
LINE
8
Black
10
77.8799
20
-83.6147
11
78.232
21
-83.5526
0
LINE
8
Black
10
78.232
20
-83.5526
11
78.5841
21
-83.6147
0
LINE
8
Black
10
39.9761
20
-83.6147
11
40.2857
21
-83.7934
0
LINE
8
Black
10
40.2857
20
-83.7934
11
40.5155
21
-84.0673
0
LINE
8
Black
10
40.5155
20
-84.0673
11
40.6378
21
-84.4032
0
LINE
8
Black
10
40.6378
20
-84.4032
11
40.6378
21
-84.7608
0
LINE
8
Black
10
40.6378
20
-84.7608
11
40.5155
21
-85.0967
0
LINE
8
Black
10
40.5155
20
-85.0967
11
40.2857
21
-85.3706
0
LINE
8
Black
10
40.2857
20
-85.3706
11
39.9761
21
-85.5493
0
LINE
8
Black
10
39.9761
20
-85.5493
11
39.624
21
-85.6114
0
LINE
8
Black
10
39.624
20
-85.6114
11
39.2719
21
-85.5493
0
LINE
8
Black
10
39.2719
20
-85.5493
11
38.9623
21
-85.3706
0
LINE
8
Black
10
38.9623
20
-85.3706
11
38.7325
21
-85.0967
0
LINE
8
Black
10
38.7325
20
-85.0967
11
38.6102
21
-84.7608
0
LINE
8
Black
10
38.6102
20
-84.7608
11
38.6102
21
-84.4032
0
LINE
8
Black
10
38.6102
20
-84.4032
11
38.7325
21
-84.0673
0
LINE
8
Black
10
38.7325
20
-84.0673
11
38.9623
21
-83.7934
0
LINE
8
Black
10
38.9623
20
-83.7934
11
39.2719
21
-83.6147
0
LINE
8
Black
10
39.2719
20
-83.6147
11
39.624
21
-83.5526
0
LINE
8
Black
10
39.624
20
-83.5526
11
39.9761
21
-83.6147
0
LINE
8
Black
10
59.2801
20
-83.6147
11
59.5897
21
-83.7934
0
LINE
8
Black
10
59.5897
20
-83.7934
11
59.8195
21
-84.0673
0
LINE
8
Black
10
59.8195
20
-84.0673
11
59.9418
21
-84.4032
0
LINE
8
Black
10
59.9418
20
-84.4032
11
59.9418
21
-84.7608
0
LINE
8
Black
10
59.9418
20
-84.7608
11
59.8195
21
-85.0967
0
LINE
8
Black
10
59.8195
20
-85.0967
11
59.5897
21
-85.3706
0
LINE
8
Black
10
59.5897
20
-85.3706
11
59.2801
21
-85.5493
0
LINE
8
Black
10
59.2801
20
-85.5493
11
58.928
21
-85.6114
0
LINE
8
Black
10
58.928
20
-85.6114
11
58.5759
21
-85.5493
0
LINE
8
Black
10
58.5759
20
-85.5493
11
58.2663
21
-85.3706
0
LINE
8
Black
10
58.2663
20
-85.3706
11
58.0365
21
-85.0967
0
LINE
8
Black
10
58.0365
20
-85.0967
11
57.9142
21
-84.7608
0
LINE
8
Black
10
57.9142
20
-84.7608
11
57.9142
21
-84.4032
0
LINE
8
Black
10
57.9142
20
-84.4032
11
58.0365
21
-84.0673
0
LINE
8
Black
10
58.0365
20
-84.0673
11
58.2663
21
-83.7934
0
LINE
8
Black
10
58.2663
20
-83.7934
11
58.5759
21
-83.6147
0
LINE
8
Black
10
58.5759
20
-83.6147
11
58.928
21
-83.5526
0
LINE
8
Black
10
58.928
20
-83.5526
11
59.2801
21
-83.6147
0
LINE
8
Black
10
117.192
20
-83.6147
11
117.502
21
-83.7934
0
LINE
8
Black
10
117.502
20
-83.7934
11
117.732
21
-84.0673
0
LINE
8
Black
10
117.732
20
-84.0673
11
117.854
21
-84.4032
0
LINE
8
Black
10
117.854
20
-84.4032
11
117.854
21
-84.7608
0
LINE
8
Black
10
117.854
20
-84.7608
11
117.732
21
-85.0967
0
LINE
8
Black
10
117.732
20
-85.0967
11
117.502
21
-85.3706
0
LINE
8
Black
10
117.502
20
-85.3706
11
117.192
21
-85.5493
0
LINE
8
Black
10
117.192
20
-85.5493
11
116.84
21
-85.6114
0
LINE
8
Black
10
116.84
20
-85.6114
11
116.488
21
-85.5493
0
LINE
8
Black
10
116.488
20
-85.5493
11
116.178
21
-85.3706
0
LINE
8
Black
10
116.178
20
-85.3706
11
115.948
21
-85.0967
0
LINE
8
Black
10
115.948
20
-85.0967
11
115.826
21
-84.7608
0
LINE
8
Black
10
115.826
20
-84.7608
11
115.826
21
-84.4032
0
LINE
8
Black
10
115.826
20
-84.4032
11
115.948
21
-84.0673
0
LINE
8
Black
10
115.948
20
-84.0673
11
116.178
21
-83.7934
0
LINE
8
Black
10
116.178
20
-83.7934
11
116.488
21
-83.6147
0
LINE
8
Black
10
116.488
20
-83.6147
11
116.84
21
-83.5526
0
LINE
8
Black
10
116.84
20
-83.5526
11
117.192
21
-83.6147
0
LINE
8
Black
10
136.496
20
-83.6147
11
136.806
21
-83.7934
0
LINE
8
Black
10
136.806
20
-83.7934
11
137.036
21
-84.0673
0
LINE
8
Black
10
137.036
20
-84.0673
11
137.158
21
-84.4032
0
LINE
8
Black
10
137.158
20
-84.4032
11
137.158
21
-84.7608
0
LINE
8
Black
10
137.158
20
-84.7608
11
137.036
21
-85.0967
0
LINE
8
Black
10
137.036
20
-85.0967
11
136.806
21
-85.3706
0
LINE
8
Black
10
136.806
20
-85.3706
11
136.496
21
-85.5493
0
LINE
8
Black
10
136.496
20
-85.5493
11
136.144
21
-85.6114
0
LINE
8
Black
10
136.144
20
-85.6114
11
135.792
21
-85.5493
0
LINE
8
Black
10
135.792
20
-85.5493
11
135.482
21
-85.3706
0
LINE
8
Black
10
135.482
20
-85.3706
11
135.252
21
-85.0967
0
LINE
8
Black
10
135.252
20
-85.0967
11
135.13
21
-84.7608
0
LINE
8
Black
10
135.13
20
-84.7608
11
135.13
21
-84.4032
0
LINE
8
Black
10
135.13
20
-84.4032
11
135.252
21
-84.0673
0
LINE
8
Black
10
135.252
20
-84.0673
11
135.482
21
-83.7934
0
LINE
8
Black
10
135.482
20
-83.7934
11
135.792
21
-83.6147
0
LINE
8
Black
10
135.792
20
-83.6147
11
136.144
21
-83.5526
0
LINE
8
Black
10
136.144
20
-83.5526
11
136.496
21
-83.6147
0
LINE
8
Black
10
31.6377
20
-82.5049
11
31.9856
21
-82.7058
0
LINE
8
Black
10
31.9856
20
-82.7058
11
32.2439
21
-83.0135
0
LINE
8
Black
10
32.2439
20
-83.0135
11
32.3813
21
-83.3911
0
LINE
8
Black
10
32.3813
20
-83.3911
11
32.3813
21
-83.7929
0
LINE
8
Black
10
32.3813
20
-83.7929
11
32.2439
21
-84.1705
0
LINE
8
Black
10
32.2439
20
-84.1705
11
31.9856
21
-84.4782
0
LINE
8
Black
10
31.9856
20
-84.4782
11
31.6377
21
-84.6791
0
LINE
8
Black
10
31.6377
20
-84.6791
11
31.242
21
-84.7489
0
LINE
8
Black
10
31.242
20
-84.7489
11
30.8463
21
-84.6791
0
LINE
8
Black
10
30.8463
20
-84.6791
11
30.4984
21
-84.4782
0
LINE
8
Black
10
30.4984
20
-84.4782
11
30.2401
21
-84.1705
0
LINE
8
Black
10
30.2401
20
-84.1705
11
30.1027
21
-83.7929
0
LINE
8
Black
10
30.1027
20
-83.7929
11
30.1027
21
-83.3911
0
LINE
8
Black
10
30.1027
20
-83.3911
11
30.2401
21
-83.0135
0
LINE
8
Black
10
30.2401
20
-83.0135
11
30.4984
21
-82.7058
0
LINE
8
Black
10
30.4984
20
-82.7058
11
30.8463
21
-82.5049
0
LINE
8
Black
10
30.8463
20
-82.5049
11
31.242
21
-82.4351
0
LINE
8
Black
10
31.242
20
-82.4351
11
31.6377
21
-82.5049
0
LINE
8
Black
10
108.854
20
-82.5049
11
109.202
21
-82.7058
0
LINE
8
Black
10
109.202
20
-82.7058
11
109.46
21
-83.0135
0
LINE
8
Black
10
109.46
20
-83.0135
11
109.597
21
-83.3911
0
LINE
8
Black
10
109.597
20
-83.3911
11
109.597
21
-83.7929
0
LINE
8
Black
10
109.597
20
-83.7929
11
109.46
21
-84.1705
0
LINE
8
Black
10
109.46
20
-84.1705
11
109.202
21
-84.4782
0
LINE
8
Black
10
109.202
20
-84.4782
11
108.854
21
-84.6791
0
LINE
8
Black
10
108.854
20
-84.6791
11
108.458
21
-84.7489
0
LINE
8
Black
10
108.458
20
-84.7489
11
108.062
21
-84.6791
0
LINE
8
Black
10
108.062
20
-84.6791
11
107.714
21
-84.4782
0
LINE
8
Black
10
107.714
20
-84.4782
11
107.456
21
-84.1705
0
LINE
8
Black
10
107.456
20
-84.1705
11
107.319
21
-83.7929
0
LINE
8
Black
10
107.319
20
-83.7929
11
107.319
21
-83.3911
0
LINE
8
Black
10
107.319
20
-83.3911
11
107.456
21
-83.0135
0
LINE
8
Black
10
107.456
20
-83.0135
11
107.714
21
-82.7058
0
LINE
8
Black
10
107.714
20
-82.7058
11
108.062
21
-82.5049
0
LINE
8
Black
10
108.062
20
-82.5049
11
108.458
21
-82.4351
0
LINE
8
Black
10
108.458
20
-82.4351
11
108.854
21
-82.5049
0
LINE
8
Black
10
89.5497
20
-82.5049
11
89.8976
21
-82.7058
0
LINE
8
Black
10
89.8976
20
-82.7058
11
90.1559
21
-83.0135
0
LINE
8
Black
10
90.1559
20
-83.0135
11
90.2933
21
-83.3911
0
LINE
8
Black
10
90.2933
20
-83.3911
11
90.2933
21
-83.7929
0
LINE
8
Black
10
90.2933
20
-83.7929
11
90.1559
21
-84.1705
0
LINE
8
Black
10
90.1559
20
-84.1705
11
89.8976
21
-84.4782
0
LINE
8
Black
10
89.8976
20
-84.4782
11
89.5497
21
-84.6791
0
LINE
8
Black
10
89.5497
20
-84.6791
11
89.154
21
-84.7489
0
LINE
8
Black
10
89.154
20
-84.7489
11
88.7583
21
-84.6791
0
LINE
8
Black
10
88.7583
20
-84.6791
11
88.4104
21
-84.4782
0
LINE
8
Black
10
88.4104
20
-84.4782
11
88.1521
21
-84.1705
0
LINE
8
Black
10
88.1521
20
-84.1705
11
88.0147
21
-83.7929
0
LINE
8
Black
10
88.0147
20
-83.7929
11
88.0147
21
-83.3911
0
LINE
8
Black
10
88.0147
20
-83.3911
11
88.1521
21
-83.0135
0
LINE
8
Black
10
88.1521
20
-83.0135
11
88.4104
21
-82.7058
0
LINE
8
Black
10
88.4104
20
-82.7058
11
88.7583
21
-82.5049
0
LINE
8
Black
10
88.7583
20
-82.5049
11
89.154
21
-82.4351
0
LINE
8
Black
10
89.154
20
-82.4351
11
89.5497
21
-82.5049
0
LINE
8
Black
10
50.9417
20
-82.5049
11
51.2896
21
-82.7058
0
LINE
8
Black
10
51.2896
20
-82.7058
11
51.5479
21
-83.0135
0
LINE
8
Black
10
51.5479
20
-83.0135
11
51.6853
21
-83.3911
0
LINE
8
Black
10
51.6853
20
-83.3911
11
51.6853
21
-83.7929
0
LINE
8
Black
10
51.6853
20
-83.7929
11
51.5479
21
-84.1705
0
LINE
8
Black
10
51.5479
20
-84.1705
11
51.2896
21
-84.4782
0
LINE
8
Black
10
51.2896
20
-84.4782
11
50.9417
21
-84.6791
0
LINE
8
Black
10
50.9417
20
-84.6791
11
50.546
21
-84.7489
0
LINE
8
Black
10
50.546
20
-84.7489
11
50.1503
21
-84.6791
0
LINE
8
Black
10
50.1503
20
-84.6791
11
49.8024
21
-84.4782
0
LINE
8
Black
10
49.8024
20
-84.4782
11
49.5441
21
-84.1705
0
LINE
8
Black
10
49.5441
20
-84.1705
11
49.4067
21
-83.7929
0
LINE
8
Black
10
49.4067
20
-83.7929
11
49.4067
21
-83.3911
0
LINE
8
Black
10
49.4067
20
-83.3911
11
49.5441
21
-83.0135
0
LINE
8
Black
10
49.5441
20
-83.0135
11
49.8024
21
-82.7058
0
LINE
8
Black
10
49.8024
20
-82.7058
11
50.1503
21
-82.5049
0
LINE
8
Black
10
50.1503
20
-82.5049
11
50.546
21
-82.4351
0
LINE
8
Black
10
50.546
20
-82.4351
11
50.9417
21
-82.5049
0
LINE
8
Black
10
128.158
20
-82.5049
11
128.506
21
-82.7058
0
LINE
8
Black
10
128.506
20
-82.7058
11
128.764
21
-83.0135
0
LINE
8
Black
10
128.764
20
-83.0135
11
128.901
21
-83.3911
0
LINE
8
Black
10
128.901
20
-83.3911
11
128.901
21
-83.7929
0
LINE
8
Black
10
128.901
20
-83.7929
11
128.764
21
-84.1705
0
LINE
8
Black
10
128.764
20
-84.1705
11
128.506
21
-84.4782
0
LINE
8
Black
10
128.506
20
-84.4782
11
128.158
21
-84.6791
0
LINE
8
Black
10
128.158
20
-84.6791
11
127.762
21
-84.7489
0
LINE
8
Black
10
127.762
20
-84.7489
11
127.366
21
-84.6791
0
LINE
8
Black
10
127.366
20
-84.6791
11
127.018
21
-84.4782
0
LINE
8
Black
10
127.018
20
-84.4782
11
126.76
21
-84.1705
0
LINE
8
Black
10
126.76
20
-84.1705
11
126.623
21
-83.7929
0
LINE
8
Black
10
126.623
20
-83.7929
11
126.623
21
-83.3911
0
LINE
8
Black
10
126.623
20
-83.3911
11
126.76
21
-83.0135
0
LINE
8
Black
10
126.76
20
-83.0135
11
127.018
21
-82.7058
0
LINE
8
Black
10
127.018
20
-82.7058
11
127.366
21
-82.5049
0
LINE
8
Black
10
127.366
20
-82.5049
11
127.762
21
-82.4351
0
LINE
8
Black
10
127.762
20
-82.4351
11
128.158
21
-82.5049
0
LINE
8
Black
10
70.2457
20
-82.5049
11
70.5936
21
-82.7058
0
LINE
8
Black
10
70.5936
20
-82.7058
11
70.8519
21
-83.0135
0
LINE
8
Black
10
70.8519
20
-83.0135
11
70.9893
21
-83.3911
0
LINE
8
Black
10
70.9893
20
-83.3911
11
70.9893
21
-83.7929
0
LINE
8
Black
10
70.9893
20
-83.7929
11
70.8519
21
-84.1705
0
LINE
8
Black
10
70.8519
20
-84.1705
11
70.5936
21
-84.4782
0
LINE
8
Black
10
70.5936
20
-84.4782
11
70.2457
21
-84.6791
0
LINE
8
Black
10
70.2457
20
-84.6791
11
69.85
21
-84.7489
0
LINE
8
Black
10
69.85
20
-84.7489
11
69.4543
21
-84.6791
0
LINE
8
Black
10
69.4543
20
-84.6791
11
69.1064
21
-84.4782
0
LINE
8
Black
10
69.1064
20
-84.4782
11
68.8481
21
-84.1705
0
LINE
8
Black
10
68.8481
20
-84.1705
11
68.7107
21
-83.7929
0
LINE
8
Black
10
68.7107
20
-83.7929
11
68.7107
21
-83.3911
0
LINE
8
Black
10
68.7107
20
-83.3911
11
68.8481
21
-83.0135
0
LINE
8
Black
10
68.8481
20
-83.0135
11
69.1064
21
-82.7058
0
LINE
8
Black
10
69.1064
20
-82.7058
11
69.4543
21
-82.5049
0
LINE
8
Black
10
69.4543
20
-82.5049
11
69.85
21
-82.4351
0
LINE
8
Black
10
69.85
20
-82.4351
11
70.2457
21
-82.5049
0
LINE
8
Black
10
126.374
20
-84.7445
11
124.069
21
-84.7445
0
LINE
8
Black
10
124.069
20
-84.7445
11
124.069
21
-82.4395
0
LINE
8
Black
10
124.069
20
-82.4395
11
126.374
21
-82.4395
0
LINE
8
Black
10
126.374
20
-82.4395
11
126.374
21
-84.7445
0
LINE
8
Black
10
29.8545
20
-84.7445
11
27.5495
21
-84.7445
0
LINE
8
Black
10
27.5495
20
-84.7445
11
27.5495
21
-82.4395
0
LINE
8
Black
10
27.5495
20
-82.4395
11
29.8545
21
-82.4395
0
LINE
8
Black
10
29.8545
20
-82.4395
11
29.8545
21
-84.7445
0
LINE
8
Black
10
107.07
20
-84.7445
11
104.765
21
-84.7445
0
LINE
8
Black
10
104.765
20
-84.7445
11
104.765
21
-82.4395
0
LINE
8
Black
10
104.765
20
-82.4395
11
107.07
21
-82.4395
0
LINE
8
Black
10
107.07
20
-82.4395
11
107.07
21
-84.7445
0
LINE
8
Black
10
49.1585
20
-84.7445
11
46.8535
21
-84.7445
0
LINE
8
Black
10
46.8535
20
-84.7445
11
46.8535
21
-82.4395
0
LINE
8
Black
10
46.8535
20
-82.4395
11
49.1585
21
-82.4395
0
LINE
8
Black
10
49.1585
20
-82.4395
11
49.1585
21
-84.7445
0
LINE
8
Black
10
68.4625
20
-84.7445
11
66.1575
21
-84.7445
0
LINE
8
Black
10
66.1575
20
-84.7445
11
66.1575
21
-82.4395
0
LINE
8
Black
10
66.1575
20
-82.4395
11
68.4625
21
-82.4395
0
LINE
8
Black
10
68.4625
20
-82.4395
11
68.4625
21
-84.7445
0
LINE
8
Black
10
87.7665
20
-84.7445
11
85.4615
21
-84.7445
0
LINE
8
Black
10
85.4615
20
-84.7445
11
85.4615
21
-82.4395
0
LINE
8
Black
10
85.4615
20
-82.4395
11
87.7665
21
-82.4395
0
LINE
8
Black
10
87.7665
20
-82.4395
11
87.7665
21
-84.7445
0
LINE
8
Black
10
68.992
20
-74.8721
11
69.3543
21
-75.0812
0
LINE
8
Black
10
69.3543
20
-75.0812
11
69.6232
21
-75.4017
0
LINE
8
Black
10
69.6232
20
-75.4017
11
69.7663
21
-75.7948
0
LINE
8
Black
10
69.7663
20
-75.7948
11
69.7663
21
-76.2132
0
LINE
8
Black
10
69.7663
20
-76.2132
11
69.6232
21
-76.6063
0
LINE
8
Black
10
69.6232
20
-76.6063
11
69.3543
21
-76.9268
0
LINE
8
Black
10
69.3543
20
-76.9268
11
68.992
21
-77.1359
0
LINE
8
Black
10
68.992
20
-77.1359
11
68.58
21
-77.2086
0
LINE
8
Black
10
68.58
20
-77.2086
11
68.168
21
-77.1359
0
LINE
8
Black
10
68.168
20
-77.1359
11
67.8057
21
-76.9268
0
LINE
8
Black
10
67.8057
20
-76.9268
11
67.5368
21
-76.6063
0
LINE
8
Black
10
67.5368
20
-76.6063
11
67.3937
21
-76.2132
0
LINE
8
Black
10
67.3937
20
-76.2132
11
67.3937
21
-75.7948
0
LINE
8
Black
10
67.3937
20
-75.7948
11
67.5368
21
-75.4017
0
LINE
8
Black
10
67.5368
20
-75.4017
11
67.8057
21
-75.0812
0
LINE
8
Black
10
67.8057
20
-75.0812
11
68.168
21
-74.8721
0
LINE
8
Black
10
68.168
20
-74.8721
11
68.58
21
-74.7994
0
LINE
8
Black
10
68.58
20
-74.7994
11
68.992
21
-74.8721
0
LINE
8
Black
10
30.384
20
-74.8721
11
30.7463
21
-75.0812
0
LINE
8
Black
10
30.7463
20
-75.0812
11
31.0152
21
-75.4017
0
LINE
8
Black
10
31.0152
20
-75.4017
11
31.1583
21
-75.7948
0
LINE
8
Black
10
31.1583
20
-75.7948
11
31.1583
21
-76.2132
0
LINE
8
Black
10
31.1583
20
-76.2132
11
31.0152
21
-76.6063
0
LINE
8
Black
10
31.0152
20
-76.6063
11
30.7463
21
-76.9268
0
LINE
8
Black
10
30.7463
20
-76.9268
11
30.384
21
-77.1359
0
LINE
8
Black
10
30.384
20
-77.1359
11
29.972
21
-77.2086
0
LINE
8
Black
10
29.972
20
-77.2086
11
29.56
21
-77.1359
0
LINE
8
Black
10
29.56
20
-77.1359
11
29.1977
21
-76.9268
0
LINE
8
Black
10
29.1977
20
-76.9268
11
28.9288
21
-76.6063
0
LINE
8
Black
10
28.9288
20
-76.6063
11
28.7857
21
-76.2132
0
LINE
8
Black
10
28.7857
20
-76.2132
11
28.7857
21
-75.7948
0
LINE
8
Black
10
28.7857
20
-75.7948
11
28.9288
21
-75.4017
0
LINE
8
Black
10
28.9288
20
-75.4017
11
29.1977
21
-75.0812
0
LINE
8
Black
10
29.1977
20
-75.0812
11
29.56
21
-74.8721
0
LINE
8
Black
10
29.56
20
-74.8721
11
29.972
21
-74.7994
0
LINE
8
Black
10
29.972
20
-74.7994
11
30.384
21
-74.8721
0
LINE
8
Black
10
88.296
20
-74.8721
11
88.6583
21
-75.0812
0
LINE
8
Black
10
88.6583
20
-75.0812
11
88.9272
21
-75.4017
0
LINE
8
Black
10
88.9272
20
-75.4017
11
89.0703
21
-75.7948
0
LINE
8
Black
10
89.0703
20
-75.7948
11
89.0703
21
-76.2132
0
LINE
8
Black
10
89.0703
20
-76.2132
11
88.9272
21
-76.6063
0
LINE
8
Black
10
88.9272
20
-76.6063
11
88.6583
21
-76.9268
0
LINE
8
Black
10
88.6583
20
-76.9268
11
88.296
21
-77.1359
0
LINE
8
Black
10
88.296
20
-77.1359
11
87.884
21
-77.2086
0
LINE
8
Black
10
87.884
20
-77.2086
11
87.472
21
-77.1359
0
LINE
8
Black
10
87.472
20
-77.1359
11
87.1097
21
-76.9268
0
LINE
8
Black
10
87.1097
20
-76.9268
11
86.8408
21
-76.6063
0
LINE
8
Black
10
86.8408
20
-76.6063
11
86.6977
21
-76.2132
0
LINE
8
Black
10
86.6977
20
-76.2132
11
86.6977
21
-75.7948
0
LINE
8
Black
10
86.6977
20
-75.7948
11
86.8408
21
-75.4017
0
LINE
8
Black
10
86.8408
20
-75.4017
11
87.1097
21
-75.0812
0
LINE
8
Black
10
87.1097
20
-75.0812
11
87.472
21
-74.8721
0
LINE
8
Black
10
87.472
20
-74.8721
11
87.884
21
-74.7994
0
LINE
8
Black
10
87.884
20
-74.7994
11
88.296
21
-74.8721
0
LINE
8
Black
10
107.6
20
-74.8721
11
107.962
21
-75.0812
0
LINE
8
Black
10
107.962
20
-75.0812
11
108.231
21
-75.4017
0
LINE
8
Black
10
108.231
20
-75.4017
11
108.374
21
-75.7948
0
LINE
8
Black
10
108.374
20
-75.7948
11
108.374
21
-76.2132
0
LINE
8
Black
10
108.374
20
-76.2132
11
108.231
21
-76.6063
0
LINE
8
Black
10
108.231
20
-76.6063
11
107.962
21
-76.9268
0
LINE
8
Black
10
107.962
20
-76.9268
11
107.6
21
-77.1359
0
LINE
8
Black
10
107.6
20
-77.1359
11
107.188
21
-77.2086
0
LINE
8
Black
10
107.188
20
-77.2086
11
106.776
21
-77.1359
0
LINE
8
Black
10
106.776
20
-77.1359
11
106.414
21
-76.9268
0
LINE
8
Black
10
106.414
20
-76.9268
11
106.145
21
-76.6063
0
LINE
8
Black
10
106.145
20
-76.6063
11
106.002
21
-76.2132
0
LINE
8
Black
10
106.002
20
-76.2132
11
106.002
21
-75.7948
0
LINE
8
Black
10
106.002
20
-75.7948
11
106.145
21
-75.4017
0
LINE
8
Black
10
106.145
20
-75.4017
11
106.414
21
-75.0812
0
LINE
8
Black
10
106.414
20
-75.0812
11
106.776
21
-74.8721
0
LINE
8
Black
10
106.776
20
-74.8721
11
107.188
21
-74.7994
0
LINE
8
Black
10
107.188
20
-74.7994
11
107.6
21
-74.8721
0
LINE
8
Black
10
49.688
20
-74.8721
11
50.0503
21
-75.0812
0
LINE
8
Black
10
50.0503
20
-75.0812
11
50.3192
21
-75.4017
0
LINE
8
Black
10
50.3192
20
-75.4017
11
50.4623
21
-75.7948
0
LINE
8
Black
10
50.4623
20
-75.7948
11
50.4623
21
-76.2132
0
LINE
8
Black
10
50.4623
20
-76.2132
11
50.3192
21
-76.6063
0
LINE
8
Black
10
50.3192
20
-76.6063
11
50.0503
21
-76.9268
0
LINE
8
Black
10
50.0503
20
-76.9268
11
49.688
21
-77.1359
0
LINE
8
Black
10
49.688
20
-77.1359
11
49.276
21
-77.2086
0
LINE
8
Black
10
49.276
20
-77.2086
11
48.864
21
-77.1359
0
LINE
8
Black
10
48.864
20
-77.1359
11
48.5017
21
-76.9268
0
LINE
8
Black
10
48.5017
20
-76.9268
11
48.2328
21
-76.6063
0
LINE
8
Black
10
48.2328
20
-76.6063
11
48.0897
21
-76.2132
0
LINE
8
Black
10
48.0897
20
-76.2132
11
48.0897
21
-75.7948
0
LINE
8
Black
10
48.0897
20
-75.7948
11
48.2328
21
-75.4017
0
LINE
8
Black
10
48.2328
20
-75.4017
11
48.5017
21
-75.0812
0
LINE
8
Black
10
48.5017
20
-75.0812
11
48.864
21
-74.8721
0
LINE
8
Black
10
48.864
20
-74.8721
11
49.276
21
-74.7994
0
LINE
8
Black
10
49.276
20
-74.7994
11
49.688
21
-74.8721
0
LINE
8
Black
10
126.904
20
-74.8721
11
127.266
21
-75.0812
0
LINE
8
Black
10
127.266
20
-75.0812
11
127.535
21
-75.4017
0
LINE
8
Black
10
127.535
20
-75.4017
11
127.678
21
-75.7948
0
LINE
8
Black
10
127.678
20
-75.7948
11
127.678
21
-76.2132
0
LINE
8
Black
10
127.678
20
-76.2132
11
127.535
21
-76.6063
0
LINE
8
Black
10
127.535
20
-76.6063
11
127.266
21
-76.9268
0
LINE
8
Black
10
127.266
20
-76.9268
11
126.904
21
-77.1359
0
LINE
8
Black
10
126.904
20
-77.1359
11
126.492
21
-77.2086
0
LINE
8
Black
10
126.492
20
-77.2086
11
126.08
21
-77.1359
0
LINE
8
Black
10
126.08
20
-77.1359
11
125.718
21
-76.9268
0
LINE
8
Black
10
125.718
20
-76.9268
11
125.449
21
-76.6063
0
LINE
8
Black
10
125.449
20
-76.6063
11
125.306
21
-76.2132
0
LINE
8
Black
10
125.306
20
-76.2132
11
125.306
21
-75.7948
0
LINE
8
Black
10
125.306
20
-75.7948
11
125.449
21
-75.4017
0
LINE
8
Black
10
125.449
20
-75.4017
11
125.718
21
-75.0812
0
LINE
8
Black
10
125.718
20
-75.0812
11
126.08
21
-74.8721
0
LINE
8
Black
10
126.08
20
-74.8721
11
126.492
21
-74.7994
0
LINE
8
Black
10
126.492
20
-74.7994
11
126.904
21
-74.8721
0
LINE
8
Black
10
25.384
20
-72.7721
11
25.7463
21
-72.9812
0
LINE
8
Black
10
25.7463
20
-72.9812
11
26.0152
21
-73.3017
0
LINE
8
Black
10
26.0152
20
-73.3017
11
26.1583
21
-73.6948
0
LINE
8
Black
10
26.1583
20
-73.6948
11
26.1583
21
-74.1132
0
LINE
8
Black
10
26.1583
20
-74.1132
11
26.0152
21
-74.5063
0
LINE
8
Black
10
26.0152
20
-74.5063
11
25.7463
21
-74.8268
0
LINE
8
Black
10
25.7463
20
-74.8268
11
25.384
21
-75.0359
0
LINE
8
Black
10
25.384
20
-75.0359
11
24.972
21
-75.1086
0
LINE
8
Black
10
24.972
20
-75.1086
11
24.56
21
-75.0359
0
LINE
8
Black
10
24.56
20
-75.0359
11
24.1977
21
-74.8268
0
LINE
8
Black
10
24.1977
20
-74.8268
11
23.9288
21
-74.5063
0
LINE
8
Black
10
23.9288
20
-74.5063
11
23.7857
21
-74.1132
0
LINE
8
Black
10
23.7857
20
-74.1132
11
23.7857
21
-73.6948
0
LINE
8
Black
10
23.7857
20
-73.6948
11
23.9288
21
-73.3017
0
LINE
8
Black
10
23.9288
20
-73.3017
11
24.1977
21
-72.9812
0
LINE
8
Black
10
24.1977
20
-72.9812
11
24.56
21
-72.7721
0
LINE
8
Black
10
24.56
20
-72.7721
11
24.972
21
-72.6994
0
LINE
8
Black
10
24.972
20
-72.6994
11
25.384
21
-72.7721
0
LINE
8
Black
10
93.296
20
-72.7721
11
93.6583
21
-72.9812
0
LINE
8
Black
10
93.6583
20
-72.9812
11
93.9272
21
-73.3017
0
LINE
8
Black
10
93.9272
20
-73.3017
11
94.0703
21
-73.6948
0
LINE
8
Black
10
94.0703
20
-73.6948
11
94.0703
21
-74.1132
0
LINE
8
Black
10
94.0703
20
-74.1132
11
93.9272
21
-74.5063
0
LINE
8
Black
10
93.9272
20
-74.5063
11
93.6583
21
-74.8268
0
LINE
8
Black
10
93.6583
20
-74.8268
11
93.296
21
-75.0359
0
LINE
8
Black
10
93.296
20
-75.0359
11
92.884
21
-75.1086
0
LINE
8
Black
10
92.884
20
-75.1086
11
92.472
21
-75.0359
0
LINE
8
Black
10
92.472
20
-75.0359
11
92.1097
21
-74.8268
0
LINE
8
Black
10
92.1097
20
-74.8268
11
91.8408
21
-74.5063
0
LINE
8
Black
10
91.8408
20
-74.5063
11
91.6977
21
-74.1132
0
LINE
8
Black
10
91.6977
20
-74.1132
11
91.6977
21
-73.6948
0
LINE
8
Black
10
91.6977
20
-73.6948
11
91.8408
21
-73.3017
0
LINE
8
Black
10
91.8408
20
-73.3017
11
92.1097
21
-72.9812
0
LINE
8
Black
10
92.1097
20
-72.9812
11
92.472
21
-72.7721
0
LINE
8
Black
10
92.472
20
-72.7721
11
92.884
21
-72.6994
0
LINE
8
Black
10
92.884
20
-72.6994
11
93.296
21
-72.7721
0
LINE
8
Black
10
63.992
20
-72.7721
11
64.3543
21
-72.9812
0
LINE
8
Black
10
64.3543
20
-72.9812
11
64.6232
21
-73.3017
0
LINE
8
Black
10
64.6232
20
-73.3017
11
64.7663
21
-73.6948
0
LINE
8
Black
10
64.7663
20
-73.6948
11
64.7663
21
-74.1132
0
LINE
8
Black
10
64.7663
20
-74.1132
11
64.6232
21
-74.5063
0
LINE
8
Black
10
64.6232
20
-74.5063
11
64.3543
21
-74.8268
0
LINE
8
Black
10
64.3543
20
-74.8268
11
63.992
21
-75.0359
0
LINE
8
Black
10
63.992
20
-75.0359
11
63.58
21
-75.1086
0
LINE
8
Black
10
63.58
20
-75.1086
11
63.168
21
-75.0359
0
LINE
8
Black
10
63.168
20
-75.0359
11
62.8057
21
-74.8268
0
LINE
8
Black
10
62.8057
20
-74.8268
11
62.5368
21
-74.5063
0
LINE
8
Black
10
62.5368
20
-74.5063
11
62.3937
21
-74.1132
0
LINE
8
Black
10
62.3937
20
-74.1132
11
62.3937
21
-73.6948
0
LINE
8
Black
10
62.3937
20
-73.6948
11
62.5368
21
-73.3017
0
LINE
8
Black
10
62.5368
20
-73.3017
11
62.8057
21
-72.9812
0
LINE
8
Black
10
62.8057
20
-72.9812
11
63.168
21
-72.7721
0
LINE
8
Black
10
63.168
20
-72.7721
11
63.58
21
-72.6994
0
LINE
8
Black
10
63.58
20
-72.6994
11
63.992
21
-72.7721
0
LINE
8
Black
10
73.992
20
-72.7721
11
74.3543
21
-72.9812
0
LINE
8
Black
10
74.3543
20
-72.9812
11
74.6232
21
-73.3017
0
LINE
8
Black
10
74.6232
20
-73.3017
11
74.7663
21
-73.6948
0
LINE
8
Black
10
74.7663
20
-73.6948
11
74.7663
21
-74.1132
0
LINE
8
Black
10
74.7663
20
-74.1132
11
74.6232
21
-74.5063
0
LINE
8
Black
10
74.6232
20
-74.5063
11
74.3543
21
-74.8268
0
LINE
8
Black
10
74.3543
20
-74.8268
11
73.992
21
-75.0359
0
LINE
8
Black
10
73.992
20
-75.0359
11
73.58
21
-75.1086
0
LINE
8
Black
10
73.58
20
-75.1086
11
73.168
21
-75.0359
0
LINE
8
Black
10
73.168
20
-75.0359
11
72.8057
21
-74.8268
0
LINE
8
Black
10
72.8057
20
-74.8268
11
72.5368
21
-74.5063
0
LINE
8
Black
10
72.5368
20
-74.5063
11
72.3937
21
-74.1132
0
LINE
8
Black
10
72.3937
20
-74.1132
11
72.3937
21
-73.6948
0
LINE
8
Black
10
72.3937
20
-73.6948
11
72.5368
21
-73.3017
0
LINE
8
Black
10
72.5368
20
-73.3017
11
72.8057
21
-72.9812
0
LINE
8
Black
10
72.8057
20
-72.9812
11
73.168
21
-72.7721
0
LINE
8
Black
10
73.168
20
-72.7721
11
73.58
21
-72.6994
0
LINE
8
Black
10
73.58
20
-72.6994
11
73.992
21
-72.7721
0
LINE
8
Black
10
83.296
20
-72.7721
11
83.6583
21
-72.9812
0
LINE
8
Black
10
83.6583
20
-72.9812
11
83.9272
21
-73.3017
0
LINE
8
Black
10
83.9272
20
-73.3017
11
84.0703
21
-73.6948
0
LINE
8
Black
10
84.0703
20
-73.6948
11
84.0703
21
-74.1132
0
LINE
8
Black
10
84.0703
20
-74.1132
11
83.9272
21
-74.5063
0
LINE
8
Black
10
83.9272
20
-74.5063
11
83.6583
21
-74.8268
0
LINE
8
Black
10
83.6583
20
-74.8268
11
83.296
21
-75.0359
0
LINE
8
Black
10
83.296
20
-75.0359
11
82.884
21
-75.1086
0
LINE
8
Black
10
82.884
20
-75.1086
11
82.472
21
-75.0359
0
LINE
8
Black
10
82.472
20
-75.0359
11
82.1097
21
-74.8268
0
LINE
8
Black
10
82.1097
20
-74.8268
11
81.8408
21
-74.5063
0
LINE
8
Black
10
81.8408
20
-74.5063
11
81.6977
21
-74.1132
0
LINE
8
Black
10
81.6977
20
-74.1132
11
81.6977
21
-73.6948
0
LINE
8
Black
10
81.6977
20
-73.6948
11
81.8408
21
-73.3017
0
LINE
8
Black
10
81.8408
20
-73.3017
11
82.1097
21
-72.9812
0
LINE
8
Black
10
82.1097
20
-72.9812
11
82.472
21
-72.7721
0
LINE
8
Black
10
82.472
20
-72.7721
11
82.884
21
-72.6994
0
LINE
8
Black
10
82.884
20
-72.6994
11
83.296
21
-72.7721
0
LINE
8
Black
10
112.6
20
-72.7721
11
112.962
21
-72.9812
0
LINE
8
Black
10
112.962
20
-72.9812
11
113.231
21
-73.3017
0
LINE
8
Black
10
113.231
20
-73.3017
11
113.374
21
-73.6948
0
LINE
8
Black
10
113.374
20
-73.6948
11
113.374
21
-74.1132
0
LINE
8
Black
10
113.374
20
-74.1132
11
113.231
21
-74.5063
0
LINE
8
Black
10
113.231
20
-74.5063
11
112.962
21
-74.8268
0
LINE
8
Black
10
112.962
20
-74.8268
11
112.6
21
-75.0359
0
LINE
8
Black
10
112.6
20
-75.0359
11
112.188
21
-75.1086
0
LINE
8
Black
10
112.188
20
-75.1086
11
111.776
21
-75.0359
0
LINE
8
Black
10
111.776
20
-75.0359
11
111.414
21
-74.8268
0
LINE
8
Black
10
111.414
20
-74.8268
11
111.145
21
-74.5063
0
LINE
8
Black
10
111.145
20
-74.5063
11
111.002
21
-74.1132
0
LINE
8
Black
10
111.002
20
-74.1132
11
111.002
21
-73.6948
0
LINE
8
Black
10
111.002
20
-73.6948
11
111.145
21
-73.3017
0
LINE
8
Black
10
111.145
20
-73.3017
11
111.414
21
-72.9812
0
LINE
8
Black
10
111.414
20
-72.9812
11
111.776
21
-72.7721
0
LINE
8
Black
10
111.776
20
-72.7721
11
112.188
21
-72.6994
0
LINE
8
Black
10
112.188
20
-72.6994
11
112.6
21
-72.7721
0
LINE
8
Black
10
102.6
20
-72.7721
11
102.962
21
-72.9812
0
LINE
8
Black
10
102.962
20
-72.9812
11
103.231
21
-73.3017
0
LINE
8
Black
10
103.231
20
-73.3017
11
103.374
21
-73.6948
0
LINE
8
Black
10
103.374
20
-73.6948
11
103.374
21
-74.1132
0
LINE
8
Black
10
103.374
20
-74.1132
11
103.231
21
-74.5063
0
LINE
8
Black
10
103.231
20
-74.5063
11
102.962
21
-74.8268
0
LINE
8
Black
10
102.962
20
-74.8268
11
102.6
21
-75.0359
0
LINE
8
Black
10
102.6
20
-75.0359
11
102.188
21
-75.1086
0
LINE
8
Black
10
102.188
20
-75.1086
11
101.776
21
-75.0359
0
LINE
8
Black
10
101.776
20
-75.0359
11
101.414
21
-74.8268
0
LINE
8
Black
10
101.414
20
-74.8268
11
101.145
21
-74.5063
0
LINE
8
Black
10
101.145
20
-74.5063
11
101.002
21
-74.1132
0
LINE
8
Black
10
101.002
20
-74.1132
11
101.002
21
-73.6948
0
LINE
8
Black
10
101.002
20
-73.6948
11
101.145
21
-73.3017
0
LINE
8
Black
10
101.145
20
-73.3017
11
101.414
21
-72.9812
0
LINE
8
Black
10
101.414
20
-72.9812
11
101.776
21
-72.7721
0
LINE
8
Black
10
101.776
20
-72.7721
11
102.188
21
-72.6994
0
LINE
8
Black
10
102.188
20
-72.6994
11
102.6
21
-72.7721
0
LINE
8
Black
10
131.904
20
-72.7721
11
132.266
21
-72.9812
0
LINE
8
Black
10
132.266
20
-72.9812
11
132.535
21
-73.3017
0
LINE
8
Black
10
132.535
20
-73.3017
11
132.678
21
-73.6948
0
LINE
8
Black
10
132.678
20
-73.6948
11
132.678
21
-74.1132
0
LINE
8
Black
10
132.678
20
-74.1132
11
132.535
21
-74.5063
0
LINE
8
Black
10
132.535
20
-74.5063
11
132.266
21
-74.8268
0
LINE
8
Black
10
132.266
20
-74.8268
11
131.904
21
-75.0359
0
LINE
8
Black
10
131.904
20
-75.0359
11
131.492
21
-75.1086
0
LINE
8
Black
10
131.492
20
-75.1086
11
131.08
21
-75.0359
0
LINE
8
Black
10
131.08
20
-75.0359
11
130.718
21
-74.8268
0
LINE
8
Black
10
130.718
20
-74.8268
11
130.449
21
-74.5063
0
LINE
8
Black
10
130.449
20
-74.5063
11
130.306
21
-74.1132
0
LINE
8
Black
10
130.306
20
-74.1132
11
130.306
21
-73.6948
0
LINE
8
Black
10
130.306
20
-73.6948
11
130.449
21
-73.3017
0
LINE
8
Black
10
130.449
20
-73.3017
11
130.718
21
-72.9812
0
LINE
8
Black
10
130.718
20
-72.9812
11
131.08
21
-72.7721
0
LINE
8
Black
10
131.08
20
-72.7721
11
131.492
21
-72.6994
0
LINE
8
Black
10
131.492
20
-72.6994
11
131.904
21
-72.7721
0
LINE
8
Black
10
44.688
20
-72.7721
11
45.0503
21
-72.9812
0
LINE
8
Black
10
45.0503
20
-72.9812
11
45.3192
21
-73.3017
0
LINE
8
Black
10
45.3192
20
-73.3017
11
45.4623
21
-73.6948
0
LINE
8
Black
10
45.4623
20
-73.6948
11
45.4623
21
-74.1132
0
LINE
8
Black
10
45.4623
20
-74.1132
11
45.3192
21
-74.5063
0
LINE
8
Black
10
45.3192
20
-74.5063
11
45.0503
21
-74.8268
0
LINE
8
Black
10
45.0503
20
-74.8268
11
44.688
21
-75.0359
0
LINE
8
Black
10
44.688
20
-75.0359
11
44.276
21
-75.1086
0
LINE
8
Black
10
44.276
20
-75.1086
11
43.864
21
-75.0359
0
LINE
8
Black
10
43.864
20
-75.0359
11
43.5017
21
-74.8268
0
LINE
8
Black
10
43.5017
20
-74.8268
11
43.2328
21
-74.5063
0
LINE
8
Black
10
43.2328
20
-74.5063
11
43.0897
21
-74.1132
0
LINE
8
Black
10
43.0897
20
-74.1132
11
43.0897
21
-73.6948
0
LINE
8
Black
10
43.0897
20
-73.6948
11
43.2328
21
-73.3017
0
LINE
8
Black
10
43.2328
20
-73.3017
11
43.5017
21
-72.9812
0
LINE
8
Black
10
43.5017
20
-72.9812
11
43.864
21
-72.7721
0
LINE
8
Black
10
43.864
20
-72.7721
11
44.276
21
-72.6994
0
LINE
8
Black
10
44.276
20
-72.6994
11
44.688
21
-72.7721
0
LINE
8
Black
10
54.688
20
-72.7721
11
55.0503
21
-72.9812
0
LINE
8
Black
10
55.0503
20
-72.9812
11
55.3192
21
-73.3017
0
LINE
8
Black
10
55.3192
20
-73.3017
11
55.4623
21
-73.6948
0
LINE
8
Black
10
55.4623
20
-73.6948
11
55.4623
21
-74.1132
0
LINE
8
Black
10
55.4623
20
-74.1132
11
55.3192
21
-74.5063
0
LINE
8
Black
10
55.3192
20
-74.5063
11
55.0503
21
-74.8268
0
LINE
8
Black
10
55.0503
20
-74.8268
11
54.688
21
-75.0359
0
LINE
8
Black
10
54.688
20
-75.0359
11
54.276
21
-75.1086
0
LINE
8
Black
10
54.276
20
-75.1086
11
53.864
21
-75.0359
0
LINE
8
Black
10
53.864
20
-75.0359
11
53.5017
21
-74.8268
0
LINE
8
Black
10
53.5017
20
-74.8268
11
53.2328
21
-74.5063
0
LINE
8
Black
10
53.2328
20
-74.5063
11
53.0897
21
-74.1132
0
LINE
8
Black
10
53.0897
20
-74.1132
11
53.0897
21
-73.6948
0
LINE
8
Black
10
53.0897
20
-73.6948
11
53.2328
21
-73.3017
0
LINE
8
Black
10
53.2328
20
-73.3017
11
53.5017
21
-72.9812
0
LINE
8
Black
10
53.5017
20
-72.9812
11
53.864
21
-72.7721
0
LINE
8
Black
10
53.864
20
-72.7721
11
54.276
21
-72.6994
0
LINE
8
Black
10
54.276
20
-72.6994
11
54.688
21
-72.7721
0
LINE
8
Black
10
121.904
20
-72.7721
11
122.266
21
-72.9812
0
LINE
8
Black
10
122.266
20
-72.9812
11
122.535
21
-73.3017
0
LINE
8
Black
10
122.535
20
-73.3017
11
122.678
21
-73.6948
0
LINE
8
Black
10
122.678
20
-73.6948
11
122.678
21
-74.1132
0
LINE
8
Black
10
122.678
20
-74.1132
11
122.535
21
-74.5063
0
LINE
8
Black
10
122.535
20
-74.5063
11
122.266
21
-74.8268
0
LINE
8
Black
10
122.266
20
-74.8268
11
121.904
21
-75.0359
0
LINE
8
Black
10
121.904
20
-75.0359
11
121.492
21
-75.1086
0
LINE
8
Black
10
121.492
20
-75.1086
11
121.08
21
-75.0359
0
LINE
8
Black
10
121.08
20
-75.0359
11
120.718
21
-74.8268
0
LINE
8
Black
10
120.718
20
-74.8268
11
120.449
21
-74.5063
0
LINE
8
Black
10
120.449
20
-74.5063
11
120.306
21
-74.1132
0
LINE
8
Black
10
120.306
20
-74.1132
11
120.306
21
-73.6948
0
LINE
8
Black
10
120.306
20
-73.6948
11
120.449
21
-73.3017
0
LINE
8
Black
10
120.449
20
-73.3017
11
120.718
21
-72.9812
0
LINE
8
Black
10
120.718
20
-72.9812
11
121.08
21
-72.7721
0
LINE
8
Black
10
121.08
20
-72.7721
11
121.492
21
-72.6994
0
LINE
8
Black
10
121.492
20
-72.6994
11
121.904
21
-72.7721
0
LINE
8
Black
10
35.384
20
-72.7721
11
35.7463
21
-72.9812
0
LINE
8
Black
10
35.7463
20
-72.9812
11
36.0152
21
-73.3017
0
LINE
8
Black
10
36.0152
20
-73.3017
11
36.1583
21
-73.6948
0
LINE
8
Black
10
36.1583
20
-73.6948
11
36.1583
21
-74.1132
0
LINE
8
Black
10
36.1583
20
-74.1132
11
36.0152
21
-74.5063
0
LINE
8
Black
10
36.0152
20
-74.5063
11
35.7463
21
-74.8268
0
LINE
8
Black
10
35.7463
20
-74.8268
11
35.384
21
-75.0359
0
LINE
8
Black
10
35.384
20
-75.0359
11
34.972
21
-75.1086
0
LINE
8
Black
10
34.972
20
-75.1086
11
34.56
21
-75.0359
0
LINE
8
Black
10
34.56
20
-75.0359
11
34.1977
21
-74.8268
0
LINE
8
Black
10
34.1977
20
-74.8268
11
33.9288
21
-74.5063
0
LINE
8
Black
10
33.9288
20
-74.5063
11
33.7857
21
-74.1132
0
LINE
8
Black
10
33.7857
20
-74.1132
11
33.7857
21
-73.6948
0
LINE
8
Black
10
33.7857
20
-73.6948
11
33.9288
21
-73.3017
0
LINE
8
Black
10
33.9288
20
-73.3017
11
34.1977
21
-72.9812
0
LINE
8
Black
10
34.1977
20
-72.9812
11
34.56
21
-72.7721
0
LINE
8
Black
10
34.56
20
-72.7721
11
34.972
21
-72.6994
0
LINE
8
Black
10
34.972
20
-72.6994
11
35.384
21
-72.7721
0
LINE
8
Black
10
137.169
20
-74.9395
11
135.118
21
-74.9395
0
LINE
8
Black
10
135.118
20
-74.9395
11
135.118
21
-72.8885
0
LINE
8
Black
10
135.118
20
-72.8885
11
137.169
21
-72.8885
0
LINE
8
Black
10
137.169
20
-72.8885
11
137.169
21
-74.9395
0
LINE
8
Black
10
79.2575
20
-74.9395
11
77.2065
21
-74.9395
0
LINE
8
Black
10
77.2065
20
-74.9395
11
77.2065
21
-72.8885
0
LINE
8
Black
10
77.2065
20
-72.8885
11
79.2575
21
-72.8885
0
LINE
8
Black
10
79.2575
20
-72.8885
11
79.2575
21
-74.9395
0
LINE
8
Black
10
117.865
20
-74.9395
11
115.814
21
-74.9395
0
LINE
8
Black
10
115.814
20
-74.9395
11
115.814
21
-72.8885
0
LINE
8
Black
10
115.814
20
-72.8885
11
117.865
21
-72.8885
0
LINE
8
Black
10
117.865
20
-72.8885
11
117.865
21
-74.9395
0
LINE
8
Black
10
59.9535
20
-74.9395
11
57.9025
21
-74.9395
0
LINE
8
Black
10
57.9025
20
-74.9395
11
57.9025
21
-72.8885
0
LINE
8
Black
10
57.9025
20
-72.8885
11
59.9535
21
-72.8885
0
LINE
8
Black
10
59.9535
20
-72.8885
11
59.9535
21
-74.9395
0
LINE
8
Black
10
98.5615
20
-74.9395
11
96.5105
21
-74.9395
0
LINE
8
Black
10
96.5105
20
-74.9395
11
96.5105
21
-72.8885
0
LINE
8
Black
10
96.5105
20
-72.8885
11
98.5615
21
-72.8885
0
LINE
8
Black
10
98.5615
20
-72.8885
11
98.5615
21
-74.9395
0
LINE
8
Black
10
40.6495
20
-74.9395
11
38.5985
21
-74.9395
0
LINE
8
Black
10
38.5985
20
-74.9395
11
38.5985
21
-72.8885
0
LINE
8
Black
10
38.5985
20
-72.8885
11
40.6495
21
-72.8885
0
LINE
8
Black
10
40.6495
20
-72.8885
11
40.6495
21
-74.9395
0
LINE
8
Black
10
39.9761
20
-65.3267
11
40.2857
21
-65.5054
0
LINE
8
Black
10
40.2857
20
-65.5054
11
40.5155
21
-65.7793
0
LINE
8
Black
10
40.5155
20
-65.7793
11
40.6378
21
-66.1152
0
LINE
8
Black
10
40.6378
20
-66.1152
11
40.6378
21
-66.4728
0
LINE
8
Black
10
40.6378
20
-66.4728
11
40.5155
21
-66.8087
0
LINE
8
Black
10
40.5155
20
-66.8087
11
40.2857
21
-67.0826
0
LINE
8
Black
10
40.2857
20
-67.0826
11
39.9761
21
-67.2613
0
LINE
8
Black
10
39.9761
20
-67.2613
11
39.624
21
-67.3234
0
LINE
8
Black
10
39.624
20
-67.3234
11
39.2719
21
-67.2613
0
LINE
8
Black
10
39.2719
20
-67.2613
11
38.9623
21
-67.0826
0
LINE
8
Black
10
38.9623
20
-67.0826
11
38.7325
21
-66.8087
0
LINE
8
Black
10
38.7325
20
-66.8087
11
38.6102
21
-66.4728
0
LINE
8
Black
10
38.6102
20
-66.4728
11
38.6102
21
-66.1152
0
LINE
8
Black
10
38.6102
20
-66.1152
11
38.7325
21
-65.7793
0
LINE
8
Black
10
38.7325
20
-65.7793
11
38.9623
21
-65.5054
0
LINE
8
Black
10
38.9623
20
-65.5054
11
39.2719
21
-65.3267
0
LINE
8
Black
10
39.2719
20
-65.3267
11
39.624
21
-65.2646
0
LINE
8
Black
10
39.624
20
-65.2646
11
39.9761
21
-65.3267
0
LINE
8
Black
10
136.496
20
-65.3267
11
136.806
21
-65.5054
0
LINE
8
Black
10
136.806
20
-65.5054
11
137.036
21
-65.7793
0
LINE
8
Black
10
137.036
20
-65.7793
11
137.158
21
-66.1152
0
LINE
8
Black
10
137.158
20
-66.1152
11
137.158
21
-66.4728
0
LINE
8
Black
10
137.158
20
-66.4728
11
137.036
21
-66.8087
0
LINE
8
Black
10
137.036
20
-66.8087
11
136.806
21
-67.0826
0
LINE
8
Black
10
136.806
20
-67.0826
11
136.496
21
-67.2613
0
LINE
8
Black
10
136.496
20
-67.2613
11
136.144
21
-67.3234
0
LINE
8
Black
10
136.144
20
-67.3234
11
135.792
21
-67.2613
0
LINE
8
Black
10
135.792
20
-67.2613
11
135.482
21
-67.0826
0
LINE
8
Black
10
135.482
20
-67.0826
11
135.252
21
-66.8087
0
LINE
8
Black
10
135.252
20
-66.8087
11
135.13
21
-66.4728
0
LINE
8
Black
10
135.13
20
-66.4728
11
135.13
21
-66.1152
0
LINE
8
Black
10
135.13
20
-66.1152
11
135.252
21
-65.7793
0
LINE
8
Black
10
135.252
20
-65.7793
11
135.482
21
-65.5054
0
LINE
8
Black
10
135.482
20
-65.5054
11
135.792
21
-65.3267
0
LINE
8
Black
10
135.792
20
-65.3267
11
136.144
21
-65.2646
0
LINE
8
Black
10
136.144
20
-65.2646
11
136.496
21
-65.3267
0
LINE
8
Black
10
117.192
20
-65.3267
11
117.502
21
-65.5054
0
LINE
8
Black
10
117.502
20
-65.5054
11
117.732
21
-65.7793
0
LINE
8
Black
10
117.732
20
-65.7793
11
117.854
21
-66.1152
0
LINE
8
Black
10
117.854
20
-66.1152
11
117.854
21
-66.4728
0
LINE
8
Black
10
117.854
20
-66.4728
11
117.732
21
-66.8087
0
LINE
8
Black
10
117.732
20
-66.8087
11
117.502
21
-67.0826
0
LINE
8
Black
10
117.502
20
-67.0826
11
117.192
21
-67.2613
0
LINE
8
Black
10
117.192
20
-67.2613
11
116.84
21
-67.3234
0
LINE
8
Black
10
116.84
20
-67.3234
11
116.488
21
-67.2613
0
LINE
8
Black
10
116.488
20
-67.2613
11
116.178
21
-67.0826
0
LINE
8
Black
10
116.178
20
-67.0826
11
115.948
21
-66.8087
0
LINE
8
Black
10
115.948
20
-66.8087
11
115.826
21
-66.4728
0
LINE
8
Black
10
115.826
20
-66.4728
11
115.826
21
-66.1152
0
LINE
8
Black
10
115.826
20
-66.1152
11
115.948
21
-65.7793
0
LINE
8
Black
10
115.948
20
-65.7793
11
116.178
21
-65.5054
0
LINE
8
Black
10
116.178
20
-65.5054
11
116.488
21
-65.3267
0
LINE
8
Black
10
116.488
20
-65.3267
11
116.84
21
-65.2646
0
LINE
8
Black
10
116.84
20
-65.2646
11
117.192
21
-65.3267
0
LINE
8
Black
10
97.8881
20
-65.3267
11
98.1977
21
-65.5054
0
LINE
8
Black
10
98.1977
20
-65.5054
11
98.4275
21
-65.7793
0
LINE
8
Black
10
98.4275
20
-65.7793
11
98.5498
21
-66.1152
0
LINE
8
Black
10
98.5498
20
-66.1152
11
98.5498
21
-66.4728
0
LINE
8
Black
10
98.5498
20
-66.4728
11
98.4275
21
-66.8087
0
LINE
8
Black
10
98.4275
20
-66.8087
11
98.1977
21
-67.0826
0
LINE
8
Black
10
98.1977
20
-67.0826
11
97.8881
21
-67.2613
0
LINE
8
Black
10
97.8881
20
-67.2613
11
97.536
21
-67.3234
0
LINE
8
Black
10
97.536
20
-67.3234
11
97.1839
21
-67.2613
0
LINE
8
Black
10
97.1839
20
-67.2613
11
96.8743
21
-67.0826
0
LINE
8
Black
10
96.8743
20
-67.0826
11
96.6445
21
-66.8087
0
LINE
8
Black
10
96.6445
20
-66.8087
11
96.5222
21
-66.4728
0
LINE
8
Black
10
96.5222
20
-66.4728
11
96.5222
21
-66.1152
0
LINE
8
Black
10
96.5222
20
-66.1152
11
96.6445
21
-65.7793
0
LINE
8
Black
10
96.6445
20
-65.7793
11
96.8743
21
-65.5054
0
LINE
8
Black
10
96.8743
20
-65.5054
11
97.1839
21
-65.3267
0
LINE
8
Black
10
97.1839
20
-65.3267
11
97.536
21
-65.2646
0
LINE
8
Black
10
97.536
20
-65.2646
11
97.8881
21
-65.3267
0
LINE
8
Black
10
78.5841
20
-65.3267
11
78.8937
21
-65.5054
0
LINE
8
Black
10
78.8937
20
-65.5054
11
79.1235
21
-65.7793
0
LINE
8
Black
10
79.1235
20
-65.7793
11
79.2458
21
-66.1152
0
LINE
8
Black
10
79.2458
20
-66.1152
11
79.2458
21
-66.4728
0
LINE
8
Black
10
79.2458
20
-66.4728
11
79.1235
21
-66.8087
0
LINE
8
Black
10
79.1235
20
-66.8087
11
78.8937
21
-67.0826
0
LINE
8
Black
10
78.8937
20
-67.0826
11
78.5841
21
-67.2613
0
LINE
8
Black
10
78.5841
20
-67.2613
11
78.232
21
-67.3234
0
LINE
8
Black
10
78.232
20
-67.3234
11
77.8799
21
-67.2613
0
LINE
8
Black
10
77.8799
20
-67.2613
11
77.5703
21
-67.0826
0
LINE
8
Black
10
77.5703
20
-67.0826
11
77.3405
21
-66.8087
0
LINE
8
Black
10
77.3405
20
-66.8087
11
77.2182
21
-66.4728
0
LINE
8
Black
10
77.2182
20
-66.4728
11
77.2182
21
-66.1152
0
LINE
8
Black
10
77.2182
20
-66.1152
11
77.3405
21
-65.7793
0
LINE
8
Black
10
77.3405
20
-65.7793
11
77.5703
21
-65.5054
0
LINE
8
Black
10
77.5703
20
-65.5054
11
77.8799
21
-65.3267
0
LINE
8
Black
10
77.8799
20
-65.3267
11
78.232
21
-65.2646
0
LINE
8
Black
10
78.232
20
-65.2646
11
78.5841
21
-65.3267
0
LINE
8
Black
10
59.2801
20
-65.3267
11
59.5897
21
-65.5054
0
LINE
8
Black
10
59.5897
20
-65.5054
11
59.8195
21
-65.7793
0
LINE
8
Black
10
59.8195
20
-65.7793
11
59.9418
21
-66.1152
0
LINE
8
Black
10
59.9418
20
-66.1152
11
59.9418
21
-66.4728
0
LINE
8
Black
10
59.9418
20
-66.4728
11
59.8195
21
-66.8087
0
LINE
8
Black
10
59.8195
20
-66.8087
11
59.5897
21
-67.0826
0
LINE
8
Black
10
59.5897
20
-67.0826
11
59.2801
21
-67.2613
0
LINE
8
Black
10
59.2801
20
-67.2613
11
58.928
21
-67.3234
0
LINE
8
Black
10
58.928
20
-67.3234
11
58.5759
21
-67.2613
0
LINE
8
Black
10
58.5759
20
-67.2613
11
58.2663
21
-67.0826
0
LINE
8
Black
10
58.2663
20
-67.0826
11
58.0365
21
-66.8087
0
LINE
8
Black
10
58.0365
20
-66.8087
11
57.9142
21
-66.4728
0
LINE
8
Black
10
57.9142
20
-66.4728
11
57.9142
21
-66.1152
0
LINE
8
Black
10
57.9142
20
-66.1152
11
58.0365
21
-65.7793
0
LINE
8
Black
10
58.0365
20
-65.7793
11
58.2663
21
-65.5054
0
LINE
8
Black
10
58.2663
20
-65.5054
11
58.5759
21
-65.3267
0
LINE
8
Black
10
58.5759
20
-65.3267
11
58.928
21
-65.2646
0
LINE
8
Black
10
58.928
20
-65.2646
11
59.2801
21
-65.3267
0
LINE
8
Black
10
108.854
20
-64.2169
11
109.202
21
-64.4178
0
LINE
8
Black
10
109.202
20
-64.4178
11
109.46
21
-64.7255
0
LINE
8
Black
10
109.46
20
-64.7255
11
109.597
21
-65.1031
0
LINE
8
Black
10
109.597
20
-65.1031
11
109.597
21
-65.5049
0
LINE
8
Black
10
109.597
20
-65.5049
11
109.46
21
-65.8825
0
LINE
8
Black
10
109.46
20
-65.8825
11
109.202
21
-66.1902
0
LINE
8
Black
10
109.202
20
-66.1902
11
108.854
21
-66.3911
0
LINE
8
Black
10
108.854
20
-66.3911
11
108.458
21
-66.4609
0
LINE
8
Black
10
108.458
20
-66.4609
11
108.062
21
-66.3911
0
LINE
8
Black
10
108.062
20
-66.3911
11
107.714
21
-66.1902
0
LINE
8
Black
10
107.714
20
-66.1902
11
107.456
21
-65.8825
0
LINE
8
Black
10
107.456
20
-65.8825
11
107.319
21
-65.5049
0
LINE
8
Black
10
107.319
20
-65.5049
11
107.319
21
-65.1031
0
LINE
8
Black
10
107.319
20
-65.1031
11
107.456
21
-64.7255
0
LINE
8
Black
10
107.456
20
-64.7255
11
107.714
21
-64.4178
0
LINE
8
Black
10
107.714
20
-64.4178
11
108.062
21
-64.2169
0
LINE
8
Black
10
108.062
20
-64.2169
11
108.458
21
-64.1471
0
LINE
8
Black
10
108.458
20
-64.1471
11
108.854
21
-64.2169
0
LINE
8
Black
10
128.158
20
-64.2169
11
128.506
21
-64.4178
0
LINE
8
Black
10
128.506
20
-64.4178
11
128.764
21
-64.7255
0
LINE
8
Black
10
128.764
20
-64.7255
11
128.901
21
-65.1031
0
LINE
8
Black
10
128.901
20
-65.1031
11
128.901
21
-65.5049
0
LINE
8
Black
10
128.901
20
-65.5049
11
128.764
21
-65.8825
0
LINE
8
Black
10
128.764
20
-65.8825
11
128.506
21
-66.1902
0
LINE
8
Black
10
128.506
20
-66.1902
11
128.158
21
-66.3911
0
LINE
8
Black
10
128.158
20
-66.3911
11
127.762
21
-66.4609
0
LINE
8
Black
10
127.762
20
-66.4609
11
127.366
21
-66.3911
0
LINE
8
Black
10
127.366
20
-66.3911
11
127.018
21
-66.1902
0
LINE
8
Black
10
127.018
20
-66.1902
11
126.76
21
-65.8825
0
LINE
8
Black
10
126.76
20
-65.8825
11
126.623
21
-65.5049
0
LINE
8
Black
10
126.623
20
-65.5049
11
126.623
21
-65.1031
0
LINE
8
Black
10
126.623
20
-65.1031
11
126.76
21
-64.7255
0
LINE
8
Black
10
126.76
20
-64.7255
11
127.018
21
-64.4178
0
LINE
8
Black
10
127.018
20
-64.4178
11
127.366
21
-64.2169
0
LINE
8
Black
10
127.366
20
-64.2169
11
127.762
21
-64.1471
0
LINE
8
Black
10
127.762
20
-64.1471
11
128.158
21
-64.2169
0
LINE
8
Black
10
50.9417
20
-64.2169
11
51.2896
21
-64.4178
0
LINE
8
Black
10
51.2896
20
-64.4178
11
51.5479
21
-64.7255
0
LINE
8
Black
10
51.5479
20
-64.7255
11
51.6853
21
-65.1031
0
LINE
8
Black
10
51.6853
20
-65.1031
11
51.6853
21
-65.5049
0
LINE
8
Black
10
51.6853
20
-65.5049
11
51.5479
21
-65.8825
0
LINE
8
Black
10
51.5479
20
-65.8825
11
51.2896
21
-66.1902
0
LINE
8
Black
10
51.2896
20
-66.1902
11
50.9417
21
-66.3911
0
LINE
8
Black
10
50.9417
20
-66.3911
11
50.546
21
-66.4609
0
LINE
8
Black
10
50.546
20
-66.4609
11
50.1503
21
-66.3911
0
LINE
8
Black
10
50.1503
20
-66.3911
11
49.8024
21
-66.1902
0
LINE
8
Black
10
49.8024
20
-66.1902
11
49.5441
21
-65.8825
0
LINE
8
Black
10
49.5441
20
-65.8825
11
49.4067
21
-65.5049
0
LINE
8
Black
10
49.4067
20
-65.5049
11
49.4067
21
-65.1031
0
LINE
8
Black
10
49.4067
20
-65.1031
11
49.5441
21
-64.7255
0
LINE
8
Black
10
49.5441
20
-64.7255
11
49.8024
21
-64.4178
0
LINE
8
Black
10
49.8024
20
-64.4178
11
50.1503
21
-64.2169
0
LINE
8
Black
10
50.1503
20
-64.2169
11
50.546
21
-64.1471
0
LINE
8
Black
10
50.546
20
-64.1471
11
50.9417
21
-64.2169
0
LINE
8
Black
10
70.2457
20
-64.2169
11
70.5936
21
-64.4178
0
LINE
8
Black
10
70.5936
20
-64.4178
11
70.8519
21
-64.7255
0
LINE
8
Black
10
70.8519
20
-64.7255
11
70.9893
21
-65.1031
0
LINE
8
Black
10
70.9893
20
-65.1031
11
70.9893
21
-65.5049
0
LINE
8
Black
10
70.9893
20
-65.5049
11
70.8519
21
-65.8825
0
LINE
8
Black
10
70.8519
20
-65.8825
11
70.5936
21
-66.1902
0
LINE
8
Black
10
70.5936
20
-66.1902
11
70.2457
21
-66.3911
0
LINE
8
Black
10
70.2457
20
-66.3911
11
69.85
21
-66.4609
0
LINE
8
Black
10
69.85
20
-66.4609
11
69.4543
21
-66.3911
0
LINE
8
Black
10
69.4543
20
-66.3911
11
69.1064
21
-66.1902
0
LINE
8
Black
10
69.1064
20
-66.1902
11
68.8481
21
-65.8825
0
LINE
8
Black
10
68.8481
20
-65.8825
11
68.7107
21
-65.5049
0
LINE
8
Black
10
68.7107
20
-65.5049
11
68.7107
21
-65.1031
0
LINE
8
Black
10
68.7107
20
-65.1031
11
68.8481
21
-64.7255
0
LINE
8
Black
10
68.8481
20
-64.7255
11
69.1064
21
-64.4178
0
LINE
8
Black
10
69.1064
20
-64.4178
11
69.4543
21
-64.2169
0
LINE
8
Black
10
69.4543
20
-64.2169
11
69.85
21
-64.1471
0
LINE
8
Black
10
69.85
20
-64.1471
11
70.2457
21
-64.2169
0
LINE
8
Black
10
31.6377
20
-64.2169
11
31.9856
21
-64.4178
0
LINE
8
Black
10
31.9856
20
-64.4178
11
32.2439
21
-64.7255
0
LINE
8
Black
10
32.2439
20
-64.7255
11
32.3813
21
-65.1031
0
LINE
8
Black
10
32.3813
20
-65.1031
11
32.3813
21
-65.5049
0
LINE
8
Black
10
32.3813
20
-65.5049
11
32.2439
21
-65.8825
0
LINE
8
Black
10
32.2439
20
-65.8825
11
31.9856
21
-66.1902
0
LINE
8
Black
10
31.9856
20
-66.1902
11
31.6377
21
-66.3911
0
LINE
8
Black
10
31.6377
20
-66.3911
11
31.242
21
-66.4609
0
LINE
8
Black
10
31.242
20
-66.4609
11
30.8463
21
-66.3911
0
LINE
8
Black
10
30.8463
20
-66.3911
11
30.4984
21
-66.1902
0
LINE
8
Black
10
30.4984
20
-66.1902
11
30.2401
21
-65.8825
0
LINE
8
Black
10
30.2401
20
-65.8825
11
30.1027
21
-65.5049
0
LINE
8
Black
10
30.1027
20
-65.5049
11
30.1027
21
-65.1031
0
LINE
8
Black
10
30.1027
20
-65.1031
11
30.2401
21
-64.7255
0
LINE
8
Black
10
30.2401
20
-64.7255
11
30.4984
21
-64.4178
0
LINE
8
Black
10
30.4984
20
-64.4178
11
30.8463
21
-64.2169
0
LINE
8
Black
10
30.8463
20
-64.2169
11
31.242
21
-64.1471
0
LINE
8
Black
10
31.242
20
-64.1471
11
31.6377
21
-64.2169
0
LINE
8
Black
10
89.5497
20
-64.2169
11
89.8976
21
-64.4178
0
LINE
8
Black
10
89.8976
20
-64.4178
11
90.1559
21
-64.7255
0
LINE
8
Black
10
90.1559
20
-64.7255
11
90.2933
21
-65.1031
0
LINE
8
Black
10
90.2933
20
-65.1031
11
90.2933
21
-65.5049
0
LINE
8
Black
10
90.2933
20
-65.5049
11
90.1559
21
-65.8825
0
LINE
8
Black
10
90.1559
20
-65.8825
11
89.8976
21
-66.1902
0
LINE
8
Black
10
89.8976
20
-66.1902
11
89.5497
21
-66.3911
0
LINE
8
Black
10
89.5497
20
-66.3911
11
89.154
21
-66.4609
0
LINE
8
Black
10
89.154
20
-66.4609
11
88.7583
21
-66.3911
0
LINE
8
Black
10
88.7583
20
-66.3911
11
88.4104
21
-66.1902
0
LINE
8
Black
10
88.4104
20
-66.1902
11
88.1521
21
-65.8825
0
LINE
8
Black
10
88.1521
20
-65.8825
11
88.0147
21
-65.5049
0
LINE
8
Black
10
88.0147
20
-65.5049
11
88.0147
21
-65.1031
0
LINE
8
Black
10
88.0147
20
-65.1031
11
88.1521
21
-64.7255
0
LINE
8
Black
10
88.1521
20
-64.7255
11
88.4104
21
-64.4178
0
LINE
8
Black
10
88.4104
20
-64.4178
11
88.7583
21
-64.2169
0
LINE
8
Black
10
88.7583
20
-64.2169
11
89.154
21
-64.1471
0
LINE
8
Black
10
89.154
20
-64.1471
11
89.5497
21
-64.2169
0
LINE
8
Black
10
107.07
20
-66.4565
11
104.765
21
-66.4565
0
LINE
8
Black
10
104.765
20
-66.4565
11
104.765
21
-64.1515
0
LINE
8
Black
10
104.765
20
-64.1515
11
107.07
21
-64.1515
0
LINE
8
Black
10
107.07
20
-64.1515
11
107.07
21
-66.4565
0
LINE
8
Black
10
126.374
20
-66.4565
11
124.069
21
-66.4565
0
LINE
8
Black
10
124.069
20
-66.4565
11
124.069
21
-64.1515
0
LINE
8
Black
10
124.069
20
-64.1515
11
126.374
21
-64.1515
0
LINE
8
Black
10
126.374
20
-64.1515
11
126.374
21
-66.4565
0
LINE
8
Black
10
87.7665
20
-66.4565
11
85.4615
21
-66.4565
0
LINE
8
Black
10
85.4615
20
-66.4565
11
85.4615
21
-64.1515
0
LINE
8
Black
10
85.4615
20
-64.1515
11
87.7665
21
-64.1515
0
LINE
8
Black
10
87.7665
20
-64.1515
11
87.7665
21
-66.4565
0
LINE
8
Black
10
49.1585
20
-66.4565
11
46.8535
21
-66.4565
0
LINE
8
Black
10
46.8535
20
-66.4565
11
46.8535
21
-64.1515
0
LINE
8
Black
10
46.8535
20
-64.1515
11
49.1585
21
-64.1515
0
LINE
8
Black
10
49.1585
20
-64.1515
11
49.1585
21
-66.4565
0
LINE
8
Black
10
68.4625
20
-66.4565
11
66.1575
21
-66.4565
0
LINE
8
Black
10
66.1575
20
-66.4565
11
66.1575
21
-64.1515
0
LINE
8
Black
10
66.1575
20
-64.1515
11
68.4625
21
-64.1515
0
LINE
8
Black
10
68.4625
20
-64.1515
11
68.4625
21
-66.4565
0
LINE
8
Black
10
29.8545
20
-66.4565
11
27.5495
21
-66.4565
0
LINE
8
Black
10
27.5495
20
-66.4565
11
27.5495
21
-64.1515
0
LINE
8
Black
10
27.5495
20
-64.1515
11
29.8545
21
-64.1515
0
LINE
8
Black
10
29.8545
20
-64.1515
11
29.8545
21
-66.4565
0
LINE
8
Black
10
79.3993
20
-57.7528
11
80.4258
21
-58.3455
0
LINE
8
Black
10
80.4258
20
-58.3455
11
81.1877
21
-59.2535
0
LINE
8
Black
10
81.1877
20
-59.2535
11
81.5931
21
-60.3673
0
LINE
8
Black
10
81.5931
20
-60.3673
11
81.5931
21
-61.5527
0
LINE
8
Black
10
81.5931
20
-61.5527
11
81.1877
21
-62.6665
0
LINE
8
Black
10
81.1877
20
-62.6665
11
80.4258
21
-63.5745
0
LINE
8
Black
10
80.4258
20
-63.5745
11
79.3993
21
-64.1672
0
LINE
8
Black
10
79.3993
20
-64.1672
11
78.232
21
-64.373
0
LINE
8
Black
10
78.232
20
-64.373
11
77.0647
21
-64.1672
0
LINE
8
Black
10
77.0647
20
-64.1672
11
76.0382
21
-63.5745
0
LINE
8
Black
10
76.0382
20
-63.5745
11
75.2763
21
-62.6665
0
LINE
8
Black
10
75.2763
20
-62.6665
11
74.8709
21
-61.5527
0
LINE
8
Black
10
74.8709
20
-61.5527
11
74.8709
21
-60.3673
0
LINE
8
Black
10
74.8709
20
-60.3673
11
75.2763
21
-59.2535
0
LINE
8
Black
10
75.2763
20
-59.2535
11
76.0382
21
-58.3455
0
LINE
8
Black
10
76.0382
20
-58.3455
11
77.0647
21
-57.7528
0
LINE
8
Black
10
77.0647
20
-57.7528
11
78.232
21
-57.547
0
LINE
8
Black
10
78.232
20
-57.547
11
79.3993
21
-57.7528
0
LINE
8
Black
10
40.7913
20
-57.7528
11
41.8178
21
-58.3455
0
LINE
8
Black
10
41.8178
20
-58.3455
11
42.5797
21
-59.2535
0
LINE
8
Black
10
42.5797
20
-59.2535
11
42.9851
21
-60.3673
0
LINE
8
Black
10
42.9851
20
-60.3673
11
42.9851
21
-61.5527
0
LINE
8
Black
10
42.9851
20
-61.5527
11
42.5797
21
-62.6665
0
LINE
8
Black
10
42.5797
20
-62.6665
11
41.8178
21
-63.5745
0
LINE
8
Black
10
41.8178
20
-63.5745
11
40.7913
21
-64.1672
0
LINE
8
Black
10
40.7913
20
-64.1672
11
39.624
21
-64.373
0
LINE
8
Black
10
39.624
20
-64.373
11
38.4567
21
-64.1672
0
LINE
8
Black
10
38.4567
20
-64.1672
11
37.4302
21
-63.5745
0
LINE
8
Black
10
37.4302
20
-63.5745
11
36.6683
21
-62.6665
0
LINE
8
Black
10
36.6683
20
-62.6665
11
36.2629
21
-61.5527
0
LINE
8
Black
10
36.2629
20
-61.5527
11
36.2629
21
-60.3673
0
LINE
8
Black
10
36.2629
20
-60.3673
11
36.6683
21
-59.2535
0
LINE
8
Black
10
36.6683
20
-59.2535
11
37.4302
21
-58.3455
0
LINE
8
Black
10
37.4302
20
-58.3455
11
38.4567
21
-57.7528
0
LINE
8
Black
10
38.4567
20
-57.7528
11
39.624
21
-57.547
0
LINE
8
Black
10
39.624
20
-57.547
11
40.7913
21
-57.7528
0
LINE
8
Black
10
118.007
20
-57.7528
11
119.034
21
-58.3455
0
LINE
8
Black
10
119.034
20
-58.3455
11
119.796
21
-59.2535
0
LINE
8
Black
10
119.796
20
-59.2535
11
120.201
21
-60.3673
0
LINE
8
Black
10
120.201
20
-60.3673
11
120.201
21
-61.5527
0
LINE
8
Black
10
120.201
20
-61.5527
11
119.796
21
-62.6665
0
LINE
8
Black
10
119.796
20
-62.6665
11
119.034
21
-63.5745
0
LINE
8
Black
10
119.034
20
-63.5745
11
118.007
21
-64.1672
0
LINE
8
Black
10
118.007
20
-64.1672
11
116.84
21
-64.373
0
LINE
8
Black
10
116.84
20
-64.373
11
115.673
21
-64.1672
0
LINE
8
Black
10
115.673
20
-64.1672
11
114.646
21
-63.5745
0
LINE
8
Black
10
114.646
20
-63.5745
11
113.884
21
-62.6665
0
LINE
8
Black
10
113.884
20
-62.6665
11
113.479
21
-61.5527
0
LINE
8
Black
10
113.479
20
-61.5527
11
113.479
21
-60.3673
0
LINE
8
Black
10
113.479
20
-60.3673
11
113.884
21
-59.2535
0
LINE
8
Black
10
113.884
20
-59.2535
11
114.646
21
-58.3455
0
LINE
8
Black
10
114.646
20
-58.3455
11
115.673
21
-57.7528
0
LINE
8
Black
10
115.673
20
-57.7528
11
116.84
21
-57.547
0
LINE
8
Black
10
116.84
20
-57.547
11
118.007
21
-57.7528
0
LINE
8
Black
10
30.384
20
-56.5841
11
30.7463
21
-56.7932
0
LINE
8
Black
10
30.7463
20
-56.7932
11
31.0152
21
-57.1137
0
LINE
8
Black
10
31.0152
20
-57.1137
11
31.1583
21
-57.5068
0
LINE
8
Black
10
31.1583
20
-57.5068
11
31.1583
21
-57.9252
0
LINE
8
Black
10
31.1583
20
-57.9252
11
31.0152
21
-58.3183
0
LINE
8
Black
10
31.0152
20
-58.3183
11
30.7463
21
-58.6388
0
LINE
8
Black
10
30.7463
20
-58.6388
11
30.384
21
-58.8479
0
LINE
8
Black
10
30.384
20
-58.8479
11
29.972
21
-58.9206
0
LINE
8
Black
10
29.972
20
-58.9206
11
29.56
21
-58.8479
0
LINE
8
Black
10
29.56
20
-58.8479
11
29.1977
21
-58.6388
0
LINE
8
Black
10
29.1977
20
-58.6388
11
28.9288
21
-58.3183
0
LINE
8
Black
10
28.9288
20
-58.3183
11
28.7857
21
-57.9252
0
LINE
8
Black
10
28.7857
20
-57.9252
11
28.7857
21
-57.5068
0
LINE
8
Black
10
28.7857
20
-57.5068
11
28.9288
21
-57.1137
0
LINE
8
Black
10
28.9288
20
-57.1137
11
29.1977
21
-56.7932
0
LINE
8
Black
10
29.1977
20
-56.7932
11
29.56
21
-56.5841
0
LINE
8
Black
10
29.56
20
-56.5841
11
29.972
21
-56.5114
0
LINE
8
Black
10
29.972
20
-56.5114
11
30.384
21
-56.5841
0
LINE
8
Black
10
49.688
20
-56.5841
11
50.0503
21
-56.7932
0
LINE
8
Black
10
50.0503
20
-56.7932
11
50.3192
21
-57.1137
0
LINE
8
Black
10
50.3192
20
-57.1137
11
50.4623
21
-57.5068
0
LINE
8
Black
10
50.4623
20
-57.5068
11
50.4623
21
-57.9252
0
LINE
8
Black
10
50.4623
20
-57.9252
11
50.3192
21
-58.3183
0
LINE
8
Black
10
50.3192
20
-58.3183
11
50.0503
21
-58.6388
0
LINE
8
Black
10
50.0503
20
-58.6388
11
49.688
21
-58.8479
0
LINE
8
Black
10
49.688
20
-58.8479
11
49.276
21
-58.9206
0
LINE
8
Black
10
49.276
20
-58.9206
11
48.864
21
-58.8479
0
LINE
8
Black
10
48.864
20
-58.8479
11
48.5017
21
-58.6388
0
LINE
8
Black
10
48.5017
20
-58.6388
11
48.2328
21
-58.3183
0
LINE
8
Black
10
48.2328
20
-58.3183
11
48.0897
21
-57.9252
0
LINE
8
Black
10
48.0897
20
-57.9252
11
48.0897
21
-57.5068
0
LINE
8
Black
10
48.0897
20
-57.5068
11
48.2328
21
-57.1137
0
LINE
8
Black
10
48.2328
20
-57.1137
11
48.5017
21
-56.7932
0
LINE
8
Black
10
48.5017
20
-56.7932
11
48.864
21
-56.5841
0
LINE
8
Black
10
48.864
20
-56.5841
11
49.276
21
-56.5114
0
LINE
8
Black
10
49.276
20
-56.5114
11
49.688
21
-56.5841
0
LINE
8
Black
10
126.904
20
-56.5841
11
127.266
21
-56.7932
0
LINE
8
Black
10
127.266
20
-56.7932
11
127.535
21
-57.1137
0
LINE
8
Black
10
127.535
20
-57.1137
11
127.678
21
-57.5068
0
LINE
8
Black
10
127.678
20
-57.5068
11
127.678
21
-57.9252
0
LINE
8
Black
10
127.678
20
-57.9252
11
127.535
21
-58.3183
0
LINE
8
Black
10
127.535
20
-58.3183
11
127.266
21
-58.6388
0
LINE
8
Black
10
127.266
20
-58.6388
11
126.904
21
-58.8479
0
LINE
8
Black
10
126.904
20
-58.8479
11
126.492
21
-58.9206
0
LINE
8
Black
10
126.492
20
-58.9206
11
126.08
21
-58.8479
0
LINE
8
Black
10
126.08
20
-58.8479
11
125.718
21
-58.6388
0
LINE
8
Black
10
125.718
20
-58.6388
11
125.449
21
-58.3183
0
LINE
8
Black
10
125.449
20
-58.3183
11
125.306
21
-57.9252
0
LINE
8
Black
10
125.306
20
-57.9252
11
125.306
21
-57.5068
0
LINE
8
Black
10
125.306
20
-57.5068
11
125.449
21
-57.1137
0
LINE
8
Black
10
125.449
20
-57.1137
11
125.718
21
-56.7932
0
LINE
8
Black
10
125.718
20
-56.7932
11
126.08
21
-56.5841
0
LINE
8
Black
10
126.08
20
-56.5841
11
126.492
21
-56.5114
0
LINE
8
Black
10
126.492
20
-56.5114
11
126.904
21
-56.5841
0
LINE
8
Black
10
88.296
20
-56.5841
11
88.6583
21
-56.7932
0
LINE
8
Black
10
88.6583
20
-56.7932
11
88.9272
21
-57.1137
0
LINE
8
Black
10
88.9272
20
-57.1137
11
89.0703
21
-57.5068
0
LINE
8
Black
10
89.0703
20
-57.5068
11
89.0703
21
-57.9252
0
LINE
8
Black
10
89.0703
20
-57.9252
11
88.9272
21
-58.3183
0
LINE
8
Black
10
88.9272
20
-58.3183
11
88.6583
21
-58.6388
0
LINE
8
Black
10
88.6583
20
-58.6388
11
88.296
21
-58.8479
0
LINE
8
Black
10
88.296
20
-58.8479
11
87.884
21
-58.9206
0
LINE
8
Black
10
87.884
20
-58.9206
11
87.472
21
-58.8479
0
LINE
8
Black
10
87.472
20
-58.8479
11
87.1097
21
-58.6388
0
LINE
8
Black
10
87.1097
20
-58.6388
11
86.8408
21
-58.3183
0
LINE
8
Black
10
86.8408
20
-58.3183
11
86.6977
21
-57.9252
0
LINE
8
Black
10
86.6977
20
-57.9252
11
86.6977
21
-57.5068
0
LINE
8
Black
10
86.6977
20
-57.5068
11
86.8408
21
-57.1137
0
LINE
8
Black
10
86.8408
20
-57.1137
11
87.1097
21
-56.7932
0
LINE
8
Black
10
87.1097
20
-56.7932
11
87.472
21
-56.5841
0
LINE
8
Black
10
87.472
20
-56.5841
11
87.884
21
-56.5114
0
LINE
8
Black
10
87.884
20
-56.5114
11
88.296
21
-56.5841
0
LINE
8
Black
10
107.6
20
-56.5841
11
107.962
21
-56.7932
0
LINE
8
Black
10
107.962
20
-56.7932
11
108.231
21
-57.1137
0
LINE
8
Black
10
108.231
20
-57.1137
11
108.374
21
-57.5068
0
LINE
8
Black
10
108.374
20
-57.5068
11
108.374
21
-57.9252
0
LINE
8
Black
10
108.374
20
-57.9252
11
108.231
21
-58.3183
0
LINE
8
Black
10
108.231
20
-58.3183
11
107.962
21
-58.6388
0
LINE
8
Black
10
107.962
20
-58.6388
11
107.6
21
-58.8479
0
LINE
8
Black
10
107.6
20
-58.8479
11
107.188
21
-58.9206
0
LINE
8
Black
10
107.188
20
-58.9206
11
106.776
21
-58.8479
0
LINE
8
Black
10
106.776
20
-58.8479
11
106.414
21
-58.6388
0
LINE
8
Black
10
106.414
20
-58.6388
11
106.145
21
-58.3183
0
LINE
8
Black
10
106.145
20
-58.3183
11
106.002
21
-57.9252
0
LINE
8
Black
10
106.002
20
-57.9252
11
106.002
21
-57.5068
0
LINE
8
Black
10
106.002
20
-57.5068
11
106.145
21
-57.1137
0
LINE
8
Black
10
106.145
20
-57.1137
11
106.414
21
-56.7932
0
LINE
8
Black
10
106.414
20
-56.7932
11
106.776
21
-56.5841
0
LINE
8
Black
10
106.776
20
-56.5841
11
107.188
21
-56.5114
0
LINE
8
Black
10
107.188
20
-56.5114
11
107.6
21
-56.5841
0
LINE
8
Black
10
68.992
20
-56.5841
11
69.3543
21
-56.7932
0
LINE
8
Black
10
69.3543
20
-56.7932
11
69.6232
21
-57.1137
0
LINE
8
Black
10
69.6232
20
-57.1137
11
69.7663
21
-57.5068
0
LINE
8
Black
10
69.7663
20
-57.5068
11
69.7663
21
-57.9252
0
LINE
8
Black
10
69.7663
20
-57.9252
11
69.6232
21
-58.3183
0
LINE
8
Black
10
69.6232
20
-58.3183
11
69.3543
21
-58.6388
0
LINE
8
Black
10
69.3543
20
-58.6388
11
68.992
21
-58.8479
0
LINE
8
Black
10
68.992
20
-58.8479
11
68.58
21
-58.9206
0
LINE
8
Black
10
68.58
20
-58.9206
11
68.168
21
-58.8479
0
LINE
8
Black
10
68.168
20
-58.8479
11
67.8057
21
-58.6388
0
LINE
8
Black
10
67.8057
20
-58.6388
11
67.5368
21
-58.3183
0
LINE
8
Black
10
67.5368
20
-58.3183
11
67.3937
21
-57.9252
0
LINE
8
Black
10
67.3937
20
-57.9252
11
67.3937
21
-57.5068
0
LINE
8
Black
10
67.3937
20
-57.5068
11
67.5368
21
-57.1137
0
LINE
8
Black
10
67.5368
20
-57.1137
11
67.8057
21
-56.7932
0
LINE
8
Black
10
67.8057
20
-56.7932
11
68.168
21
-56.5841
0
LINE
8
Black
10
68.168
20
-56.5841
11
68.58
21
-56.5114
0
LINE
8
Black
10
68.58
20
-56.5114
11
68.992
21
-56.5841
0
LINE
8
Black
10
121.904
20
-54.4841
11
122.266
21
-54.6932
0
LINE
8
Black
10
122.266
20
-54.6932
11
122.535
21
-55.0137
0
LINE
8
Black
10
122.535
20
-55.0137
11
122.678
21
-55.4068
0
LINE
8
Black
10
122.678
20
-55.4068
11
122.678
21
-55.8252
0
LINE
8
Black
10
122.678
20
-55.8252
11
122.535
21
-56.2183
0
LINE
8
Black
10
122.535
20
-56.2183
11
122.266
21
-56.5388
0
LINE
8
Black
10
122.266
20
-56.5388
11
121.904
21
-56.7479
0
LINE
8
Black
10
121.904
20
-56.7479
11
121.492
21
-56.8206
0
LINE
8
Black
10
121.492
20
-56.8206
11
121.08
21
-56.7479
0
LINE
8
Black
10
121.08
20
-56.7479
11
120.718
21
-56.5388
0
LINE
8
Black
10
120.718
20
-56.5388
11
120.449
21
-56.2183
0
LINE
8
Black
10
120.449
20
-56.2183
11
120.306
21
-55.8252
0
LINE
8
Black
10
120.306
20
-55.8252
11
120.306
21
-55.4068
0
LINE
8
Black
10
120.306
20
-55.4068
11
120.449
21
-55.0137
0
LINE
8
Black
10
120.449
20
-55.0137
11
120.718
21
-54.6932
0
LINE
8
Black
10
120.718
20
-54.6932
11
121.08
21
-54.4841
0
LINE
8
Black
10
121.08
20
-54.4841
11
121.492
21
-54.4114
0
LINE
8
Black
10
121.492
20
-54.4114
11
121.904
21
-54.4841
0
LINE
8
Black
10
25.384
20
-54.4841
11
25.7463
21
-54.6932
0
LINE
8
Black
10
25.7463
20
-54.6932
11
26.0152
21
-55.0137
0
LINE
8
Black
10
26.0152
20
-55.0137
11
26.1583
21
-55.4068
0
LINE
8
Black
10
26.1583
20
-55.4068
11
26.1583
21
-55.8252
0
LINE
8
Black
10
26.1583
20
-55.8252
11
26.0152
21
-56.2183
0
LINE
8
Black
10
26.0152
20
-56.2183
11
25.7463
21
-56.5388
0
LINE
8
Black
10
25.7463
20
-56.5388
11
25.384
21
-56.7479
0
LINE
8
Black
10
25.384
20
-56.7479
11
24.972
21
-56.8206
0
LINE
8
Black
10
24.972
20
-56.8206
11
24.56
21
-56.7479
0
LINE
8
Black
10
24.56
20
-56.7479
11
24.1977
21
-56.5388
0
LINE
8
Black
10
24.1977
20
-56.5388
11
23.9288
21
-56.2183
0
LINE
8
Black
10
23.9288
20
-56.2183
11
23.7857
21
-55.8252
0
LINE
8
Black
10
23.7857
20
-55.8252
11
23.7857
21
-55.4068
0
LINE
8
Black
10
23.7857
20
-55.4068
11
23.9288
21
-55.0137
0
LINE
8
Black
10
23.9288
20
-55.0137
11
24.1977
21
-54.6932
0
LINE
8
Black
10
24.1977
20
-54.6932
11
24.56
21
-54.4841
0
LINE
8
Black
10
24.56
20
-54.4841
11
24.972
21
-54.4114
0
LINE
8
Black
10
24.972
20
-54.4114
11
25.384
21
-54.4841
0
LINE
8
Black
10
35.384
20
-54.4841
11
35.7463
21
-54.6932
0
LINE
8
Black
10
35.7463
20
-54.6932
11
36.0152
21
-55.0137
0
LINE
8
Black
10
36.0152
20
-55.0137
11
36.1583
21
-55.4068
0
LINE
8
Black
10
36.1583
20
-55.4068
11
36.1583
21
-55.8252
0
LINE
8
Black
10
36.1583
20
-55.8252
11
36.0152
21
-56.2183
0
LINE
8
Black
10
36.0152
20
-56.2183
11
35.7463
21
-56.5388
0
LINE
8
Black
10
35.7463
20
-56.5388
11
35.384
21
-56.7479
0
LINE
8
Black
10
35.384
20
-56.7479
11
34.972
21
-56.8206
0
LINE
8
Black
10
34.972
20
-56.8206
11
34.56
21
-56.7479
0
LINE
8
Black
10
34.56
20
-56.7479
11
34.1977
21
-56.5388
0
LINE
8
Black
10
34.1977
20
-56.5388
11
33.9288
21
-56.2183
0
LINE
8
Black
10
33.9288
20
-56.2183
11
33.7857
21
-55.8252
0
LINE
8
Black
10
33.7857
20
-55.8252
11
33.7857
21
-55.4068
0
LINE
8
Black
10
33.7857
20
-55.4068
11
33.9288
21
-55.0137
0
LINE
8
Black
10
33.9288
20
-55.0137
11
34.1977
21
-54.6932
0
LINE
8
Black
10
34.1977
20
-54.6932
11
34.56
21
-54.4841
0
LINE
8
Black
10
34.56
20
-54.4841
11
34.972
21
-54.4114
0
LINE
8
Black
10
34.972
20
-54.4114
11
35.384
21
-54.4841
0
LINE
8
Black
10
54.688
20
-54.4841
11
55.0503
21
-54.6932
0
LINE
8
Black
10
55.0503
20
-54.6932
11
55.3192
21
-55.0137
0
LINE
8
Black
10
55.3192
20
-55.0137
11
55.4623
21
-55.4068
0
LINE
8
Black
10
55.4623
20
-55.4068
11
55.4623
21
-55.8252
0
LINE
8
Black
10
55.4623
20
-55.8252
11
55.3192
21
-56.2183
0
LINE
8
Black
10
55.3192
20
-56.2183
11
55.0503
21
-56.5388
0
LINE
8
Black
10
55.0503
20
-56.5388
11
54.688
21
-56.7479
0
LINE
8
Black
10
54.688
20
-56.7479
11
54.276
21
-56.8206
0
LINE
8
Black
10
54.276
20
-56.8206
11
53.864
21
-56.7479
0
LINE
8
Black
10
53.864
20
-56.7479
11
53.5017
21
-56.5388
0
LINE
8
Black
10
53.5017
20
-56.5388
11
53.2328
21
-56.2183
0
LINE
8
Black
10
53.2328
20
-56.2183
11
53.0897
21
-55.8252
0
LINE
8
Black
10
53.0897
20
-55.8252
11
53.0897
21
-55.4068
0
LINE
8
Black
10
53.0897
20
-55.4068
11
53.2328
21
-55.0137
0
LINE
8
Black
10
53.2328
20
-55.0137
11
53.5017
21
-54.6932
0
LINE
8
Black
10
53.5017
20
-54.6932
11
53.864
21
-54.4841
0
LINE
8
Black
10
53.864
20
-54.4841
11
54.276
21
-54.4114
0
LINE
8
Black
10
54.276
20
-54.4114
11
54.688
21
-54.4841
0
LINE
8
Black
10
44.688
20
-54.4841
11
45.0503
21
-54.6932
0
LINE
8
Black
10
45.0503
20
-54.6932
11
45.3192
21
-55.0137
0
LINE
8
Black
10
45.3192
20
-55.0137
11
45.4623
21
-55.4068
0
LINE
8
Black
10
45.4623
20
-55.4068
11
45.4623
21
-55.8252
0
LINE
8
Black
10
45.4623
20
-55.8252
11
45.3192
21
-56.2183
0
LINE
8
Black
10
45.3192
20
-56.2183
11
45.0503
21
-56.5388
0
LINE
8
Black
10
45.0503
20
-56.5388
11
44.688
21
-56.7479
0
LINE
8
Black
10
44.688
20
-56.7479
11
44.276
21
-56.8206
0
LINE
8
Black
10
44.276
20
-56.8206
11
43.864
21
-56.7479
0
LINE
8
Black
10
43.864
20
-56.7479
11
43.5017
21
-56.5388
0
LINE
8
Black
10
43.5017
20
-56.5388
11
43.2328
21
-56.2183
0
LINE
8
Black
10
43.2328
20
-56.2183
11
43.0897
21
-55.8252
0
LINE
8
Black
10
43.0897
20
-55.8252
11
43.0897
21
-55.4068
0
LINE
8
Black
10
43.0897
20
-55.4068
11
43.2328
21
-55.0137
0
LINE
8
Black
10
43.2328
20
-55.0137
11
43.5017
21
-54.6932
0
LINE
8
Black
10
43.5017
20
-54.6932
11
43.864
21
-54.4841
0
LINE
8
Black
10
43.864
20
-54.4841
11
44.276
21
-54.4114
0
LINE
8
Black
10
44.276
20
-54.4114
11
44.688
21
-54.4841
0
LINE
8
Black
10
131.904
20
-54.4841
11
132.266
21
-54.6932
0
LINE
8
Black
10
132.266
20
-54.6932
11
132.535
21
-55.0137
0
LINE
8
Black
10
132.535
20
-55.0137
11
132.678
21
-55.4068
0
LINE
8
Black
10
132.678
20
-55.4068
11
132.678
21
-55.8252
0
LINE
8
Black
10
132.678
20
-55.8252
11
132.535
21
-56.2183
0
LINE
8
Black
10
132.535
20
-56.2183
11
132.266
21
-56.5388
0
LINE
8
Black
10
132.266
20
-56.5388
11
131.904
21
-56.7479
0
LINE
8
Black
10
131.904
20
-56.7479
11
131.492
21
-56.8206
0
LINE
8
Black
10
131.492
20
-56.8206
11
131.08
21
-56.7479
0
LINE
8
Black
10
131.08
20
-56.7479
11
130.718
21
-56.5388
0
LINE
8
Black
10
130.718
20
-56.5388
11
130.449
21
-56.2183
0
LINE
8
Black
10
130.449
20
-56.2183
11
130.306
21
-55.8252
0
LINE
8
Black
10
130.306
20
-55.8252
11
130.306
21
-55.4068
0
LINE
8
Black
10
130.306
20
-55.4068
11
130.449
21
-55.0137
0
LINE
8
Black
10
130.449
20
-55.0137
11
130.718
21
-54.6932
0
LINE
8
Black
10
130.718
20
-54.6932
11
131.08
21
-54.4841
0
LINE
8
Black
10
131.08
20
-54.4841
11
131.492
21
-54.4114
0
LINE
8
Black
10
131.492
20
-54.4114
11
131.904
21
-54.4841
0
LINE
8
Black
10
102.6
20
-54.4841
11
102.962
21
-54.6932
0
LINE
8
Black
10
102.962
20
-54.6932
11
103.231
21
-55.0137
0
LINE
8
Black
10
103.231
20
-55.0137
11
103.374
21
-55.4068
0
LINE
8
Black
10
103.374
20
-55.4068
11
103.374
21
-55.8252
0
LINE
8
Black
10
103.374
20
-55.8252
11
103.231
21
-56.2183
0
LINE
8
Black
10
103.231
20
-56.2183
11
102.962
21
-56.5388
0
LINE
8
Black
10
102.962
20
-56.5388
11
102.6
21
-56.7479
0
LINE
8
Black
10
102.6
20
-56.7479
11
102.188
21
-56.8206
0
LINE
8
Black
10
102.188
20
-56.8206
11
101.776
21
-56.7479
0
LINE
8
Black
10
101.776
20
-56.7479
11
101.414
21
-56.5388
0
LINE
8
Black
10
101.414
20
-56.5388
11
101.145
21
-56.2183
0
LINE
8
Black
10
101.145
20
-56.2183
11
101.002
21
-55.8252
0
LINE
8
Black
10
101.002
20
-55.8252
11
101.002
21
-55.4068
0
LINE
8
Black
10
101.002
20
-55.4068
11
101.145
21
-55.0137
0
LINE
8
Black
10
101.145
20
-55.0137
11
101.414
21
-54.6932
0
LINE
8
Black
10
101.414
20
-54.6932
11
101.776
21
-54.4841
0
LINE
8
Black
10
101.776
20
-54.4841
11
102.188
21
-54.4114
0
LINE
8
Black
10
102.188
20
-54.4114
11
102.6
21
-54.4841
0
LINE
8
Black
10
112.6
20
-54.4841
11
112.962
21
-54.6932
0
LINE
8
Black
10
112.962
20
-54.6932
11
113.231
21
-55.0137
0
LINE
8
Black
10
113.231
20
-55.0137
11
113.374
21
-55.4068
0
LINE
8
Black
10
113.374
20
-55.4068
11
113.374
21
-55.8252
0
LINE
8
Black
10
113.374
20
-55.8252
11
113.231
21
-56.2183
0
LINE
8
Black
10
113.231
20
-56.2183
11
112.962
21
-56.5388
0
LINE
8
Black
10
112.962
20
-56.5388
11
112.6
21
-56.7479
0
LINE
8
Black
10
112.6
20
-56.7479
11
112.188
21
-56.8206
0
LINE
8
Black
10
112.188
20
-56.8206
11
111.776
21
-56.7479
0
LINE
8
Black
10
111.776
20
-56.7479
11
111.414
21
-56.5388
0
LINE
8
Black
10
111.414
20
-56.5388
11
111.145
21
-56.2183
0
LINE
8
Black
10
111.145
20
-56.2183
11
111.002
21
-55.8252
0
LINE
8
Black
10
111.002
20
-55.8252
11
111.002
21
-55.4068
0
LINE
8
Black
10
111.002
20
-55.4068
11
111.145
21
-55.0137
0
LINE
8
Black
10
111.145
20
-55.0137
11
111.414
21
-54.6932
0
LINE
8
Black
10
111.414
20
-54.6932
11
111.776
21
-54.4841
0
LINE
8
Black
10
111.776
20
-54.4841
11
112.188
21
-54.4114
0
LINE
8
Black
10
112.188
20
-54.4114
11
112.6
21
-54.4841
0
LINE
8
Black
10
73.992
20
-54.4841
11
74.3543
21
-54.6932
0
LINE
8
Black
10
74.3543
20
-54.6932
11
74.6232
21
-55.0137
0
LINE
8
Black
10
74.6232
20
-55.0137
11
74.7663
21
-55.4068
0
LINE
8
Black
10
74.7663
20
-55.4068
11
74.7663
21
-55.8252
0
LINE
8
Black
10
74.7663
20
-55.8252
11
74.6232
21
-56.2183
0
LINE
8
Black
10
74.6232
20
-56.2183
11
74.3543
21
-56.5388
0
LINE
8
Black
10
74.3543
20
-56.5388
11
73.992
21
-56.7479
0
LINE
8
Black
10
73.992
20
-56.7479
11
73.58
21
-56.8206
0
LINE
8
Black
10
73.58
20
-56.8206
11
73.168
21
-56.7479
0
LINE
8
Black
10
73.168
20
-56.7479
11
72.8057
21
-56.5388
0
LINE
8
Black
10
72.8057
20
-56.5388
11
72.5368
21
-56.2183
0
LINE
8
Black
10
72.5368
20
-56.2183
11
72.3937
21
-55.8252
0
LINE
8
Black
10
72.3937
20
-55.8252
11
72.3937
21
-55.4068
0
LINE
8
Black
10
72.3937
20
-55.4068
11
72.5368
21
-55.0137
0
LINE
8
Black
10
72.5368
20
-55.0137
11
72.8057
21
-54.6932
0
LINE
8
Black
10
72.8057
20
-54.6932
11
73.168
21
-54.4841
0
LINE
8
Black
10
73.168
20
-54.4841
11
73.58
21
-54.4114
0
LINE
8
Black
10
73.58
20
-54.4114
11
73.992
21
-54.4841
0
LINE
8
Black
10
83.296
20
-54.4841
11
83.6583
21
-54.6932
0
LINE
8
Black
10
83.6583
20
-54.6932
11
83.9272
21
-55.0137
0
LINE
8
Black
10
83.9272
20
-55.0137
11
84.0703
21
-55.4068
0
LINE
8
Black
10
84.0703
20
-55.4068
11
84.0703
21
-55.8252
0
LINE
8
Black
10
84.0703
20
-55.8252
11
83.9272
21
-56.2183
0
LINE
8
Black
10
83.9272
20
-56.2183
11
83.6583
21
-56.5388
0
LINE
8
Black
10
83.6583
20
-56.5388
11
83.296
21
-56.7479
0
LINE
8
Black
10
83.296
20
-56.7479
11
82.884
21
-56.8206
0
LINE
8
Black
10
82.884
20
-56.8206
11
82.472
21
-56.7479
0
LINE
8
Black
10
82.472
20
-56.7479
11
82.1097
21
-56.5388
0
LINE
8
Black
10
82.1097
20
-56.5388
11
81.8408
21
-56.2183
0
LINE
8
Black
10
81.8408
20
-56.2183
11
81.6977
21
-55.8252
0
LINE
8
Black
10
81.6977
20
-55.8252
11
81.6977
21
-55.4068
0
LINE
8
Black
10
81.6977
20
-55.4068
11
81.8408
21
-55.0137
0
LINE
8
Black
10
81.8408
20
-55.0137
11
82.1097
21
-54.6932
0
LINE
8
Black
10
82.1097
20
-54.6932
11
82.472
21
-54.4841
0
LINE
8
Black
10
82.472
20
-54.4841
11
82.884
21
-54.4114
0
LINE
8
Black
10
82.884
20
-54.4114
11
83.296
21
-54.4841
0
LINE
8
Black
10
93.296
20
-54.4841
11
93.6583
21
-54.6932
0
LINE
8
Black
10
93.6583
20
-54.6932
11
93.9272
21
-55.0137
0
LINE
8
Black
10
93.9272
20
-55.0137
11
94.0703
21
-55.4068
0
LINE
8
Black
10
94.0703
20
-55.4068
11
94.0703
21
-55.8252
0
LINE
8
Black
10
94.0703
20
-55.8252
11
93.9272
21
-56.2183
0
LINE
8
Black
10
93.9272
20
-56.2183
11
93.6583
21
-56.5388
0
LINE
8
Black
10
93.6583
20
-56.5388
11
93.296
21
-56.7479
0
LINE
8
Black
10
93.296
20
-56.7479
11
92.884
21
-56.8206
0
LINE
8
Black
10
92.884
20
-56.8206
11
92.472
21
-56.7479
0
LINE
8
Black
10
92.472
20
-56.7479
11
92.1097
21
-56.5388
0
LINE
8
Black
10
92.1097
20
-56.5388
11
91.8408
21
-56.2183
0
LINE
8
Black
10
91.8408
20
-56.2183
11
91.6977
21
-55.8252
0
LINE
8
Black
10
91.6977
20
-55.8252
11
91.6977
21
-55.4068
0
LINE
8
Black
10
91.6977
20
-55.4068
11
91.8408
21
-55.0137
0
LINE
8
Black
10
91.8408
20
-55.0137
11
92.1097
21
-54.6932
0
LINE
8
Black
10
92.1097
20
-54.6932
11
92.472
21
-54.4841
0
LINE
8
Black
10
92.472
20
-54.4841
11
92.884
21
-54.4114
0
LINE
8
Black
10
92.884
20
-54.4114
11
93.296
21
-54.4841
0
LINE
8
Black
10
63.992
20
-54.4841
11
64.3543
21
-54.6932
0
LINE
8
Black
10
64.3543
20
-54.6932
11
64.6232
21
-55.0137
0
LINE
8
Black
10
64.6232
20
-55.0137
11
64.7663
21
-55.4068
0
LINE
8
Black
10
64.7663
20
-55.4068
11
64.7663
21
-55.8252
0
LINE
8
Black
10
64.7663
20
-55.8252
11
64.6232
21
-56.2183
0
LINE
8
Black
10
64.6232
20
-56.2183
11
64.3543
21
-56.5388
0
LINE
8
Black
10
64.3543
20
-56.5388
11
63.992
21
-56.7479
0
LINE
8
Black
10
63.992
20
-56.7479
11
63.58
21
-56.8206
0
LINE
8
Black
10
63.58
20
-56.8206
11
63.168
21
-56.7479
0
LINE
8
Black
10
63.168
20
-56.7479
11
62.8057
21
-56.5388
0
LINE
8
Black
10
62.8057
20
-56.5388
11
62.5368
21
-56.2183
0
LINE
8
Black
10
62.5368
20
-56.2183
11
62.3937
21
-55.8252
0
LINE
8
Black
10
62.3937
20
-55.8252
11
62.3937
21
-55.4068
0
LINE
8
Black
10
62.3937
20
-55.4068
11
62.5368
21
-55.0137
0
LINE
8
Black
10
62.5368
20
-55.0137
11
62.8057
21
-54.6932
0
LINE
8
Black
10
62.8057
20
-54.6932
11
63.168
21
-54.4841
0
LINE
8
Black
10
63.168
20
-54.4841
11
63.58
21
-54.4114
0
LINE
8
Black
10
63.58
20
-54.4114
11
63.992
21
-54.4841
0
LINE
8
Black
10
137.677
20
-56.6515
11
135.626
21
-56.6515
0
LINE
8
Black
10
135.626
20
-56.6515
11
135.626
21
-54.6005
0
LINE
8
Black
10
135.626
20
-54.6005
11
137.677
21
-54.6005
0
LINE
8
Black
10
137.677
20
-54.6005
11
137.677
21
-56.6515
0
LINE
8
Black
10
79.2575
20
-56.6515
11
77.2065
21
-56.6515
0
LINE
8
Black
10
77.2065
20
-56.6515
11
77.2065
21
-54.6005
0
LINE
8
Black
10
77.2065
20
-54.6005
11
79.2575
21
-54.6005
0
LINE
8
Black
10
79.2575
20
-54.6005
11
79.2575
21
-56.6515
0
LINE
8
Black
10
59.9535
20
-56.6515
11
57.9025
21
-56.6515
0
LINE
8
Black
10
57.9025
20
-56.6515
11
57.9025
21
-54.6005
0
LINE
8
Black
10
57.9025
20
-54.6005
11
59.9535
21
-54.6005
0
LINE
8
Black
10
59.9535
20
-54.6005
11
59.9535
21
-56.6515
0
LINE
8
Black
10
40.6495
20
-56.6515
11
38.5985
21
-56.6515
0
LINE
8
Black
10
38.5985
20
-56.6515
11
38.5985
21
-54.6005
0
LINE
8
Black
10
38.5985
20
-54.6005
11
40.6495
21
-54.6005
0
LINE
8
Black
10
40.6495
20
-54.6005
11
40.6495
21
-56.6515
0
LINE
8
Black
10
117.865
20
-56.6515
11
115.814
21
-56.6515
0
LINE
8
Black
10
115.814
20
-56.6515
11
115.814
21
-54.6005
0
LINE
8
Black
10
115.814
20
-54.6005
11
117.865
21
-54.6005
0
LINE
8
Black
10
117.865
20
-54.6005
11
117.865
21
-56.6515
0
LINE
8
Black
10
98.5615
20
-56.6515
11
96.5105
21
-56.6515
0
LINE
8
Black
10
96.5105
20
-56.6515
11
96.5105
21
-54.6005
0
LINE
8
Black
10
96.5105
20
-54.6005
11
98.5615
21
-54.6005
0
LINE
8
Black
10
98.5615
20
-54.6005
11
98.5615
21
-56.6515
0
LINE
8
Black
10
137.004
20
-47.0387
11
137.314
21
-47.2174
0
LINE
8
Black
10
137.314
20
-47.2174
11
137.544
21
-47.4913
0
LINE
8
Black
10
137.544
20
-47.4913
11
137.666
21
-47.8272
0
LINE
8
Black
10
137.666
20
-47.8272
11
137.666
21
-48.1848
0
LINE
8
Black
10
137.666
20
-48.1848
11
137.544
21
-48.5207
0
LINE
8
Black
10
137.544
20
-48.5207
11
137.314
21
-48.7946
0
LINE
8
Black
10
137.314
20
-48.7946
11
137.004
21
-48.9733
0
LINE
8
Black
10
137.004
20
-48.9733
11
136.652
21
-49.0354
0
LINE
8
Black
10
136.652
20
-49.0354
11
136.3
21
-48.9733
0
LINE
8
Black
10
136.3
20
-48.9733
11
135.99
21
-48.7946
0
LINE
8
Black
10
135.99
20
-48.7946
11
135.76
21
-48.5207
0
LINE
8
Black
10
135.76
20
-48.5207
11
135.638
21
-48.1848
0
LINE
8
Black
10
135.638
20
-48.1848
11
135.638
21
-47.8272
0
LINE
8
Black
10
135.638
20
-47.8272
11
135.76
21
-47.4913
0
LINE
8
Black
10
135.76
20
-47.4913
11
135.99
21
-47.2174
0
LINE
8
Black
10
135.99
20
-47.2174
11
136.3
21
-47.0387
0
LINE
8
Black
10
136.3
20
-47.0387
11
136.652
21
-46.9766
0
LINE
8
Black
10
136.652
20
-46.9766
11
137.004
21
-47.0387
0
LINE
8
Black
10
117.192
20
-47.0387
11
117.502
21
-47.2174
0
LINE
8
Black
10
117.502
20
-47.2174
11
117.732
21
-47.4913
0
LINE
8
Black
10
117.732
20
-47.4913
11
117.854
21
-47.8272
0
LINE
8
Black
10
117.854
20
-47.8272
11
117.854
21
-48.1848
0
LINE
8
Black
10
117.854
20
-48.1848
11
117.732
21
-48.5207
0
LINE
8
Black
10
117.732
20
-48.5207
11
117.502
21
-48.7946
0
LINE
8
Black
10
117.502
20
-48.7946
11
117.192
21
-48.9733
0
LINE
8
Black
10
117.192
20
-48.9733
11
116.84
21
-49.0354
0
LINE
8
Black
10
116.84
20
-49.0354
11
116.488
21
-48.9733
0
LINE
8
Black
10
116.488
20
-48.9733
11
116.178
21
-48.7946
0
LINE
8
Black
10
116.178
20
-48.7946
11
115.948
21
-48.5207
0
LINE
8
Black
10
115.948
20
-48.5207
11
115.826
21
-48.1848
0
LINE
8
Black
10
115.826
20
-48.1848
11
115.826
21
-47.8272
0
LINE
8
Black
10
115.826
20
-47.8272
11
115.948
21
-47.4913
0
LINE
8
Black
10
115.948
20
-47.4913
11
116.178
21
-47.2174
0
LINE
8
Black
10
116.178
20
-47.2174
11
116.488
21
-47.0387
0
LINE
8
Black
10
116.488
20
-47.0387
11
116.84
21
-46.9766
0
LINE
8
Black
10
116.84
20
-46.9766
11
117.192
21
-47.0387
0
LINE
8
Black
10
59.2801
20
-47.0387
11
59.5897
21
-47.2174
0
LINE
8
Black
10
59.5897
20
-47.2174
11
59.8195
21
-47.4913
0
LINE
8
Black
10
59.8195
20
-47.4913
11
59.9418
21
-47.8272
0
LINE
8
Black
10
59.9418
20
-47.8272
11
59.9418
21
-48.1848
0
LINE
8
Black
10
59.9418
20
-48.1848
11
59.8195
21
-48.5207
0
LINE
8
Black
10
59.8195
20
-48.5207
11
59.5897
21
-48.7946
0
LINE
8
Black
10
59.5897
20
-48.7946
11
59.2801
21
-48.9733
0
LINE
8
Black
10
59.2801
20
-48.9733
11
58.928
21
-49.0354
0
LINE
8
Black
10
58.928
20
-49.0354
11
58.5759
21
-48.9733
0
LINE
8
Black
10
58.5759
20
-48.9733
11
58.2663
21
-48.7946
0
LINE
8
Black
10
58.2663
20
-48.7946
11
58.0365
21
-48.5207
0
LINE
8
Black
10
58.0365
20
-48.5207
11
57.9142
21
-48.1848
0
LINE
8
Black
10
57.9142
20
-48.1848
11
57.9142
21
-47.8272
0
LINE
8
Black
10
57.9142
20
-47.8272
11
58.0365
21
-47.4913
0
LINE
8
Black
10
58.0365
20
-47.4913
11
58.2663
21
-47.2174
0
LINE
8
Black
10
58.2663
20
-47.2174
11
58.5759
21
-47.0387
0
LINE
8
Black
10
58.5759
20
-47.0387
11
58.928
21
-46.9766
0
LINE
8
Black
10
58.928
20
-46.9766
11
59.2801
21
-47.0387
0
LINE
8
Black
10
78.5841
20
-47.0387
11
78.8937
21
-47.2174
0
LINE
8
Black
10
78.8937
20
-47.2174
11
79.1235
21
-47.4913
0
LINE
8
Black
10
79.1235
20
-47.4913
11
79.2458
21
-47.8272
0
LINE
8
Black
10
79.2458
20
-47.8272
11
79.2458
21
-48.1848
0
LINE
8
Black
10
79.2458
20
-48.1848
11
79.1235
21
-48.5207
0
LINE
8
Black
10
79.1235
20
-48.5207
11
78.8937
21
-48.7946
0
LINE
8
Black
10
78.8937
20
-48.7946
11
78.5841
21
-48.9733
0
LINE
8
Black
10
78.5841
20
-48.9733
11
78.232
21
-49.0354
0
LINE
8
Black
10
78.232
20
-49.0354
11
77.8799
21
-48.9733
0
LINE
8
Black
10
77.8799
20
-48.9733
11
77.5703
21
-48.7946
0
LINE
8
Black
10
77.5703
20
-48.7946
11
77.3405
21
-48.5207
0
LINE
8
Black
10
77.3405
20
-48.5207
11
77.2182
21
-48.1848
0
LINE
8
Black
10
77.2182
20
-48.1848
11
77.2182
21
-47.8272
0
LINE
8
Black
10
77.2182
20
-47.8272
11
77.3405
21
-47.4913
0
LINE
8
Black
10
77.3405
20
-47.4913
11
77.5703
21
-47.2174
0
LINE
8
Black
10
77.5703
20
-47.2174
11
77.8799
21
-47.0387
0
LINE
8
Black
10
77.8799
20
-47.0387
11
78.232
21
-46.9766
0
LINE
8
Black
10
78.232
20
-46.9766
11
78.5841
21
-47.0387
0
LINE
8
Black
10
39.9761
20
-47.0387
11
40.2857
21
-47.2174
0
LINE
8
Black
10
40.2857
20
-47.2174
11
40.5155
21
-47.4913
0
LINE
8
Black
10
40.5155
20
-47.4913
11
40.6378
21
-47.8272
0
LINE
8
Black
10
40.6378
20
-47.8272
11
40.6378
21
-48.1848
0
LINE
8
Black
10
40.6378
20
-48.1848
11
40.5155
21
-48.5207
0
LINE
8
Black
10
40.5155
20
-48.5207
11
40.2857
21
-48.7946
0
LINE
8
Black
10
40.2857
20
-48.7946
11
39.9761
21
-48.9733
0
LINE
8
Black
10
39.9761
20
-48.9733
11
39.624
21
-49.0354
0
LINE
8
Black
10
39.624
20
-49.0354
11
39.2719
21
-48.9733
0
LINE
8
Black
10
39.2719
20
-48.9733
11
38.9623
21
-48.7946
0
LINE
8
Black
10
38.9623
20
-48.7946
11
38.7325
21
-48.5207
0
LINE
8
Black
10
38.7325
20
-48.5207
11
38.6102
21
-48.1848
0
LINE
8
Black
10
38.6102
20
-48.1848
11
38.6102
21
-47.8272
0
LINE
8
Black
10
38.6102
20
-47.8272
11
38.7325
21
-47.4913
0
LINE
8
Black
10
38.7325
20
-47.4913
11
38.9623
21
-47.2174
0
LINE
8
Black
10
38.9623
20
-47.2174
11
39.2719
21
-47.0387
0
LINE
8
Black
10
39.2719
20
-47.0387
11
39.624
21
-46.9766
0
LINE
8
Black
10
39.624
20
-46.9766
11
39.9761
21
-47.0387
0
LINE
8
Black
10
97.8881
20
-47.0387
11
98.1977
21
-47.2174
0
LINE
8
Black
10
98.1977
20
-47.2174
11
98.4275
21
-47.4913
0
LINE
8
Black
10
98.4275
20
-47.4913
11
98.5498
21
-47.8272
0
LINE
8
Black
10
98.5498
20
-47.8272
11
98.5498
21
-48.1848
0
LINE
8
Black
10
98.5498
20
-48.1848
11
98.4275
21
-48.5207
0
LINE
8
Black
10
98.4275
20
-48.5207
11
98.1977
21
-48.7946
0
LINE
8
Black
10
98.1977
20
-48.7946
11
97.8881
21
-48.9733
0
LINE
8
Black
10
97.8881
20
-48.9733
11
97.536
21
-49.0354
0
LINE
8
Black
10
97.536
20
-49.0354
11
97.1839
21
-48.9733
0
LINE
8
Black
10
97.1839
20
-48.9733
11
96.8743
21
-48.7946
0
LINE
8
Black
10
96.8743
20
-48.7946
11
96.6445
21
-48.5207
0
LINE
8
Black
10
96.6445
20
-48.5207
11
96.5222
21
-48.1848
0
LINE
8
Black
10
96.5222
20
-48.1848
11
96.5222
21
-47.8272
0
LINE
8
Black
10
96.5222
20
-47.8272
11
96.6445
21
-47.4913
0
LINE
8
Black
10
96.6445
20
-47.4913
11
96.8743
21
-47.2174
0
LINE
8
Black
10
96.8743
20
-47.2174
11
97.1839
21
-47.0387
0
LINE
8
Black
10
97.1839
20
-47.0387
11
97.536
21
-46.9766
0
LINE
8
Black
10
97.536
20
-46.9766
11
97.8881
21
-47.0387
0
LINE
8
Black
10
108.854
20
-45.9289
11
109.202
21
-46.1298
0
LINE
8
Black
10
109.202
20
-46.1298
11
109.46
21
-46.4375
0
LINE
8
Black
10
109.46
20
-46.4375
11
109.597
21
-46.8151
0
LINE
8
Black
10
109.597
20
-46.8151
11
109.597
21
-47.2169
0
LINE
8
Black
10
109.597
20
-47.2169
11
109.46
21
-47.5945
0
LINE
8
Black
10
109.46
20
-47.5945
11
109.202
21
-47.9022
0
LINE
8
Black
10
109.202
20
-47.9022
11
108.854
21
-48.1031
0
LINE
8
Black
10
108.854
20
-48.1031
11
108.458
21
-48.1729
0
LINE
8
Black
10
108.458
20
-48.1729
11
108.062
21
-48.1031
0
LINE
8
Black
10
108.062
20
-48.1031
11
107.714
21
-47.9022
0
LINE
8
Black
10
107.714
20
-47.9022
11
107.456
21
-47.5945
0
LINE
8
Black
10
107.456
20
-47.5945
11
107.319
21
-47.2169
0
LINE
8
Black
10
107.319
20
-47.2169
11
107.319
21
-46.8151
0
LINE
8
Black
10
107.319
20
-46.8151
11
107.456
21
-46.4375
0
LINE
8
Black
10
107.456
20
-46.4375
11
107.714
21
-46.1298
0
LINE
8
Black
10
107.714
20
-46.1298
11
108.062
21
-45.9289
0
LINE
8
Black
10
108.062
20
-45.9289
11
108.458
21
-45.8591
0
LINE
8
Black
10
108.458
20
-45.8591
11
108.854
21
-45.9289
0
LINE
8
Black
10
128.158
20
-45.9289
11
128.506
21
-46.1298
0
LINE
8
Black
10
128.506
20
-46.1298
11
128.764
21
-46.4375
0
LINE
8
Black
10
128.764
20
-46.4375
11
128.901
21
-46.8151
0
LINE
8
Black
10
128.901
20
-46.8151
11
128.901
21
-47.2169
0
LINE
8
Black
10
128.901
20
-47.2169
11
128.764
21
-47.5945
0
LINE
8
Black
10
128.764
20
-47.5945
11
128.506
21
-47.9022
0
LINE
8
Black
10
128.506
20
-47.9022
11
128.158
21
-48.1031
0
LINE
8
Black
10
128.158
20
-48.1031
11
127.762
21
-48.1729
0
LINE
8
Black
10
127.762
20
-48.1729
11
127.366
21
-48.1031
0
LINE
8
Black
10
127.366
20
-48.1031
11
127.018
21
-47.9022
0
LINE
8
Black
10
127.018
20
-47.9022
11
126.76
21
-47.5945
0
LINE
8
Black
10
126.76
20
-47.5945
11
126.623
21
-47.2169
0
LINE
8
Black
10
126.623
20
-47.2169
11
126.623
21
-46.8151
0
LINE
8
Black
10
126.623
20
-46.8151
11
126.76
21
-46.4375
0
LINE
8
Black
10
126.76
20
-46.4375
11
127.018
21
-46.1298
0
LINE
8
Black
10
127.018
20
-46.1298
11
127.366
21
-45.9289
0
LINE
8
Black
10
127.366
20
-45.9289
11
127.762
21
-45.8591
0
LINE
8
Black
10
127.762
20
-45.8591
11
128.158
21
-45.9289
0
LINE
8
Black
10
89.5497
20
-45.9289
11
89.8976
21
-46.1298
0
LINE
8
Black
10
89.8976
20
-46.1298
11
90.1559
21
-46.4375
0
LINE
8
Black
10
90.1559
20
-46.4375
11
90.2933
21
-46.8151
0
LINE
8
Black
10
90.2933
20
-46.8151
11
90.2933
21
-47.2169
0
LINE
8
Black
10
90.2933
20
-47.2169
11
90.1559
21
-47.5945
0
LINE
8
Black
10
90.1559
20
-47.5945
11
89.8976
21
-47.9022
0
LINE
8
Black
10
89.8976
20
-47.9022
11
89.5497
21
-48.1031
0
LINE
8
Black
10
89.5497
20
-48.1031
11
89.154
21
-48.1729
0
LINE
8
Black
10
89.154
20
-48.1729
11
88.7583
21
-48.1031
0
LINE
8
Black
10
88.7583
20
-48.1031
11
88.4104
21
-47.9022
0
LINE
8
Black
10
88.4104
20
-47.9022
11
88.1521
21
-47.5945
0
LINE
8
Black
10
88.1521
20
-47.5945
11
88.0147
21
-47.2169
0
LINE
8
Black
10
88.0147
20
-47.2169
11
88.0147
21
-46.8151
0
LINE
8
Black
10
88.0147
20
-46.8151
11
88.1521
21
-46.4375
0
LINE
8
Black
10
88.1521
20
-46.4375
11
88.4104
21
-46.1298
0
LINE
8
Black
10
88.4104
20
-46.1298
11
88.7583
21
-45.9289
0
LINE
8
Black
10
88.7583
20
-45.9289
11
89.154
21
-45.8591
0
LINE
8
Black
10
89.154
20
-45.8591
11
89.5497
21
-45.9289
0
LINE
8
Black
10
31.6377
20
-45.9289
11
31.9856
21
-46.1298
0
LINE
8
Black
10
31.9856
20
-46.1298
11
32.2439
21
-46.4375
0
LINE
8
Black
10
32.2439
20
-46.4375
11
32.3813
21
-46.8151
0
LINE
8
Black
10
32.3813
20
-46.8151
11
32.3813
21
-47.2169
0
LINE
8
Black
10
32.3813
20
-47.2169
11
32.2439
21
-47.5945
0
LINE
8
Black
10
32.2439
20
-47.5945
11
31.9856
21
-47.9022
0
LINE
8
Black
10
31.9856
20
-47.9022
11
31.6377
21
-48.1031
0
LINE
8
Black
10
31.6377
20
-48.1031
11
31.242
21
-48.1729
0
LINE
8
Black
10
31.242
20
-48.1729
11
30.8463
21
-48.1031
0
LINE
8
Black
10
30.8463
20
-48.1031
11
30.4984
21
-47.9022
0
LINE
8
Black
10
30.4984
20
-47.9022
11
30.2401
21
-47.5945
0
LINE
8
Black
10
30.2401
20
-47.5945
11
30.1027
21
-47.2169
0
LINE
8
Black
10
30.1027
20
-47.2169
11
30.1027
21
-46.8151
0
LINE
8
Black
10
30.1027
20
-46.8151
11
30.2401
21
-46.4375
0
LINE
8
Black
10
30.2401
20
-46.4375
11
30.4984
21
-46.1298
0
LINE
8
Black
10
30.4984
20
-46.1298
11
30.8463
21
-45.9289
0
LINE
8
Black
10
30.8463
20
-45.9289
11
31.242
21
-45.8591
0
LINE
8
Black
10
31.242
20
-45.8591
11
31.6377
21
-45.9289
0
LINE
8
Black
10
70.2457
20
-45.9289
11
70.5936
21
-46.1298
0
LINE
8
Black
10
70.5936
20
-46.1298
11
70.8519
21
-46.4375
0
LINE
8
Black
10
70.8519
20
-46.4375
11
70.9893
21
-46.8151
0
LINE
8
Black
10
70.9893
20
-46.8151
11
70.9893
21
-47.2169
0
LINE
8
Black
10
70.9893
20
-47.2169
11
70.8519
21
-47.5945
0
LINE
8
Black
10
70.8519
20
-47.5945
11
70.5936
21
-47.9022
0
LINE
8
Black
10
70.5936
20
-47.9022
11
70.2457
21
-48.1031
0
LINE
8
Black
10
70.2457
20
-48.1031
11
69.85
21
-48.1729
0
LINE
8
Black
10
69.85
20
-48.1729
11
69.4543
21
-48.1031
0
LINE
8
Black
10
69.4543
20
-48.1031
11
69.1064
21
-47.9022
0
LINE
8
Black
10
69.1064
20
-47.9022
11
68.8481
21
-47.5945
0
LINE
8
Black
10
68.8481
20
-47.5945
11
68.7107
21
-47.2169
0
LINE
8
Black
10
68.7107
20
-47.2169
11
68.7107
21
-46.8151
0
LINE
8
Black
10
68.7107
20
-46.8151
11
68.8481
21
-46.4375
0
LINE
8
Black
10
68.8481
20
-46.4375
11
69.1064
21
-46.1298
0
LINE
8
Black
10
69.1064
20
-46.1298
11
69.4543
21
-45.9289
0
LINE
8
Black
10
69.4543
20
-45.9289
11
69.85
21
-45.8591
0
LINE
8
Black
10
69.85
20
-45.8591
11
70.2457
21
-45.9289
0
LINE
8
Black
10
50.9417
20
-45.9289
11
51.2896
21
-46.1298
0
LINE
8
Black
10
51.2896
20
-46.1298
11
51.5479
21
-46.4375
0
LINE
8
Black
10
51.5479
20
-46.4375
11
51.6853
21
-46.8151
0
LINE
8
Black
10
51.6853
20
-46.8151
11
51.6853
21
-47.2169
0
LINE
8
Black
10
51.6853
20
-47.2169
11
51.5479
21
-47.5945
0
LINE
8
Black
10
51.5479
20
-47.5945
11
51.2896
21
-47.9022
0
LINE
8
Black
10
51.2896
20
-47.9022
11
50.9417
21
-48.1031
0
LINE
8
Black
10
50.9417
20
-48.1031
11
50.546
21
-48.1729
0
LINE
8
Black
10
50.546
20
-48.1729
11
50.1503
21
-48.1031
0
LINE
8
Black
10
50.1503
20
-48.1031
11
49.8024
21
-47.9022
0
LINE
8
Black
10
49.8024
20
-47.9022
11
49.5441
21
-47.5945
0
LINE
8
Black
10
49.5441
20
-47.5945
11
49.4067
21
-47.2169
0
LINE
8
Black
10
49.4067
20
-47.2169
11
49.4067
21
-46.8151
0
LINE
8
Black
10
49.4067
20
-46.8151
11
49.5441
21
-46.4375
0
LINE
8
Black
10
49.5441
20
-46.4375
11
49.8024
21
-46.1298
0
LINE
8
Black
10
49.8024
20
-46.1298
11
50.1503
21
-45.9289
0
LINE
8
Black
10
50.1503
20
-45.9289
11
50.546
21
-45.8591
0
LINE
8
Black
10
50.546
20
-45.8591
11
50.9417
21
-45.9289
0
LINE
8
Black
10
29.8545
20
-48.1685
11
27.5495
21
-48.1685
0
LINE
8
Black
10
27.5495
20
-48.1685
11
27.5495
21
-45.8635
0
LINE
8
Black
10
27.5495
20
-45.8635
11
29.8545
21
-45.8635
0
LINE
8
Black
10
29.8545
20
-45.8635
11
29.8545
21
-48.1685
0
LINE
8
Black
10
107.07
20
-48.1685
11
104.765
21
-48.1685
0
LINE
8
Black
10
104.765
20
-48.1685
11
104.765
21
-45.8635
0
LINE
8
Black
10
104.765
20
-45.8635
11
107.07
21
-45.8635
0
LINE
8
Black
10
107.07
20
-45.8635
11
107.07
21
-48.1685
0
LINE
8
Black
10
68.4625
20
-48.1685
11
66.1575
21
-48.1685
0
LINE
8
Black
10
66.1575
20
-48.1685
11
66.1575
21
-45.8635
0
LINE
8
Black
10
66.1575
20
-45.8635
11
68.4625
21
-45.8635
0
LINE
8
Black
10
68.4625
20
-45.8635
11
68.4625
21
-48.1685
0
LINE
8
Black
10
49.1585
20
-48.1685
11
46.8535
21
-48.1685
0
LINE
8
Black
10
46.8535
20
-48.1685
11
46.8535
21
-45.8635
0
LINE
8
Black
10
46.8535
20
-45.8635
11
49.1585
21
-45.8635
0
LINE
8
Black
10
49.1585
20
-45.8635
11
49.1585
21
-48.1685
0
LINE
8
Black
10
87.7665
20
-48.1685
11
85.4615
21
-48.1685
0
LINE
8
Black
10
85.4615
20
-48.1685
11
85.4615
21
-45.8635
0
LINE
8
Black
10
85.4615
20
-45.8635
11
87.7665
21
-45.8635
0
LINE
8
Black
10
87.7665
20
-45.8635
11
87.7665
21
-48.1685
0
LINE
8
Black
10
126.374
20
-48.1685
11
124.069
21
-48.1685
0
LINE
8
Black
10
124.069
20
-48.1685
11
124.069
21
-45.8635
0
LINE
8
Black
10
124.069
20
-45.8635
11
126.374
21
-45.8635
0
LINE
8
Black
10
126.374
20
-45.8635
11
126.374
21
-48.1685
0
LINE
8
Black
10
131.215
20
-35.4008
11
132.242
21
-35.9935
0
LINE
8
Black
10
132.242
20
-35.9935
11
133.004
21
-36.9015
0
LINE
8
Black
10
133.004
20
-36.9015
11
133.409
21
-38.0153
0
LINE
8
Black
10
133.409
20
-38.0153
11
133.409
21
-39.2007
0
LINE
8
Black
10
133.409
20
-39.2007
11
133.004
21
-40.3145
0
LINE
8
Black
10
133.004
20
-40.3145
11
132.242
21
-41.2225
0
LINE
8
Black
10
132.242
20
-41.2225
11
131.215
21
-41.8152
0
LINE
8
Black
10
131.215
20
-41.8152
11
130.048
21
-42.021
0
LINE
8
Black
10
130.048
20
-42.021
11
128.881
21
-41.8152
0
LINE
8
Black
10
128.881
20
-41.8152
11
127.854
21
-41.2225
0
LINE
8
Black
10
127.854
20
-41.2225
11
127.092
21
-40.3145
0
LINE
8
Black
10
127.092
20
-40.3145
11
126.687
21
-39.2007
0
LINE
8
Black
10
126.687
20
-39.2007
11
126.687
21
-38.0153
0
LINE
8
Black
10
126.687
20
-38.0153
11
127.092
21
-36.9015
0
LINE
8
Black
10
127.092
20
-36.9015
11
127.854
21
-35.9935
0
LINE
8
Black
10
127.854
20
-35.9935
11
128.881
21
-35.4008
0
LINE
8
Black
10
128.881
20
-35.4008
11
130.048
21
-35.195
0
LINE
8
Black
10
130.048
20
-35.195
11
131.215
21
-35.4008
0
LINE
8
Black
10
98.1333
20
-39.6967
11
98.4352
21
-39.871
0
LINE
8
Black
10
98.4352
20
-39.871
11
98.6593
21
-40.1381
0
LINE
8
Black
10
98.6593
20
-40.1381
11
98.7786
21
-40.4657
0
LINE
8
Black
10
98.7786
20
-40.4657
11
98.7786
21
-40.8143
0
LINE
8
Black
10
98.7786
20
-40.8143
11
98.6593
21
-41.1419
0
LINE
8
Black
10
98.6593
20
-41.1419
11
98.4352
21
-41.409
0
LINE
8
Black
10
98.4352
20
-41.409
11
98.1333
21
-41.5833
0
LINE
8
Black
10
98.1333
20
-41.5833
11
97.79
21
-41.6438
0
LINE
8
Black
10
97.79
20
-41.6438
11
97.4467
21
-41.5833
0
LINE
8
Black
10
97.4467
20
-41.5833
11
97.1448
21
-41.409
0
LINE
8
Black
10
97.1448
20
-41.409
11
96.9207
21
-41.1419
0
LINE
8
Black
10
96.9207
20
-41.1419
11
96.8014
21
-40.8143
0
LINE
8
Black
10
96.8014
20
-40.8143
11
96.8014
21
-40.4657
0
LINE
8
Black
10
96.8014
20
-40.4657
11
96.9207
21
-40.1381
0
LINE
8
Black
10
96.9207
20
-40.1381
11
97.1448
21
-39.871
0
LINE
8
Black
10
97.1448
20
-39.871
11
97.4467
21
-39.6967
0
LINE
8
Black
10
97.4467
20
-39.6967
11
97.79
21
-39.6362
0
LINE
8
Black
10
97.79
20
-39.6362
11
98.1333
21
-39.6967
0
LINE
8
Black
10
90.5133
20
-39.6967
11
90.8152
21
-39.871
0
LINE
8
Black
10
90.8152
20
-39.871
11
91.0393
21
-40.1381
0
LINE
8
Black
10
91.0393
20
-40.1381
11
91.1586
21
-40.4657
0
LINE
8
Black
10
91.1586
20
-40.4657
11
91.1586
21
-40.8143
0
LINE
8
Black
10
91.1586
20
-40.8143
11
91.0393
21
-41.1419
0
LINE
8
Black
10
91.0393
20
-41.1419
11
90.8152
21
-41.409
0
LINE
8
Black
10
90.8152
20
-41.409
11
90.5133
21
-41.5833
0
LINE
8
Black
10
90.5133
20
-41.5833
11
90.17
21
-41.6438
0
LINE
8
Black
10
90.17
20
-41.6438
11
89.8267
21
-41.5833
0
LINE
8
Black
10
89.8267
20
-41.5833
11
89.5248
21
-41.409
0
LINE
8
Black
10
89.5248
20
-41.409
11
89.3007
21
-41.1419
0
LINE
8
Black
10
89.3007
20
-41.1419
11
89.1814
21
-40.8143
0
LINE
8
Black
10
89.1814
20
-40.8143
11
89.1814
21
-40.4657
0
LINE
8
Black
10
89.1814
20
-40.4657
11
89.3007
21
-40.1381
0
LINE
8
Black
10
89.3007
20
-40.1381
11
89.5248
21
-39.871
0
LINE
8
Black
10
89.5248
20
-39.871
11
89.8267
21
-39.6967
0
LINE
8
Black
10
89.8267
20
-39.6967
11
90.17
21
-39.6362
0
LINE
8
Black
10
90.17
20
-39.6362
11
90.5133
21
-39.6967
0
LINE
8
Black
10
93.0533
20
-39.6967
11
93.3552
21
-39.871
0
LINE
8
Black
10
93.3552
20
-39.871
11
93.5793
21
-40.1381
0
LINE
8
Black
10
93.5793
20
-40.1381
11
93.6986
21
-40.4657
0
LINE
8
Black
10
93.6986
20
-40.4657
11
93.6986
21
-40.8143
0
LINE
8
Black
10
93.6986
20
-40.8143
11
93.5793
21
-41.1419
0
LINE
8
Black
10
93.5793
20
-41.1419
11
93.3552
21
-41.409
0
LINE
8
Black
10
93.3552
20
-41.409
11
93.0533
21
-41.5833
0
LINE
8
Black
10
93.0533
20
-41.5833
11
92.71
21
-41.6438
0
LINE
8
Black
10
92.71
20
-41.6438
11
92.3667
21
-41.5833
0
LINE
8
Black
10
92.3667
20
-41.5833
11
92.0648
21
-41.409
0
LINE
8
Black
10
92.0648
20
-41.409
11
91.8407
21
-41.1419
0
LINE
8
Black
10
91.8407
20
-41.1419
11
91.7214
21
-40.8143
0
LINE
8
Black
10
91.7214
20
-40.8143
11
91.7214
21
-40.4657
0
LINE
8
Black
10
91.7214
20
-40.4657
11
91.8407
21
-40.1381
0
LINE
8
Black
10
91.8407
20
-40.1381
11
92.0648
21
-39.871
0
LINE
8
Black
10
92.0648
20
-39.871
11
92.3667
21
-39.6967
0
LINE
8
Black
10
92.3667
20
-39.6967
11
92.71
21
-39.6362
0
LINE
8
Black
10
92.71
20
-39.6362
11
93.0533
21
-39.6967
0
LINE
8
Black
10
95.5933
20
-39.6967
11
95.8952
21
-39.871
0
LINE
8
Black
10
95.8952
20
-39.871
11
96.1193
21
-40.1381
0
LINE
8
Black
10
96.1193
20
-40.1381
11
96.2386
21
-40.4657
0
LINE
8
Black
10
96.2386
20
-40.4657
11
96.2386
21
-40.8143
0
LINE
8
Black
10
96.2386
20
-40.8143
11
96.1193
21
-41.1419
0
LINE
8
Black
10
96.1193
20
-41.1419
11
95.8952
21
-41.409
0
LINE
8
Black
10
95.8952
20
-41.409
11
95.5933
21
-41.5833
0
LINE
8
Black
10
95.5933
20
-41.5833
11
95.25
21
-41.6438
0
LINE
8
Black
10
95.25
20
-41.6438
11
94.9067
21
-41.5833
0
LINE
8
Black
10
94.9067
20
-41.5833
11
94.6048
21
-41.409
0
LINE
8
Black
10
94.6048
20
-41.409
11
94.3807
21
-41.1419
0
LINE
8
Black
10
94.3807
20
-41.1419
11
94.2614
21
-40.8143
0
LINE
8
Black
10
94.2614
20
-40.8143
11
94.2614
21
-40.4657
0
LINE
8
Black
10
94.2614
20
-40.4657
11
94.3807
21
-40.1381
0
LINE
8
Black
10
94.3807
20
-40.1381
11
94.6048
21
-39.871
0
LINE
8
Black
10
94.6048
20
-39.871
11
94.9067
21
-39.6967
0
LINE
8
Black
10
94.9067
20
-39.6967
11
95.25
21
-39.6362
0
LINE
8
Black
10
95.25
20
-39.6362
11
95.5933
21
-39.6967
0
LINE
8
Black
10
113.373
20
-39.6967
11
113.675
21
-39.871
0
LINE
8
Black
10
113.675
20
-39.871
11
113.899
21
-40.1381
0
LINE
8
Black
10
113.899
20
-40.1381
11
114.019
21
-40.4657
0
LINE
8
Black
10
114.019
20
-40.4657
11
114.019
21
-40.8143
0
LINE
8
Black
10
114.019
20
-40.8143
11
113.899
21
-41.1419
0
LINE
8
Black
10
113.899
20
-41.1419
11
113.675
21
-41.409
0
LINE
8
Black
10
113.675
20
-41.409
11
113.373
21
-41.5833
0
LINE
8
Black
10
113.373
20
-41.5833
11
113.03
21
-41.6438
0
LINE
8
Black
10
113.03
20
-41.6438
11
112.687
21
-41.5833
0
LINE
8
Black
10
112.687
20
-41.5833
11
112.385
21
-41.409
0
LINE
8
Black
10
112.385
20
-41.409
11
112.161
21
-41.1419
0
LINE
8
Black
10
112.161
20
-41.1419
11
112.041
21
-40.8143
0
LINE
8
Black
10
112.041
20
-40.8143
11
112.041
21
-40.4657
0
LINE
8
Black
10
112.041
20
-40.4657
11
112.161
21
-40.1381
0
LINE
8
Black
10
112.161
20
-40.1381
11
112.385
21
-39.871
0
LINE
8
Black
10
112.385
20
-39.871
11
112.687
21
-39.6967
0
LINE
8
Black
10
112.687
20
-39.6967
11
113.03
21
-39.6362
0
LINE
8
Black
10
113.03
20
-39.6362
11
113.373
21
-39.6967
0
LINE
8
Black
10
100.673
20
-39.6967
11
100.975
21
-39.871
0
LINE
8
Black
10
100.975
20
-39.871
11
101.199
21
-40.1381
0
LINE
8
Black
10
101.199
20
-40.1381
11
101.319
21
-40.4657
0
LINE
8
Black
10
101.319
20
-40.4657
11
101.319
21
-40.8143
0
LINE
8
Black
10
101.319
20
-40.8143
11
101.199
21
-41.1419
0
LINE
8
Black
10
101.199
20
-41.1419
11
100.975
21
-41.409
0
LINE
8
Black
10
100.975
20
-41.409
11
100.673
21
-41.5833
0
LINE
8
Black
10
100.673
20
-41.5833
11
100.33
21
-41.6438
0
LINE
8
Black
10
100.33
20
-41.6438
11
99.9867
21
-41.5833
0
LINE
8
Black
10
99.9867
20
-41.5833
11
99.6848
21
-41.409
0
LINE
8
Black
10
99.6848
20
-41.409
11
99.4607
21
-41.1419
0
LINE
8
Black
10
99.4607
20
-41.1419
11
99.3414
21
-40.8143
0
LINE
8
Black
10
99.3414
20
-40.8143
11
99.3414
21
-40.4657
0
LINE
8
Black
10
99.3414
20
-40.4657
11
99.4607
21
-40.1381
0
LINE
8
Black
10
99.4607
20
-40.1381
11
99.6848
21
-39.871
0
LINE
8
Black
10
99.6848
20
-39.871
11
99.9867
21
-39.6967
0
LINE
8
Black
10
99.9867
20
-39.6967
11
100.33
21
-39.6362
0
LINE
8
Black
10
100.33
20
-39.6362
11
100.673
21
-39.6967
0
LINE
8
Black
10
103.213
20
-39.6967
11
103.515
21
-39.871
0
LINE
8
Black
10
103.515
20
-39.871
11
103.739
21
-40.1381
0
LINE
8
Black
10
103.739
20
-40.1381
11
103.859
21
-40.4657
0
LINE
8
Black
10
103.859
20
-40.4657
11
103.859
21
-40.8143
0
LINE
8
Black
10
103.859
20
-40.8143
11
103.739
21
-41.1419
0
LINE
8
Black
10
103.739
20
-41.1419
11
103.515
21
-41.409
0
LINE
8
Black
10
103.515
20
-41.409
11
103.213
21
-41.5833
0
LINE
8
Black
10
103.213
20
-41.5833
11
102.87
21
-41.6438
0
LINE
8
Black
10
102.87
20
-41.6438
11
102.527
21
-41.5833
0
LINE
8
Black
10
102.527
20
-41.5833
11
102.225
21
-41.409
0
LINE
8
Black
10
102.225
20
-41.409
11
102.001
21
-41.1419
0
LINE
8
Black
10
102.001
20
-41.1419
11
101.881
21
-40.8143
0
LINE
8
Black
10
101.881
20
-40.8143
11
101.881
21
-40.4657
0
LINE
8
Black
10
101.881
20
-40.4657
11
102.001
21
-40.1381
0
LINE
8
Black
10
102.001
20
-40.1381
11
102.225
21
-39.871
0
LINE
8
Black
10
102.225
20
-39.871
11
102.527
21
-39.6967
0
LINE
8
Black
10
102.527
20
-39.6967
11
102.87
21
-39.6362
0
LINE
8
Black
10
102.87
20
-39.6362
11
103.213
21
-39.6967
0
LINE
8
Black
10
105.753
20
-39.6967
11
106.055
21
-39.871
0
LINE
8
Black
10
106.055
20
-39.871
11
106.279
21
-40.1381
0
LINE
8
Black
10
106.279
20
-40.1381
11
106.399
21
-40.4657
0
LINE
8
Black
10
106.399
20
-40.4657
11
106.399
21
-40.8143
0
LINE
8
Black
10
106.399
20
-40.8143
11
106.279
21
-41.1419
0
LINE
8
Black
10
106.279
20
-41.1419
11
106.055
21
-41.409
0
LINE
8
Black
10
106.055
20
-41.409
11
105.753
21
-41.5833
0
LINE
8
Black
10
105.753
20
-41.5833
11
105.41
21
-41.6438
0
LINE
8
Black
10
105.41
20
-41.6438
11
105.067
21
-41.5833
0
LINE
8
Black
10
105.067
20
-41.5833
11
104.765
21
-41.409
0
LINE
8
Black
10
104.765
20
-41.409
11
104.541
21
-41.1419
0
LINE
8
Black
10
104.541
20
-41.1419
11
104.421
21
-40.8143
0
LINE
8
Black
10
104.421
20
-40.8143
11
104.421
21
-40.4657
0
LINE
8
Black
10
104.421
20
-40.4657
11
104.541
21
-40.1381
0
LINE
8
Black
10
104.541
20
-40.1381
11
104.765
21
-39.871
0
LINE
8
Black
10
104.765
20
-39.871
11
105.067
21
-39.6967
0
LINE
8
Black
10
105.067
20
-39.6967
11
105.41
21
-39.6362
0
LINE
8
Black
10
105.41
20
-39.6362
11
105.753
21
-39.6967
0
LINE
8
Black
10
108.293
20
-39.6967
11
108.595
21
-39.871
0
LINE
8
Black
10
108.595
20
-39.871
11
108.819
21
-40.1381
0
LINE
8
Black
10
108.819
20
-40.1381
11
108.939
21
-40.4657
0
LINE
8
Black
10
108.939
20
-40.4657
11
108.939
21
-40.8143
0
LINE
8
Black
10
108.939
20
-40.8143
11
108.819
21
-41.1419
0
LINE
8
Black
10
108.819
20
-41.1419
11
108.595
21
-41.409
0
LINE
8
Black
10
108.595
20
-41.409
11
108.293
21
-41.5833
0
LINE
8
Black
10
108.293
20
-41.5833
11
107.95
21
-41.6438
0
LINE
8
Black
10
107.95
20
-41.6438
11
107.607
21
-41.5833
0
LINE
8
Black
10
107.607
20
-41.5833
11
107.305
21
-41.409
0
LINE
8
Black
10
107.305
20
-41.409
11
107.081
21
-41.1419
0
LINE
8
Black
10
107.081
20
-41.1419
11
106.961
21
-40.8143
0
LINE
8
Black
10
106.961
20
-40.8143
11
106.961
21
-40.4657
0
LINE
8
Black
10
106.961
20
-40.4657
11
107.081
21
-40.1381
0
LINE
8
Black
10
107.081
20
-40.1381
11
107.305
21
-39.871
0
LINE
8
Black
10
107.305
20
-39.871
11
107.607
21
-39.6967
0
LINE
8
Black
10
107.607
20
-39.6967
11
107.95
21
-39.6362
0
LINE
8
Black
10
107.95
20
-39.6362
11
108.293
21
-39.6967
0
LINE
8
Black
10
110.833
20
-39.6967
11
111.135
21
-39.871
0
LINE
8
Black
10
111.135
20
-39.871
11
111.359
21
-40.1381
0
LINE
8
Black
10
111.359
20
-40.1381
11
111.479
21
-40.4657
0
LINE
8
Black
10
111.479
20
-40.4657
11
111.479
21
-40.8143
0
LINE
8
Black
10
111.479
20
-40.8143
11
111.359
21
-41.1419
0
LINE
8
Black
10
111.359
20
-41.1419
11
111.135
21
-41.409
0
LINE
8
Black
10
111.135
20
-41.409
11
110.833
21
-41.5833
0
LINE
8
Black
10
110.833
20
-41.5833
11
110.49
21
-41.6438
0
LINE
8
Black
10
110.49
20
-41.6438
11
110.147
21
-41.5833
0
LINE
8
Black
10
110.147
20
-41.5833
11
109.845
21
-41.409
0
LINE
8
Black
10
109.845
20
-41.409
11
109.621
21
-41.1419
0
LINE
8
Black
10
109.621
20
-41.1419
11
109.501
21
-40.8143
0
LINE
8
Black
10
109.501
20
-40.8143
11
109.501
21
-40.4657
0
LINE
8
Black
10
109.501
20
-40.4657
11
109.621
21
-40.1381
0
LINE
8
Black
10
109.621
20
-40.1381
11
109.845
21
-39.871
0
LINE
8
Black
10
109.845
20
-39.871
11
110.147
21
-39.6967
0
LINE
8
Black
10
110.147
20
-39.6967
11
110.49
21
-39.6362
0
LINE
8
Black
10
110.49
20
-39.6362
11
110.833
21
-39.6967
0
LINE
8
Black
10
115.913
20
-39.6967
11
116.215
21
-39.871
0
LINE
8
Black
10
116.215
20
-39.871
11
116.439
21
-40.1381
0
LINE
8
Black
10
116.439
20
-40.1381
11
116.559
21
-40.4657
0
LINE
8
Black
10
116.559
20
-40.4657
11
116.559
21
-40.8143
0
LINE
8
Black
10
116.559
20
-40.8143
11
116.439
21
-41.1419
0
LINE
8
Black
10
116.439
20
-41.1419
11
116.215
21
-41.409
0
LINE
8
Black
10
116.215
20
-41.409
11
115.913
21
-41.5833
0
LINE
8
Black
10
115.913
20
-41.5833
11
115.57
21
-41.6438
0
LINE
8
Black
10
115.57
20
-41.6438
11
115.227
21
-41.5833
0
LINE
8
Black
10
115.227
20
-41.5833
11
114.925
21
-41.409
0
LINE
8
Black
10
114.925
20
-41.409
11
114.701
21
-41.1419
0
LINE
8
Black
10
114.701
20
-41.1419
11
114.581
21
-40.8143
0
LINE
8
Black
10
114.581
20
-40.8143
11
114.581
21
-40.4657
0
LINE
8
Black
10
114.581
20
-40.4657
11
114.701
21
-40.1381
0
LINE
8
Black
10
114.701
20
-40.1381
11
114.925
21
-39.871
0
LINE
8
Black
10
114.925
20
-39.871
11
115.227
21
-39.6967
0
LINE
8
Black
10
115.227
20
-39.6967
11
115.57
21
-39.6362
0
LINE
8
Black
10
115.57
20
-39.6362
11
115.913
21
-39.6967
0
LINE
8
Black
10
88.63
20
-41.64
11
86.63
21
-41.64
0
LINE
8
Black
10
86.63
20
-41.64
11
86.63
21
-39.64
0
LINE
8
Black
10
86.63
20
-39.64
11
88.63
21
-39.64
0
LINE
8
Black
10
88.63
20
-39.64
11
88.63
21
-41.64
0
LINE
8
Black
10
119.379
20
-38.122
11
120.31
21
-38.122
0
LINE
8
Black
10
120.31
20
-38.122
11
120.31
21
-40.046
0
LINE
8
Black
10
120.31
20
-40.046
11
119.379
21
-40.046
0
LINE
8
Black
10
119.379
20
-40.046
11
119.358
21
-40.0497
0
LINE
8
Black
10
119.358
20
-40.0497
11
119.337
21
-40.046
0
LINE
8
Black
10
119.337
20
-40.046
11
118.386
21
-40.046
0
LINE
8
Black
10
118.386
20
-40.046
11
118.386
21
-38.122
0
LINE
8
Black
10
118.386
20
-38.122
11
119.337
21
-38.122
0
LINE
8
Black
10
119.337
20
-38.122
11
119.358
21
-38.1183
0
LINE
8
Black
10
119.358
20
-38.1183
11
119.379
21
-38.122
0
LINE
8
Black
10
119.416
20
-36.122
11
120.31
21
-36.122
0
LINE
8
Black
10
120.31
20
-36.122
11
120.31
21
-38.046
0
LINE
8
Black
10
120.31
20
-38.046
11
118.386
21
-38.046
0
LINE
8
Black
10
118.386
20
-38.046
11
118.386
21
-36.122
0
LINE
8
Black
10
118.386
20
-36.122
11
119.26
21
-36.122
0
LINE
8
Black
10
119.26
20
-36.122
11
119.338
21
-36.1083
0
LINE
8
Black
10
119.338
20
-36.1083
11
119.416
21
-36.122
0
LINE
8
Black
10
119.416
20
-34.122
11
120.31
21
-34.122
0
LINE
8
Black
10
120.31
20
-34.122
11
120.31
21
-36.046
0
LINE
8
Black
10
120.31
20
-36.046
11
118.386
21
-36.046
0
LINE
8
Black
10
118.386
20
-36.046
11
118.386
21
-34.122
0
LINE
8
Black
10
118.386
20
-34.122
11
119.26
21
-34.122
0
LINE
8
Black
10
119.26
20
-34.122
11
119.338
21
-34.1083
0
LINE
8
Black
10
119.338
20
-34.1083
11
119.416
21
-34.122
0
LINE
8
Black
10
126.37
20
-32.007
11
126.656
21
-32.2473
0
LINE
8
Black
10
126.656
20
-32.2473
11
126.843
21
-32.571
0
LINE
8
Black
10
126.843
20
-32.571
11
126.908
21
-32.9391
0
LINE
8
Black
10
126.908
20
-32.9391
11
126.908
21
-33.2533
0
LINE
8
Black
10
126.908
20
-33.2533
11
126.843
21
-33.6214
0
LINE
8
Black
10
126.843
20
-33.6214
11
126.656
21
-33.9451
0
LINE
8
Black
10
126.656
20
-33.9451
11
126.37
21
-34.1854
0
LINE
8
Black
10
126.37
20
-34.1854
11
126.018
21
-34.3132
0
LINE
8
Black
10
126.018
20
-34.3132
11
125.645
21
-34.3132
0
LINE
8
Black
10
125.645
20
-34.3132
11
125.293
21
-34.1854
0
LINE
8
Black
10
125.293
20
-34.1854
11
125.007
21
-33.9451
0
LINE
8
Black
10
125.007
20
-33.9451
11
124.82
21
-33.6214
0
LINE
8
Black
10
124.82
20
-33.6214
11
124.755
21
-33.2533
0
LINE
8
Black
10
124.755
20
-33.2533
11
124.755
21
-32.9391
0
LINE
8
Black
10
124.755
20
-32.9391
11
124.82
21
-32.571
0
LINE
8
Black
10
124.82
20
-32.571
11
125.007
21
-32.2473
0
LINE
8
Black
10
125.007
20
-32.2473
11
125.293
21
-32.007
0
LINE
8
Black
10
125.293
20
-32.007
11
125.645
21
-31.8792
0
LINE
8
Black
10
125.645
20
-31.8792
11
126.018
21
-31.8792
0
LINE
8
Black
10
126.018
20
-31.8792
11
126.37
21
-32.007
0
LINE
8
Black
10
131.205
20
-31.0395
11
131.53
21
-31.2272
0
LINE
8
Black
10
131.53
20
-31.2272
11
131.771
21
-31.5146
0
LINE
8
Black
10
131.771
20
-31.5146
11
131.899
21
-31.8672
0
LINE
8
Black
10
131.899
20
-31.8672
11
131.899
21
-32.2424
0
LINE
8
Black
10
131.899
20
-32.2424
11
131.771
21
-32.595
0
LINE
8
Black
10
131.771
20
-32.595
11
131.53
21
-32.8824
0
LINE
8
Black
10
131.53
20
-32.8824
11
131.205
21
-33.0701
0
LINE
8
Black
10
131.205
20
-33.0701
11
130.835
21
-33.1352
0
LINE
8
Black
10
130.835
20
-33.1352
11
130.466
21
-33.0701
0
LINE
8
Black
10
130.466
20
-33.0701
11
130.141
21
-32.8824
0
LINE
8
Black
10
130.141
20
-32.8824
11
129.9
21
-32.595
0
LINE
8
Black
10
129.9
20
-32.595
11
129.771
21
-32.2424
0
LINE
8
Black
10
129.771
20
-32.2424
11
129.771
21
-31.8672
0
LINE
8
Black
10
129.771
20
-31.8672
11
129.9
21
-31.5146
0
LINE
8
Black
10
129.9
20
-31.5146
11
130.141
21
-31.2272
0
LINE
8
Black
10
130.141
20
-31.2272
11
130.466
21
-31.0395
0
LINE
8
Black
10
130.466
20
-31.0395
11
130.835
21
-30.9744
0
LINE
8
Black
10
130.835
20
-30.9744
11
131.205
21
-31.0395
0
LINE
8
Black
10
119.379
20
-31.01
11
120.31
21
-31.01
0
LINE
8
Black
10
120.31
20
-31.01
11
120.31
21
-32.934
0
LINE
8
Black
10
120.31
20
-32.934
11
119.379
21
-32.934
0
LINE
8
Black
10
119.379
20
-32.934
11
119.358
21
-32.9377
0
LINE
8
Black
10
119.358
20
-32.9377
11
119.337
21
-32.934
0
LINE
8
Black
10
119.337
20
-32.934
11
118.386
21
-32.934
0
LINE
8
Black
10
118.386
20
-32.934
11
118.386
21
-31.01
0
LINE
8
Black
10
118.386
20
-31.01
11
119.337
21
-31.01
0
LINE
8
Black
10
119.337
20
-31.01
11
119.358
21
-31.0063
0
LINE
8
Black
10
119.358
20
-31.0063
11
119.379
21
-31.01
0
LINE
8
Black
10
134.304
20
-29.0329
11
134.629
21
-29.2206
0
LINE
8
Black
10
134.629
20
-29.2206
11
134.87
21
-29.508
0
LINE
8
Black
10
134.87
20
-29.508
11
134.998
21
-29.8606
0
LINE
8
Black
10
134.998
20
-29.8606
11
134.998
21
-30.2358
0
LINE
8
Black
10
134.998
20
-30.2358
11
134.87
21
-30.5884
0
LINE
8
Black
10
134.87
20
-30.5884
11
134.629
21
-30.8758
0
LINE
8
Black
10
134.629
20
-30.8758
11
134.304
21
-31.0635
0
LINE
8
Black
10
134.304
20
-31.0635
11
133.934
21
-31.1286
0
LINE
8
Black
10
133.934
20
-31.1286
11
133.565
21
-31.0635
0
LINE
8
Black
10
133.565
20
-31.0635
11
133.24
21
-30.8758
0
LINE
8
Black
10
133.24
20
-30.8758
11
132.999
21
-30.5884
0
LINE
8
Black
10
132.999
20
-30.5884
11
132.87
21
-30.2358
0
LINE
8
Black
10
132.87
20
-30.2358
11
132.87
21
-29.8606
0
LINE
8
Black
10
132.87
20
-29.8606
11
132.999
21
-29.508
0
LINE
8
Black
10
132.999
20
-29.508
11
133.24
21
-29.2206
0
LINE
8
Black
10
133.24
20
-29.2206
11
133.565
21
-29.0329
0
LINE
8
Black
10
133.565
20
-29.0329
11
133.934
21
-28.9678
0
LINE
8
Black
10
133.934
20
-28.9678
11
134.304
21
-29.0329
0
LINE
8
Black
10
119.416
20
-29.01
11
120.31
21
-29.01
0
LINE
8
Black
10
120.31
20
-29.01
11
120.31
21
-30.934
0
LINE
8
Black
10
120.31
20
-30.934
11
118.386
21
-30.934
0
LINE
8
Black
10
118.386
20
-30.934
11
118.386
21
-29.01
0
LINE
8
Black
10
118.386
20
-29.01
11
119.26
21
-29.01
0
LINE
8
Black
10
119.26
20
-29.01
11
119.338
21
-28.9963
0
LINE
8
Black
10
119.338
20
-28.9963
11
119.416
21
-29.01
0
LINE
8
Black
10
131.074
20
-27.7921
11
131.284
21
-27.9133
0
LINE
8
Black
10
131.284
20
-27.9133
11
131.44
21
-28.099
0
LINE
8
Black
10
131.44
20
-28.099
11
131.523
21
-28.3268
0
LINE
8
Black
10
131.523
20
-28.3268
11
131.523
21
-28.5692
0
LINE
8
Black
10
131.523
20
-28.5692
11
131.44
21
-28.797
0
LINE
8
Black
10
131.44
20
-28.797
11
131.284
21
-28.9827
0
LINE
8
Black
10
131.284
20
-28.9827
11
131.074
21
-29.1039
0
LINE
8
Black
10
131.074
20
-29.1039
11
130.835
21
-29.146
0
LINE
8
Black
10
130.835
20
-29.146
11
130.597
21
-29.1039
0
LINE
8
Black
10
130.597
20
-29.1039
11
130.387
21
-28.9827
0
LINE
8
Black
10
130.387
20
-28.9827
11
130.231
21
-28.797
0
LINE
8
Black
10
130.231
20
-28.797
11
130.148
21
-28.5692
0
LINE
8
Black
10
130.148
20
-28.5692
11
130.148
21
-28.3268
0
LINE
8
Black
10
130.148
20
-28.3268
11
130.231
21
-28.099
0
LINE
8
Black
10
130.231
20
-28.099
11
130.387
21
-27.9133
0
LINE
8
Black
10
130.387
20
-27.9133
11
130.597
21
-27.7921
0
LINE
8
Black
10
130.597
20
-27.7921
11
130.835
21
-27.75
0
LINE
8
Black
10
130.835
20
-27.75
11
131.074
21
-27.7921
0
LINE
8
Black
10
126.07
20
-27.7921
11
126.28
21
-27.9133
0
LINE
8
Black
10
126.28
20
-27.9133
11
126.436
21
-28.099
0
LINE
8
Black
10
126.436
20
-28.099
11
126.519
21
-28.3268
0
LINE
8
Black
10
126.519
20
-28.3268
11
126.519
21
-28.5692
0
LINE
8
Black
10
126.519
20
-28.5692
11
126.436
21
-28.797
0
LINE
8
Black
10
126.436
20
-28.797
11
126.28
21
-28.9827
0
LINE
8
Black
10
126.28
20
-28.9827
11
126.07
21
-29.1039
0
LINE
8
Black
10
126.07
20
-29.1039
11
125.832
21
-29.146
0
LINE
8
Black
10
125.832
20
-29.146
11
125.593
21
-29.1039
0
LINE
8
Black
10
125.593
20
-29.1039
11
125.383
21
-28.9827
0
LINE
8
Black
10
125.383
20
-28.9827
11
125.227
21
-28.797
0
LINE
8
Black
10
125.227
20
-28.797
11
125.144
21
-28.5692
0
LINE
8
Black
10
125.144
20
-28.5692
11
125.144
21
-28.3268
0
LINE
8
Black
10
125.144
20
-28.3268
11
125.227
21
-28.099
0
LINE
8
Black
10
125.227
20
-28.099
11
125.383
21
-27.9133
0
LINE
8
Black
10
125.383
20
-27.9133
11
125.593
21
-27.7921
0
LINE
8
Black
10
125.593
20
-27.7921
11
125.832
21
-27.75
0
LINE
8
Black
10
125.832
20
-27.75
11
126.07
21
-27.7921
0
LINE
8
Black
10
119.416
20
-27.01
11
120.31
21
-27.01
0
LINE
8
Black
10
120.31
20
-27.01
11
120.31
21
-28.934
0
LINE
8
Black
10
120.31
20
-28.934
11
118.386
21
-28.934
0
LINE
8
Black
10
118.386
20
-28.934
11
118.386
21
-27.01
0
LINE
8
Black
10
118.386
20
-27.01
11
119.26
21
-27.01
0
LINE
8
Black
10
119.26
20
-27.01
11
119.338
21
-26.9963
0
LINE
8
Black
10
119.338
20
-26.9963
11
119.416
21
-27.01
0
LINE
8
Black
10
134.304
20
-25.8325
11
134.629
21
-26.0202
0
LINE
8
Black
10
134.629
20
-26.0202
11
134.87
21
-26.3076
0
LINE
8
Black
10
134.87
20
-26.3076
11
134.998
21
-26.6602
0
LINE
8
Black
10
134.998
20
-26.6602
11
134.998
21
-27.0354
0
LINE
8
Black
10
134.998
20
-27.0354
11
134.87
21
-27.388
0
LINE
8
Black
10
134.87
20
-27.388
11
134.629
21
-27.6754
0
LINE
8
Black
10
134.629
20
-27.6754
11
134.304
21
-27.8631
0
LINE
8
Black
10
134.304
20
-27.8631
11
133.934
21
-27.9282
0
LINE
8
Black
10
133.934
20
-27.9282
11
133.565
21
-27.8631
0
LINE
8
Black
10
133.565
20
-27.8631
11
133.24
21
-27.6754
0
LINE
8
Black
10
133.24
20
-27.6754
11
132.999
21
-27.388
0
LINE
8
Black
10
132.999
20
-27.388
11
132.87
21
-27.0354
0
LINE
8
Black
10
132.87
20
-27.0354
11
132.87
21
-26.6602
0
LINE
8
Black
10
132.87
20
-26.6602
11
132.999
21
-26.3076
0
LINE
8
Black
10
132.999
20
-26.3076
11
133.24
21
-26.0202
0
LINE
8
Black
10
133.24
20
-26.0202
11
133.565
21
-25.8325
0
LINE
8
Black
10
133.565
20
-25.8325
11
133.934
21
-25.7674
0
LINE
8
Black
10
133.934
20
-25.7674
11
134.304
21
-25.8325
0
LINE
8
Black
10
115.913
20
-24.4567
11
116.215
21
-24.631
0
LINE
8
Black
10
116.215
20
-24.631
11
116.439
21
-24.8981
0
LINE
8
Black
10
116.439
20
-24.8981
11
116.559
21
-25.2257
0
LINE
8
Black
10
116.559
20
-25.2257
11
116.559
21
-25.5743
0
LINE
8
Black
10
116.559
20
-25.5743
11
116.439
21
-25.9019
0
LINE
8
Black
10
116.439
20
-25.9019
11
116.215
21
-26.169
0
LINE
8
Black
10
116.215
20
-26.169
11
115.913
21
-26.3433
0
LINE
8
Black
10
115.913
20
-26.3433
11
115.57
21
-26.4038
0
LINE
8
Black
10
115.57
20
-26.4038
11
115.227
21
-26.3433
0
LINE
8
Black
10
115.227
20
-26.3433
11
114.925
21
-26.169
0
LINE
8
Black
10
114.925
20
-26.169
11
114.701
21
-25.9019
0
LINE
8
Black
10
114.701
20
-25.9019
11
114.581
21
-25.5743
0
LINE
8
Black
10
114.581
20
-25.5743
11
114.581
21
-25.2257
0
LINE
8
Black
10
114.581
20
-25.2257
11
114.701
21
-24.8981
0
LINE
8
Black
10
114.701
20
-24.8981
11
114.925
21
-24.631
0
LINE
8
Black
10
114.925
20
-24.631
11
115.227
21
-24.4567
0
LINE
8
Black
10
115.227
20
-24.4567
11
115.57
21
-24.3962
0
LINE
8
Black
10
115.57
20
-24.3962
11
115.913
21
-24.4567
0
LINE
8
Black
10
87.9733
20
-24.4567
11
88.2752
21
-24.631
0
LINE
8
Black
10
88.2752
20
-24.631
11
88.4993
21
-24.8981
0
LINE
8
Black
10
88.4993
20
-24.8981
11
88.6186
21
-25.2257
0
LINE
8
Black
10
88.6186
20
-25.2257
11
88.6186
21
-25.5743
0
LINE
8
Black
10
88.6186
20
-25.5743
11
88.4993
21
-25.9019
0
LINE
8
Black
10
88.4993
20
-25.9019
11
88.2752
21
-26.169
0
LINE
8
Black
10
88.2752
20
-26.169
11
87.9733
21
-26.3433
0
LINE
8
Black
10
87.9733
20
-26.3433
11
87.63
21
-26.4038
0
LINE
8
Black
10
87.63
20
-26.4038
11
87.2867
21
-26.3433
0
LINE
8
Black
10
87.2867
20
-26.3433
11
86.9848
21
-26.169
0
LINE
8
Black
10
86.9848
20
-26.169
11
86.7607
21
-25.9019
0
LINE
8
Black
10
86.7607
20
-25.9019
11
86.6414
21
-25.5743
0
LINE
8
Black
10
86.6414
20
-25.5743
11
86.6414
21
-25.2257
0
LINE
8
Black
10
86.6414
20
-25.2257
11
86.7607
21
-24.8981
0
LINE
8
Black
10
86.7607
20
-24.8981
11
86.9848
21
-24.631
0
LINE
8
Black
10
86.9848
20
-24.631
11
87.2867
21
-24.4567
0
LINE
8
Black
10
87.2867
20
-24.4567
11
87.63
21
-24.3962
0
LINE
8
Black
10
87.63
20
-24.3962
11
87.9733
21
-24.4567
0
LINE
8
Black
10
90.5133
20
-24.4567
11
90.8152
21
-24.631
0
LINE
8
Black
10
90.8152
20
-24.631
11
91.0393
21
-24.8981
0
LINE
8
Black
10
91.0393
20
-24.8981
11
91.1586
21
-25.2257
0
LINE
8
Black
10
91.1586
20
-25.2257
11
91.1586
21
-25.5743
0
LINE
8
Black
10
91.1586
20
-25.5743
11
91.0393
21
-25.9019
0
LINE
8
Black
10
91.0393
20
-25.9019
11
90.8152
21
-26.169
0
LINE
8
Black
10
90.8152
20
-26.169
11
90.5133
21
-26.3433
0
LINE
8
Black
10
90.5133
20
-26.3433
11
90.17
21
-26.4038
0
LINE
8
Black
10
90.17
20
-26.4038
11
89.8267
21
-26.3433
0
LINE
8
Black
10
89.8267
20
-26.3433
11
89.5248
21
-26.169
0
LINE
8
Black
10
89.5248
20
-26.169
11
89.3007
21
-25.9019
0
LINE
8
Black
10
89.3007
20
-25.9019
11
89.1814
21
-25.5743
0
LINE
8
Black
10
89.1814
20
-25.5743
11
89.1814
21
-25.2257
0
LINE
8
Black
10
89.1814
20
-25.2257
11
89.3007
21
-24.8981
0
LINE
8
Black
10
89.3007
20
-24.8981
11
89.5248
21
-24.631
0
LINE
8
Black
10
89.5248
20
-24.631
11
89.8267
21
-24.4567
0
LINE
8
Black
10
89.8267
20
-24.4567
11
90.17
21
-24.3962
0
LINE
8
Black
10
90.17
20
-24.3962
11
90.5133
21
-24.4567
0
LINE
8
Black
10
93.0533
20
-24.4567
11
93.3552
21
-24.631
0
LINE
8
Black
10
93.3552
20
-24.631
11
93.5793
21
-24.8981
0
LINE
8
Black
10
93.5793
20
-24.8981
11
93.6986
21
-25.2257
0
LINE
8
Black
10
93.6986
20
-25.2257
11
93.6986
21
-25.5743
0
LINE
8
Black
10
93.6986
20
-25.5743
11
93.5793
21
-25.9019
0
LINE
8
Black
10
93.5793
20
-25.9019
11
93.3552
21
-26.169
0
LINE
8
Black
10
93.3552
20
-26.169
11
93.0533
21
-26.3433
0
LINE
8
Black
10
93.0533
20
-26.3433
11
92.71
21
-26.4038
0
LINE
8
Black
10
92.71
20
-26.4038
11
92.3667
21
-26.3433
0
LINE
8
Black
10
92.3667
20
-26.3433
11
92.0648
21
-26.169
0
LINE
8
Black
10
92.0648
20
-26.169
11
91.8407
21
-25.9019
0
LINE
8
Black
10
91.8407
20
-25.9019
11
91.7214
21
-25.5743
0
LINE
8
Black
10
91.7214
20
-25.5743
11
91.7214
21
-25.2257
0
LINE
8
Black
10
91.7214
20
-25.2257
11
91.8407
21
-24.8981
0
LINE
8
Black
10
91.8407
20
-24.8981
11
92.0648
21
-24.631
0
LINE
8
Black
10
92.0648
20
-24.631
11
92.3667
21
-24.4567
0
LINE
8
Black
10
92.3667
20
-24.4567
11
92.71
21
-24.3962
0
LINE
8
Black
10
92.71
20
-24.3962
11
93.0533
21
-24.4567
0
LINE
8
Black
10
95.5933
20
-24.4567
11
95.8952
21
-24.631
0
LINE
8
Black
10
95.8952
20
-24.631
11
96.1193
21
-24.8981
0
LINE
8
Black
10
96.1193
20
-24.8981
11
96.2386
21
-25.2257
0
LINE
8
Black
10
96.2386
20
-25.2257
11
96.2386
21
-25.5743
0
LINE
8
Black
10
96.2386
20
-25.5743
11
96.1193
21
-25.9019
0
LINE
8
Black
10
96.1193
20
-25.9019
11
95.8952
21
-26.169
0
LINE
8
Black
10
95.8952
20
-26.169
11
95.5933
21
-26.3433
0
LINE
8
Black
10
95.5933
20
-26.3433
11
95.25
21
-26.4038
0
LINE
8
Black
10
95.25
20
-26.4038
11
94.9067
21
-26.3433
0
LINE
8
Black
10
94.9067
20
-26.3433
11
94.6048
21
-26.169
0
LINE
8
Black
10
94.6048
20
-26.169
11
94.3807
21
-25.9019
0
LINE
8
Black
10
94.3807
20
-25.9019
11
94.2614
21
-25.5743
0
LINE
8
Black
10
94.2614
20
-25.5743
11
94.2614
21
-25.2257
0
LINE
8
Black
10
94.2614
20
-25.2257
11
94.3807
21
-24.8981
0
LINE
8
Black
10
94.3807
20
-24.8981
11
94.6048
21
-24.631
0
LINE
8
Black
10
94.6048
20
-24.631
11
94.9067
21
-24.4567
0
LINE
8
Black
10
94.9067
20
-24.4567
11
95.25
21
-24.3962
0
LINE
8
Black
10
95.25
20
-24.3962
11
95.5933
21
-24.4567
0
LINE
8
Black
10
98.1333
20
-24.4567
11
98.4352
21
-24.631
0
LINE
8
Black
10
98.4352
20
-24.631
11
98.6593
21
-24.8981
0
LINE
8
Black
10
98.6593
20
-24.8981
11
98.7786
21
-25.2257
0
LINE
8
Black
10
98.7786
20
-25.2257
11
98.7786
21
-25.5743
0
LINE
8
Black
10
98.7786
20
-25.5743
11
98.6593
21
-25.9019
0
LINE
8
Black
10
98.6593
20
-25.9019
11
98.4352
21
-26.169
0
LINE
8
Black
10
98.4352
20
-26.169
11
98.1333
21
-26.3433
0
LINE
8
Black
10
98.1333
20
-26.3433
11
97.79
21
-26.4038
0
LINE
8
Black
10
97.79
20
-26.4038
11
97.4467
21
-26.3433
0
LINE
8
Black
10
97.4467
20
-26.3433
11
97.1448
21
-26.169
0
LINE
8
Black
10
97.1448
20
-26.169
11
96.9207
21
-25.9019
0
LINE
8
Black
10
96.9207
20
-25.9019
11
96.8014
21
-25.5743
0
LINE
8
Black
10
96.8014
20
-25.5743
11
96.8014
21
-25.2257
0
LINE
8
Black
10
96.8014
20
-25.2257
11
96.9207
21
-24.8981
0
LINE
8
Black
10
96.9207
20
-24.8981
11
97.1448
21
-24.631
0
LINE
8
Black
10
97.1448
20
-24.631
11
97.4467
21
-24.4567
0
LINE
8
Black
10
97.4467
20
-24.4567
11
97.79
21
-24.3962
0
LINE
8
Black
10
97.79
20
-24.3962
11
98.1333
21
-24.4567
0
LINE
8
Black
10
100.673
20
-24.4567
11
100.975
21
-24.631
0
LINE
8
Black
10
100.975
20
-24.631
11
101.199
21
-24.8981
0
LINE
8
Black
10
101.199
20
-24.8981
11
101.319
21
-25.2257
0
LINE
8
Black
10
101.319
20
-25.2257
11
101.319
21
-25.5743
0
LINE
8
Black
10
101.319
20
-25.5743
11
101.199
21
-25.9019
0
LINE
8
Black
10
101.199
20
-25.9019
11
100.975
21
-26.169
0
LINE
8
Black
10
100.975
20
-26.169
11
100.673
21
-26.3433
0
LINE
8
Black
10
100.673
20
-26.3433
11
100.33
21
-26.4038
0
LINE
8
Black
10
100.33
20
-26.4038
11
99.9867
21
-26.3433
0
LINE
8
Black
10
99.9867
20
-26.3433
11
99.6848
21
-26.169
0
LINE
8
Black
10
99.6848
20
-26.169
11
99.4607
21
-25.9019
0
LINE
8
Black
10
99.4607
20
-25.9019
11
99.3414
21
-25.5743
0
LINE
8
Black
10
99.3414
20
-25.5743
11
99.3414
21
-25.2257
0
LINE
8
Black
10
99.3414
20
-25.2257
11
99.4607
21
-24.8981
0
LINE
8
Black
10
99.4607
20
-24.8981
11
99.6848
21
-24.631
0
LINE
8
Black
10
99.6848
20
-24.631
11
99.9867
21
-24.4567
0
LINE
8
Black
10
99.9867
20
-24.4567
11
100.33
21
-24.3962
0
LINE
8
Black
10
100.33
20
-24.3962
11
100.673
21
-24.4567
0
LINE
8
Black
10
103.213
20
-24.4567
11
103.515
21
-24.631
0
LINE
8
Black
10
103.515
20
-24.631
11
103.739
21
-24.8981
0
LINE
8
Black
10
103.739
20
-24.8981
11
103.859
21
-25.2257
0
LINE
8
Black
10
103.859
20
-25.2257
11
103.859
21
-25.5743
0
LINE
8
Black
10
103.859
20
-25.5743
11
103.739
21
-25.9019
0
LINE
8
Black
10
103.739
20
-25.9019
11
103.515
21
-26.169
0
LINE
8
Black
10
103.515
20
-26.169
11
103.213
21
-26.3433
0
LINE
8
Black
10
103.213
20
-26.3433
11
102.87
21
-26.4038
0
LINE
8
Black
10
102.87
20
-26.4038
11
102.527
21
-26.3433
0
LINE
8
Black
10
102.527
20
-26.3433
11
102.225
21
-26.169
0
LINE
8
Black
10
102.225
20
-26.169
11
102.001
21
-25.9019
0
LINE
8
Black
10
102.001
20
-25.9019
11
101.881
21
-25.5743
0
LINE
8
Black
10
101.881
20
-25.5743
11
101.881
21
-25.2257
0
LINE
8
Black
10
101.881
20
-25.2257
11
102.001
21
-24.8981
0
LINE
8
Black
10
102.001
20
-24.8981
11
102.225
21
-24.631
0
LINE
8
Black
10
102.225
20
-24.631
11
102.527
21
-24.4567
0
LINE
8
Black
10
102.527
20
-24.4567
11
102.87
21
-24.3962
0
LINE
8
Black
10
102.87
20
-24.3962
11
103.213
21
-24.4567
0
LINE
8
Black
10
105.753
20
-24.4567
11
106.055
21
-24.631
0
LINE
8
Black
10
106.055
20
-24.631
11
106.279
21
-24.8981
0
LINE
8
Black
10
106.279
20
-24.8981
11
106.399
21
-25.2257
0
LINE
8
Black
10
106.399
20
-25.2257
11
106.399
21
-25.5743
0
LINE
8
Black
10
106.399
20
-25.5743
11
106.279
21
-25.9019
0
LINE
8
Black
10
106.279
20
-25.9019
11
106.055
21
-26.169
0
LINE
8
Black
10
106.055
20
-26.169
11
105.753
21
-26.3433
0
LINE
8
Black
10
105.753
20
-26.3433
11
105.41
21
-26.4038
0
LINE
8
Black
10
105.41
20
-26.4038
11
105.067
21
-26.3433
0
LINE
8
Black
10
105.067
20
-26.3433
11
104.765
21
-26.169
0
LINE
8
Black
10
104.765
20
-26.169
11
104.541
21
-25.9019
0
LINE
8
Black
10
104.541
20
-25.9019
11
104.421
21
-25.5743
0
LINE
8
Black
10
104.421
20
-25.5743
11
104.421
21
-25.2257
0
LINE
8
Black
10
104.421
20
-25.2257
11
104.541
21
-24.8981
0
LINE
8
Black
10
104.541
20
-24.8981
11
104.765
21
-24.631
0
LINE
8
Black
10
104.765
20
-24.631
11
105.067
21
-24.4567
0
LINE
8
Black
10
105.067
20
-24.4567
11
105.41
21
-24.3962
0
LINE
8
Black
10
105.41
20
-24.3962
11
105.753
21
-24.4567
0
LINE
8
Black
10
108.293
20
-24.4567
11
108.595
21
-24.631
0
LINE
8
Black
10
108.595
20
-24.631
11
108.819
21
-24.8981
0
LINE
8
Black
10
108.819
20
-24.8981
11
108.939
21
-25.2257
0
LINE
8
Black
10
108.939
20
-25.2257
11
108.939
21
-25.5743
0
LINE
8
Black
10
108.939
20
-25.5743
11
108.819
21
-25.9019
0
LINE
8
Black
10
108.819
20
-25.9019
11
108.595
21
-26.169
0
LINE
8
Black
10
108.595
20
-26.169
11
108.293
21
-26.3433
0
LINE
8
Black
10
108.293
20
-26.3433
11
107.95
21
-26.4038
0
LINE
8
Black
10
107.95
20
-26.4038
11
107.607
21
-26.3433
0
LINE
8
Black
10
107.607
20
-26.3433
11
107.305
21
-26.169
0
LINE
8
Black
10
107.305
20
-26.169
11
107.081
21
-25.9019
0
LINE
8
Black
10
107.081
20
-25.9019
11
106.961
21
-25.5743
0
LINE
8
Black
10
106.961
20
-25.5743
11
106.961
21
-25.2257
0
LINE
8
Black
10
106.961
20
-25.2257
11
107.081
21
-24.8981
0
LINE
8
Black
10
107.081
20
-24.8981
11
107.305
21
-24.631
0
LINE
8
Black
10
107.305
20
-24.631
11
107.607
21
-24.4567
0
LINE
8
Black
10
107.607
20
-24.4567
11
107.95
21
-24.3962
0
LINE
8
Black
10
107.95
20
-24.3962
11
108.293
21
-24.4567
0
LINE
8
Black
10
110.833
20
-24.4567
11
111.135
21
-24.631
0
LINE
8
Black
10
111.135
20
-24.631
11
111.359
21
-24.8981
0
LINE
8
Black
10
111.359
20
-24.8981
11
111.479
21
-25.2257
0
LINE
8
Black
10
111.479
20
-25.2257
11
111.479
21
-25.5743
0
LINE
8
Black
10
111.479
20
-25.5743
11
111.359
21
-25.9019
0
LINE
8
Black
10
111.359
20
-25.9019
11
111.135
21
-26.169
0
LINE
8
Black
10
111.135
20
-26.169
11
110.833
21
-26.3433
0
LINE
8
Black
10
110.833
20
-26.3433
11
110.49
21
-26.4038
0
LINE
8
Black
10
110.49
20
-26.4038
11
110.147
21
-26.3433
0
LINE
8
Black
10
110.147
20
-26.3433
11
109.845
21
-26.169
0
LINE
8
Black
10
109.845
20
-26.169
11
109.621
21
-25.9019
0
LINE
8
Black
10
109.621
20
-25.9019
11
109.501
21
-25.5743
0
LINE
8
Black
10
109.501
20
-25.5743
11
109.501
21
-25.2257
0
LINE
8
Black
10
109.501
20
-25.2257
11
109.621
21
-24.8981
0
LINE
8
Black
10
109.621
20
-24.8981
11
109.845
21
-24.631
0
LINE
8
Black
10
109.845
20
-24.631
11
110.147
21
-24.4567
0
LINE
8
Black
10
110.147
20
-24.4567
11
110.49
21
-24.3962
0
LINE
8
Black
10
110.49
20
-24.3962
11
110.833
21
-24.4567
0
LINE
8
Black
10
113.373
20
-24.4567
11
113.675
21
-24.631
0
LINE
8
Black
10
113.675
20
-24.631
11
113.899
21
-24.8981
0
LINE
8
Black
10
113.899
20
-24.8981
11
114.019
21
-25.2257
0
LINE
8
Black
10
114.019
20
-25.2257
11
114.019
21
-25.5743
0
LINE
8
Black
10
114.019
20
-25.5743
11
113.899
21
-25.9019
0
LINE
8
Black
10
113.899
20
-25.9019
11
113.675
21
-26.169
0
LINE
8
Black
10
113.675
20
-26.169
11
113.373
21
-26.3433
0
LINE
8
Black
10
113.373
20
-26.3433
11
113.03
21
-26.4038
0
LINE
8
Black
10
113.03
20
-26.4038
11
112.687
21
-26.3433
0
LINE
8
Black
10
112.687
20
-26.3433
11
112.385
21
-26.169
0
LINE
8
Black
10
112.385
20
-26.169
11
112.161
21
-25.9019
0
LINE
8
Black
10
112.161
20
-25.9019
11
112.041
21
-25.5743
0
LINE
8
Black
10
112.041
20
-25.5743
11
112.041
21
-25.2257
0
LINE
8
Black
10
112.041
20
-25.2257
11
112.161
21
-24.8981
0
LINE
8
Black
10
112.161
20
-24.8981
11
112.385
21
-24.631
0
LINE
8
Black
10
112.385
20
-24.631
11
112.687
21
-24.4567
0
LINE
8
Black
10
112.687
20
-24.4567
11
113.03
21
-24.3962
0
LINE
8
Black
10
113.03
20
-24.3962
11
113.373
21
-24.4567
0
LINE
8
Black
10
131.205
20
-23.8259
11
131.53
21
-24.0136
0
LINE
8
Black
10
131.53
20
-24.0136
11
131.771
21
-24.301
0
LINE
8
Black
10
131.771
20
-24.301
11
131.899
21
-24.6536
0
LINE
8
Black
10
131.899
20
-24.6536
11
131.899
21
-25.0288
0
LINE
8
Black
10
131.899
20
-25.0288
11
131.771
21
-25.3814
0
LINE
8
Black
10
131.771
20
-25.3814
11
131.53
21
-25.6688
0
LINE
8
Black
10
131.53
20
-25.6688
11
131.205
21
-25.8565
0
LINE
8
Black
10
131.205
20
-25.8565
11
130.835
21
-25.9216
0
LINE
8
Black
10
130.835
20
-25.9216
11
130.466
21
-25.8565
0
LINE
8
Black
10
130.466
20
-25.8565
11
130.141
21
-25.6688
0
LINE
8
Black
10
130.141
20
-25.6688
11
129.9
21
-25.3814
0
LINE
8
Black
10
129.9
20
-25.3814
11
129.771
21
-25.0288
0
LINE
8
Black
10
129.771
20
-25.0288
11
129.771
21
-24.6536
0
LINE
8
Black
10
129.771
20
-24.6536
11
129.9
21
-24.301
0
LINE
8
Black
10
129.9
20
-24.301
11
130.141
21
-24.0136
0
LINE
8
Black
10
130.141
20
-24.0136
11
130.466
21
-23.8259
0
LINE
8
Black
10
130.466
20
-23.8259
11
130.835
21
-23.7608
0
LINE
8
Black
10
130.835
20
-23.7608
11
131.205
21
-23.8259
0
LINE
8
Black
10
126.37
20
-22.7106
11
126.656
21
-22.9509
0
LINE
8
Black
10
126.656
20
-22.9509
11
126.843
21
-23.2746
0
LINE
8
Black
10
126.843
20
-23.2746
11
126.908
21
-23.6427
0
LINE
8
Black
10
126.908
20
-23.6427
11
126.908
21
-23.9569
0
LINE
8
Black
10
126.908
20
-23.9569
11
126.843
21
-24.325
0
LINE
8
Black
10
126.843
20
-24.325
11
126.656
21
-24.6487
0
LINE
8
Black
10
126.656
20
-24.6487
11
126.37
21
-24.889
0
LINE
8
Black
10
126.37
20
-24.889
11
126.018
21
-25.0168
0
LINE
8
Black
10
126.018
20
-25.0168
11
125.645
21
-25.0168
0
LINE
8
Black
10
125.645
20
-25.0168
11
125.293
21
-24.889
0
LINE
8
Black
10
125.293
20
-24.889
11
125.007
21
-24.6487
0
LINE
8
Black
10
125.007
20
-24.6487
11
124.82
21
-24.325
0
LINE
8
Black
10
124.82
20
-24.325
11
124.755
21
-23.9569
0
LINE
8
Black
10
124.755
20
-23.9569
11
124.755
21
-23.6427
0
LINE
8
Black
10
124.755
20
-23.6427
11
124.82
21
-23.2746
0
LINE
8
Black
10
124.82
20
-23.2746
11
125.007
21
-22.9509
0
LINE
8
Black
10
125.007
20
-22.9509
11
125.293
21
-22.7106
0
LINE
8
Black
10
125.293
20
-22.7106
11
125.645
21
-22.5828
0
LINE
8
Black
10
125.645
20
-22.5828
11
126.018
21
-22.5828
0
LINE
8
Black
10
126.018
20
-22.5828
11
126.37
21
-22.7106
  0
ENDSEC
  0
EOF
