  0
SECTION
  2
HEADER
  9
$ANGBASE
  50
0.0
  9
$ANGDIR
  70
  1
  9
$MEASUREMENT
  70
0
  0
ENDSEC
  0
SECTION
  2
TABLES
  0
TABLE
  2
LTYPE
  70
1
  0
LTYPE
  2
CONTINUOUS
  70
0
  3
Solid line
  72
65
  73
0
  40
0.0
  0
ENDTAB
  0
TABLE
  2
STYLE
  70
4
  0
STYLE
  2
KICAD
  70
0
  40
0
  41
1
  42
1
  50
0
  71
0
  3
isocp.shx
  0
STYLE
  2
KICADB
  70
0
  40
0
  41
1
  42
1
  50
0
  71
0
  3
isocp.shx
  0
STYLE
  2
KICADI
  70
0
  40
0
  41
1
  42
1
  50
15
  71
0
  3
isocp.shx
  0
STYLE
  2
KICADBI
  70
0
  40
0
  41
1
  42
1
  50
15
  71
0
  3
isocp.shx
  0
ENDTAB
  0
TABLE
  2
LAYER
  70
30
  0
LAYER
  2
BLACK
  70
0
  62
7
  6
CONTINUOUS
  0
LAYER
  2
GRAY1
  70
0
  62
251
  6
CONTINUOUS
  0
LAYER
  2
GRAY2
  70
0
  62
8
  6
CONTINUOUS
  0
LAYER
  2
GRAY3
  70
0
  62
9
  6
CONTINUOUS
  0
LAYER
  2
WHITE
  70
0
  62
7
  6
CONTINUOUS
  0
LAYER
  2
LYELLOW
  70
0
  62
51
  6
CONTINUOUS
  0
LAYER
  2
BLUE1
  70
0
  62
178
  6
CONTINUOUS
  0
LAYER
  2
GREEN1
  70
0
  62
98
  6
CONTINUOUS
  0
LAYER
  2
CYAN1
  70
0
  62
138
  6
CONTINUOUS
  0
LAYER
  2
RED1
  70
0
  62
18
  6
CONTINUOUS
  0
LAYER
  2
MAGENTA1
  70
0
  62
228
  6
CONTINUOUS
  0
LAYER
  2
BROWN1
  70
0
  62
58
  6
CONTINUOUS
  0
LAYER
  2
BLUE2
  70
0
  62
5
  6
CONTINUOUS
  0
LAYER
  2
GREEN2
  70
0
  62
3
  6
CONTINUOUS
  0
LAYER
  2
CYAN2
  70
0
  62
4
  6
CONTINUOUS
  0
LAYER
  2
RED2
  70
0
  62
1
  6
CONTINUOUS
  0
LAYER
  2
MAGENTA2
  70
0
  62
6
  6
CONTINUOUS
  0
LAYER
  2
BROWN2
  70
0
  62
54
  6
CONTINUOUS
  0
LAYER
  2
BLUE3
  70
0
  62
171
  6
CONTINUOUS
  0
LAYER
  2
GREEN3
  70
0
  62
91
  6
CONTINUOUS
  0
LAYER
  2
CYAN3
  70
0
  62
131
  6
CONTINUOUS
  0
LAYER
  2
RED3
  70
0
  62
11
  6
CONTINUOUS
  0
LAYER
  2
MAGENTA3
  70
0
  62
221
  6
CONTINUOUS
  0
LAYER
  2
YELLOW3
  70
0
  62
2
  6
CONTINUOUS
  0
LAYER
  2
BLUE4
  70
0
  62
5
  6
CONTINUOUS
  0
LAYER
  2
GREEN4
  70
0
  62
3
  6
CONTINUOUS
  0
LAYER
  2
CYAN4
  70
0
  62
4
  6
CONTINUOUS
  0
LAYER
  2
RED4
  70
0
  62
1
  6
CONTINUOUS
  0
LAYER
  2
MAGENTA4
  70
0
  62
6
  6
CONTINUOUS
  0
LAYER
  2
YELLOW4
  70
0
  62
2
  6
CONTINUOUS
  0
ENDTAB
  0
ENDSEC
  0
SECTION
  2
ENTITIES
0
LINE
8
Black
10
68.58
20
-22.86
11
134.62
21
-22.86
0
LINE
8
Black
10
20.32
20
-43.815
11
20.32
21
-43.18
0
LINE
8
Black
10
53.34
20
-43.18
11
68.58
21
-22.86
0
LINE
8
Black
10
20.32
20
-43.18
11
53.34
21
-43.18
0
LINE
8
Black
10
134.62
20
-117.475
11
134.62
21
-22.86
0
LINE
8
Black
10
20.32
20
-117.475
11
134.62
21
-117.475
0
LINE
8
Black
10
20.32
20
-43.815
11
20.32
21
-117.475
0
LINE
8
Black
10
124.6
20
-31.2547
11
125.59
21
-32.2453
0
LINE
8
Black
10
125.59
20
-31.2547
11
124.6
21
-32.2453
0
LINE
8
Black
10
129.603
20
-31.2547
11
130.594
21
-32.2453
0
LINE
8
Black
10
130.594
20
-31.2547
11
129.603
21
-32.2453
0
CIRCLE
8
Black
10
24.625
20
-48.505
40
0.6
0
CIRCLE
8
Black
10
24.625
20
-65.65
40
0.6
0
CIRCLE
8
Black
10
24.625
20
-82.795
40
0.6
0
CIRCLE
8
Black
10
24.625
20
-99.94
40
0.6
0
CIRCLE
8
Black
10
35.065
20
-48.505
40
0.6
0
CIRCLE
8
Black
10
35.065
20
-65.65
40
0.6
0
CIRCLE
8
Black
10
35.065
20
-82.795
40
0.6
0
CIRCLE
8
Black
10
35.065
20
-99.94
40
0.6
0
CIRCLE
8
Black
10
43.04
20
-48.505
40
0.6
0
CIRCLE
8
Black
10
43.04
20
-65.65
40
0.6
0
CIRCLE
8
Black
10
43.04
20
-82.795
40
0.6
0
CIRCLE
8
Black
10
43.04
20
-99.94
40
0.6
0
CIRCLE
8
Black
10
53.48
20
-48.505
40
0.6
0
CIRCLE
8
Black
10
53.48
20
-65.65
40
0.6
0
CIRCLE
8
Black
10
53.48
20
-82.795
40
0.6
0
CIRCLE
8
Black
10
53.48
20
-99.94
40
0.6
0
CIRCLE
8
Black
10
61.455
20
-48.505
40
0.6
0
CIRCLE
8
Black
10
61.455
20
-65.65
40
0.6
0
CIRCLE
8
Black
10
61.455
20
-82.795
40
0.6
0
CIRCLE
8
Black
10
61.455
20
-99.94
40
0.6
0
CIRCLE
8
Black
10
71.895
20
-48.505
40
0.6
0
CIRCLE
8
Black
10
71.895
20
-65.65
40
0.6
0
CIRCLE
8
Black
10
71.895
20
-82.795
40
0.6
0
CIRCLE
8
Black
10
71.895
20
-99.94
40
0.6
0
CIRCLE
8
Black
10
79.87
20
-48.505
40
0.6
0
CIRCLE
8
Black
10
79.87
20
-65.65
40
0.6
0
CIRCLE
8
Black
10
79.87
20
-82.795
40
0.6
0
CIRCLE
8
Black
10
79.87
20
-99.94
40
0.6
0
CIRCLE
8
Black
10
90.31
20
-48.505
40
0.6
0
CIRCLE
8
Black
10
90.31
20
-65.65
40
0.6
0
CIRCLE
8
Black
10
90.31
20
-82.795
40
0.6
0
CIRCLE
8
Black
10
90.31
20
-99.94
40
0.6
0
CIRCLE
8
Black
10
98.285
20
-48.505
40
0.6
0
CIRCLE
8
Black
10
98.285
20
-65.65
40
0.6
0
CIRCLE
8
Black
10
98.285
20
-82.795
40
0.6
0
CIRCLE
8
Black
10
98.285
20
-99.94
40
0.6
0
CIRCLE
8
Black
10
108.725
20
-48.505
40
0.6
0
CIRCLE
8
Black
10
108.725
20
-65.65
40
0.6
0
CIRCLE
8
Black
10
108.725
20
-82.795
40
0.6
0
CIRCLE
8
Black
10
108.725
20
-99.94
40
0.6
0
CIRCLE
8
Black
10
116.7
20
-48.505
40
0.6
0
CIRCLE
8
Black
10
116.7
20
-65.65
40
0.6
0
CIRCLE
8
Black
10
116.7
20
-82.795
40
0.6
0
CIRCLE
8
Black
10
116.7
20
-99.94
40
0.6
0
CIRCLE
8
Black
10
127.14
20
-48.505
40
0.6
0
CIRCLE
8
Black
10
127.14
20
-65.65
40
0.6
0
CIRCLE
8
Black
10
127.14
20
-82.795
40
0.6
0
CIRCLE
8
Black
10
127.14
20
-99.94
40
0.6
0
LINE
8
Black
10
24.345
20
-51.855
11
24.345
21
-53.555
0
LINE
8
Black
10
23.495
20
-52.705
11
25.195
21
-52.705
0
LINE
8
Black
10
24.345
20
-69
11
24.345
21
-70.7
0
LINE
8
Black
10
23.495
20
-69.85
11
25.195
21
-69.85
0
LINE
8
Black
10
24.345
20
-86.145
11
24.345
21
-87.845
0
LINE
8
Black
10
23.495
20
-86.995
11
25.195
21
-86.995
0
LINE
8
Black
10
24.345
20
-103.29
11
24.345
21
-104.99
0
LINE
8
Black
10
23.495
20
-104.14
11
25.195
21
-104.14
0
LINE
8
Black
10
35.345
20
-51.855
11
35.345
21
-53.555
0
LINE
8
Black
10
34.495
20
-52.705
11
36.195
21
-52.705
0
LINE
8
Black
10
35.345
20
-69
11
35.345
21
-70.7
0
LINE
8
Black
10
34.495
20
-69.85
11
36.195
21
-69.85
0
LINE
8
Black
10
35.345
20
-86.145
11
35.345
21
-87.845
0
LINE
8
Black
10
34.495
20
-86.995
11
36.195
21
-86.995
0
LINE
8
Black
10
35.345
20
-103.29
11
35.345
21
-104.99
0
LINE
8
Black
10
34.495
20
-104.14
11
36.195
21
-104.14
0
LINE
8
Black
10
42.76
20
-51.855
11
42.76
21
-53.555
0
LINE
8
Black
10
41.91
20
-52.705
11
43.61
21
-52.705
0
LINE
8
Black
10
42.76
20
-69
11
42.76
21
-70.7
0
LINE
8
Black
10
41.91
20
-69.85
11
43.61
21
-69.85
0
LINE
8
Black
10
42.76
20
-86.145
11
42.76
21
-87.845
0
LINE
8
Black
10
41.91
20
-86.995
11
43.61
21
-86.995
0
LINE
8
Black
10
42.76
20
-103.29
11
42.76
21
-104.99
0
LINE
8
Black
10
41.91
20
-104.14
11
43.61
21
-104.14
0
LINE
8
Black
10
53.76
20
-51.855
11
53.76
21
-53.555
0
LINE
8
Black
10
52.91
20
-52.705
11
54.61
21
-52.705
0
LINE
8
Black
10
53.76
20
-69
11
53.76
21
-70.7
0
LINE
8
Black
10
52.91
20
-69.85
11
54.61
21
-69.85
0
LINE
8
Black
10
53.76
20
-86.145
11
53.76
21
-87.845
0
LINE
8
Black
10
52.91
20
-86.995
11
54.61
21
-86.995
0
LINE
8
Black
10
53.76
20
-103.29
11
53.76
21
-104.99
0
LINE
8
Black
10
52.91
20
-104.14
11
54.61
21
-104.14
0
LINE
8
Black
10
61.175
20
-51.855
11
61.175
21
-53.555
0
LINE
8
Black
10
60.325
20
-52.705
11
62.025
21
-52.705
0
LINE
8
Black
10
61.175
20
-69
11
61.175
21
-70.7
0
LINE
8
Black
10
60.325
20
-69.85
11
62.025
21
-69.85
0
LINE
8
Black
10
61.175
20
-86.145
11
61.175
21
-87.845
0
LINE
8
Black
10
60.325
20
-86.995
11
62.025
21
-86.995
0
LINE
8
Black
10
61.175
20
-103.29
11
61.175
21
-104.99
0
LINE
8
Black
10
60.325
20
-104.14
11
62.025
21
-104.14
0
LINE
8
Black
10
72.175
20
-51.855
11
72.175
21
-53.555
0
LINE
8
Black
10
71.325
20
-52.705
11
73.025
21
-52.705
0
LINE
8
Black
10
72.175
20
-69
11
72.175
21
-70.7
0
LINE
8
Black
10
71.325
20
-69.85
11
73.025
21
-69.85
0
LINE
8
Black
10
72.175
20
-86.145
11
72.175
21
-87.845
0
LINE
8
Black
10
71.325
20
-86.995
11
73.025
21
-86.995
0
LINE
8
Black
10
72.175
20
-103.29
11
72.175
21
-104.99
0
LINE
8
Black
10
71.325
20
-104.14
11
73.025
21
-104.14
0
LINE
8
Black
10
79.59
20
-51.855
11
79.59
21
-53.555
0
LINE
8
Black
10
78.74
20
-52.705
11
80.44
21
-52.705
0
LINE
8
Black
10
79.59
20
-69
11
79.59
21
-70.7
0
LINE
8
Black
10
78.74
20
-69.85
11
80.44
21
-69.85
0
LINE
8
Black
10
79.59
20
-86.145
11
79.59
21
-87.845
0
LINE
8
Black
10
78.74
20
-86.995
11
80.44
21
-86.995
0
LINE
8
Black
10
79.59
20
-103.29
11
79.59
21
-104.99
0
LINE
8
Black
10
78.74
20
-104.14
11
80.44
21
-104.14
0
LINE
8
Black
10
90.59
20
-51.855
11
90.59
21
-53.555
0
LINE
8
Black
10
89.74
20
-52.705
11
91.44
21
-52.705
0
LINE
8
Black
10
90.59
20
-69
11
90.59
21
-70.7
0
LINE
8
Black
10
89.74
20
-69.85
11
91.44
21
-69.85
0
LINE
8
Black
10
90.59
20
-86.145
11
90.59
21
-87.845
0
LINE
8
Black
10
89.74
20
-86.995
11
91.44
21
-86.995
0
LINE
8
Black
10
90.59
20
-103.29
11
90.59
21
-104.99
0
LINE
8
Black
10
89.74
20
-104.14
11
91.44
21
-104.14
0
LINE
8
Black
10
98.005
20
-51.855
11
98.005
21
-53.555
0
LINE
8
Black
10
97.155
20
-52.705
11
98.855
21
-52.705
0
LINE
8
Black
10
98.005
20
-69
11
98.005
21
-70.7
0
LINE
8
Black
10
97.155
20
-69.85
11
98.855
21
-69.85
0
LINE
8
Black
10
98.005
20
-86.145
11
98.005
21
-87.845
0
LINE
8
Black
10
97.155
20
-86.995
11
98.855
21
-86.995
0
LINE
8
Black
10
98.005
20
-103.29
11
98.005
21
-104.99
0
LINE
8
Black
10
97.155
20
-104.14
11
98.855
21
-104.14
0
LINE
8
Black
10
109.005
20
-51.855
11
109.005
21
-53.555
0
LINE
8
Black
10
108.155
20
-52.705
11
109.855
21
-52.705
0
LINE
8
Black
10
109.005
20
-69
11
109.005
21
-70.7
0
LINE
8
Black
10
108.155
20
-69.85
11
109.855
21
-69.85
0
LINE
8
Black
10
109.005
20
-86.145
11
109.005
21
-87.845
0
LINE
8
Black
10
108.155
20
-86.995
11
109.855
21
-86.995
0
LINE
8
Black
10
109.005
20
-103.29
11
109.005
21
-104.99
0
LINE
8
Black
10
108.155
20
-104.14
11
109.855
21
-104.14
0
LINE
8
Black
10
116.42
20
-51.855
11
116.42
21
-53.555
0
LINE
8
Black
10
115.57
20
-52.705
11
117.27
21
-52.705
0
LINE
8
Black
10
116.42
20
-69
11
116.42
21
-70.7
0
LINE
8
Black
10
115.57
20
-69.85
11
117.27
21
-69.85
0
LINE
8
Black
10
116.42
20
-86.145
11
116.42
21
-87.845
0
LINE
8
Black
10
115.57
20
-86.995
11
117.27
21
-86.995
0
LINE
8
Black
10
116.42
20
-103.29
11
116.42
21
-104.99
0
LINE
8
Black
10
115.57
20
-104.14
11
117.27
21
-104.14
0
LINE
8
Black
10
127.42
20
-51.855
11
127.42
21
-53.555
0
LINE
8
Black
10
126.57
20
-52.705
11
128.27
21
-52.705
0
LINE
8
Black
10
127.42
20
-69
11
127.42
21
-70.7
0
LINE
8
Black
10
126.57
20
-69.85
11
128.27
21
-69.85
0
LINE
8
Black
10
127.42
20
-86.145
11
127.42
21
-87.845
0
LINE
8
Black
10
126.57
20
-86.995
11
128.27
21
-86.995
0
LINE
8
Black
10
127.42
20
-103.29
11
127.42
21
-104.99
0
LINE
8
Black
10
126.57
20
-104.14
11
128.27
21
-104.14
0
LINE
8
Black
10
31.0471
20
-53.9071
11
31.0471
21
-51.5029
0
LINE
8
Black
10
31.0471
20
-51.5029
11
28.6429
21
-51.5029
0
LINE
8
Black
10
28.6429
20
-51.5029
11
28.6429
21
-53.9071
0
LINE
8
Black
10
28.6429
20
-53.9071
11
31.0471
21
-53.9071
0
LINE
8
Black
10
31.0471
20
-71.0521
11
31.0471
21
-68.6479
0
LINE
8
Black
10
31.0471
20
-68.6479
11
28.6429
21
-68.6479
0
LINE
8
Black
10
28.6429
20
-68.6479
11
28.6429
21
-71.0521
0
LINE
8
Black
10
28.6429
20
-71.0521
11
31.0471
21
-71.0521
0
LINE
8
Black
10
31.0471
20
-88.1971
11
31.0471
21
-85.7929
0
LINE
8
Black
10
31.0471
20
-85.7929
11
28.6429
21
-85.7929
0
LINE
8
Black
10
28.6429
20
-85.7929
11
28.6429
21
-88.1971
0
LINE
8
Black
10
28.6429
20
-88.1971
11
31.0471
21
-88.1971
0
LINE
8
Black
10
31.0471
20
-105.342
11
31.0471
21
-102.938
0
LINE
8
Black
10
31.0471
20
-102.938
11
28.6429
21
-102.938
0
LINE
8
Black
10
28.6429
20
-102.938
11
28.6429
21
-105.342
0
LINE
8
Black
10
28.6429
20
-105.342
11
31.0471
21
-105.342
0
LINE
8
Black
10
49.4621
20
-53.9071
11
49.4621
21
-51.5029
0
LINE
8
Black
10
49.4621
20
-51.5029
11
47.0579
21
-51.5029
0
LINE
8
Black
10
47.0579
20
-51.5029
11
47.0579
21
-53.9071
0
LINE
8
Black
10
47.0579
20
-53.9071
11
49.4621
21
-53.9071
0
LINE
8
Black
10
49.4621
20
-71.0521
11
49.4621
21
-68.6479
0
LINE
8
Black
10
49.4621
20
-68.6479
11
47.0579
21
-68.6479
0
LINE
8
Black
10
47.0579
20
-68.6479
11
47.0579
21
-71.0521
0
LINE
8
Black
10
47.0579
20
-71.0521
11
49.4621
21
-71.0521
0
LINE
8
Black
10
49.4621
20
-88.1971
11
49.4621
21
-85.7929
0
LINE
8
Black
10
49.4621
20
-85.7929
11
47.0579
21
-85.7929
0
LINE
8
Black
10
47.0579
20
-85.7929
11
47.0579
21
-88.1971
0
LINE
8
Black
10
47.0579
20
-88.1971
11
49.4621
21
-88.1971
0
LINE
8
Black
10
49.4621
20
-105.342
11
49.4621
21
-102.938
0
LINE
8
Black
10
49.4621
20
-102.938
11
47.0579
21
-102.938
0
LINE
8
Black
10
47.0579
20
-102.938
11
47.0579
21
-105.342
0
LINE
8
Black
10
47.0579
20
-105.342
11
49.4621
21
-105.342
0
LINE
8
Black
10
67.8771
20
-53.9071
11
67.8771
21
-51.5029
0
LINE
8
Black
10
67.8771
20
-51.5029
11
65.4729
21
-51.5029
0
LINE
8
Black
10
65.4729
20
-51.5029
11
65.4729
21
-53.9071
0
LINE
8
Black
10
65.4729
20
-53.9071
11
67.8771
21
-53.9071
0
LINE
8
Black
10
67.8771
20
-71.0521
11
67.8771
21
-68.6479
0
LINE
8
Black
10
67.8771
20
-68.6479
11
65.4729
21
-68.6479
0
LINE
8
Black
10
65.4729
20
-68.6479
11
65.4729
21
-71.0521
0
LINE
8
Black
10
65.4729
20
-71.0521
11
67.8771
21
-71.0521
0
LINE
8
Black
10
67.8771
20
-88.1971
11
67.8771
21
-85.7929
0
LINE
8
Black
10
67.8771
20
-85.7929
11
65.4729
21
-85.7929
0
LINE
8
Black
10
65.4729
20
-85.7929
11
65.4729
21
-88.1971
0
LINE
8
Black
10
65.4729
20
-88.1971
11
67.8771
21
-88.1971
0
LINE
8
Black
10
67.8771
20
-105.342
11
67.8771
21
-102.938
0
LINE
8
Black
10
67.8771
20
-102.938
11
65.4729
21
-102.938
0
LINE
8
Black
10
65.4729
20
-102.938
11
65.4729
21
-105.342
0
LINE
8
Black
10
65.4729
20
-105.342
11
67.8771
21
-105.342
0
LINE
8
Black
10
86.2921
20
-53.9071
11
86.2921
21
-51.5029
0
LINE
8
Black
10
86.2921
20
-51.5029
11
83.8879
21
-51.5029
0
LINE
8
Black
10
83.8879
20
-51.5029
11
83.8879
21
-53.9071
0
LINE
8
Black
10
83.8879
20
-53.9071
11
86.2921
21
-53.9071
0
LINE
8
Black
10
86.2921
20
-71.0521
11
86.2921
21
-68.6479
0
LINE
8
Black
10
86.2921
20
-68.6479
11
83.8879
21
-68.6479
0
LINE
8
Black
10
83.8879
20
-68.6479
11
83.8879
21
-71.0521
0
LINE
8
Black
10
83.8879
20
-71.0521
11
86.2921
21
-71.0521
0
LINE
8
Black
10
86.2921
20
-88.1971
11
86.2921
21
-85.7929
0
LINE
8
Black
10
86.2921
20
-85.7929
11
83.8879
21
-85.7929
0
LINE
8
Black
10
83.8879
20
-85.7929
11
83.8879
21
-88.1971
0
LINE
8
Black
10
83.8879
20
-88.1971
11
86.2921
21
-88.1971
0
LINE
8
Black
10
86.2921
20
-105.342
11
86.2921
21
-102.938
0
LINE
8
Black
10
86.2921
20
-102.938
11
83.8879
21
-102.938
0
LINE
8
Black
10
83.8879
20
-102.938
11
83.8879
21
-105.342
0
LINE
8
Black
10
83.8879
20
-105.342
11
86.2921
21
-105.342
0
LINE
8
Black
10
104.707
20
-53.9071
11
104.707
21
-51.5029
0
LINE
8
Black
10
104.707
20
-51.5029
11
102.303
21
-51.5029
0
LINE
8
Black
10
102.303
20
-51.5029
11
102.303
21
-53.9071
0
LINE
8
Black
10
102.303
20
-53.9071
11
104.707
21
-53.9071
0
LINE
8
Black
10
104.707
20
-71.0521
11
104.707
21
-68.6479
0
LINE
8
Black
10
104.707
20
-68.6479
11
102.303
21
-68.6479
0
LINE
8
Black
10
102.303
20
-68.6479
11
102.303
21
-71.0521
0
LINE
8
Black
10
102.303
20
-71.0521
11
104.707
21
-71.0521
0
LINE
8
Black
10
104.707
20
-88.1971
11
104.707
21
-85.7929
0
LINE
8
Black
10
104.707
20
-85.7929
11
102.303
21
-85.7929
0
LINE
8
Black
10
102.303
20
-85.7929
11
102.303
21
-88.1971
0
LINE
8
Black
10
102.303
20
-88.1971
11
104.707
21
-88.1971
0
LINE
8
Black
10
104.707
20
-105.342
11
104.707
21
-102.938
0
LINE
8
Black
10
104.707
20
-102.938
11
102.303
21
-102.938
0
LINE
8
Black
10
102.303
20
-102.938
11
102.303
21
-105.342
0
LINE
8
Black
10
102.303
20
-105.342
11
104.707
21
-105.342
0
LINE
8
Black
10
123.122
20
-53.9071
11
123.122
21
-51.5029
0
LINE
8
Black
10
123.122
20
-51.5029
11
120.718
21
-51.5029
0
LINE
8
Black
10
120.718
20
-51.5029
11
120.718
21
-53.9071
0
LINE
8
Black
10
120.718
20
-53.9071
11
123.122
21
-53.9071
0
LINE
8
Black
10
123.122
20
-71.0521
11
123.122
21
-68.6479
0
LINE
8
Black
10
123.122
20
-68.6479
11
120.718
21
-68.6479
0
LINE
8
Black
10
120.718
20
-68.6479
11
120.718
21
-71.0521
0
LINE
8
Black
10
120.718
20
-71.0521
11
123.122
21
-71.0521
0
LINE
8
Black
10
123.122
20
-88.1971
11
123.122
21
-85.7929
0
LINE
8
Black
10
123.122
20
-85.7929
11
120.718
21
-85.7929
0
LINE
8
Black
10
120.718
20
-85.7929
11
120.718
21
-88.1971
0
LINE
8
Black
10
120.718
20
-88.1971
11
123.122
21
-88.1971
0
LINE
8
Black
10
123.122
20
-105.342
11
123.122
21
-102.938
0
LINE
8
Black
10
123.122
20
-102.938
11
120.718
21
-102.938
0
LINE
8
Black
10
120.718
20
-102.938
11
120.718
21
-105.342
0
LINE
8
Black
10
120.718
20
-105.342
11
123.122
21
-105.342
0
LINE
8
Black
10
22.9593
20
-122.207
11
22.9593
21
-119.207
0
LINE
8
Black
10
22.9593
20
-119.207
11
23.6736
21
-119.207
0
LINE
8
Black
10
23.6736
20
-119.207
11
24.1021
21
-119.35
0
LINE
8
Black
10
24.1021
20
-119.35
11
24.3879
21
-119.636
0
LINE
8
Black
10
24.3879
20
-119.636
11
24.5307
21
-119.921
0
LINE
8
Black
10
24.5307
20
-119.921
11
24.6736
21
-120.493
0
LINE
8
Black
10
24.6736
20
-120.493
11
24.6736
21
-120.921
0
LINE
8
Black
10
24.6736
20
-120.921
11
24.5307
21
-121.493
0
LINE
8
Black
10
24.5307
20
-121.493
11
24.3879
21
-121.779
0
LINE
8
Black
10
24.3879
20
-121.779
11
24.1021
21
-122.064
0
LINE
8
Black
10
24.1021
20
-122.064
11
23.6736
21
-122.207
0
LINE
8
Black
10
23.6736
20
-122.207
11
22.9593
21
-122.207
0
LINE
8
Black
10
25.9593
20
-122.207
11
25.9593
21
-120.207
0
LINE
8
Black
10
25.9593
20
-120.779
11
26.1021
21
-120.493
0
LINE
8
Black
10
26.1021
20
-120.493
11
26.245
21
-120.35
0
LINE
8
Black
10
26.245
20
-120.35
11
26.5307
21
-120.207
0
LINE
8
Black
10
26.5307
20
-120.207
11
26.8164
21
-120.207
0
LINE
8
Black
10
27.8164
20
-122.207
11
27.8164
21
-120.207
0
LINE
8
Black
10
27.8164
20
-119.207
11
27.6736
21
-119.35
0
LINE
8
Black
10
27.6736
20
-119.35
11
27.8164
21
-119.493
0
LINE
8
Black
10
27.8164
20
-119.493
11
27.9593
21
-119.35
0
LINE
8
Black
10
27.9593
20
-119.35
11
27.8164
21
-119.207
0
LINE
8
Black
10
27.8164
20
-119.207
11
27.8164
21
-119.493
0
LINE
8
Black
10
29.6736
20
-122.207
11
29.3879
21
-122.064
0
LINE
8
Black
10
29.3879
20
-122.064
11
29.245
21
-121.779
0
LINE
8
Black
10
29.245
20
-121.779
11
29.245
21
-119.207
0
LINE
8
Black
10
31.245
20
-122.207
11
30.9593
21
-122.064
0
LINE
8
Black
10
30.9593
20
-122.064
11
30.8164
21
-121.779
0
LINE
8
Black
10
30.8164
20
-121.779
11
30.8164
21
-119.207
0
LINE
8
Black
10
34.6736
20
-122.207
11
34.6736
21
-119.207
0
LINE
8
Black
10
34.6736
20
-119.207
11
35.6736
21
-121.35
0
LINE
8
Black
10
35.6736
20
-121.35
11
36.6736
21
-119.207
0
LINE
8
Black
10
36.6736
20
-119.207
11
36.6736
21
-122.207
0
LINE
8
Black
10
39.3879
20
-122.207
11
39.3879
21
-120.636
0
LINE
8
Black
10
39.3879
20
-120.636
11
39.245
21
-120.35
0
LINE
8
Black
10
39.245
20
-120.35
11
38.9593
21
-120.207
0
LINE
8
Black
10
38.9593
20
-120.207
11
38.3879
21
-120.207
0
LINE
8
Black
10
38.3879
20
-120.207
11
38.1021
21
-120.35
0
LINE
8
Black
10
39.3879
20
-122.064
11
39.1021
21
-122.207
0
LINE
8
Black
10
39.1021
20
-122.207
11
38.3879
21
-122.207
0
LINE
8
Black
10
38.3879
20
-122.207
11
38.1021
21
-122.064
0
LINE
8
Black
10
38.1021
20
-122.064
11
37.9593
21
-121.779
0
LINE
8
Black
10
37.9593
20
-121.779
11
37.9593
21
-121.493
0
LINE
8
Black
10
37.9593
20
-121.493
11
38.1021
21
-121.207
0
LINE
8
Black
10
38.1021
20
-121.207
11
38.3879
21
-121.064
0
LINE
8
Black
10
38.3879
20
-121.064
11
39.1021
21
-121.064
0
LINE
8
Black
10
39.1021
20
-121.064
11
39.3879
21
-120.921
0
LINE
8
Black
10
40.8164
20
-120.207
11
40.8164
21
-123.207
0
LINE
8
Black
10
40.8164
20
-120.35
11
41.1021
21
-120.207
0
LINE
8
Black
10
41.1021
20
-120.207
11
41.6736
21
-120.207
0
LINE
8
Black
10
41.6736
20
-120.207
11
41.9593
21
-120.35
0
LINE
8
Black
10
41.9593
20
-120.35
11
42.1021
21
-120.493
0
LINE
8
Black
10
42.1021
20
-120.493
11
42.245
21
-120.779
0
LINE
8
Black
10
42.245
20
-120.779
11
42.245
21
-121.636
0
LINE
8
Black
10
42.245
20
-121.636
11
42.1021
21
-121.921
0
LINE
8
Black
10
42.1021
20
-121.921
11
41.9593
21
-122.064
0
LINE
8
Black
10
41.9593
20
-122.064
11
41.6736
21
-122.207
0
LINE
8
Black
10
41.6736
20
-122.207
11
41.1021
21
-122.207
0
LINE
8
Black
10
41.1021
20
-122.207
11
40.8164
21
-122.064
0
LINE
8
Black
10
43.5307
20
-121.921
11
43.6736
21
-122.064
0
LINE
8
Black
10
43.6736
20
-122.064
11
43.5307
21
-122.207
0
LINE
8
Black
10
43.5307
20
-122.207
11
43.3879
21
-122.064
0
LINE
8
Black
10
43.3879
20
-122.064
11
43.5307
21
-121.921
0
LINE
8
Black
10
43.5307
20
-121.921
11
43.5307
21
-122.207
0
LINE
8
Black
10
43.5307
20
-120.35
11
43.6736
21
-120.493
0
LINE
8
Black
10
43.6736
20
-120.493
11
43.5307
21
-120.636
0
LINE
8
Black
10
43.5307
20
-120.636
11
43.3879
21
-120.493
0
LINE
8
Black
10
43.3879
20
-120.493
11
43.5307
21
-120.35
0
LINE
8
Black
10
43.5307
20
-120.35
11
43.5307
21
-120.636
0
LINE
8
Black
10
19.2544
20
-126.655
11
20.245
21
-127.645
0
LINE
8
Black
10
20.245
20
-126.655
11
19.2544
21
-127.645
0
LINE
8
Black
10
23.5307
20
-125.507
11
23.8164
21
-125.507
0
LINE
8
Black
10
23.8164
20
-125.507
11
24.1021
21
-125.65
0
LINE
8
Black
10
24.1021
20
-125.65
11
24.245
21
-125.793
0
LINE
8
Black
10
24.245
20
-125.793
11
24.3879
21
-126.079
0
LINE
8
Black
10
24.3879
20
-126.079
11
24.5307
21
-126.65
0
LINE
8
Black
10
24.5307
20
-126.65
11
24.5307
21
-127.364
0
LINE
8
Black
10
24.5307
20
-127.364
11
24.3879
21
-127.936
0
LINE
8
Black
10
24.3879
20
-127.936
11
24.245
21
-128.221
0
LINE
8
Black
10
24.245
20
-128.221
11
24.1021
21
-128.364
0
LINE
8
Black
10
24.1021
20
-128.364
11
23.8164
21
-128.507
0
LINE
8
Black
10
23.8164
20
-128.507
11
23.5307
21
-128.507
0
LINE
8
Black
10
23.5307
20
-128.507
11
23.245
21
-128.364
0
LINE
8
Black
10
23.245
20
-128.364
11
23.1021
21
-128.221
0
LINE
8
Black
10
23.1021
20
-128.221
11
22.9593
21
-127.936
0
LINE
8
Black
10
22.9593
20
-127.936
11
22.8164
21
-127.364
0
LINE
8
Black
10
22.8164
20
-127.364
11
22.8164
21
-126.65
0
LINE
8
Black
10
22.8164
20
-126.65
11
22.9593
21
-126.079
0
LINE
8
Black
10
22.9593
20
-126.079
11
23.1021
21
-125.793
0
LINE
8
Black
10
23.1021
20
-125.793
11
23.245
21
-125.65
0
LINE
8
Black
10
23.245
20
-125.65
11
23.5307
21
-125.507
0
LINE
8
Black
10
25.8164
20
-128.221
11
25.9593
21
-128.364
0
LINE
8
Black
10
25.9593
20
-128.364
11
25.8164
21
-128.507
0
LINE
8
Black
10
25.8164
20
-128.507
11
25.6736
21
-128.364
0
LINE
8
Black
10
25.6736
20
-128.364
11
25.8164
21
-128.221
0
LINE
8
Black
10
25.8164
20
-128.221
11
25.8164
21
-128.507
0
LINE
8
Black
10
27.3879
20
-128.507
11
27.9593
21
-128.507
0
LINE
8
Black
10
27.9593
20
-128.507
11
28.245
21
-128.364
0
LINE
8
Black
10
28.245
20
-128.364
11
28.3879
21
-128.221
0
LINE
8
Black
10
28.3879
20
-128.221
11
28.6736
21
-127.793
0
LINE
8
Black
10
28.6736
20
-127.793
11
28.8164
21
-127.221
0
LINE
8
Black
10
28.8164
20
-127.221
11
28.8164
21
-126.079
0
LINE
8
Black
10
28.8164
20
-126.079
11
28.6736
21
-125.793
0
LINE
8
Black
10
28.6736
20
-125.793
11
28.5307
21
-125.65
0
LINE
8
Black
10
28.5307
20
-125.65
11
28.245
21
-125.507
0
LINE
8
Black
10
28.245
20
-125.507
11
27.6736
21
-125.507
0
LINE
8
Black
10
27.6736
20
-125.507
11
27.3879
21
-125.65
0
LINE
8
Black
10
27.3879
20
-125.65
11
27.245
21
-125.793
0
LINE
8
Black
10
27.245
20
-125.793
11
27.1021
21
-126.079
0
LINE
8
Black
10
27.1021
20
-126.079
11
27.1021
21
-126.793
0
LINE
8
Black
10
27.1021
20
-126.793
11
27.245
21
-127.079
0
LINE
8
Black
10
27.245
20
-127.079
11
27.3879
21
-127.221
0
LINE
8
Black
10
27.3879
20
-127.221
11
27.6736
21
-127.364
0
LINE
8
Black
10
27.6736
20
-127.364
11
28.245
21
-127.364
0
LINE
8
Black
10
28.245
20
-127.364
11
28.5307
21
-127.221
0
LINE
8
Black
10
28.5307
20
-127.221
11
28.6736
21
-127.079
0
LINE
8
Black
10
28.6736
20
-127.079
11
28.8164
21
-126.793
0
LINE
8
Black
10
30.245
20
-128.507
11
30.8164
21
-128.507
0
LINE
8
Black
10
30.8164
20
-128.507
11
31.1021
21
-128.364
0
LINE
8
Black
10
31.1021
20
-128.364
11
31.245
21
-128.221
0
LINE
8
Black
10
31.245
20
-128.221
11
31.5307
21
-127.793
0
LINE
8
Black
10
31.5307
20
-127.793
11
31.6736
21
-127.221
0
LINE
8
Black
10
31.6736
20
-127.221
11
31.6736
21
-126.079
0
LINE
8
Black
10
31.6736
20
-126.079
11
31.5307
21
-125.793
0
LINE
8
Black
10
31.5307
20
-125.793
11
31.3879
21
-125.65
0
LINE
8
Black
10
31.3879
20
-125.65
11
31.1021
21
-125.507
0
LINE
8
Black
10
31.1021
20
-125.507
11
30.5307
21
-125.507
0
LINE
8
Black
10
30.5307
20
-125.507
11
30.245
21
-125.65
0
LINE
8
Black
10
30.245
20
-125.65
11
30.1021
21
-125.793
0
LINE
8
Black
10
30.1021
20
-125.793
11
29.9593
21
-126.079
0
LINE
8
Black
10
29.9593
20
-126.079
11
29.9593
21
-126.793
0
LINE
8
Black
10
29.9593
20
-126.793
11
30.1021
21
-127.079
0
LINE
8
Black
10
30.1021
20
-127.079
11
30.245
21
-127.221
0
LINE
8
Black
10
30.245
20
-127.221
11
30.5307
21
-127.364
0
LINE
8
Black
10
30.5307
20
-127.364
11
31.1021
21
-127.364
0
LINE
8
Black
10
31.1021
20
-127.364
11
31.3879
21
-127.221
0
LINE
8
Black
10
31.3879
20
-127.221
11
31.5307
21
-127.079
0
LINE
8
Black
10
31.5307
20
-127.079
11
31.6736
21
-126.793
0
LINE
8
Black
10
32.9593
20
-128.507
11
32.9593
21
-126.507
0
LINE
8
Black
10
32.9593
20
-126.793
11
33.1021
21
-126.65
0
LINE
8
Black
10
33.1021
20
-126.65
11
33.3879
21
-126.507
0
LINE
8
Black
10
33.3879
20
-126.507
11
33.8164
21
-126.507
0
LINE
8
Black
10
33.8164
20
-126.507
11
34.1021
21
-126.65
0
LINE
8
Black
10
34.1021
20
-126.65
11
34.245
21
-126.936
0
LINE
8
Black
10
34.245
20
-126.936
11
34.245
21
-128.507
0
LINE
8
Black
10
34.245
20
-126.936
11
34.3879
21
-126.65
0
LINE
8
Black
10
34.3879
20
-126.65
11
34.6736
21
-126.507
0
LINE
8
Black
10
34.6736
20
-126.507
11
35.1021
21
-126.507
0
LINE
8
Black
10
35.1021
20
-126.507
11
35.3879
21
-126.65
0
LINE
8
Black
10
35.3879
20
-126.65
11
35.5307
21
-126.936
0
LINE
8
Black
10
35.5307
20
-126.936
11
35.5307
21
-128.507
0
LINE
8
Black
10
36.9593
20
-128.507
11
36.9593
21
-126.507
0
LINE
8
Black
10
36.9593
20
-126.793
11
37.1021
21
-126.65
0
LINE
8
Black
10
37.1021
20
-126.65
11
37.3879
21
-126.507
0
LINE
8
Black
10
37.3879
20
-126.507
11
37.8164
21
-126.507
0
LINE
8
Black
10
37.8164
20
-126.507
11
38.1021
21
-126.65
0
LINE
8
Black
10
38.1021
20
-126.65
11
38.245
21
-126.936
0
LINE
8
Black
10
38.245
20
-126.936
11
38.245
21
-128.507
0
LINE
8
Black
10
38.245
20
-126.936
11
38.3879
21
-126.65
0
LINE
8
Black
10
38.3879
20
-126.65
11
38.6736
21
-126.507
0
LINE
8
Black
10
38.6736
20
-126.507
11
39.1021
21
-126.507
0
LINE
8
Black
10
39.1021
20
-126.507
11
39.3879
21
-126.65
0
LINE
8
Black
10
39.3879
20
-126.65
11
39.5307
21
-126.936
0
LINE
8
Black
10
39.5307
20
-126.936
11
39.5307
21
-128.507
0
LINE
8
Black
10
45.3879
20
-125.364
11
42.8164
21
-129.221
0
LINE
8
Black
10
49.245
20
-125.507
11
49.5307
21
-125.507
0
LINE
8
Black
10
49.5307
20
-125.507
11
49.8164
21
-125.65
0
LINE
8
Black
10
49.8164
20
-125.65
11
49.9593
21
-125.793
0
LINE
8
Black
10
49.9593
20
-125.793
11
50.1021
21
-126.079
0
LINE
8
Black
10
50.1021
20
-126.079
11
50.245
21
-126.65
0
LINE
8
Black
10
50.245
20
-126.65
11
50.245
21
-127.364
0
LINE
8
Black
10
50.245
20
-127.364
11
50.1021
21
-127.936
0
LINE
8
Black
10
50.1021
20
-127.936
11
49.9593
21
-128.221
0
LINE
8
Black
10
49.9593
20
-128.221
11
49.8164
21
-128.364
0
LINE
8
Black
10
49.8164
20
-128.364
11
49.5307
21
-128.507
0
LINE
8
Black
10
49.5307
20
-128.507
11
49.245
21
-128.507
0
LINE
8
Black
10
49.245
20
-128.507
11
48.9593
21
-128.364
0
LINE
8
Black
10
48.9593
20
-128.364
11
48.8164
21
-128.221
0
LINE
8
Black
10
48.8164
20
-128.221
11
48.6736
21
-127.936
0
LINE
8
Black
10
48.6736
20
-127.936
11
48.5307
21
-127.364
0
LINE
8
Black
10
48.5307
20
-127.364
11
48.5307
21
-126.65
0
LINE
8
Black
10
48.5307
20
-126.65
11
48.6736
21
-126.079
0
LINE
8
Black
10
48.6736
20
-126.079
11
48.8164
21
-125.793
0
LINE
8
Black
10
48.8164
20
-125.793
11
48.9593
21
-125.65
0
LINE
8
Black
10
48.9593
20
-125.65
11
49.245
21
-125.507
0
LINE
8
Black
10
51.5307
20
-128.221
11
51.6736
21
-128.364
0
LINE
8
Black
10
51.6736
20
-128.364
11
51.5307
21
-128.507
0
LINE
8
Black
10
51.5307
20
-128.507
11
51.3879
21
-128.364
0
LINE
8
Black
10
51.3879
20
-128.364
11
51.5307
21
-128.221
0
LINE
8
Black
10
51.5307
20
-128.221
11
51.5307
21
-128.507
0
LINE
8
Black
10
53.5307
20
-125.507
11
53.8164
21
-125.507
0
LINE
8
Black
10
53.8164
20
-125.507
11
54.1021
21
-125.65
0
LINE
8
Black
10
54.1021
20
-125.65
11
54.245
21
-125.793
0
LINE
8
Black
10
54.245
20
-125.793
11
54.3879
21
-126.079
0
LINE
8
Black
10
54.3879
20
-126.079
11
54.5307
21
-126.65
0
LINE
8
Black
10
54.5307
20
-126.65
11
54.5307
21
-127.364
0
LINE
8
Black
10
54.5307
20
-127.364
11
54.3879
21
-127.936
0
LINE
8
Black
10
54.3879
20
-127.936
11
54.245
21
-128.221
0
LINE
8
Black
10
54.245
20
-128.221
11
54.1021
21
-128.364
0
LINE
8
Black
10
54.1021
20
-128.364
11
53.8164
21
-128.507
0
LINE
8
Black
10
53.8164
20
-128.507
11
53.5307
21
-128.507
0
LINE
8
Black
10
53.5307
20
-128.507
11
53.245
21
-128.364
0
LINE
8
Black
10
53.245
20
-128.364
11
53.1021
21
-128.221
0
LINE
8
Black
10
53.1021
20
-128.221
11
52.9593
21
-127.936
0
LINE
8
Black
10
52.9593
20
-127.936
11
52.8164
21
-127.364
0
LINE
8
Black
10
52.8164
20
-127.364
11
52.8164
21
-126.65
0
LINE
8
Black
10
52.8164
20
-126.65
11
52.9593
21
-126.079
0
LINE
8
Black
10
52.9593
20
-126.079
11
53.1021
21
-125.793
0
LINE
8
Black
10
53.1021
20
-125.793
11
53.245
21
-125.65
0
LINE
8
Black
10
53.245
20
-125.65
11
53.5307
21
-125.507
0
LINE
8
Black
10
55.5307
20
-125.507
11
57.3879
21
-125.507
0
LINE
8
Black
10
57.3879
20
-125.507
11
56.3879
21
-126.65
0
LINE
8
Black
10
56.3879
20
-126.65
11
56.8164
21
-126.65
0
LINE
8
Black
10
56.8164
20
-126.65
11
57.1021
21
-126.793
0
LINE
8
Black
10
57.1021
20
-126.793
11
57.245
21
-126.936
0
LINE
8
Black
10
57.245
20
-126.936
11
57.3879
21
-127.221
0
LINE
8
Black
10
57.3879
20
-127.221
11
57.3879
21
-127.936
0
LINE
8
Black
10
57.3879
20
-127.936
11
57.245
21
-128.221
0
LINE
8
Black
10
57.245
20
-128.221
11
57.1021
21
-128.364
0
LINE
8
Black
10
57.1021
20
-128.364
11
56.8164
21
-128.507
0
LINE
8
Black
10
56.8164
20
-128.507
11
55.9593
21
-128.507
0
LINE
8
Black
10
55.9593
20
-128.507
11
55.6736
21
-128.364
0
LINE
8
Black
10
55.6736
20
-128.364
11
55.5307
21
-128.221
0
LINE
8
Black
10
58.8164
20
-128.507
11
59.3879
21
-128.507
0
LINE
8
Black
10
59.3879
20
-128.507
11
59.6736
21
-128.364
0
LINE
8
Black
10
59.6736
20
-128.364
11
59.8164
21
-128.221
0
LINE
8
Black
10
59.8164
20
-128.221
11
60.1021
21
-127.793
0
LINE
8
Black
10
60.1021
20
-127.793
11
60.245
21
-127.221
0
LINE
8
Black
10
60.245
20
-127.221
11
60.245
21
-126.079
0
LINE
8
Black
10
60.245
20
-126.079
11
60.1021
21
-125.793
0
LINE
8
Black
10
60.1021
20
-125.793
11
59.9593
21
-125.65
0
LINE
8
Black
10
59.9593
20
-125.65
11
59.6736
21
-125.507
0
LINE
8
Black
10
59.6736
20
-125.507
11
59.1021
21
-125.507
0
LINE
8
Black
10
59.1021
20
-125.507
11
58.8164
21
-125.65
0
LINE
8
Black
10
58.8164
20
-125.65
11
58.6736
21
-125.793
0
LINE
8
Black
10
58.6736
20
-125.793
11
58.5307
21
-126.079
0
LINE
8
Black
10
58.5307
20
-126.079
11
58.5307
21
-126.793
0
LINE
8
Black
10
58.5307
20
-126.793
11
58.6736
21
-127.079
0
LINE
8
Black
10
58.6736
20
-127.079
11
58.8164
21
-127.221
0
LINE
8
Black
10
58.8164
20
-127.221
11
59.1021
21
-127.364
0
LINE
8
Black
10
59.1021
20
-127.364
11
59.6736
21
-127.364
0
LINE
8
Black
10
59.6736
20
-127.364
11
59.9593
21
-127.221
0
LINE
8
Black
10
59.9593
20
-127.221
11
60.1021
21
-127.079
0
LINE
8
Black
10
60.1021
20
-127.079
11
60.245
21
-126.793
0
LINE
8
Black
10
61.3879
20
-125.507
11
61.3879
21
-126.079
0
LINE
8
Black
10
62.5307
20
-125.507
11
62.5307
21
-126.079
0
LINE
8
Black
10
66.9593
20
-129.65
11
66.8164
21
-129.507
0
LINE
8
Black
10
66.8164
20
-129.507
11
66.5307
21
-129.079
0
LINE
8
Black
10
66.5307
20
-129.079
11
66.3879
21
-128.793
0
LINE
8
Black
10
66.3879
20
-128.793
11
66.245
21
-128.364
0
LINE
8
Black
10
66.245
20
-128.364
11
66.1021
21
-127.65
0
LINE
8
Black
10
66.1021
20
-127.65
11
66.1021
21
-127.079
0
LINE
8
Black
10
66.1021
20
-127.079
11
66.245
21
-126.364
0
LINE
8
Black
10
66.245
20
-126.364
11
66.3879
21
-125.936
0
LINE
8
Black
10
66.3879
20
-125.936
11
66.5307
21
-125.65
0
LINE
8
Black
10
66.5307
20
-125.65
11
66.8164
21
-125.221
0
LINE
8
Black
10
66.8164
20
-125.221
11
66.9593
21
-125.079
0
LINE
8
Black
10
67.9593
20
-125.793
11
68.1021
21
-125.65
0
LINE
8
Black
10
68.1021
20
-125.65
11
68.3879
21
-125.507
0
LINE
8
Black
10
68.3879
20
-125.507
11
69.1021
21
-125.507
0
LINE
8
Black
10
69.1021
20
-125.507
11
69.3879
21
-125.65
0
LINE
8
Black
10
69.3879
20
-125.65
11
69.5307
21
-125.793
0
LINE
8
Black
10
69.5307
20
-125.793
11
69.6736
21
-126.079
0
LINE
8
Black
10
69.6736
20
-126.079
11
69.6736
21
-126.364
0
LINE
8
Black
10
69.6736
20
-126.364
11
69.5307
21
-126.793
0
LINE
8
Black
10
69.5307
20
-126.793
11
67.8164
21
-128.507
0
LINE
8
Black
10
67.8164
20
-128.507
11
69.6736
21
-128.507
0
LINE
8
Black
10
73.245
20
-128.507
11
73.245
21
-125.507
0
LINE
8
Black
10
74.5307
20
-128.507
11
74.5307
21
-126.936
0
LINE
8
Black
10
74.5307
20
-126.936
11
74.3879
21
-126.65
0
LINE
8
Black
10
74.3879
20
-126.65
11
74.1021
21
-126.507
0
LINE
8
Black
10
74.1021
20
-126.507
11
73.6736
21
-126.507
0
LINE
8
Black
10
73.6736
20
-126.507
11
73.3879
21
-126.65
0
LINE
8
Black
10
73.3879
20
-126.65
11
73.245
21
-126.793
0
LINE
8
Black
10
76.3879
20
-128.507
11
76.1021
21
-128.364
0
LINE
8
Black
10
76.1021
20
-128.364
11
75.9593
21
-128.221
0
LINE
8
Black
10
75.9593
20
-128.221
11
75.8164
21
-127.936
0
LINE
8
Black
10
75.8164
20
-127.936
11
75.8164
21
-127.079
0
LINE
8
Black
10
75.8164
20
-127.079
11
75.9593
21
-126.793
0
LINE
8
Black
10
75.9593
20
-126.793
11
76.1021
21
-126.65
0
LINE
8
Black
10
76.1021
20
-126.65
11
76.3879
21
-126.507
0
LINE
8
Black
10
76.3879
20
-126.507
11
76.8164
21
-126.507
0
LINE
8
Black
10
76.8164
20
-126.507
11
77.1021
21
-126.65
0
LINE
8
Black
10
77.1021
20
-126.65
11
77.245
21
-126.793
0
LINE
8
Black
10
77.245
20
-126.793
11
77.3879
21
-127.079
0
LINE
8
Black
10
77.3879
20
-127.079
11
77.3879
21
-127.936
0
LINE
8
Black
10
77.3879
20
-127.936
11
77.245
21
-128.221
0
LINE
8
Black
10
77.245
20
-128.221
11
77.1021
21
-128.364
0
LINE
8
Black
10
77.1021
20
-128.364
11
76.8164
21
-128.507
0
LINE
8
Black
10
76.8164
20
-128.507
11
76.3879
21
-128.507
0
LINE
8
Black
10
79.1021
20
-128.507
11
78.8164
21
-128.364
0
LINE
8
Black
10
78.8164
20
-128.364
11
78.6736
21
-128.079
0
LINE
8
Black
10
78.6736
20
-128.079
11
78.6736
21
-125.507
0
LINE
8
Black
10
81.3879
20
-128.364
11
81.1021
21
-128.507
0
LINE
8
Black
10
81.1021
20
-128.507
11
80.5307
21
-128.507
0
LINE
8
Black
10
80.5307
20
-128.507
11
80.245
21
-128.364
0
LINE
8
Black
10
80.245
20
-128.364
11
80.1021
21
-128.079
0
LINE
8
Black
10
80.1021
20
-128.079
11
80.1021
21
-126.936
0
LINE
8
Black
10
80.1021
20
-126.936
11
80.245
21
-126.65
0
LINE
8
Black
10
80.245
20
-126.65
11
80.5307
21
-126.507
0
LINE
8
Black
10
80.5307
20
-126.507
11
81.1021
21
-126.507
0
LINE
8
Black
10
81.1021
20
-126.507
11
81.3879
21
-126.65
0
LINE
8
Black
10
81.3879
20
-126.65
11
81.5307
21
-126.936
0
LINE
8
Black
10
81.5307
20
-126.936
11
81.5307
21
-127.221
0
LINE
8
Black
10
81.5307
20
-127.221
11
80.1021
21
-127.507
0
LINE
8
Black
10
82.6736
20
-128.364
11
82.9593
21
-128.507
0
LINE
8
Black
10
82.9593
20
-128.507
11
83.5307
21
-128.507
0
LINE
8
Black
10
83.5307
20
-128.507
11
83.8164
21
-128.364
0
LINE
8
Black
10
83.8164
20
-128.364
11
83.9593
21
-128.079
0
LINE
8
Black
10
83.9593
20
-128.079
11
83.9593
21
-127.936
0
LINE
8
Black
10
83.9593
20
-127.936
11
83.8164
21
-127.65
0
LINE
8
Black
10
83.8164
20
-127.65
11
83.5307
21
-127.507
0
LINE
8
Black
10
83.5307
20
-127.507
11
83.1021
21
-127.507
0
LINE
8
Black
10
83.1021
20
-127.507
11
82.8164
21
-127.364
0
LINE
8
Black
10
82.8164
20
-127.364
11
82.6736
21
-127.079
0
LINE
8
Black
10
82.6736
20
-127.079
11
82.6736
21
-126.936
0
LINE
8
Black
10
82.6736
20
-126.936
11
82.8164
21
-126.65
0
LINE
8
Black
10
82.8164
20
-126.65
11
83.1021
21
-126.507
0
LINE
8
Black
10
83.1021
20
-126.507
11
83.5307
21
-126.507
0
LINE
8
Black
10
83.5307
20
-126.507
11
83.8164
21
-126.65
0
LINE
8
Black
10
84.9593
20
-129.65
11
85.1021
21
-129.507
0
LINE
8
Black
10
85.1021
20
-129.507
11
85.3879
21
-129.079
0
LINE
8
Black
10
85.3879
20
-129.079
11
85.5307
21
-128.793
0
LINE
8
Black
10
85.5307
20
-128.793
11
85.6736
21
-128.364
0
LINE
8
Black
10
85.6736
20
-128.364
11
85.8164
21
-127.65
0
LINE
8
Black
10
85.8164
20
-127.65
11
85.8164
21
-127.079
0
LINE
8
Black
10
85.8164
20
-127.079
11
85.6736
21
-126.364
0
LINE
8
Black
10
85.6736
20
-126.364
11
85.5307
21
-125.936
0
LINE
8
Black
10
85.5307
20
-125.936
11
85.3879
21
-125.65
0
LINE
8
Black
10
85.3879
20
-125.65
11
85.1021
21
-125.221
0
LINE
8
Black
10
85.1021
20
-125.221
11
84.9593
21
-125.079
0
LINE
8
Black
10
90.3879
20
-129.65
11
90.245
21
-129.507
0
LINE
8
Black
10
90.245
20
-129.507
11
89.9593
21
-129.079
0
LINE
8
Black
10
89.9593
20
-129.079
11
89.8164
21
-128.793
0
LINE
8
Black
10
89.8164
20
-128.793
11
89.6736
21
-128.364
0
LINE
8
Black
10
89.6736
20
-128.364
11
89.5307
21
-127.65
0
LINE
8
Black
10
89.5307
20
-127.65
11
89.5307
21
-127.079
0
LINE
8
Black
10
89.5307
20
-127.079
11
89.6736
21
-126.364
0
LINE
8
Black
10
89.6736
20
-126.364
11
89.8164
21
-125.936
0
LINE
8
Black
10
89.8164
20
-125.936
11
89.9593
21
-125.65
0
LINE
8
Black
10
89.9593
20
-125.65
11
90.245
21
-125.221
0
LINE
8
Black
10
90.245
20
-125.221
11
90.3879
21
-125.079
0
LINE
8
Black
10
91.5307
20
-126.507
11
91.5307
21
-128.507
0
LINE
8
Black
10
91.5307
20
-126.793
11
91.6736
21
-126.65
0
LINE
8
Black
10
91.6736
20
-126.65
11
91.9593
21
-126.507
0
LINE
8
Black
10
91.9593
20
-126.507
11
92.3879
21
-126.507
0
LINE
8
Black
10
92.3879
20
-126.507
11
92.6736
21
-126.65
0
LINE
8
Black
10
92.6736
20
-126.65
11
92.8164
21
-126.936
0
LINE
8
Black
10
92.8164
20
-126.936
11
92.8164
21
-128.507
0
LINE
8
Black
10
94.6736
20
-128.507
11
94.3879
21
-128.364
0
LINE
8
Black
10
94.3879
20
-128.364
11
94.245
21
-128.221
0
LINE
8
Black
10
94.245
20
-128.221
11
94.1021
21
-127.936
0
LINE
8
Black
10
94.1021
20
-127.936
11
94.1021
21
-127.079
0
LINE
8
Black
10
94.1021
20
-127.079
11
94.245
21
-126.793
0
LINE
8
Black
10
94.245
20
-126.793
11
94.3879
21
-126.65
0
LINE
8
Black
10
94.3879
20
-126.65
11
94.6736
21
-126.507
0
LINE
8
Black
10
94.6736
20
-126.507
11
95.1021
21
-126.507
0
LINE
8
Black
10
95.1021
20
-126.507
11
95.3879
21
-126.65
0
LINE
8
Black
10
95.3879
20
-126.65
11
95.5307
21
-126.793
0
LINE
8
Black
10
95.5307
20
-126.793
11
95.6736
21
-127.079
0
LINE
8
Black
10
95.6736
20
-127.079
11
95.6736
21
-127.936
0
LINE
8
Black
10
95.6736
20
-127.936
11
95.5307
21
-128.221
0
LINE
8
Black
10
95.5307
20
-128.221
11
95.3879
21
-128.364
0
LINE
8
Black
10
95.3879
20
-128.364
11
95.1021
21
-128.507
0
LINE
8
Black
10
95.1021
20
-128.507
11
94.6736
21
-128.507
0
LINE
8
Black
10
96.5307
20
-126.507
11
97.6736
21
-126.507
0
LINE
8
Black
10
96.9593
20
-125.507
11
96.9593
21
-128.079
0
LINE
8
Black
10
96.9593
20
-128.079
11
97.1021
21
-128.364
0
LINE
8
Black
10
97.1021
20
-128.364
11
97.3879
21
-128.507
0
LINE
8
Black
10
97.3879
20
-128.507
11
97.6736
21
-128.507
0
LINE
8
Black
10
100.959
20
-126.507
11
100.959
21
-129.507
0
LINE
8
Black
10
100.959
20
-126.65
11
101.245
21
-126.507
0
LINE
8
Black
10
101.245
20
-126.507
11
101.816
21
-126.507
0
LINE
8
Black
10
101.816
20
-126.507
11
102.102
21
-126.65
0
LINE
8
Black
10
102.102
20
-126.65
11
102.245
21
-126.793
0
LINE
8
Black
10
102.245
20
-126.793
11
102.388
21
-127.079
0
LINE
8
Black
10
102.388
20
-127.079
11
102.388
21
-127.936
0
LINE
8
Black
10
102.388
20
-127.936
11
102.245
21
-128.221
0
LINE
8
Black
10
102.245
20
-128.221
11
102.102
21
-128.364
0
LINE
8
Black
10
102.102
20
-128.364
11
101.816
21
-128.507
0
LINE
8
Black
10
101.816
20
-128.507
11
101.245
21
-128.507
0
LINE
8
Black
10
101.245
20
-128.507
11
100.959
21
-128.364
0
LINE
8
Black
10
104.102
20
-128.507
11
103.816
21
-128.364
0
LINE
8
Black
10
103.816
20
-128.364
11
103.674
21
-128.079
0
LINE
8
Black
10
103.674
20
-128.079
11
103.674
21
-125.507
0
LINE
8
Black
10
106.531
20
-128.507
11
106.531
21
-126.936
0
LINE
8
Black
10
106.531
20
-126.936
11
106.388
21
-126.65
0
LINE
8
Black
10
106.388
20
-126.65
11
106.102
21
-126.507
0
LINE
8
Black
10
106.102
20
-126.507
11
105.531
21
-126.507
0
LINE
8
Black
10
105.531
20
-126.507
11
105.245
21
-126.65
0
LINE
8
Black
10
106.531
20
-128.364
11
106.245
21
-128.507
0
LINE
8
Black
10
106.245
20
-128.507
11
105.531
21
-128.507
0
LINE
8
Black
10
105.531
20
-128.507
11
105.245
21
-128.364
0
LINE
8
Black
10
105.245
20
-128.364
11
105.102
21
-128.079
0
LINE
8
Black
10
105.102
20
-128.079
11
105.102
21
-127.793
0
LINE
8
Black
10
105.102
20
-127.793
11
105.245
21
-127.507
0
LINE
8
Black
10
105.245
20
-127.507
11
105.531
21
-127.364
0
LINE
8
Black
10
105.531
20
-127.364
11
106.245
21
-127.364
0
LINE
8
Black
10
106.245
20
-127.364
11
106.531
21
-127.221
0
LINE
8
Black
10
107.531
20
-126.507
11
108.674
21
-126.507
0
LINE
8
Black
10
107.959
20
-125.507
11
107.959
21
-128.079
0
LINE
8
Black
10
107.959
20
-128.079
11
108.102
21
-128.364
0
LINE
8
Black
10
108.102
20
-128.364
11
108.388
21
-128.507
0
LINE
8
Black
10
108.388
20
-128.507
11
108.674
21
-128.507
0
LINE
8
Black
10
110.816
20
-128.364
11
110.531
21
-128.507
0
LINE
8
Black
10
110.531
20
-128.507
11
109.959
21
-128.507
0
LINE
8
Black
10
109.959
20
-128.507
11
109.674
21
-128.364
0
LINE
8
Black
10
109.674
20
-128.364
11
109.531
21
-128.079
0
LINE
8
Black
10
109.531
20
-128.079
11
109.531
21
-126.936
0
LINE
8
Black
10
109.531
20
-126.936
11
109.674
21
-126.65
0
LINE
8
Black
10
109.674
20
-126.65
11
109.959
21
-126.507
0
LINE
8
Black
10
109.959
20
-126.507
11
110.531
21
-126.507
0
LINE
8
Black
10
110.531
20
-126.507
11
110.816
21
-126.65
0
LINE
8
Black
10
110.816
20
-126.65
11
110.959
21
-126.936
0
LINE
8
Black
10
110.959
20
-126.936
11
110.959
21
-127.221
0
LINE
8
Black
10
110.959
20
-127.221
11
109.531
21
-127.507
0
LINE
8
Black
10
113.531
20
-128.507
11
113.531
21
-125.507
0
LINE
8
Black
10
113.531
20
-128.364
11
113.245
21
-128.507
0
LINE
8
Black
10
113.245
20
-128.507
11
112.674
21
-128.507
0
LINE
8
Black
10
112.674
20
-128.507
11
112.388
21
-128.364
0
LINE
8
Black
10
112.388
20
-128.364
11
112.245
21
-128.221
0
LINE
8
Black
10
112.245
20
-128.221
11
112.102
21
-127.936
0
LINE
8
Black
10
112.102
20
-127.936
11
112.102
21
-127.079
0
LINE
8
Black
10
112.102
20
-127.079
11
112.245
21
-126.793
0
LINE
8
Black
10
112.245
20
-126.793
11
112.388
21
-126.65
0
LINE
8
Black
10
112.388
20
-126.65
11
112.674
21
-126.507
0
LINE
8
Black
10
112.674
20
-126.507
11
113.245
21
-126.507
0
LINE
8
Black
10
113.245
20
-126.507
11
113.531
21
-126.65
0
LINE
8
Black
10
114.674
20
-129.65
11
114.816
21
-129.507
0
LINE
8
Black
10
114.816
20
-129.507
11
115.102
21
-129.079
0
LINE
8
Black
10
115.102
20
-129.079
11
115.245
21
-128.793
0
LINE
8
Black
10
115.245
20
-128.793
11
115.388
21
-128.364
0
LINE
8
Black
10
115.388
20
-128.364
11
115.531
21
-127.65
0
LINE
8
Black
10
115.531
20
-127.65
11
115.531
21
-127.079
0
LINE
8
Black
10
115.531
20
-127.079
11
115.388
21
-126.364
0
LINE
8
Black
10
115.388
20
-126.364
11
115.245
21
-125.936
0
LINE
8
Black
10
115.245
20
-125.936
11
115.102
21
-125.65
0
LINE
8
Black
10
115.102
20
-125.65
11
114.816
21
-125.221
0
LINE
8
Black
10
114.816
20
-125.221
11
114.674
21
-125.079
0
CIRCLE
8
Black
10
19.645
20
-131.11
40
0.6
0
LINE
8
Black
10
24.5307
20
-132.467
11
22.8164
21
-132.467
0
LINE
8
Black
10
23.6736
20
-132.467
11
23.6736
21
-129.467
0
LINE
8
Black
10
23.6736
20
-129.467
11
23.3879
21
-129.896
0
LINE
8
Black
10
23.3879
20
-129.896
11
23.1021
21
-130.181
0
LINE
8
Black
10
23.1021
20
-130.181
11
22.8164
21
-130.324
0
LINE
8
Black
10
25.8164
20
-132.181
11
25.9593
21
-132.324
0
LINE
8
Black
10
25.9593
20
-132.324
11
25.8164
21
-132.467
0
LINE
8
Black
10
25.8164
20
-132.467
11
25.6736
21
-132.324
0
LINE
8
Black
10
25.6736
20
-132.324
11
25.8164
21
-132.181
0
LINE
8
Black
10
25.8164
20
-132.181
11
25.8164
21
-132.467
0
LINE
8
Black
10
27.1021
20
-129.753
11
27.245
21
-129.61
0
LINE
8
Black
10
27.245
20
-129.61
11
27.5307
21
-129.467
0
LINE
8
Black
10
27.5307
20
-129.467
11
28.245
21
-129.467
0
LINE
8
Black
10
28.245
20
-129.467
11
28.5307
21
-129.61
0
LINE
8
Black
10
28.5307
20
-129.61
11
28.6736
21
-129.753
0
LINE
8
Black
10
28.6736
20
-129.753
11
28.8164
21
-130.039
0
LINE
8
Black
10
28.8164
20
-130.039
11
28.8164
21
-130.324
0
LINE
8
Black
10
28.8164
20
-130.324
11
28.6736
21
-130.753
0
LINE
8
Black
10
28.6736
20
-130.753
11
26.9593
21
-132.467
0
LINE
8
Black
10
26.9593
20
-132.467
11
28.8164
21
-132.467
0
LINE
8
Black
10
30.6736
20
-129.467
11
30.9593
21
-129.467
0
LINE
8
Black
10
30.9593
20
-129.467
11
31.245
21
-129.61
0
LINE
8
Black
10
31.245
20
-129.61
11
31.3879
21
-129.753
0
LINE
8
Black
10
31.3879
20
-129.753
11
31.5307
21
-130.039
0
LINE
8
Black
10
31.5307
20
-130.039
11
31.6736
21
-130.61
0
LINE
8
Black
10
31.6736
20
-130.61
11
31.6736
21
-131.324
0
LINE
8
Black
10
31.6736
20
-131.324
11
31.5307
21
-131.896
0
LINE
8
Black
10
31.5307
20
-131.896
11
31.3879
21
-132.181
0
LINE
8
Black
10
31.3879
20
-132.181
11
31.245
21
-132.324
0
LINE
8
Black
10
31.245
20
-132.324
11
30.9593
21
-132.467
0
LINE
8
Black
10
30.9593
20
-132.467
11
30.6736
21
-132.467
0
LINE
8
Black
10
30.6736
20
-132.467
11
30.3879
21
-132.324
0
LINE
8
Black
10
30.3879
20
-132.324
11
30.245
21
-132.181
0
LINE
8
Black
10
30.245
20
-132.181
11
30.1021
21
-131.896
0
LINE
8
Black
10
30.1021
20
-131.896
11
29.9593
21
-131.324
0
LINE
8
Black
10
29.9593
20
-131.324
11
29.9593
21
-130.61
0
LINE
8
Black
10
29.9593
20
-130.61
11
30.1021
21
-130.039
0
LINE
8
Black
10
30.1021
20
-130.039
11
30.245
21
-129.753
0
LINE
8
Black
10
30.245
20
-129.753
11
30.3879
21
-129.61
0
LINE
8
Black
10
30.3879
20
-129.61
11
30.6736
21
-129.467
0
LINE
8
Black
10
32.9593
20
-132.467
11
32.9593
21
-130.467
0
LINE
8
Black
10
32.9593
20
-130.753
11
33.1021
21
-130.61
0
LINE
8
Black
10
33.1021
20
-130.61
11
33.3879
21
-130.467
0
LINE
8
Black
10
33.3879
20
-130.467
11
33.8164
21
-130.467
0
LINE
8
Black
10
33.8164
20
-130.467
11
34.1021
21
-130.61
0
LINE
8
Black
10
34.1021
20
-130.61
11
34.245
21
-130.896
0
LINE
8
Black
10
34.245
20
-130.896
11
34.245
21
-132.467
0
LINE
8
Black
10
34.245
20
-130.896
11
34.3879
21
-130.61
0
LINE
8
Black
10
34.3879
20
-130.61
11
34.6736
21
-130.467
0
LINE
8
Black
10
34.6736
20
-130.467
11
35.1021
21
-130.467
0
LINE
8
Black
10
35.1021
20
-130.467
11
35.3879
21
-130.61
0
LINE
8
Black
10
35.3879
20
-130.61
11
35.5307
21
-130.896
0
LINE
8
Black
10
35.5307
20
-130.896
11
35.5307
21
-132.467
0
LINE
8
Black
10
36.9593
20
-132.467
11
36.9593
21
-130.467
0
LINE
8
Black
10
36.9593
20
-130.753
11
37.1021
21
-130.61
0
LINE
8
Black
10
37.1021
20
-130.61
11
37.3879
21
-130.467
0
LINE
8
Black
10
37.3879
20
-130.467
11
37.8164
21
-130.467
0
LINE
8
Black
10
37.8164
20
-130.467
11
38.1021
21
-130.61
0
LINE
8
Black
10
38.1021
20
-130.61
11
38.245
21
-130.896
0
LINE
8
Black
10
38.245
20
-130.896
11
38.245
21
-132.467
0
LINE
8
Black
10
38.245
20
-130.896
11
38.3879
21
-130.61
0
LINE
8
Black
10
38.3879
20
-130.61
11
38.6736
21
-130.467
0
LINE
8
Black
10
38.6736
20
-130.467
11
39.1021
21
-130.467
0
LINE
8
Black
10
39.1021
20
-130.467
11
39.3879
21
-130.61
0
LINE
8
Black
10
39.3879
20
-130.61
11
39.5307
21
-130.896
0
LINE
8
Black
10
39.5307
20
-130.896
11
39.5307
21
-132.467
0
LINE
8
Black
10
45.3879
20
-129.324
11
42.8164
21
-133.181
0
LINE
8
Black
10
49.245
20
-129.467
11
49.5307
21
-129.467
0
LINE
8
Black
10
49.5307
20
-129.467
11
49.8164
21
-129.61
0
LINE
8
Black
10
49.8164
20
-129.61
11
49.9593
21
-129.753
0
LINE
8
Black
10
49.9593
20
-129.753
11
50.1021
21
-130.039
0
LINE
8
Black
10
50.1021
20
-130.039
11
50.245
21
-130.61
0
LINE
8
Black
10
50.245
20
-130.61
11
50.245
21
-131.324
0
LINE
8
Black
10
50.245
20
-131.324
11
50.1021
21
-131.896
0
LINE
8
Black
10
50.1021
20
-131.896
11
49.9593
21
-132.181
0
LINE
8
Black
10
49.9593
20
-132.181
11
49.8164
21
-132.324
0
LINE
8
Black
10
49.8164
20
-132.324
11
49.5307
21
-132.467
0
LINE
8
Black
10
49.5307
20
-132.467
11
49.245
21
-132.467
0
LINE
8
Black
10
49.245
20
-132.467
11
48.9593
21
-132.324
0
LINE
8
Black
10
48.9593
20
-132.324
11
48.8164
21
-132.181
0
LINE
8
Black
10
48.8164
20
-132.181
11
48.6736
21
-131.896
0
LINE
8
Black
10
48.6736
20
-131.896
11
48.5307
21
-131.324
0
LINE
8
Black
10
48.5307
20
-131.324
11
48.5307
21
-130.61
0
LINE
8
Black
10
48.5307
20
-130.61
11
48.6736
21
-130.039
0
LINE
8
Black
10
48.6736
20
-130.039
11
48.8164
21
-129.753
0
LINE
8
Black
10
48.8164
20
-129.753
11
48.9593
21
-129.61
0
LINE
8
Black
10
48.9593
20
-129.61
11
49.245
21
-129.467
0
LINE
8
Black
10
51.5307
20
-132.181
11
51.6736
21
-132.324
0
LINE
8
Black
10
51.6736
20
-132.324
11
51.5307
21
-132.467
0
LINE
8
Black
10
51.5307
20
-132.467
11
51.3879
21
-132.324
0
LINE
8
Black
10
51.3879
20
-132.324
11
51.5307
21
-132.181
0
LINE
8
Black
10
51.5307
20
-132.181
11
51.5307
21
-132.467
0
LINE
8
Black
10
53.5307
20
-129.467
11
53.8164
21
-129.467
0
LINE
8
Black
10
53.8164
20
-129.467
11
54.1021
21
-129.61
0
LINE
8
Black
10
54.1021
20
-129.61
11
54.245
21
-129.753
0
LINE
8
Black
10
54.245
20
-129.753
11
54.3879
21
-130.039
0
LINE
8
Black
10
54.3879
20
-130.039
11
54.5307
21
-130.61
0
LINE
8
Black
10
54.5307
20
-130.61
11
54.5307
21
-131.324
0
LINE
8
Black
10
54.5307
20
-131.324
11
54.3879
21
-131.896
0
LINE
8
Black
10
54.3879
20
-131.896
11
54.245
21
-132.181
0
LINE
8
Black
10
54.245
20
-132.181
11
54.1021
21
-132.324
0
LINE
8
Black
10
54.1021
20
-132.324
11
53.8164
21
-132.467
0
LINE
8
Black
10
53.8164
20
-132.467
11
53.5307
21
-132.467
0
LINE
8
Black
10
53.5307
20
-132.467
11
53.245
21
-132.324
0
LINE
8
Black
10
53.245
20
-132.324
11
53.1021
21
-132.181
0
LINE
8
Black
10
53.1021
20
-132.181
11
52.9593
21
-131.896
0
LINE
8
Black
10
52.9593
20
-131.896
11
52.8164
21
-131.324
0
LINE
8
Black
10
52.8164
20
-131.324
11
52.8164
21
-130.61
0
LINE
8
Black
10
52.8164
20
-130.61
11
52.9593
21
-130.039
0
LINE
8
Black
10
52.9593
20
-130.039
11
53.1021
21
-129.753
0
LINE
8
Black
10
53.1021
20
-129.753
11
53.245
21
-129.61
0
LINE
8
Black
10
53.245
20
-129.61
11
53.5307
21
-129.467
0
LINE
8
Black
10
57.1021
20
-130.467
11
57.1021
21
-132.467
0
LINE
8
Black
10
56.3879
20
-129.324
11
55.6736
21
-131.467
0
LINE
8
Black
10
55.6736
20
-131.467
11
57.5307
21
-131.467
0
LINE
8
Black
10
58.3879
20
-129.467
11
60.3879
21
-129.467
0
LINE
8
Black
10
60.3879
20
-129.467
11
59.1021
21
-132.467
0
LINE
8
Black
10
61.3879
20
-129.467
11
61.3879
21
-130.039
0
LINE
8
Black
10
62.5307
20
-129.467
11
62.5307
21
-130.039
0
LINE
8
Black
10
66.9593
20
-133.61
11
66.8164
21
-133.467
0
LINE
8
Black
10
66.8164
20
-133.467
11
66.5307
21
-133.039
0
LINE
8
Black
10
66.5307
20
-133.039
11
66.3879
21
-132.753
0
LINE
8
Black
10
66.3879
20
-132.753
11
66.245
21
-132.324
0
LINE
8
Black
10
66.245
20
-132.324
11
66.1021
21
-131.61
0
LINE
8
Black
10
66.1021
20
-131.61
11
66.1021
21
-131.039
0
LINE
8
Black
10
66.1021
20
-131.039
11
66.245
21
-130.324
0
LINE
8
Black
10
66.245
20
-130.324
11
66.3879
21
-129.896
0
LINE
8
Black
10
66.3879
20
-129.896
11
66.5307
21
-129.61
0
LINE
8
Black
10
66.5307
20
-129.61
11
66.8164
21
-129.181
0
LINE
8
Black
10
66.8164
20
-129.181
11
66.9593
21
-129.039
0
LINE
8
Black
10
69.3879
20
-130.467
11
69.3879
21
-132.467
0
LINE
8
Black
10
68.6736
20
-129.324
11
67.9593
21
-131.467
0
LINE
8
Black
10
67.9593
20
-131.467
11
69.8164
21
-131.467
0
LINE
8
Black
10
71.3879
20
-130.753
11
71.1021
21
-130.61
0
LINE
8
Black
10
71.1021
20
-130.61
11
70.9593
21
-130.467
0
LINE
8
Black
10
70.9593
20
-130.467
11
70.8164
21
-130.181
0
LINE
8
Black
10
70.8164
20
-130.181
11
70.8164
21
-130.039
0
LINE
8
Black
10
70.8164
20
-130.039
11
70.9593
21
-129.753
0
LINE
8
Black
10
70.9593
20
-129.753
11
71.1021
21
-129.61
0
LINE
8
Black
10
71.1021
20
-129.61
11
71.3879
21
-129.467
0
LINE
8
Black
10
71.3879
20
-129.467
11
71.9593
21
-129.467
0
LINE
8
Black
10
71.9593
20
-129.467
11
72.245
21
-129.61
0
LINE
8
Black
10
72.245
20
-129.61
11
72.3879
21
-129.753
0
LINE
8
Black
10
72.3879
20
-129.753
11
72.5307
21
-130.039
0
LINE
8
Black
10
72.5307
20
-130.039
11
72.5307
21
-130.181
0
LINE
8
Black
10
72.5307
20
-130.181
11
72.3879
21
-130.467
0
LINE
8
Black
10
72.3879
20
-130.467
11
72.245
21
-130.61
0
LINE
8
Black
10
72.245
20
-130.61
11
71.9593
21
-130.753
0
LINE
8
Black
10
71.9593
20
-130.753
11
71.3879
21
-130.753
0
LINE
8
Black
10
71.3879
20
-130.753
11
71.1021
21
-130.896
0
LINE
8
Black
10
71.1021
20
-130.896
11
70.9593
21
-131.039
0
LINE
8
Black
10
70.9593
20
-131.039
11
70.8164
21
-131.324
0
LINE
8
Black
10
70.8164
20
-131.324
11
70.8164
21
-131.896
0
LINE
8
Black
10
70.8164
20
-131.896
11
70.9593
21
-132.181
0
LINE
8
Black
10
70.9593
20
-132.181
11
71.1021
21
-132.324
0
LINE
8
Black
10
71.1021
20
-132.324
11
71.3879
21
-132.467
0
LINE
8
Black
10
71.3879
20
-132.467
11
71.9593
21
-132.467
0
LINE
8
Black
10
71.9593
20
-132.467
11
72.245
21
-132.324
0
LINE
8
Black
10
72.245
20
-132.324
11
72.3879
21
-132.181
0
LINE
8
Black
10
72.3879
20
-132.181
11
72.5307
21
-131.896
0
LINE
8
Black
10
72.5307
20
-131.896
11
72.5307
21
-131.324
0
LINE
8
Black
10
72.5307
20
-131.324
11
72.3879
21
-131.039
0
LINE
8
Black
10
72.3879
20
-131.039
11
72.245
21
-130.896
0
LINE
8
Black
10
72.245
20
-130.896
11
71.9593
21
-130.753
0
LINE
8
Black
10
76.1021
20
-132.467
11
76.1021
21
-129.467
0
LINE
8
Black
10
77.3879
20
-132.467
11
77.3879
21
-130.896
0
LINE
8
Black
10
77.3879
20
-130.896
11
77.245
21
-130.61
0
LINE
8
Black
10
77.245
20
-130.61
11
76.9593
21
-130.467
0
LINE
8
Black
10
76.9593
20
-130.467
11
76.5307
21
-130.467
0
LINE
8
Black
10
76.5307
20
-130.467
11
76.245
21
-130.61
0
LINE
8
Black
10
76.245
20
-130.61
11
76.1021
21
-130.753
0
LINE
8
Black
10
79.245
20
-132.467
11
78.9593
21
-132.324
0
LINE
8
Black
10
78.9593
20
-132.324
11
78.8164
21
-132.181
0
LINE
8
Black
10
78.8164
20
-132.181
11
78.6736
21
-131.896
0
LINE
8
Black
10
78.6736
20
-131.896
11
78.6736
21
-131.039
0
LINE
8
Black
10
78.6736
20
-131.039
11
78.8164
21
-130.753
0
LINE
8
Black
10
78.8164
20
-130.753
11
78.9593
21
-130.61
0
LINE
8
Black
10
78.9593
20
-130.61
11
79.245
21
-130.467
0
LINE
8
Black
10
79.245
20
-130.467
11
79.6736
21
-130.467
0
LINE
8
Black
10
79.6736
20
-130.467
11
79.9593
21
-130.61
0
LINE
8
Black
10
79.9593
20
-130.61
11
80.1021
21
-130.753
0
LINE
8
Black
10
80.1021
20
-130.753
11
80.245
21
-131.039
0
LINE
8
Black
10
80.245
20
-131.039
11
80.245
21
-131.896
0
LINE
8
Black
10
80.245
20
-131.896
11
80.1021
21
-132.181
0
LINE
8
Black
10
80.1021
20
-132.181
11
79.9593
21
-132.324
0
LINE
8
Black
10
79.9593
20
-132.324
11
79.6736
21
-132.467
0
LINE
8
Black
10
79.6736
20
-132.467
11
79.245
21
-132.467
0
LINE
8
Black
10
81.9593
20
-132.467
11
81.6736
21
-132.324
0
LINE
8
Black
10
81.6736
20
-132.324
11
81.5307
21
-132.039
0
LINE
8
Black
10
81.5307
20
-132.039
11
81.5307
21
-129.467
0
LINE
8
Black
10
84.245
20
-132.324
11
83.9593
21
-132.467
0
LINE
8
Black
10
83.9593
20
-132.467
11
83.3879
21
-132.467
0
LINE
8
Black
10
83.3879
20
-132.467
11
83.1021
21
-132.324
0
LINE
8
Black
10
83.1021
20
-132.324
11
82.9593
21
-132.039
0
LINE
8
Black
10
82.9593
20
-132.039
11
82.9593
21
-130.896
0
LINE
8
Black
10
82.9593
20
-130.896
11
83.1021
21
-130.61
0
LINE
8
Black
10
83.1021
20
-130.61
11
83.3879
21
-130.467
0
LINE
8
Black
10
83.3879
20
-130.467
11
83.9593
21
-130.467
0
LINE
8
Black
10
83.9593
20
-130.467
11
84.245
21
-130.61
0
LINE
8
Black
10
84.245
20
-130.61
11
84.3879
21
-130.896
0
LINE
8
Black
10
84.3879
20
-130.896
11
84.3879
21
-131.181
0
LINE
8
Black
10
84.3879
20
-131.181
11
82.9593
21
-131.467
0
LINE
8
Black
10
85.5307
20
-132.324
11
85.8164
21
-132.467
0
LINE
8
Black
10
85.8164
20
-132.467
11
86.3879
21
-132.467
0
LINE
8
Black
10
86.3879
20
-132.467
11
86.6736
21
-132.324
0
LINE
8
Black
10
86.6736
20
-132.324
11
86.8164
21
-132.039
0
LINE
8
Black
10
86.8164
20
-132.039
11
86.8164
21
-131.896
0
LINE
8
Black
10
86.8164
20
-131.896
11
86.6736
21
-131.61
0
LINE
8
Black
10
86.6736
20
-131.61
11
86.3879
21
-131.467
0
LINE
8
Black
10
86.3879
20
-131.467
11
85.9593
21
-131.467
0
LINE
8
Black
10
85.9593
20
-131.467
11
85.6736
21
-131.324
0
LINE
8
Black
10
85.6736
20
-131.324
11
85.5307
21
-131.039
0
LINE
8
Black
10
85.5307
20
-131.039
11
85.5307
21
-130.896
0
LINE
8
Black
10
85.5307
20
-130.896
11
85.6736
21
-130.61
0
LINE
8
Black
10
85.6736
20
-130.61
11
85.9593
21
-130.467
0
LINE
8
Black
10
85.9593
20
-130.467
11
86.3879
21
-130.467
0
LINE
8
Black
10
86.3879
20
-130.467
11
86.6736
21
-130.61
0
LINE
8
Black
10
87.8164
20
-133.61
11
87.9593
21
-133.467
0
LINE
8
Black
10
87.9593
20
-133.467
11
88.245
21
-133.039
0
LINE
8
Black
10
88.245
20
-133.039
11
88.3879
21
-132.753
0
LINE
8
Black
10
88.3879
20
-132.753
11
88.5307
21
-132.324
0
LINE
8
Black
10
88.5307
20
-132.324
11
88.6736
21
-131.61
0
LINE
8
Black
10
88.6736
20
-131.61
11
88.6736
21
-131.039
0
LINE
8
Black
10
88.6736
20
-131.039
11
88.5307
21
-130.324
0
LINE
8
Black
10
88.5307
20
-130.324
11
88.3879
21
-129.896
0
LINE
8
Black
10
88.3879
20
-129.896
11
88.245
21
-129.61
0
LINE
8
Black
10
88.245
20
-129.61
11
87.9593
21
-129.181
0
LINE
8
Black
10
87.9593
20
-129.181
11
87.8164
21
-129.039
0
LINE
8
Black
10
93.245
20
-133.61
11
93.1021
21
-133.467
0
LINE
8
Black
10
93.1021
20
-133.467
11
92.8164
21
-133.039
0
LINE
8
Black
10
92.8164
20
-133.039
11
92.6736
21
-132.753
0
LINE
8
Black
10
92.6736
20
-132.753
11
92.5307
21
-132.324
0
LINE
8
Black
10
92.5307
20
-132.324
11
92.3879
21
-131.61
0
LINE
8
Black
10
92.3879
20
-131.61
11
92.3879
21
-131.039
0
LINE
8
Black
10
92.3879
20
-131.039
11
92.5307
21
-130.324
0
LINE
8
Black
10
92.5307
20
-130.324
11
92.6736
21
-129.896
0
LINE
8
Black
10
92.6736
20
-129.896
11
92.8164
21
-129.61
0
LINE
8
Black
10
92.8164
20
-129.61
11
93.1021
21
-129.181
0
LINE
8
Black
10
93.1021
20
-129.181
11
93.245
21
-129.039
0
LINE
8
Black
10
94.3879
20
-130.467
11
94.3879
21
-132.467
0
LINE
8
Black
10
94.3879
20
-130.753
11
94.5307
21
-130.61
0
LINE
8
Black
10
94.5307
20
-130.61
11
94.8164
21
-130.467
0
LINE
8
Black
10
94.8164
20
-130.467
11
95.245
21
-130.467
0
LINE
8
Black
10
95.245
20
-130.467
11
95.5307
21
-130.61
0
LINE
8
Black
10
95.5307
20
-130.61
11
95.6736
21
-130.896
0
LINE
8
Black
10
95.6736
20
-130.896
11
95.6736
21
-132.467
0
LINE
8
Black
10
97.5307
20
-132.467
11
97.245
21
-132.324
0
LINE
8
Black
10
97.245
20
-132.324
11
97.1021
21
-132.181
0
LINE
8
Black
10
97.1021
20
-132.181
11
96.9593
21
-131.896
0
LINE
8
Black
10
96.9593
20
-131.896
11
96.9593
21
-131.039
0
LINE
8
Black
10
96.9593
20
-131.039
11
97.1021
21
-130.753
0
LINE
8
Black
10
97.1021
20
-130.753
11
97.245
21
-130.61
0
LINE
8
Black
10
97.245
20
-130.61
11
97.5307
21
-130.467
0
LINE
8
Black
10
97.5307
20
-130.467
11
97.9593
21
-130.467
0
LINE
8
Black
10
97.9593
20
-130.467
11
98.245
21
-130.61
0
LINE
8
Black
10
98.245
20
-130.61
11
98.3879
21
-130.753
0
LINE
8
Black
10
98.3879
20
-130.753
11
98.5307
21
-131.039
0
LINE
8
Black
10
98.5307
20
-131.039
11
98.5307
21
-131.896
0
LINE
8
Black
10
98.5307
20
-131.896
11
98.3879
21
-132.181
0
LINE
8
Black
10
98.3879
20
-132.181
11
98.245
21
-132.324
0
LINE
8
Black
10
98.245
20
-132.324
11
97.9593
21
-132.467
0
LINE
8
Black
10
97.9593
20
-132.467
11
97.5307
21
-132.467
0
LINE
8
Black
10
99.3879
20
-130.467
11
100.531
21
-130.467
0
LINE
8
Black
10
99.8164
20
-129.467
11
99.8164
21
-132.039
0
LINE
8
Black
10
99.8164
20
-132.039
11
99.9593
21
-132.324
0
LINE
8
Black
10
99.9593
20
-132.324
11
100.245
21
-132.467
0
LINE
8
Black
10
100.245
20
-132.467
11
100.531
21
-132.467
0
LINE
8
Black
10
103.816
20
-130.467
11
103.816
21
-133.467
0
LINE
8
Black
10
103.816
20
-130.61
11
104.102
21
-130.467
0
LINE
8
Black
10
104.102
20
-130.467
11
104.674
21
-130.467
0
LINE
8
Black
10
104.674
20
-130.467
11
104.959
21
-130.61
0
LINE
8
Black
10
104.959
20
-130.61
11
105.102
21
-130.753
0
LINE
8
Black
10
105.102
20
-130.753
11
105.245
21
-131.039
0
LINE
8
Black
10
105.245
20
-131.039
11
105.245
21
-131.896
0
LINE
8
Black
10
105.245
20
-131.896
11
105.102
21
-132.181
0
LINE
8
Black
10
105.102
20
-132.181
11
104.959
21
-132.324
0
LINE
8
Black
10
104.959
20
-132.324
11
104.674
21
-132.467
0
LINE
8
Black
10
104.674
20
-132.467
11
104.102
21
-132.467
0
LINE
8
Black
10
104.102
20
-132.467
11
103.816
21
-132.324
0
LINE
8
Black
10
106.959
20
-132.467
11
106.674
21
-132.324
0
LINE
8
Black
10
106.674
20
-132.324
11
106.531
21
-132.039
0
LINE
8
Black
10
106.531
20
-132.039
11
106.531
21
-129.467
0
LINE
8
Black
10
109.388
20
-132.467
11
109.388
21
-130.896
0
LINE
8
Black
10
109.388
20
-130.896
11
109.245
21
-130.61
0
LINE
8
Black
10
109.245
20
-130.61
11
108.959
21
-130.467
0
LINE
8
Black
10
108.959
20
-130.467
11
108.388
21
-130.467
0
LINE
8
Black
10
108.388
20
-130.467
11
108.102
21
-130.61
0
LINE
8
Black
10
109.388
20
-132.324
11
109.102
21
-132.467
0
LINE
8
Black
10
109.102
20
-132.467
11
108.388
21
-132.467
0
LINE
8
Black
10
108.388
20
-132.467
11
108.102
21
-132.324
0
LINE
8
Black
10
108.102
20
-132.324
11
107.959
21
-132.039
0
LINE
8
Black
10
107.959
20
-132.039
11
107.959
21
-131.753
0
LINE
8
Black
10
107.959
20
-131.753
11
108.102
21
-131.467
0
LINE
8
Black
10
108.102
20
-131.467
11
108.388
21
-131.324
0
LINE
8
Black
10
108.388
20
-131.324
11
109.102
21
-131.324
0
LINE
8
Black
10
109.102
20
-131.324
11
109.388
21
-131.181
0
LINE
8
Black
10
110.388
20
-130.467
11
111.531
21
-130.467
0
LINE
8
Black
10
110.816
20
-129.467
11
110.816
21
-132.039
0
LINE
8
Black
10
110.816
20
-132.039
11
110.959
21
-132.324
0
LINE
8
Black
10
110.959
20
-132.324
11
111.245
21
-132.467
0
LINE
8
Black
10
111.245
20
-132.467
11
111.531
21
-132.467
0
LINE
8
Black
10
113.674
20
-132.324
11
113.388
21
-132.467
0
LINE
8
Black
10
113.388
20
-132.467
11
112.816
21
-132.467
0
LINE
8
Black
10
112.816
20
-132.467
11
112.531
21
-132.324
0
LINE
8
Black
10
112.531
20
-132.324
11
112.388
21
-132.039
0
LINE
8
Black
10
112.388
20
-132.039
11
112.388
21
-130.896
0
LINE
8
Black
10
112.388
20
-130.896
11
112.531
21
-130.61
0
LINE
8
Black
10
112.531
20
-130.61
11
112.816
21
-130.467
0
LINE
8
Black
10
112.816
20
-130.467
11
113.388
21
-130.467
0
LINE
8
Black
10
113.388
20
-130.467
11
113.674
21
-130.61
0
LINE
8
Black
10
113.674
20
-130.61
11
113.816
21
-130.896
0
LINE
8
Black
10
113.816
20
-130.896
11
113.816
21
-131.181
0
LINE
8
Black
10
113.816
20
-131.181
11
112.388
21
-131.467
0
LINE
8
Black
10
116.388
20
-132.467
11
116.388
21
-129.467
0
LINE
8
Black
10
116.388
20
-132.324
11
116.102
21
-132.467
0
LINE
8
Black
10
116.102
20
-132.467
11
115.531
21
-132.467
0
LINE
8
Black
10
115.531
20
-132.467
11
115.245
21
-132.324
0
LINE
8
Black
10
115.245
20
-132.324
11
115.102
21
-132.181
0
LINE
8
Black
10
115.102
20
-132.181
11
114.959
21
-131.896
0
LINE
8
Black
10
114.959
20
-131.896
11
114.959
21
-131.039
0
LINE
8
Black
10
114.959
20
-131.039
11
115.102
21
-130.753
0
LINE
8
Black
10
115.102
20
-130.753
11
115.245
21
-130.61
0
LINE
8
Black
10
115.245
20
-130.61
11
115.531
21
-130.467
0
LINE
8
Black
10
115.531
20
-130.467
11
116.102
21
-130.467
0
LINE
8
Black
10
116.102
20
-130.467
11
116.388
21
-130.61
0
LINE
8
Black
10
117.531
20
-133.61
11
117.674
21
-133.467
0
LINE
8
Black
10
117.674
20
-133.467
11
117.959
21
-133.039
0
LINE
8
Black
10
117.959
20
-133.039
11
118.102
21
-132.753
0
LINE
8
Black
10
118.102
20
-132.753
11
118.245
21
-132.324
0
LINE
8
Black
10
118.245
20
-132.324
11
118.388
21
-131.61
0
LINE
8
Black
10
118.388
20
-131.61
11
118.388
21
-131.039
0
LINE
8
Black
10
118.388
20
-131.039
11
118.245
21
-130.324
0
LINE
8
Black
10
118.245
20
-130.324
11
118.102
21
-129.896
0
LINE
8
Black
10
118.102
20
-129.896
11
117.959
21
-129.61
0
LINE
8
Black
10
117.959
20
-129.61
11
117.674
21
-129.181
0
LINE
8
Black
10
117.674
20
-129.181
11
117.531
21
-129.039
0
LINE
8
Black
10
19.395
20
-134.22
11
19.395
21
-135.92
0
LINE
8
Black
10
18.545
20
-135.07
11
20.245
21
-135.07
0
LINE
8
Black
10
24.5307
20
-136.427
11
22.8164
21
-136.427
0
LINE
8
Black
10
23.6736
20
-136.427
11
23.6736
21
-133.427
0
LINE
8
Black
10
23.6736
20
-133.427
11
23.3879
21
-133.856
0
LINE
8
Black
10
23.3879
20
-133.856
11
23.1021
21
-134.141
0
LINE
8
Black
10
23.1021
20
-134.141
11
22.8164
21
-134.284
0
LINE
8
Black
10
25.8164
20
-136.141
11
25.9593
21
-136.284
0
LINE
8
Black
10
25.9593
20
-136.284
11
25.8164
21
-136.427
0
LINE
8
Black
10
25.8164
20
-136.427
11
25.6736
21
-136.284
0
LINE
8
Black
10
25.6736
20
-136.284
11
25.8164
21
-136.141
0
LINE
8
Black
10
25.8164
20
-136.141
11
25.8164
21
-136.427
0
LINE
8
Black
10
26.9593
20
-133.427
11
28.9593
21
-133.427
0
LINE
8
Black
10
28.9593
20
-133.427
11
27.6736
21
-136.427
0
LINE
8
Black
10
30.6736
20
-133.427
11
30.9593
21
-133.427
0
LINE
8
Black
10
30.9593
20
-133.427
11
31.245
21
-133.57
0
LINE
8
Black
10
31.245
20
-133.57
11
31.3879
21
-133.713
0
LINE
8
Black
10
31.3879
20
-133.713
11
31.5307
21
-133.999
0
LINE
8
Black
10
31.5307
20
-133.999
11
31.6736
21
-134.57
0
LINE
8
Black
10
31.6736
20
-134.57
11
31.6736
21
-135.284
0
LINE
8
Black
10
31.6736
20
-135.284
11
31.5307
21
-135.856
0
LINE
8
Black
10
31.5307
20
-135.856
11
31.3879
21
-136.141
0
LINE
8
Black
10
31.3879
20
-136.141
11
31.245
21
-136.284
0
LINE
8
Black
10
31.245
20
-136.284
11
30.9593
21
-136.427
0
LINE
8
Black
10
30.9593
20
-136.427
11
30.6736
21
-136.427
0
LINE
8
Black
10
30.6736
20
-136.427
11
30.3879
21
-136.284
0
LINE
8
Black
10
30.3879
20
-136.284
11
30.245
21
-136.141
0
LINE
8
Black
10
30.245
20
-136.141
11
30.1021
21
-135.856
0
LINE
8
Black
10
30.1021
20
-135.856
11
29.9593
21
-135.284
0
LINE
8
Black
10
29.9593
20
-135.284
11
29.9593
21
-134.57
0
LINE
8
Black
10
29.9593
20
-134.57
11
30.1021
21
-133.999
0
LINE
8
Black
10
30.1021
20
-133.999
11
30.245
21
-133.713
0
LINE
8
Black
10
30.245
20
-133.713
11
30.3879
21
-133.57
0
LINE
8
Black
10
30.3879
20
-133.57
11
30.6736
21
-133.427
0
LINE
8
Black
10
32.9593
20
-136.427
11
32.9593
21
-134.427
0
LINE
8
Black
10
32.9593
20
-134.713
11
33.1021
21
-134.57
0
LINE
8
Black
10
33.1021
20
-134.57
11
33.3879
21
-134.427
0
LINE
8
Black
10
33.3879
20
-134.427
11
33.8164
21
-134.427
0
LINE
8
Black
10
33.8164
20
-134.427
11
34.1021
21
-134.57
0
LINE
8
Black
10
34.1021
20
-134.57
11
34.245
21
-134.856
0
LINE
8
Black
10
34.245
20
-134.856
11
34.245
21
-136.427
0
LINE
8
Black
10
34.245
20
-134.856
11
34.3879
21
-134.57
0
LINE
8
Black
10
34.3879
20
-134.57
11
34.6736
21
-134.427
0
LINE
8
Black
10
34.6736
20
-134.427
11
35.1021
21
-134.427
0
LINE
8
Black
10
35.1021
20
-134.427
11
35.3879
21
-134.57
0
LINE
8
Black
10
35.3879
20
-134.57
11
35.5307
21
-134.856
0
LINE
8
Black
10
35.5307
20
-134.856
11
35.5307
21
-136.427
0
LINE
8
Black
10
36.9593
20
-136.427
11
36.9593
21
-134.427
0
LINE
8
Black
10
36.9593
20
-134.713
11
37.1021
21
-134.57
0
LINE
8
Black
10
37.1021
20
-134.57
11
37.3879
21
-134.427
0
LINE
8
Black
10
37.3879
20
-134.427
11
37.8164
21
-134.427
0
LINE
8
Black
10
37.8164
20
-134.427
11
38.1021
21
-134.57
0
LINE
8
Black
10
38.1021
20
-134.57
11
38.245
21
-134.856
0
LINE
8
Black
10
38.245
20
-134.856
11
38.245
21
-136.427
0
LINE
8
Black
10
38.245
20
-134.856
11
38.3879
21
-134.57
0
LINE
8
Black
10
38.3879
20
-134.57
11
38.6736
21
-134.427
0
LINE
8
Black
10
38.6736
20
-134.427
11
39.1021
21
-134.427
0
LINE
8
Black
10
39.1021
20
-134.427
11
39.3879
21
-134.57
0
LINE
8
Black
10
39.3879
20
-134.57
11
39.5307
21
-134.856
0
LINE
8
Black
10
39.5307
20
-134.856
11
39.5307
21
-136.427
0
LINE
8
Black
10
45.3879
20
-133.284
11
42.8164
21
-137.141
0
LINE
8
Black
10
49.245
20
-133.427
11
49.5307
21
-133.427
0
LINE
8
Black
10
49.5307
20
-133.427
11
49.8164
21
-133.57
0
LINE
8
Black
10
49.8164
20
-133.57
11
49.9593
21
-133.713
0
LINE
8
Black
10
49.9593
20
-133.713
11
50.1021
21
-133.999
0
LINE
8
Black
10
50.1021
20
-133.999
11
50.245
21
-134.57
0
LINE
8
Black
10
50.245
20
-134.57
11
50.245
21
-135.284
0
LINE
8
Black
10
50.245
20
-135.284
11
50.1021
21
-135.856
0
LINE
8
Black
10
50.1021
20
-135.856
11
49.9593
21
-136.141
0
LINE
8
Black
10
49.9593
20
-136.141
11
49.8164
21
-136.284
0
LINE
8
Black
10
49.8164
20
-136.284
11
49.5307
21
-136.427
0
LINE
8
Black
10
49.5307
20
-136.427
11
49.245
21
-136.427
0
LINE
8
Black
10
49.245
20
-136.427
11
48.9593
21
-136.284
0
LINE
8
Black
10
48.9593
20
-136.284
11
48.8164
21
-136.141
0
LINE
8
Black
10
48.8164
20
-136.141
11
48.6736
21
-135.856
0
LINE
8
Black
10
48.6736
20
-135.856
11
48.5307
21
-135.284
0
LINE
8
Black
10
48.5307
20
-135.284
11
48.5307
21
-134.57
0
LINE
8
Black
10
48.5307
20
-134.57
11
48.6736
21
-133.999
0
LINE
8
Black
10
48.6736
20
-133.999
11
48.8164
21
-133.713
0
LINE
8
Black
10
48.8164
20
-133.713
11
48.9593
21
-133.57
0
LINE
8
Black
10
48.9593
20
-133.57
11
49.245
21
-133.427
0
LINE
8
Black
10
51.5307
20
-136.141
11
51.6736
21
-136.284
0
LINE
8
Black
10
51.6736
20
-136.284
11
51.5307
21
-136.427
0
LINE
8
Black
10
51.5307
20
-136.427
11
51.3879
21
-136.284
0
LINE
8
Black
10
51.3879
20
-136.284
11
51.5307
21
-136.141
0
LINE
8
Black
10
51.5307
20
-136.141
11
51.5307
21
-136.427
0
LINE
8
Black
10
53.5307
20
-133.427
11
53.8164
21
-133.427
0
LINE
8
Black
10
53.8164
20
-133.427
11
54.1021
21
-133.57
0
LINE
8
Black
10
54.1021
20
-133.57
11
54.245
21
-133.713
0
LINE
8
Black
10
54.245
20
-133.713
11
54.3879
21
-133.999
0
LINE
8
Black
10
54.3879
20
-133.999
11
54.5307
21
-134.57
0
LINE
8
Black
10
54.5307
20
-134.57
11
54.5307
21
-135.284
0
LINE
8
Black
10
54.5307
20
-135.284
11
54.3879
21
-135.856
0
LINE
8
Black
10
54.3879
20
-135.856
11
54.245
21
-136.141
0
LINE
8
Black
10
54.245
20
-136.141
11
54.1021
21
-136.284
0
LINE
8
Black
10
54.1021
20
-136.284
11
53.8164
21
-136.427
0
LINE
8
Black
10
53.8164
20
-136.427
11
53.5307
21
-136.427
0
LINE
8
Black
10
53.5307
20
-136.427
11
53.245
21
-136.284
0
LINE
8
Black
10
53.245
20
-136.284
11
53.1021
21
-136.141
0
LINE
8
Black
10
53.1021
20
-136.141
11
52.9593
21
-135.856
0
LINE
8
Black
10
52.9593
20
-135.856
11
52.8164
21
-135.284
0
LINE
8
Black
10
52.8164
20
-135.284
11
52.8164
21
-134.57
0
LINE
8
Black
10
52.8164
20
-134.57
11
52.9593
21
-133.999
0
LINE
8
Black
10
52.9593
20
-133.999
11
53.1021
21
-133.713
0
LINE
8
Black
10
53.1021
20
-133.713
11
53.245
21
-133.57
0
LINE
8
Black
10
53.245
20
-133.57
11
53.5307
21
-133.427
0
LINE
8
Black
10
57.1021
20
-133.427
11
56.5307
21
-133.427
0
LINE
8
Black
10
56.5307
20
-133.427
11
56.245
21
-133.57
0
LINE
8
Black
10
56.245
20
-133.57
11
56.1021
21
-133.713
0
LINE
8
Black
10
56.1021
20
-133.713
11
55.8164
21
-134.141
0
LINE
8
Black
10
55.8164
20
-134.141
11
55.6736
21
-134.713
0
LINE
8
Black
10
55.6736
20
-134.713
11
55.6736
21
-135.856
0
LINE
8
Black
10
55.6736
20
-135.856
11
55.8164
21
-136.141
0
LINE
8
Black
10
55.8164
20
-136.141
11
55.9593
21
-136.284
0
LINE
8
Black
10
55.9593
20
-136.284
11
56.245
21
-136.427
0
LINE
8
Black
10
56.245
20
-136.427
11
56.8164
21
-136.427
0
LINE
8
Black
10
56.8164
20
-136.427
11
57.1021
21
-136.284
0
LINE
8
Black
10
57.1021
20
-136.284
11
57.245
21
-136.141
0
LINE
8
Black
10
57.245
20
-136.141
11
57.3879
21
-135.856
0
LINE
8
Black
10
57.3879
20
-135.856
11
57.3879
21
-135.141
0
LINE
8
Black
10
57.3879
20
-135.141
11
57.245
21
-134.856
0
LINE
8
Black
10
57.245
20
-134.856
11
57.1021
21
-134.713
0
LINE
8
Black
10
57.1021
20
-134.713
11
56.8164
21
-134.57
0
LINE
8
Black
10
56.8164
20
-134.57
11
56.245
21
-134.57
0
LINE
8
Black
10
56.245
20
-134.57
11
55.9593
21
-134.713
0
LINE
8
Black
10
55.9593
20
-134.713
11
55.8164
21
-134.856
0
LINE
8
Black
10
55.8164
20
-134.856
11
55.6736
21
-135.141
0
LINE
8
Black
10
58.3879
20
-133.427
11
60.3879
21
-133.427
0
LINE
8
Black
10
60.3879
20
-133.427
11
59.1021
21
-136.427
0
LINE
8
Black
10
61.3879
20
-133.427
11
61.3879
21
-133.999
0
LINE
8
Black
10
62.5307
20
-133.427
11
62.5307
21
-133.999
0
LINE
8
Black
10
66.9593
20
-137.57
11
66.8164
21
-137.427
0
LINE
8
Black
10
66.8164
20
-137.427
11
66.5307
21
-136.999
0
LINE
8
Black
10
66.5307
20
-136.999
11
66.3879
21
-136.713
0
LINE
8
Black
10
66.3879
20
-136.713
11
66.245
21
-136.284
0
LINE
8
Black
10
66.245
20
-136.284
11
66.1021
21
-135.57
0
LINE
8
Black
10
66.1021
20
-135.57
11
66.1021
21
-134.999
0
LINE
8
Black
10
66.1021
20
-134.999
11
66.245
21
-134.284
0
LINE
8
Black
10
66.245
20
-134.284
11
66.3879
21
-133.856
0
LINE
8
Black
10
66.3879
20
-133.856
11
66.5307
21
-133.57
0
LINE
8
Black
10
66.5307
20
-133.57
11
66.8164
21
-133.141
0
LINE
8
Black
10
66.8164
20
-133.141
11
66.9593
21
-132.999
0
LINE
8
Black
10
69.3879
20
-134.427
11
69.3879
21
-136.427
0
LINE
8
Black
10
68.6736
20
-133.284
11
67.9593
21
-135.427
0
LINE
8
Black
10
67.9593
20
-135.427
11
69.8164
21
-135.427
0
LINE
8
Black
10
71.3879
20
-134.713
11
71.1021
21
-134.57
0
LINE
8
Black
10
71.1021
20
-134.57
11
70.9593
21
-134.427
0
LINE
8
Black
10
70.9593
20
-134.427
11
70.8164
21
-134.141
0
LINE
8
Black
10
70.8164
20
-134.141
11
70.8164
21
-133.999
0
LINE
8
Black
10
70.8164
20
-133.999
11
70.9593
21
-133.713
0
LINE
8
Black
10
70.9593
20
-133.713
11
71.1021
21
-133.57
0
LINE
8
Black
10
71.1021
20
-133.57
11
71.3879
21
-133.427
0
LINE
8
Black
10
71.3879
20
-133.427
11
71.9593
21
-133.427
0
LINE
8
Black
10
71.9593
20
-133.427
11
72.245
21
-133.57
0
LINE
8
Black
10
72.245
20
-133.57
11
72.3879
21
-133.713
0
LINE
8
Black
10
72.3879
20
-133.713
11
72.5307
21
-133.999
0
LINE
8
Black
10
72.5307
20
-133.999
11
72.5307
21
-134.141
0
LINE
8
Black
10
72.5307
20
-134.141
11
72.3879
21
-134.427
0
LINE
8
Black
10
72.3879
20
-134.427
11
72.245
21
-134.57
0
LINE
8
Black
10
72.245
20
-134.57
11
71.9593
21
-134.713
0
LINE
8
Black
10
71.9593
20
-134.713
11
71.3879
21
-134.713
0
LINE
8
Black
10
71.3879
20
-134.713
11
71.1021
21
-134.856
0
LINE
8
Black
10
71.1021
20
-134.856
11
70.9593
21
-134.999
0
LINE
8
Black
10
70.9593
20
-134.999
11
70.8164
21
-135.284
0
LINE
8
Black
10
70.8164
20
-135.284
11
70.8164
21
-135.856
0
LINE
8
Black
10
70.8164
20
-135.856
11
70.9593
21
-136.141
0
LINE
8
Black
10
70.9593
20
-136.141
11
71.1021
21
-136.284
0
LINE
8
Black
10
71.1021
20
-136.284
11
71.3879
21
-136.427
0
LINE
8
Black
10
71.3879
20
-136.427
11
71.9593
21
-136.427
0
LINE
8
Black
10
71.9593
20
-136.427
11
72.245
21
-136.284
0
LINE
8
Black
10
72.245
20
-136.284
11
72.3879
21
-136.141
0
LINE
8
Black
10
72.3879
20
-136.141
11
72.5307
21
-135.856
0
LINE
8
Black
10
72.5307
20
-135.856
11
72.5307
21
-135.284
0
LINE
8
Black
10
72.5307
20
-135.284
11
72.3879
21
-134.999
0
LINE
8
Black
10
72.3879
20
-134.999
11
72.245
21
-134.856
0
LINE
8
Black
10
72.245
20
-134.856
11
71.9593
21
-134.713
0
LINE
8
Black
10
76.1021
20
-136.427
11
76.1021
21
-133.427
0
LINE
8
Black
10
77.3879
20
-136.427
11
77.3879
21
-134.856
0
LINE
8
Black
10
77.3879
20
-134.856
11
77.245
21
-134.57
0
LINE
8
Black
10
77.245
20
-134.57
11
76.9593
21
-134.427
0
LINE
8
Black
10
76.9593
20
-134.427
11
76.5307
21
-134.427
0
LINE
8
Black
10
76.5307
20
-134.427
11
76.245
21
-134.57
0
LINE
8
Black
10
76.245
20
-134.57
11
76.1021
21
-134.713
0
LINE
8
Black
10
79.245
20
-136.427
11
78.9593
21
-136.284
0
LINE
8
Black
10
78.9593
20
-136.284
11
78.8164
21
-136.141
0
LINE
8
Black
10
78.8164
20
-136.141
11
78.6736
21
-135.856
0
LINE
8
Black
10
78.6736
20
-135.856
11
78.6736
21
-134.999
0
LINE
8
Black
10
78.6736
20
-134.999
11
78.8164
21
-134.713
0
LINE
8
Black
10
78.8164
20
-134.713
11
78.9593
21
-134.57
0
LINE
8
Black
10
78.9593
20
-134.57
11
79.245
21
-134.427
0
LINE
8
Black
10
79.245
20
-134.427
11
79.6736
21
-134.427
0
LINE
8
Black
10
79.6736
20
-134.427
11
79.9593
21
-134.57
0
LINE
8
Black
10
79.9593
20
-134.57
11
80.1021
21
-134.713
0
LINE
8
Black
10
80.1021
20
-134.713
11
80.245
21
-134.999
0
LINE
8
Black
10
80.245
20
-134.999
11
80.245
21
-135.856
0
LINE
8
Black
10
80.245
20
-135.856
11
80.1021
21
-136.141
0
LINE
8
Black
10
80.1021
20
-136.141
11
79.9593
21
-136.284
0
LINE
8
Black
10
79.9593
20
-136.284
11
79.6736
21
-136.427
0
LINE
8
Black
10
79.6736
20
-136.427
11
79.245
21
-136.427
0
LINE
8
Black
10
81.9593
20
-136.427
11
81.6736
21
-136.284
0
LINE
8
Black
10
81.6736
20
-136.284
11
81.5307
21
-135.999
0
LINE
8
Black
10
81.5307
20
-135.999
11
81.5307
21
-133.427
0
LINE
8
Black
10
84.245
20
-136.284
11
83.9593
21
-136.427
0
LINE
8
Black
10
83.9593
20
-136.427
11
83.3879
21
-136.427
0
LINE
8
Black
10
83.3879
20
-136.427
11
83.1021
21
-136.284
0
LINE
8
Black
10
83.1021
20
-136.284
11
82.9593
21
-135.999
0
LINE
8
Black
10
82.9593
20
-135.999
11
82.9593
21
-134.856
0
LINE
8
Black
10
82.9593
20
-134.856
11
83.1021
21
-134.57
0
LINE
8
Black
10
83.1021
20
-134.57
11
83.3879
21
-134.427
0
LINE
8
Black
10
83.3879
20
-134.427
11
83.9593
21
-134.427
0
LINE
8
Black
10
83.9593
20
-134.427
11
84.245
21
-134.57
0
LINE
8
Black
10
84.245
20
-134.57
11
84.3879
21
-134.856
0
LINE
8
Black
10
84.3879
20
-134.856
11
84.3879
21
-135.141
0
LINE
8
Black
10
84.3879
20
-135.141
11
82.9593
21
-135.427
0
LINE
8
Black
10
85.5307
20
-136.284
11
85.8164
21
-136.427
0
LINE
8
Black
10
85.8164
20
-136.427
11
86.3879
21
-136.427
0
LINE
8
Black
10
86.3879
20
-136.427
11
86.6736
21
-136.284
0
LINE
8
Black
10
86.6736
20
-136.284
11
86.8164
21
-135.999
0
LINE
8
Black
10
86.8164
20
-135.999
11
86.8164
21
-135.856
0
LINE
8
Black
10
86.8164
20
-135.856
11
86.6736
21
-135.57
0
LINE
8
Black
10
86.6736
20
-135.57
11
86.3879
21
-135.427
0
LINE
8
Black
10
86.3879
20
-135.427
11
85.9593
21
-135.427
0
LINE
8
Black
10
85.9593
20
-135.427
11
85.6736
21
-135.284
0
LINE
8
Black
10
85.6736
20
-135.284
11
85.5307
21
-134.999
0
LINE
8
Black
10
85.5307
20
-134.999
11
85.5307
21
-134.856
0
LINE
8
Black
10
85.5307
20
-134.856
11
85.6736
21
-134.57
0
LINE
8
Black
10
85.6736
20
-134.57
11
85.9593
21
-134.427
0
LINE
8
Black
10
85.9593
20
-134.427
11
86.3879
21
-134.427
0
LINE
8
Black
10
86.3879
20
-134.427
11
86.6736
21
-134.57
0
LINE
8
Black
10
87.8164
20
-137.57
11
87.9593
21
-137.427
0
LINE
8
Black
10
87.9593
20
-137.427
11
88.245
21
-136.999
0
LINE
8
Black
10
88.245
20
-136.999
11
88.3879
21
-136.713
0
LINE
8
Black
10
88.3879
20
-136.713
11
88.5307
21
-136.284
0
LINE
8
Black
10
88.5307
20
-136.284
11
88.6736
21
-135.57
0
LINE
8
Black
10
88.6736
20
-135.57
11
88.6736
21
-134.999
0
LINE
8
Black
10
88.6736
20
-134.999
11
88.5307
21
-134.284
0
LINE
8
Black
10
88.5307
20
-134.284
11
88.3879
21
-133.856
0
LINE
8
Black
10
88.3879
20
-133.856
11
88.245
21
-133.57
0
LINE
8
Black
10
88.245
20
-133.57
11
87.9593
21
-133.141
0
LINE
8
Black
10
87.9593
20
-133.141
11
87.8164
21
-132.999
0
LINE
8
Black
10
93.245
20
-137.57
11
93.1021
21
-137.427
0
LINE
8
Black
10
93.1021
20
-137.427
11
92.8164
21
-136.999
0
LINE
8
Black
10
92.8164
20
-136.999
11
92.6736
21
-136.713
0
LINE
8
Black
10
92.6736
20
-136.713
11
92.5307
21
-136.284
0
LINE
8
Black
10
92.5307
20
-136.284
11
92.3879
21
-135.57
0
LINE
8
Black
10
92.3879
20
-135.57
11
92.3879
21
-134.999
0
LINE
8
Black
10
92.3879
20
-134.999
11
92.5307
21
-134.284
0
LINE
8
Black
10
92.5307
20
-134.284
11
92.6736
21
-133.856
0
LINE
8
Black
10
92.6736
20
-133.856
11
92.8164
21
-133.57
0
LINE
8
Black
10
92.8164
20
-133.57
11
93.1021
21
-133.141
0
LINE
8
Black
10
93.1021
20
-133.141
11
93.245
21
-132.999
0
LINE
8
Black
10
94.3879
20
-134.427
11
94.3879
21
-136.427
0
LINE
8
Black
10
94.3879
20
-134.713
11
94.5307
21
-134.57
0
LINE
8
Black
10
94.5307
20
-134.57
11
94.8164
21
-134.427
0
LINE
8
Black
10
94.8164
20
-134.427
11
95.245
21
-134.427
0
LINE
8
Black
10
95.245
20
-134.427
11
95.5307
21
-134.57
0
LINE
8
Black
10
95.5307
20
-134.57
11
95.6736
21
-134.856
0
LINE
8
Black
10
95.6736
20
-134.856
11
95.6736
21
-136.427
0
LINE
8
Black
10
97.5307
20
-136.427
11
97.245
21
-136.284
0
LINE
8
Black
10
97.245
20
-136.284
11
97.1021
21
-136.141
0
LINE
8
Black
10
97.1021
20
-136.141
11
96.9593
21
-135.856
0
LINE
8
Black
10
96.9593
20
-135.856
11
96.9593
21
-134.999
0
LINE
8
Black
10
96.9593
20
-134.999
11
97.1021
21
-134.713
0
LINE
8
Black
10
97.1021
20
-134.713
11
97.245
21
-134.57
0
LINE
8
Black
10
97.245
20
-134.57
11
97.5307
21
-134.427
0
LINE
8
Black
10
97.5307
20
-134.427
11
97.9593
21
-134.427
0
LINE
8
Black
10
97.9593
20
-134.427
11
98.245
21
-134.57
0
LINE
8
Black
10
98.245
20
-134.57
11
98.3879
21
-134.713
0
LINE
8
Black
10
98.3879
20
-134.713
11
98.5307
21
-134.999
0
LINE
8
Black
10
98.5307
20
-134.999
11
98.5307
21
-135.856
0
LINE
8
Black
10
98.5307
20
-135.856
11
98.3879
21
-136.141
0
LINE
8
Black
10
98.3879
20
-136.141
11
98.245
21
-136.284
0
LINE
8
Black
10
98.245
20
-136.284
11
97.9593
21
-136.427
0
LINE
8
Black
10
97.9593
20
-136.427
11
97.5307
21
-136.427
0
LINE
8
Black
10
99.3879
20
-134.427
11
100.531
21
-134.427
0
LINE
8
Black
10
99.8164
20
-133.427
11
99.8164
21
-135.999
0
LINE
8
Black
10
99.8164
20
-135.999
11
99.9593
21
-136.284
0
LINE
8
Black
10
99.9593
20
-136.284
11
100.245
21
-136.427
0
LINE
8
Black
10
100.245
20
-136.427
11
100.531
21
-136.427
0
LINE
8
Black
10
103.816
20
-134.427
11
103.816
21
-137.427
0
LINE
8
Black
10
103.816
20
-134.57
11
104.102
21
-134.427
0
LINE
8
Black
10
104.102
20
-134.427
11
104.674
21
-134.427
0
LINE
8
Black
10
104.674
20
-134.427
11
104.959
21
-134.57
0
LINE
8
Black
10
104.959
20
-134.57
11
105.102
21
-134.713
0
LINE
8
Black
10
105.102
20
-134.713
11
105.245
21
-134.999
0
LINE
8
Black
10
105.245
20
-134.999
11
105.245
21
-135.856
0
LINE
8
Black
10
105.245
20
-135.856
11
105.102
21
-136.141
0
LINE
8
Black
10
105.102
20
-136.141
11
104.959
21
-136.284
0
LINE
8
Black
10
104.959
20
-136.284
11
104.674
21
-136.427
0
LINE
8
Black
10
104.674
20
-136.427
11
104.102
21
-136.427
0
LINE
8
Black
10
104.102
20
-136.427
11
103.816
21
-136.284
0
LINE
8
Black
10
106.959
20
-136.427
11
106.674
21
-136.284
0
LINE
8
Black
10
106.674
20
-136.284
11
106.531
21
-135.999
0
LINE
8
Black
10
106.531
20
-135.999
11
106.531
21
-133.427
0
LINE
8
Black
10
109.388
20
-136.427
11
109.388
21
-134.856
0
LINE
8
Black
10
109.388
20
-134.856
11
109.245
21
-134.57
0
LINE
8
Black
10
109.245
20
-134.57
11
108.959
21
-134.427
0
LINE
8
Black
10
108.959
20
-134.427
11
108.388
21
-134.427
0
LINE
8
Black
10
108.388
20
-134.427
11
108.102
21
-134.57
0
LINE
8
Black
10
109.388
20
-136.284
11
109.102
21
-136.427
0
LINE
8
Black
10
109.102
20
-136.427
11
108.388
21
-136.427
0
LINE
8
Black
10
108.388
20
-136.427
11
108.102
21
-136.284
0
LINE
8
Black
10
108.102
20
-136.284
11
107.959
21
-135.999
0
LINE
8
Black
10
107.959
20
-135.999
11
107.959
21
-135.713
0
LINE
8
Black
10
107.959
20
-135.713
11
108.102
21
-135.427
0
LINE
8
Black
10
108.102
20
-135.427
11
108.388
21
-135.284
0
LINE
8
Black
10
108.388
20
-135.284
11
109.102
21
-135.284
0
LINE
8
Black
10
109.102
20
-135.284
11
109.388
21
-135.141
0
LINE
8
Black
10
110.388
20
-134.427
11
111.531
21
-134.427
0
LINE
8
Black
10
110.816
20
-133.427
11
110.816
21
-135.999
0
LINE
8
Black
10
110.816
20
-135.999
11
110.959
21
-136.284
0
LINE
8
Black
10
110.959
20
-136.284
11
111.245
21
-136.427
0
LINE
8
Black
10
111.245
20
-136.427
11
111.531
21
-136.427
0
LINE
8
Black
10
113.674
20
-136.284
11
113.388
21
-136.427
0
LINE
8
Black
10
113.388
20
-136.427
11
112.816
21
-136.427
0
LINE
8
Black
10
112.816
20
-136.427
11
112.531
21
-136.284
0
LINE
8
Black
10
112.531
20
-136.284
11
112.388
21
-135.999
0
LINE
8
Black
10
112.388
20
-135.999
11
112.388
21
-134.856
0
LINE
8
Black
10
112.388
20
-134.856
11
112.531
21
-134.57
0
LINE
8
Black
10
112.531
20
-134.57
11
112.816
21
-134.427
0
LINE
8
Black
10
112.816
20
-134.427
11
113.388
21
-134.427
0
LINE
8
Black
10
113.388
20
-134.427
11
113.674
21
-134.57
0
LINE
8
Black
10
113.674
20
-134.57
11
113.816
21
-134.856
0
LINE
8
Black
10
113.816
20
-134.856
11
113.816
21
-135.141
0
LINE
8
Black
10
113.816
20
-135.141
11
112.388
21
-135.427
0
LINE
8
Black
10
116.388
20
-136.427
11
116.388
21
-133.427
0
LINE
8
Black
10
116.388
20
-136.284
11
116.102
21
-136.427
0
LINE
8
Black
10
116.102
20
-136.427
11
115.531
21
-136.427
0
LINE
8
Black
10
115.531
20
-136.427
11
115.245
21
-136.284
0
LINE
8
Black
10
115.245
20
-136.284
11
115.102
21
-136.141
0
LINE
8
Black
10
115.102
20
-136.141
11
114.959
21
-135.856
0
LINE
8
Black
10
114.959
20
-135.856
11
114.959
21
-134.999
0
LINE
8
Black
10
114.959
20
-134.999
11
115.102
21
-134.713
0
LINE
8
Black
10
115.102
20
-134.713
11
115.245
21
-134.57
0
LINE
8
Black
10
115.245
20
-134.57
11
115.531
21
-134.427
0
LINE
8
Black
10
115.531
20
-134.427
11
116.102
21
-134.427
0
LINE
8
Black
10
116.102
20
-134.427
11
116.388
21
-134.57
0
LINE
8
Black
10
117.531
20
-137.57
11
117.674
21
-137.427
0
LINE
8
Black
10
117.674
20
-137.427
11
117.959
21
-136.999
0
LINE
8
Black
10
117.959
20
-136.999
11
118.102
21
-136.713
0
LINE
8
Black
10
118.102
20
-136.713
11
118.245
21
-136.284
0
LINE
8
Black
10
118.245
20
-136.284
11
118.388
21
-135.57
0
LINE
8
Black
10
118.388
20
-135.57
11
118.388
21
-134.999
0
LINE
8
Black
10
118.388
20
-134.999
11
118.245
21
-134.284
0
LINE
8
Black
10
118.245
20
-134.284
11
118.102
21
-133.856
0
LINE
8
Black
10
118.102
20
-133.856
11
117.959
21
-133.57
0
LINE
8
Black
10
117.959
20
-133.57
11
117.674
21
-133.141
0
LINE
8
Black
10
117.674
20
-133.141
11
117.531
21
-132.999
0
LINE
8
Black
10
19.7471
20
-140.232
11
19.7471
21
-137.828
0
LINE
8
Black
10
19.7471
20
-137.828
11
17.3429
21
-137.828
0
LINE
8
Black
10
17.3429
20
-137.828
11
17.3429
21
-140.232
0
LINE
8
Black
10
17.3429
20
-140.232
11
19.7471
21
-140.232
0
LINE
8
Black
10
22.6736
20
-137.387
11
24.5307
21
-137.387
0
LINE
8
Black
10
24.5307
20
-137.387
11
23.5307
21
-138.53
0
LINE
8
Black
10
23.5307
20
-138.53
11
23.9593
21
-138.53
0
LINE
8
Black
10
23.9593
20
-138.53
11
24.245
21
-138.673
0
LINE
8
Black
10
24.245
20
-138.673
11
24.3879
21
-138.816
0
LINE
8
Black
10
24.3879
20
-138.816
11
24.5307
21
-139.101
0
LINE
8
Black
10
24.5307
20
-139.101
11
24.5307
21
-139.816
0
LINE
8
Black
10
24.5307
20
-139.816
11
24.3879
21
-140.101
0
LINE
8
Black
10
24.3879
20
-140.101
11
24.245
21
-140.244
0
LINE
8
Black
10
24.245
20
-140.244
11
23.9593
21
-140.387
0
LINE
8
Black
10
23.9593
20
-140.387
11
23.1021
21
-140.387
0
LINE
8
Black
10
23.1021
20
-140.387
11
22.8164
21
-140.244
0
LINE
8
Black
10
22.8164
20
-140.244
11
22.6736
21
-140.101
0
LINE
8
Black
10
25.8164
20
-140.101
11
25.9593
21
-140.244
0
LINE
8
Black
10
25.9593
20
-140.244
11
25.8164
21
-140.387
0
LINE
8
Black
10
25.8164
20
-140.387
11
25.6736
21
-140.244
0
LINE
8
Black
10
25.6736
20
-140.244
11
25.8164
21
-140.101
0
LINE
8
Black
10
25.8164
20
-140.101
11
25.8164
21
-140.387
0
LINE
8
Black
10
28.5307
20
-138.387
11
28.5307
21
-140.387
0
LINE
8
Black
10
27.8164
20
-137.244
11
27.1021
21
-139.387
0
LINE
8
Black
10
27.1021
20
-139.387
11
28.9593
21
-139.387
0
LINE
8
Black
10
30.6736
20
-137.387
11
30.9593
21
-137.387
0
LINE
8
Black
10
30.9593
20
-137.387
11
31.245
21
-137.53
0
LINE
8
Black
10
31.245
20
-137.53
11
31.3879
21
-137.673
0
LINE
8
Black
10
31.3879
20
-137.673
11
31.5307
21
-137.959
0
LINE
8
Black
10
31.5307
20
-137.959
11
31.6736
21
-138.53
0
LINE
8
Black
10
31.6736
20
-138.53
11
31.6736
21
-139.244
0
LINE
8
Black
10
31.6736
20
-139.244
11
31.5307
21
-139.816
0
LINE
8
Black
10
31.5307
20
-139.816
11
31.3879
21
-140.101
0
LINE
8
Black
10
31.3879
20
-140.101
11
31.245
21
-140.244
0
LINE
8
Black
10
31.245
20
-140.244
11
30.9593
21
-140.387
0
LINE
8
Black
10
30.9593
20
-140.387
11
30.6736
21
-140.387
0
LINE
8
Black
10
30.6736
20
-140.387
11
30.3879
21
-140.244
0
LINE
8
Black
10
30.3879
20
-140.244
11
30.245
21
-140.101
0
LINE
8
Black
10
30.245
20
-140.101
11
30.1021
21
-139.816
0
LINE
8
Black
10
30.1021
20
-139.816
11
29.9593
21
-139.244
0
LINE
8
Black
10
29.9593
20
-139.244
11
29.9593
21
-138.53
0
LINE
8
Black
10
29.9593
20
-138.53
11
30.1021
21
-137.959
0
LINE
8
Black
10
30.1021
20
-137.959
11
30.245
21
-137.673
0
LINE
8
Black
10
30.245
20
-137.673
11
30.3879
21
-137.53
0
LINE
8
Black
10
30.3879
20
-137.53
11
30.6736
21
-137.387
0
LINE
8
Black
10
32.9593
20
-140.387
11
32.9593
21
-138.387
0
LINE
8
Black
10
32.9593
20
-138.673
11
33.1021
21
-138.53
0
LINE
8
Black
10
33.1021
20
-138.53
11
33.3879
21
-138.387
0
LINE
8
Black
10
33.3879
20
-138.387
11
33.8164
21
-138.387
0
LINE
8
Black
10
33.8164
20
-138.387
11
34.1021
21
-138.53
0
LINE
8
Black
10
34.1021
20
-138.53
11
34.245
21
-138.816
0
LINE
8
Black
10
34.245
20
-138.816
11
34.245
21
-140.387
0
LINE
8
Black
10
34.245
20
-138.816
11
34.3879
21
-138.53
0
LINE
8
Black
10
34.3879
20
-138.53
11
34.6736
21
-138.387
0
LINE
8
Black
10
34.6736
20
-138.387
11
35.1021
21
-138.387
0
LINE
8
Black
10
35.1021
20
-138.387
11
35.3879
21
-138.53
0
LINE
8
Black
10
35.3879
20
-138.53
11
35.5307
21
-138.816
0
LINE
8
Black
10
35.5307
20
-138.816
11
35.5307
21
-140.387
0
LINE
8
Black
10
36.9593
20
-140.387
11
36.9593
21
-138.387
0
LINE
8
Black
10
36.9593
20
-138.673
11
37.1021
21
-138.53
0
LINE
8
Black
10
37.1021
20
-138.53
11
37.3879
21
-138.387
0
LINE
8
Black
10
37.3879
20
-138.387
11
37.8164
21
-138.387
0
LINE
8
Black
10
37.8164
20
-138.387
11
38.1021
21
-138.53
0
LINE
8
Black
10
38.1021
20
-138.53
11
38.245
21
-138.816
0
LINE
8
Black
10
38.245
20
-138.816
11
38.245
21
-140.387
0
LINE
8
Black
10
38.245
20
-138.816
11
38.3879
21
-138.53
0
LINE
8
Black
10
38.3879
20
-138.53
11
38.6736
21
-138.387
0
LINE
8
Black
10
38.6736
20
-138.387
11
39.1021
21
-138.387
0
LINE
8
Black
10
39.1021
20
-138.387
11
39.3879
21
-138.53
0
LINE
8
Black
10
39.3879
20
-138.53
11
39.5307
21
-138.816
0
LINE
8
Black
10
39.5307
20
-138.816
11
39.5307
21
-140.387
0
LINE
8
Black
10
45.3879
20
-137.244
11
42.8164
21
-141.101
0
LINE
8
Black
10
49.245
20
-137.387
11
49.5307
21
-137.387
0
LINE
8
Black
10
49.5307
20
-137.387
11
49.8164
21
-137.53
0
LINE
8
Black
10
49.8164
20
-137.53
11
49.9593
21
-137.673
0
LINE
8
Black
10
49.9593
20
-137.673
11
50.1021
21
-137.959
0
LINE
8
Black
10
50.1021
20
-137.959
11
50.245
21
-138.53
0
LINE
8
Black
10
50.245
20
-138.53
11
50.245
21
-139.244
0
LINE
8
Black
10
50.245
20
-139.244
11
50.1021
21
-139.816
0
LINE
8
Black
10
50.1021
20
-139.816
11
49.9593
21
-140.101
0
LINE
8
Black
10
49.9593
20
-140.101
11
49.8164
21
-140.244
0
LINE
8
Black
10
49.8164
20
-140.244
11
49.5307
21
-140.387
0
LINE
8
Black
10
49.5307
20
-140.387
11
49.245
21
-140.387
0
LINE
8
Black
10
49.245
20
-140.387
11
48.9593
21
-140.244
0
LINE
8
Black
10
48.9593
20
-140.244
11
48.8164
21
-140.101
0
LINE
8
Black
10
48.8164
20
-140.101
11
48.6736
21
-139.816
0
LINE
8
Black
10
48.6736
20
-139.816
11
48.5307
21
-139.244
0
LINE
8
Black
10
48.5307
20
-139.244
11
48.5307
21
-138.53
0
LINE
8
Black
10
48.5307
20
-138.53
11
48.6736
21
-137.959
0
LINE
8
Black
10
48.6736
20
-137.959
11
48.8164
21
-137.673
0
LINE
8
Black
10
48.8164
20
-137.673
11
48.9593
21
-137.53
0
LINE
8
Black
10
48.9593
20
-137.53
11
49.245
21
-137.387
0
LINE
8
Black
10
51.5307
20
-140.101
11
51.6736
21
-140.244
0
LINE
8
Black
10
51.6736
20
-140.244
11
51.5307
21
-140.387
0
LINE
8
Black
10
51.5307
20
-140.387
11
51.3879
21
-140.244
0
LINE
8
Black
10
51.3879
20
-140.244
11
51.5307
21
-140.101
0
LINE
8
Black
10
51.5307
20
-140.101
11
51.5307
21
-140.387
0
LINE
8
Black
10
54.5307
20
-140.387
11
52.8164
21
-140.387
0
LINE
8
Black
10
53.6736
20
-140.387
11
53.6736
21
-137.387
0
LINE
8
Black
10
53.6736
20
-137.387
11
53.3879
21
-137.816
0
LINE
8
Black
10
53.3879
20
-137.816
11
53.1021
21
-138.101
0
LINE
8
Black
10
53.1021
20
-138.101
11
52.8164
21
-138.244
0
LINE
8
Black
10
55.5307
20
-137.387
11
57.3879
21
-137.387
0
LINE
8
Black
10
57.3879
20
-137.387
11
56.3879
21
-138.53
0
LINE
8
Black
10
56.3879
20
-138.53
11
56.8164
21
-138.53
0
LINE
8
Black
10
56.8164
20
-138.53
11
57.1021
21
-138.673
0
LINE
8
Black
10
57.1021
20
-138.673
11
57.245
21
-138.816
0
LINE
8
Black
10
57.245
20
-138.816
11
57.3879
21
-139.101
0
LINE
8
Black
10
57.3879
20
-139.101
11
57.3879
21
-139.816
0
LINE
8
Black
10
57.3879
20
-139.816
11
57.245
21
-140.101
0
LINE
8
Black
10
57.245
20
-140.101
11
57.1021
21
-140.244
0
LINE
8
Black
10
57.1021
20
-140.244
11
56.8164
21
-140.387
0
LINE
8
Black
10
56.8164
20
-140.387
11
55.9593
21
-140.387
0
LINE
8
Black
10
55.9593
20
-140.387
11
55.6736
21
-140.244
0
LINE
8
Black
10
55.6736
20
-140.244
11
55.5307
21
-140.101
0
LINE
8
Black
10
59.9593
20
-138.387
11
59.9593
21
-140.387
0
LINE
8
Black
10
59.245
20
-137.244
11
58.5307
21
-139.387
0
LINE
8
Black
10
58.5307
20
-139.387
11
60.3879
21
-139.387
0
LINE
8
Black
10
61.3879
20
-137.387
11
61.3879
21
-137.959
0
LINE
8
Black
10
62.5307
20
-137.387
11
62.5307
21
-137.959
0
LINE
8
Black
10
66.9593
20
-141.53
11
66.8164
21
-141.387
0
LINE
8
Black
10
66.8164
20
-141.387
11
66.5307
21
-140.959
0
LINE
8
Black
10
66.5307
20
-140.959
11
66.3879
21
-140.673
0
LINE
8
Black
10
66.3879
20
-140.673
11
66.245
21
-140.244
0
LINE
8
Black
10
66.245
20
-140.244
11
66.1021
21
-139.53
0
LINE
8
Black
10
66.1021
20
-139.53
11
66.1021
21
-138.959
0
LINE
8
Black
10
66.1021
20
-138.959
11
66.245
21
-138.244
0
LINE
8
Black
10
66.245
20
-138.244
11
66.3879
21
-137.816
0
LINE
8
Black
10
66.3879
20
-137.816
11
66.5307
21
-137.53
0
LINE
8
Black
10
66.5307
20
-137.53
11
66.8164
21
-137.101
0
LINE
8
Black
10
66.8164
20
-137.101
11
66.9593
21
-136.959
0
LINE
8
Black
10
67.9593
20
-137.673
11
68.1021
21
-137.53
0
LINE
8
Black
10
68.1021
20
-137.53
11
68.3879
21
-137.387
0
LINE
8
Black
10
68.3879
20
-137.387
11
69.1021
21
-137.387
0
LINE
8
Black
10
69.1021
20
-137.387
11
69.3879
21
-137.53
0
LINE
8
Black
10
69.3879
20
-137.53
11
69.5307
21
-137.673
0
LINE
8
Black
10
69.5307
20
-137.673
11
69.6736
21
-137.959
0
LINE
8
Black
10
69.6736
20
-137.959
11
69.6736
21
-138.244
0
LINE
8
Black
10
69.6736
20
-138.244
11
69.5307
21
-138.673
0
LINE
8
Black
10
69.5307
20
-138.673
11
67.8164
21
-140.387
0
LINE
8
Black
10
67.8164
20
-140.387
11
69.6736
21
-140.387
0
LINE
8
Black
10
72.245
20
-138.387
11
72.245
21
-140.387
0
LINE
8
Black
10
71.5307
20
-137.244
11
70.8164
21
-139.387
0
LINE
8
Black
10
70.8164
20
-139.387
11
72.6736
21
-139.387
0
LINE
8
Black
10
76.1021
20
-140.387
11
76.1021
21
-137.387
0
LINE
8
Black
10
77.3879
20
-140.387
11
77.3879
21
-138.816
0
LINE
8
Black
10
77.3879
20
-138.816
11
77.245
21
-138.53
0
LINE
8
Black
10
77.245
20
-138.53
11
76.9593
21
-138.387
0
LINE
8
Black
10
76.9593
20
-138.387
11
76.5307
21
-138.387
0
LINE
8
Black
10
76.5307
20
-138.387
11
76.245
21
-138.53
0
LINE
8
Black
10
76.245
20
-138.53
11
76.1021
21
-138.673
0
LINE
8
Black
10
79.245
20
-140.387
11
78.9593
21
-140.244
0
LINE
8
Black
10
78.9593
20
-140.244
11
78.8164
21
-140.101
0
LINE
8
Black
10
78.8164
20
-140.101
11
78.6736
21
-139.816
0
LINE
8
Black
10
78.6736
20
-139.816
11
78.6736
21
-138.959
0
LINE
8
Black
10
78.6736
20
-138.959
11
78.8164
21
-138.673
0
LINE
8
Black
10
78.8164
20
-138.673
11
78.9593
21
-138.53
0
LINE
8
Black
10
78.9593
20
-138.53
11
79.245
21
-138.387
0
LINE
8
Black
10
79.245
20
-138.387
11
79.6736
21
-138.387
0
LINE
8
Black
10
79.6736
20
-138.387
11
79.9593
21
-138.53
0
LINE
8
Black
10
79.9593
20
-138.53
11
80.1021
21
-138.673
0
LINE
8
Black
10
80.1021
20
-138.673
11
80.245
21
-138.959
0
LINE
8
Black
10
80.245
20
-138.959
11
80.245
21
-139.816
0
LINE
8
Black
10
80.245
20
-139.816
11
80.1021
21
-140.101
0
LINE
8
Black
10
80.1021
20
-140.101
11
79.9593
21
-140.244
0
LINE
8
Black
10
79.9593
20
-140.244
11
79.6736
21
-140.387
0
LINE
8
Black
10
79.6736
20
-140.387
11
79.245
21
-140.387
0
LINE
8
Black
10
81.9593
20
-140.387
11
81.6736
21
-140.244
0
LINE
8
Black
10
81.6736
20
-140.244
11
81.5307
21
-139.959
0
LINE
8
Black
10
81.5307
20
-139.959
11
81.5307
21
-137.387
0
LINE
8
Black
10
84.245
20
-140.244
11
83.9593
21
-140.387
0
LINE
8
Black
10
83.9593
20
-140.387
11
83.3879
21
-140.387
0
LINE
8
Black
10
83.3879
20
-140.387
11
83.1021
21
-140.244
0
LINE
8
Black
10
83.1021
20
-140.244
11
82.9593
21
-139.959
0
LINE
8
Black
10
82.9593
20
-139.959
11
82.9593
21
-138.816
0
LINE
8
Black
10
82.9593
20
-138.816
11
83.1021
21
-138.53
0
LINE
8
Black
10
83.1021
20
-138.53
11
83.3879
21
-138.387
0
LINE
8
Black
10
83.3879
20
-138.387
11
83.9593
21
-138.387
0
LINE
8
Black
10
83.9593
20
-138.387
11
84.245
21
-138.53
0
LINE
8
Black
10
84.245
20
-138.53
11
84.3879
21
-138.816
0
LINE
8
Black
10
84.3879
20
-138.816
11
84.3879
21
-139.101
0
LINE
8
Black
10
84.3879
20
-139.101
11
82.9593
21
-139.387
0
LINE
8
Black
10
85.5307
20
-140.244
11
85.8164
21
-140.387
0
LINE
8
Black
10
85.8164
20
-140.387
11
86.3879
21
-140.387
0
LINE
8
Black
10
86.3879
20
-140.387
11
86.6736
21
-140.244
0
LINE
8
Black
10
86.6736
20
-140.244
11
86.8164
21
-139.959
0
LINE
8
Black
10
86.8164
20
-139.959
11
86.8164
21
-139.816
0
LINE
8
Black
10
86.8164
20
-139.816
11
86.6736
21
-139.53
0
LINE
8
Black
10
86.6736
20
-139.53
11
86.3879
21
-139.387
0
LINE
8
Black
10
86.3879
20
-139.387
11
85.9593
21
-139.387
0
LINE
8
Black
10
85.9593
20
-139.387
11
85.6736
21
-139.244
0
LINE
8
Black
10
85.6736
20
-139.244
11
85.5307
21
-138.959
0
LINE
8
Black
10
85.5307
20
-138.959
11
85.5307
21
-138.816
0
LINE
8
Black
10
85.5307
20
-138.816
11
85.6736
21
-138.53
0
LINE
8
Black
10
85.6736
20
-138.53
11
85.9593
21
-138.387
0
LINE
8
Black
10
85.9593
20
-138.387
11
86.3879
21
-138.387
0
LINE
8
Black
10
86.3879
20
-138.387
11
86.6736
21
-138.53
0
LINE
8
Black
10
87.8164
20
-141.53
11
87.9593
21
-141.387
0
LINE
8
Black
10
87.9593
20
-141.387
11
88.245
21
-140.959
0
LINE
8
Black
10
88.245
20
-140.959
11
88.3879
21
-140.673
0
LINE
8
Black
10
88.3879
20
-140.673
11
88.5307
21
-140.244
0
LINE
8
Black
10
88.5307
20
-140.244
11
88.6736
21
-139.53
0
LINE
8
Black
10
88.6736
20
-139.53
11
88.6736
21
-138.959
0
LINE
8
Black
10
88.6736
20
-138.959
11
88.5307
21
-138.244
0
LINE
8
Black
10
88.5307
20
-138.244
11
88.3879
21
-137.816
0
LINE
8
Black
10
88.3879
20
-137.816
11
88.245
21
-137.53
0
LINE
8
Black
10
88.245
20
-137.53
11
87.9593
21
-137.101
0
LINE
8
Black
10
87.9593
20
-137.101
11
87.8164
21
-136.959
0
LINE
8
Black
10
93.245
20
-141.53
11
93.1021
21
-141.387
0
LINE
8
Black
10
93.1021
20
-141.387
11
92.8164
21
-140.959
0
LINE
8
Black
10
92.8164
20
-140.959
11
92.6736
21
-140.673
0
LINE
8
Black
10
92.6736
20
-140.673
11
92.5307
21
-140.244
0
LINE
8
Black
10
92.5307
20
-140.244
11
92.3879
21
-139.53
0
LINE
8
Black
10
92.3879
20
-139.53
11
92.3879
21
-138.959
0
LINE
8
Black
10
92.3879
20
-138.959
11
92.5307
21
-138.244
0
LINE
8
Black
10
92.5307
20
-138.244
11
92.6736
21
-137.816
0
LINE
8
Black
10
92.6736
20
-137.816
11
92.8164
21
-137.53
0
LINE
8
Black
10
92.8164
20
-137.53
11
93.1021
21
-137.101
0
LINE
8
Black
10
93.1021
20
-137.101
11
93.245
21
-136.959
0
LINE
8
Black
10
94.3879
20
-138.387
11
94.3879
21
-140.387
0
LINE
8
Black
10
94.3879
20
-138.673
11
94.5307
21
-138.53
0
LINE
8
Black
10
94.5307
20
-138.53
11
94.8164
21
-138.387
0
LINE
8
Black
10
94.8164
20
-138.387
11
95.245
21
-138.387
0
LINE
8
Black
10
95.245
20
-138.387
11
95.5307
21
-138.53
0
LINE
8
Black
10
95.5307
20
-138.53
11
95.6736
21
-138.816
0
LINE
8
Black
10
95.6736
20
-138.816
11
95.6736
21
-140.387
0
LINE
8
Black
10
97.5307
20
-140.387
11
97.245
21
-140.244
0
LINE
8
Black
10
97.245
20
-140.244
11
97.1021
21
-140.101
0
LINE
8
Black
10
97.1021
20
-140.101
11
96.9593
21
-139.816
0
LINE
8
Black
10
96.9593
20
-139.816
11
96.9593
21
-138.959
0
LINE
8
Black
10
96.9593
20
-138.959
11
97.1021
21
-138.673
0
LINE
8
Black
10
97.1021
20
-138.673
11
97.245
21
-138.53
0
LINE
8
Black
10
97.245
20
-138.53
11
97.5307
21
-138.387
0
LINE
8
Black
10
97.5307
20
-138.387
11
97.9593
21
-138.387
0
LINE
8
Black
10
97.9593
20
-138.387
11
98.245
21
-138.53
0
LINE
8
Black
10
98.245
20
-138.53
11
98.3879
21
-138.673
0
LINE
8
Black
10
98.3879
20
-138.673
11
98.5307
21
-138.959
0
LINE
8
Black
10
98.5307
20
-138.959
11
98.5307
21
-139.816
0
LINE
8
Black
10
98.5307
20
-139.816
11
98.3879
21
-140.101
0
LINE
8
Black
10
98.3879
20
-140.101
11
98.245
21
-140.244
0
LINE
8
Black
10
98.245
20
-140.244
11
97.9593
21
-140.387
0
LINE
8
Black
10
97.9593
20
-140.387
11
97.5307
21
-140.387
0
LINE
8
Black
10
99.3879
20
-138.387
11
100.531
21
-138.387
0
LINE
8
Black
10
99.8164
20
-137.387
11
99.8164
21
-139.959
0
LINE
8
Black
10
99.8164
20
-139.959
11
99.9593
21
-140.244
0
LINE
8
Black
10
99.9593
20
-140.244
11
100.245
21
-140.387
0
LINE
8
Black
10
100.245
20
-140.387
11
100.531
21
-140.387
0
LINE
8
Black
10
103.816
20
-138.387
11
103.816
21
-141.387
0
LINE
8
Black
10
103.816
20
-138.53
11
104.102
21
-138.387
0
LINE
8
Black
10
104.102
20
-138.387
11
104.674
21
-138.387
0
LINE
8
Black
10
104.674
20
-138.387
11
104.959
21
-138.53
0
LINE
8
Black
10
104.959
20
-138.53
11
105.102
21
-138.673
0
LINE
8
Black
10
105.102
20
-138.673
11
105.245
21
-138.959
0
LINE
8
Black
10
105.245
20
-138.959
11
105.245
21
-139.816
0
LINE
8
Black
10
105.245
20
-139.816
11
105.102
21
-140.101
0
LINE
8
Black
10
105.102
20
-140.101
11
104.959
21
-140.244
0
LINE
8
Black
10
104.959
20
-140.244
11
104.674
21
-140.387
0
LINE
8
Black
10
104.674
20
-140.387
11
104.102
21
-140.387
0
LINE
8
Black
10
104.102
20
-140.387
11
103.816
21
-140.244
0
LINE
8
Black
10
106.959
20
-140.387
11
106.674
21
-140.244
0
LINE
8
Black
10
106.674
20
-140.244
11
106.531
21
-139.959
0
LINE
8
Black
10
106.531
20
-139.959
11
106.531
21
-137.387
0
LINE
8
Black
10
109.388
20
-140.387
11
109.388
21
-138.816
0
LINE
8
Black
10
109.388
20
-138.816
11
109.245
21
-138.53
0
LINE
8
Black
10
109.245
20
-138.53
11
108.959
21
-138.387
0
LINE
8
Black
10
108.959
20
-138.387
11
108.388
21
-138.387
0
LINE
8
Black
10
108.388
20
-138.387
11
108.102
21
-138.53
0
LINE
8
Black
10
109.388
20
-140.244
11
109.102
21
-140.387
0
LINE
8
Black
10
109.102
20
-140.387
11
108.388
21
-140.387
0
LINE
8
Black
10
108.388
20
-140.387
11
108.102
21
-140.244
0
LINE
8
Black
10
108.102
20
-140.244
11
107.959
21
-139.959
0
LINE
8
Black
10
107.959
20
-139.959
11
107.959
21
-139.673
0
LINE
8
Black
10
107.959
20
-139.673
11
108.102
21
-139.387
0
LINE
8
Black
10
108.102
20
-139.387
11
108.388
21
-139.244
0
LINE
8
Black
10
108.388
20
-139.244
11
109.102
21
-139.244
0
LINE
8
Black
10
109.102
20
-139.244
11
109.388
21
-139.101
0
LINE
8
Black
10
110.388
20
-138.387
11
111.531
21
-138.387
0
LINE
8
Black
10
110.816
20
-137.387
11
110.816
21
-139.959
0
LINE
8
Black
10
110.816
20
-139.959
11
110.959
21
-140.244
0
LINE
8
Black
10
110.959
20
-140.244
11
111.245
21
-140.387
0
LINE
8
Black
10
111.245
20
-140.387
11
111.531
21
-140.387
0
LINE
8
Black
10
113.674
20
-140.244
11
113.388
21
-140.387
0
LINE
8
Black
10
113.388
20
-140.387
11
112.816
21
-140.387
0
LINE
8
Black
10
112.816
20
-140.387
11
112.531
21
-140.244
0
LINE
8
Black
10
112.531
20
-140.244
11
112.388
21
-139.959
0
LINE
8
Black
10
112.388
20
-139.959
11
112.388
21
-138.816
0
LINE
8
Black
10
112.388
20
-138.816
11
112.531
21
-138.53
0
LINE
8
Black
10
112.531
20
-138.53
11
112.816
21
-138.387
0
LINE
8
Black
10
112.816
20
-138.387
11
113.388
21
-138.387
0
LINE
8
Black
10
113.388
20
-138.387
11
113.674
21
-138.53
0
LINE
8
Black
10
113.674
20
-138.53
11
113.816
21
-138.816
0
LINE
8
Black
10
113.816
20
-138.816
11
113.816
21
-139.101
0
LINE
8
Black
10
113.816
20
-139.101
11
112.388
21
-139.387
0
LINE
8
Black
10
116.388
20
-140.387
11
116.388
21
-137.387
0
LINE
8
Black
10
116.388
20
-140.244
11
116.102
21
-140.387
0
LINE
8
Black
10
116.102
20
-140.387
11
115.531
21
-140.387
0
LINE
8
Black
10
115.531
20
-140.387
11
115.245
21
-140.244
0
LINE
8
Black
10
115.245
20
-140.244
11
115.102
21
-140.101
0
LINE
8
Black
10
115.102
20
-140.101
11
114.959
21
-139.816
0
LINE
8
Black
10
114.959
20
-139.816
11
114.959
21
-138.959
0
LINE
8
Black
10
114.959
20
-138.959
11
115.102
21
-138.673
0
LINE
8
Black
10
115.102
20
-138.673
11
115.245
21
-138.53
0
LINE
8
Black
10
115.245
20
-138.53
11
115.531
21
-138.387
0
LINE
8
Black
10
115.531
20
-138.387
11
116.102
21
-138.387
0
LINE
8
Black
10
116.102
20
-138.387
11
116.388
21
-138.53
0
LINE
8
Black
10
117.531
20
-141.53
11
117.674
21
-141.387
0
LINE
8
Black
10
117.674
20
-141.387
11
117.959
21
-140.959
0
LINE
8
Black
10
117.959
20
-140.959
11
118.102
21
-140.673
0
LINE
8
Black
10
118.102
20
-140.673
11
118.245
21
-140.244
0
LINE
8
Black
10
118.245
20
-140.244
11
118.388
21
-139.53
0
LINE
8
Black
10
118.388
20
-139.53
11
118.388
21
-138.959
0
LINE
8
Black
10
118.388
20
-138.959
11
118.245
21
-138.244
0
LINE
8
Black
10
118.245
20
-138.244
11
118.102
21
-137.816
0
LINE
8
Black
10
118.102
20
-137.816
11
117.959
21
-137.53
0
LINE
8
Black
10
117.959
20
-137.53
11
117.674
21
-137.101
0
LINE
8
Black
10
117.674
20
-137.101
11
117.531
21
-136.959
  0
ENDSEC
  0
EOF
