  0
SECTION
  2
HEADER
  9
$ANGBASE
  50
0.0
  9
$ANGDIR
  70
  1
  9
$MEASUREMENT
  70
0
  0
ENDSEC
  0
SECTION
  2
TABLES
  0
TABLE
  2
LTYPE
  70
1
  0
LTYPE
  2
CONTINUOUS
  70
0
  3
Solid line
  72
65
  73
0
  40
0.0
  0
ENDTAB
  0
TABLE
  2
STYLE
  70
4
  0
STYLE
  2
KICAD
  70
0
  40
0
  41
1
  42
1
  50
0
  71
0
  3
isocp.shx
  0
STYLE
  2
KICADB
  70
0
  40
0
  41
1
  42
1
  50
0
  71
0
  3
isocp.shx
  0
STYLE
  2
KICADI
  70
0
  40
0
  41
1
  42
1
  50
15
  71
0
  3
isocp.shx
  0
STYLE
  2
KICADBI
  70
0
  40
0
  41
1
  42
1
  50
15
  71
0
  3
isocp.shx
  0
ENDTAB
  0
TABLE
  2
LAYER
  70
30
  0
LAYER
  2
BLACK
  70
0
  62
7
  6
CONTINUOUS
  0
LAYER
  2
GRAY1
  70
0
  62
251
  6
CONTINUOUS
  0
LAYER
  2
GRAY2
  70
0
  62
8
  6
CONTINUOUS
  0
LAYER
  2
GRAY3
  70
0
  62
9
  6
CONTINUOUS
  0
LAYER
  2
WHITE
  70
0
  62
7
  6
CONTINUOUS
  0
LAYER
  2
LYELLOW
  70
0
  62
51
  6
CONTINUOUS
  0
LAYER
  2
BLUE1
  70
0
  62
178
  6
CONTINUOUS
  0
LAYER
  2
GREEN1
  70
0
  62
98
  6
CONTINUOUS
  0
LAYER
  2
CYAN1
  70
0
  62
138
  6
CONTINUOUS
  0
LAYER
  2
RED1
  70
0
  62
18
  6
CONTINUOUS
  0
LAYER
  2
MAGENTA1
  70
0
  62
228
  6
CONTINUOUS
  0
LAYER
  2
BROWN1
  70
0
  62
58
  6
CONTINUOUS
  0
LAYER
  2
BLUE2
  70
0
  62
5
  6
CONTINUOUS
  0
LAYER
  2
GREEN2
  70
0
  62
3
  6
CONTINUOUS
  0
LAYER
  2
CYAN2
  70
0
  62
4
  6
CONTINUOUS
  0
LAYER
  2
RED2
  70
0
  62
1
  6
CONTINUOUS
  0
LAYER
  2
MAGENTA2
  70
0
  62
6
  6
CONTINUOUS
  0
LAYER
  2
BROWN2
  70
0
  62
54
  6
CONTINUOUS
  0
LAYER
  2
BLUE3
  70
0
  62
171
  6
CONTINUOUS
  0
LAYER
  2
GREEN3
  70
0
  62
91
  6
CONTINUOUS
  0
LAYER
  2
CYAN3
  70
0
  62
131
  6
CONTINUOUS
  0
LAYER
  2
RED3
  70
0
  62
11
  6
CONTINUOUS
  0
LAYER
  2
MAGENTA3
  70
0
  62
221
  6
CONTINUOUS
  0
LAYER
  2
YELLOW3
  70
0
  62
2
  6
CONTINUOUS
  0
LAYER
  2
BLUE4
  70
0
  62
5
  6
CONTINUOUS
  0
LAYER
  2
GREEN4
  70
0
  62
3
  6
CONTINUOUS
  0
LAYER
  2
CYAN4
  70
0
  62
4
  6
CONTINUOUS
  0
LAYER
  2
RED4
  70
0
  62
1
  6
CONTINUOUS
  0
LAYER
  2
MAGENTA4
  70
0
  62
6
  6
CONTINUOUS
  0
LAYER
  2
YELLOW4
  70
0
  62
2
  6
CONTINUOUS
  0
ENDTAB
  0
ENDSEC
  0
SECTION
  2
ENTITIES
0
LINE
8
Black
10
138.176
20
-22.277
11
138.182
21
-22.2781
0
LINE
8
Black
10
138.182
20
-22.2781
11
138.189
21
-22.2781
0
LINE
8
Black
10
138.189
20
-22.2781
11
138.195
21
-22.2804
0
LINE
8
Black
10
138.195
20
-22.2804
11
138.202
21
-22.2815
0
LINE
8
Black
10
138.202
20
-22.2815
11
138.207
21
-22.2848
0
LINE
8
Black
10
138.207
20
-22.2848
11
138.213
21
-22.287
0
LINE
8
Black
10
138.213
20
-22.287
11
138.219
21
-22.2913
0
LINE
8
Black
10
138.219
20
-22.2913
11
138.224
21
-22.2945
0
LINE
8
Black
10
138.224
20
-22.2945
11
138.228
21
-22.2996
0
LINE
8
Black
10
138.228
20
-22.2996
11
138.233
21
-22.3038
0
LINE
8
Black
10
138.233
20
-22.3038
11
138.237
21
-22.3095
0
LINE
8
Black
10
138.237
20
-22.3095
11
138.241
21
-22.3145
0
LINE
8
Black
10
138.241
20
-22.3145
11
138.243
21
-22.3207
0
LINE
8
Black
10
138.243
20
-22.3207
11
138.246
21
-22.3263
0
LINE
8
Black
10
138.246
20
-22.3263
11
138.248
21
-22.3328
0
LINE
8
Black
10
138.248
20
-22.3328
11
138.25
21
-22.339
0
LINE
8
Black
10
138.25
20
-22.339
11
138.25
21
-22.3455
0
LINE
8
Black
10
138.25
20
-22.3455
11
138.251
21
-22.352
0
LINE
8
Black
10
138.251
20
-22.352
11
138.251
21
-115.824
0
LINE
8
Black
10
138.251
20
-115.824
11
138.25
21
-115.83
0
LINE
8
Black
10
138.25
20
-115.83
11
138.25
21
-115.837
0
LINE
8
Black
10
138.25
20
-115.837
11
138.248
21
-115.843
0
LINE
8
Black
10
138.248
20
-115.843
11
138.246
21
-115.85
0
LINE
8
Black
10
138.246
20
-115.85
11
138.243
21
-115.855
0
LINE
8
Black
10
138.243
20
-115.855
11
138.241
21
-115.861
0
LINE
8
Black
10
138.241
20
-115.861
11
138.237
21
-115.867
0
LINE
8
Black
10
138.237
20
-115.867
11
138.233
21
-115.872
0
LINE
8
Black
10
138.233
20
-115.872
11
138.228
21
-115.876
0
LINE
8
Black
10
138.228
20
-115.876
11
138.224
21
-115.881
0
LINE
8
Black
10
138.224
20
-115.881
11
138.219
21
-115.885
0
LINE
8
Black
10
138.219
20
-115.885
11
138.213
21
-115.889
0
LINE
8
Black
10
138.213
20
-115.889
11
138.207
21
-115.891
0
LINE
8
Black
10
138.207
20
-115.891
11
138.202
21
-115.894
0
LINE
8
Black
10
138.202
20
-115.894
11
138.195
21
-115.896
0
LINE
8
Black
10
138.195
20
-115.896
11
138.189
21
-115.898
0
LINE
8
Black
10
138.189
20
-115.898
11
138.182
21
-115.898
0
LINE
8
Black
10
138.182
20
-115.898
11
138.176
21
-115.899
0
LINE
8
Black
10
138.176
20
-115.899
11
19.812
21
-115.899
0
LINE
8
Black
10
19.812
20
-115.899
11
19.8055
21
-115.898
0
LINE
8
Black
10
19.8055
20
-115.898
11
19.799
21
-115.898
0
LINE
8
Black
10
19.799
20
-115.898
11
19.7928
21
-115.896
0
LINE
8
Black
10
19.7928
20
-115.896
11
19.7863
21
-115.894
0
LINE
8
Black
10
19.7863
20
-115.894
11
19.7807
21
-115.891
0
LINE
8
Black
10
19.7807
20
-115.891
11
19.7745
21
-115.889
0
LINE
8
Black
10
19.7745
20
-115.889
11
19.7695
21
-115.885
0
LINE
8
Black
10
19.7695
20
-115.885
11
19.7638
21
-115.881
0
LINE
8
Black
10
19.7638
20
-115.881
11
19.7596
21
-115.876
0
LINE
8
Black
10
19.7596
20
-115.876
11
19.7545
21
-115.872
0
LINE
8
Black
10
19.7545
20
-115.872
11
19.7513
21
-115.867
0
LINE
8
Black
10
19.7513
20
-115.867
11
19.747
21
-115.861
0
LINE
8
Black
10
19.747
20
-115.861
11
19.7448
21
-115.855
0
LINE
8
Black
10
19.7448
20
-115.855
11
19.7415
21
-115.85
0
LINE
8
Black
10
19.7415
20
-115.85
11
19.7404
21
-115.843
0
LINE
8
Black
10
19.7404
20
-115.843
11
19.7381
21
-115.837
0
LINE
8
Black
10
19.7381
20
-115.837
11
19.7381
21
-115.83
0
LINE
8
Black
10
19.7381
20
-115.83
11
19.737
21
-115.824
0
LINE
8
Black
10
19.737
20
-115.824
11
19.737
21
-42.164
0
LINE
8
Black
10
19.737
20
-42.164
11
19.7381
21
-42.1575
0
LINE
8
Black
10
19.7381
20
-42.1575
11
19.7381
21
-42.151
0
LINE
8
Black
10
19.7381
20
-42.151
11
19.7404
21
-42.1448
0
LINE
8
Black
10
19.7404
20
-42.1448
11
19.7415
21
-42.1383
0
LINE
8
Black
10
19.7415
20
-42.1383
11
19.7448
21
-42.1327
0
LINE
8
Black
10
19.7448
20
-42.1327
11
19.747
21
-42.1265
0
LINE
8
Black
10
19.747
20
-42.1265
11
19.7513
21
-42.1215
0
LINE
8
Black
10
19.7513
20
-42.1215
11
19.7545
21
-42.1158
0
LINE
8
Black
10
19.7545
20
-42.1158
11
19.7596
21
-42.1116
0
LINE
8
Black
10
19.7596
20
-42.1116
11
19.7638
21
-42.1065
0
LINE
8
Black
10
19.7638
20
-42.1065
11
19.7695
21
-42.1033
0
LINE
8
Black
10
19.7695
20
-42.1033
11
19.7745
21
-42.099
0
LINE
8
Black
10
19.7745
20
-42.099
11
19.7807
21
-42.0968
0
LINE
8
Black
10
19.7807
20
-42.0968
11
19.7863
21
-42.0935
0
LINE
8
Black
10
19.7863
20
-42.0935
11
19.7928
21
-42.0924
0
LINE
8
Black
10
19.7928
20
-42.0924
11
19.799
21
-42.0901
0
LINE
8
Black
10
19.799
20
-42.0901
11
19.8055
21
-42.0901
0
LINE
8
Black
10
19.8055
20
-42.0901
11
19.812
21
-42.089
0
LINE
8
Black
10
19.812
20
-42.089
11
63.4689
21
-42.089
0
LINE
8
Black
10
63.4689
20
-42.089
11
83.259
21
-22.299
0
LINE
8
Black
10
83.259
20
-22.299
11
83.2617
21
-22.2971
0
LINE
8
Black
10
83.2617
20
-22.2971
11
83.2638
21
-22.2945
0
LINE
8
Black
10
83.2638
20
-22.2945
11
83.2723
21
-22.2896
0
LINE
8
Black
10
83.2723
20
-22.2896
11
83.2803
21
-22.284
0
LINE
8
Black
10
83.2803
20
-22.284
11
83.2835
21
-22.2832
0
LINE
8
Black
10
83.2835
20
-22.2832
11
83.2863
21
-22.2815
0
LINE
8
Black
10
83.2863
20
-22.2815
11
83.296
21
-22.2798
0
LINE
8
Black
10
83.296
20
-22.2798
11
83.3055
21
-22.2773
0
LINE
8
Black
10
83.3055
20
-22.2773
11
83.3087
21
-22.2776
0
LINE
8
Black
10
83.3087
20
-22.2776
11
83.312
21
-22.277
0
LINE
8
Black
10
83.312
20
-22.277
11
136.144
21
-22.277
0
LINE
8
Black
10
136.144
20
-22.277
11
138.176
21
-22.277
0
LINE
8
Black
10
63.553
20
-42.217
11
63.5503
21
-42.2189
0
LINE
8
Black
10
63.5503
20
-42.2189
11
63.5482
21
-42.2215
0
LINE
8
Black
10
63.5482
20
-42.2215
11
63.5397
21
-42.2264
0
LINE
8
Black
10
63.5397
20
-42.2264
11
63.5317
21
-42.232
0
LINE
8
Black
10
63.5317
20
-42.232
11
63.5285
21
-42.2328
0
LINE
8
Black
10
63.5285
20
-42.2328
11
63.5257
21
-42.2345
0
LINE
8
Black
10
63.5257
20
-42.2345
11
63.516
21
-42.2362
0
LINE
8
Black
10
63.516
20
-42.2362
11
63.5065
21
-42.2387
0
LINE
8
Black
10
63.5065
20
-42.2387
11
63.5033
21
-42.2384
0
LINE
8
Black
10
63.5033
20
-42.2384
11
63.5
21
-42.239
0
LINE
8
Black
10
63.5
20
-42.239
11
19.887
21
-42.239
0
LINE
8
Black
10
19.887
20
-42.239
11
19.887
21
-115.749
0
LINE
8
Black
10
19.887
20
-115.749
11
138.101
21
-115.749
0
LINE
8
Black
10
138.101
20
-115.749
11
138.101
21
-22.427
0
LINE
8
Black
10
138.101
20
-22.427
11
136.144
21
-22.427
0
LINE
8
Black
10
136.144
20
-22.427
11
83.3431
21
-22.427
0
LINE
8
Black
10
83.3431
20
-22.427
11
63.553
21
-42.217
  0
ENDSEC
  0
EOF
