M48
;DRILL file {KiCad 4.0.7} date 05/28/18 22:26:56
;FORMAT={-:-/ absolute / metric / decimal}
FMAT,2
METRIC,TZ
T1C0.991
T2C1.200
T3C1.700
T4C3.400
%
G90
G05
M71
T1
X125.832Y-28.448
X130.835Y-28.448
T2
X24.752Y-47.616
X24.752Y-65.904
X24.752Y-84.192
X24.752Y-102.48
X35.192Y-47.616
X35.192Y-65.904
X35.192Y-84.192
X35.192Y-102.48
X44.056Y-47.616
X44.056Y-65.904
X44.056Y-84.192
X44.056Y-102.48
X54.496Y-47.616
X54.496Y-65.904
X54.496Y-84.192
X54.496Y-102.48
X63.36Y-47.616
X63.36Y-65.904
X63.36Y-84.192
X63.36Y-102.48
X73.8Y-47.616
X73.8Y-65.904
X73.8Y-84.192
X73.8Y-102.48
X82.664Y-47.616
X82.664Y-65.904
X82.664Y-84.192
X82.664Y-102.48
X93.104Y-47.616
X93.104Y-65.904
X93.104Y-84.192
X93.104Y-102.48
X101.968Y-47.616
X101.968Y-65.904
X101.968Y-84.192
X101.968Y-102.48
X112.408Y-47.616
X112.408Y-65.904
X112.408Y-84.192
X112.408Y-102.48
X121.272Y-47.616
X121.272Y-65.904
X121.272Y-84.192
X121.272Y-102.48
X131.712Y-47.616
X131.712Y-65.904
X131.712Y-84.192
X131.712Y-102.48
T3
X24.472Y-51.816
X24.472Y-70.104
X24.472Y-88.392
X24.472Y-106.68
X35.472Y-51.816
X35.472Y-70.104
X35.472Y-88.392
X35.472Y-106.68
X43.776Y-51.816
X43.776Y-70.104
X43.776Y-88.392
X43.776Y-106.68
X54.776Y-51.816
X54.776Y-70.104
X54.776Y-88.392
X54.776Y-106.68
X63.08Y-51.816
X63.08Y-70.104
X63.08Y-88.392
X63.08Y-106.68
X74.08Y-51.816
X74.08Y-70.104
X74.08Y-88.392
X74.08Y-106.68
X82.384Y-51.816
X82.384Y-70.104
X82.384Y-88.392
X82.384Y-106.68
X93.384Y-51.816
X93.384Y-70.104
X93.384Y-88.392
X93.384Y-106.68
X101.688Y-51.816
X101.688Y-70.104
X101.688Y-88.392
X101.688Y-106.68
X112.688Y-51.816
X112.688Y-70.104
X112.688Y-88.392
X112.688Y-106.68
X120.992Y-51.816
X120.992Y-70.104
X120.992Y-88.392
X120.992Y-106.68
X131.992Y-51.816
X131.992Y-70.104
X131.992Y-88.392
X131.992Y-106.68
T4
X29.972Y-51.816
X29.972Y-70.104
X29.972Y-88.392
X29.972Y-106.68
X49.276Y-51.816
X49.276Y-70.104
X49.276Y-88.392
X49.276Y-106.68
X68.58Y-51.816
X68.58Y-70.104
X68.58Y-88.392
X68.58Y-106.68
X87.884Y-51.816
X87.884Y-70.104
X87.884Y-88.392
X87.884Y-106.68
X107.188Y-51.816
X107.188Y-70.104
X107.188Y-88.392
X107.188Y-106.68
X126.492Y-51.816
X126.492Y-70.104
X126.492Y-88.392
X126.492Y-106.68
T0
M30
