G04 #@! TF.FileFunction,Soldermask,Bot*
%FSLAX46Y46*%
G04 Gerber Fmt 4.6, Leading zero omitted, Abs format (unit mm)*
G04 Created by KiCad (PCBNEW 4.0.7) date 05/28/18 22:28:37*
%MOMM*%
%LPD*%
G01*
G04 APERTURE LIST*
%ADD10C,0.100000*%
%ADD11C,2.400000*%
%ADD12R,2.305000X2.305000*%
%ADD13C,2.305000*%
%ADD14C,2.051000*%
%ADD15R,2.051000X2.051000*%
%ADD16C,1.924000*%
%ADD17O,2.152600X2.457400*%
%ADD18C,2.152600*%
%ADD19C,1.390600*%
%ADD20R,2.000000X2.000000*%
%ADD21C,2.000000*%
%ADD22C,6.800000*%
G04 APERTURE END LIST*
D10*
D11*
X112188000Y-92192000D03*
D12*
X105918000Y-83592000D03*
D13*
X108458000Y-83592000D03*
D11*
X107188000Y-94292000D03*
X102188000Y-92192000D03*
D14*
X39624000Y-48006000D03*
D15*
X39624000Y-55626000D03*
D14*
X39624000Y-66294000D03*
D15*
X39624000Y-73914000D03*
D14*
X39624000Y-84582000D03*
D15*
X39624000Y-92202000D03*
D14*
X39624000Y-102870000D03*
D15*
X39624000Y-110490000D03*
D14*
X58928000Y-48006000D03*
D15*
X58928000Y-55626000D03*
D14*
X58928000Y-66294000D03*
D15*
X58928000Y-73914000D03*
D14*
X58928000Y-84582000D03*
D15*
X58928000Y-92202000D03*
D14*
X58928000Y-102870000D03*
D15*
X58928000Y-110490000D03*
D14*
X78232000Y-48006000D03*
D15*
X78232000Y-55626000D03*
D14*
X78232000Y-66294000D03*
D15*
X78232000Y-73914000D03*
D14*
X78232000Y-84582000D03*
D15*
X78232000Y-92202000D03*
D14*
X78232000Y-102870000D03*
D15*
X78232000Y-110490000D03*
D14*
X97536000Y-48006000D03*
D15*
X97536000Y-55626000D03*
D14*
X97536000Y-66294000D03*
D15*
X97536000Y-73914000D03*
D14*
X97536000Y-84582000D03*
D15*
X97536000Y-92202000D03*
D14*
X97536000Y-102870000D03*
D15*
X97536000Y-110490000D03*
D14*
X116840000Y-48006000D03*
D15*
X116840000Y-55626000D03*
D14*
X116840000Y-66294000D03*
D15*
X116840000Y-73914000D03*
D14*
X116840000Y-84582000D03*
D15*
X116840000Y-92202000D03*
D14*
X116840000Y-102870000D03*
D15*
X116840000Y-110490000D03*
D14*
X136652000Y-48006000D03*
D15*
X136652000Y-55626000D03*
D14*
X136144000Y-66294000D03*
D15*
X136144000Y-73914000D03*
D14*
X136144000Y-84582000D03*
D15*
X136144000Y-92202000D03*
D14*
X136144000Y-102870000D03*
D15*
X136144000Y-110490000D03*
D16*
X119338000Y-29962000D03*
X119358000Y-31972000D03*
X119338000Y-27962000D03*
D17*
X125831600Y-23799800D03*
D18*
X130835400Y-32054800D03*
X133934200Y-26847800D03*
D17*
X125831600Y-33096200D03*
D18*
X133934200Y-30048200D03*
X130835400Y-24841200D03*
D19*
X125831600Y-28448000D03*
X130835400Y-28448000D03*
D16*
X119338000Y-37074000D03*
X119358000Y-39084000D03*
X119338000Y-35074000D03*
D11*
X34972000Y-55616000D03*
D12*
X28702000Y-47016000D03*
D13*
X31242000Y-47016000D03*
D11*
X29972000Y-57716000D03*
X24972000Y-55616000D03*
X34972000Y-73904000D03*
D12*
X28702000Y-65304000D03*
D13*
X31242000Y-65304000D03*
D11*
X29972000Y-76004000D03*
X24972000Y-73904000D03*
X34972000Y-92192000D03*
D12*
X28702000Y-83592000D03*
D13*
X31242000Y-83592000D03*
D11*
X29972000Y-94292000D03*
X24972000Y-92192000D03*
X34972000Y-110480000D03*
D12*
X28702000Y-101880000D03*
D13*
X31242000Y-101880000D03*
D11*
X29972000Y-112580000D03*
X24972000Y-110480000D03*
X54276000Y-55616000D03*
D12*
X48006000Y-47016000D03*
D13*
X50546000Y-47016000D03*
D11*
X49276000Y-57716000D03*
X44276000Y-55616000D03*
X54276000Y-73904000D03*
D12*
X48006000Y-65304000D03*
D13*
X50546000Y-65304000D03*
D11*
X49276000Y-76004000D03*
X44276000Y-73904000D03*
X54276000Y-92192000D03*
D12*
X48006000Y-83592000D03*
D13*
X50546000Y-83592000D03*
D11*
X49276000Y-94292000D03*
X44276000Y-92192000D03*
X54276000Y-110480000D03*
D12*
X48006000Y-101880000D03*
D13*
X50546000Y-101880000D03*
D11*
X49276000Y-112580000D03*
X44276000Y-110480000D03*
X73580000Y-55616000D03*
D12*
X67310000Y-47016000D03*
D13*
X69850000Y-47016000D03*
D11*
X68580000Y-57716000D03*
X63580000Y-55616000D03*
X73580000Y-73904000D03*
D12*
X67310000Y-65304000D03*
D13*
X69850000Y-65304000D03*
D11*
X68580000Y-76004000D03*
X63580000Y-73904000D03*
X73580000Y-92192000D03*
D12*
X67310000Y-83592000D03*
D13*
X69850000Y-83592000D03*
D11*
X68580000Y-94292000D03*
X63580000Y-92192000D03*
X73580000Y-110480000D03*
D12*
X67310000Y-101880000D03*
D13*
X69850000Y-101880000D03*
D11*
X68580000Y-112580000D03*
X63580000Y-110480000D03*
X92884000Y-55616000D03*
D12*
X86614000Y-47016000D03*
D13*
X89154000Y-47016000D03*
D11*
X87884000Y-57716000D03*
X82884000Y-55616000D03*
X92884000Y-73904000D03*
D12*
X86614000Y-65304000D03*
D13*
X89154000Y-65304000D03*
D11*
X87884000Y-76004000D03*
X82884000Y-73904000D03*
X92884000Y-92192000D03*
D12*
X86614000Y-83592000D03*
D13*
X89154000Y-83592000D03*
D11*
X87884000Y-94292000D03*
X82884000Y-92192000D03*
X92884000Y-110480000D03*
D12*
X86614000Y-101880000D03*
D13*
X89154000Y-101880000D03*
D11*
X87884000Y-112580000D03*
X82884000Y-110480000D03*
X112188000Y-55616000D03*
D12*
X105918000Y-47016000D03*
D13*
X108458000Y-47016000D03*
D11*
X107188000Y-57716000D03*
X102188000Y-55616000D03*
X112188000Y-73904000D03*
D12*
X105918000Y-65304000D03*
D13*
X108458000Y-65304000D03*
D11*
X107188000Y-76004000D03*
X102188000Y-73904000D03*
X112188000Y-110480000D03*
D12*
X105918000Y-101880000D03*
D13*
X108458000Y-101880000D03*
D11*
X107188000Y-112580000D03*
X102188000Y-110480000D03*
X131492000Y-55616000D03*
D12*
X125222000Y-47016000D03*
D13*
X127762000Y-47016000D03*
D11*
X126492000Y-57716000D03*
X121492000Y-55616000D03*
X131492000Y-73904000D03*
D12*
X125222000Y-65304000D03*
D13*
X127762000Y-65304000D03*
D11*
X126492000Y-76004000D03*
X121492000Y-73904000D03*
X131492000Y-92192000D03*
D12*
X125222000Y-83592000D03*
D13*
X127762000Y-83592000D03*
D11*
X126492000Y-94292000D03*
X121492000Y-92192000D03*
X131492000Y-110480000D03*
D12*
X125222000Y-101880000D03*
D13*
X127762000Y-101880000D03*
D11*
X126492000Y-112580000D03*
X121492000Y-110480000D03*
D20*
X87630000Y-40640000D03*
D21*
X90170000Y-40640000D03*
X92710000Y-40640000D03*
X95250000Y-40640000D03*
X97790000Y-40640000D03*
X100330000Y-40640000D03*
X102870000Y-40640000D03*
X105410000Y-40640000D03*
X107950000Y-40640000D03*
X110490000Y-40640000D03*
X113030000Y-40640000D03*
X115570000Y-40640000D03*
X115570000Y-25400000D03*
X113030000Y-25400000D03*
X110490000Y-25400000D03*
X107950000Y-25400000D03*
X105410000Y-25400000D03*
X102870000Y-25400000D03*
X100330000Y-25400000D03*
X97790000Y-25400000D03*
X95250000Y-25400000D03*
X92710000Y-25400000D03*
X90170000Y-25400000D03*
X87630000Y-25400000D03*
D22*
X116840000Y-97536000D03*
X116840000Y-60960000D03*
X39624000Y-97536000D03*
X130048000Y-38608000D03*
X78232000Y-97536000D03*
X39624000Y-60960000D03*
X78232000Y-60960000D03*
M02*
